M48
; DRILL file {KiCad 7.0.6} date Mon Jun 10 15:38:21 2024
; FORMAT={-:-/ absolute / metric / decimal}
; #@! TF.CreationDate,2024-06-10T15:38:21+10:00
; #@! TF.GenerationSoftware,Kicad,Pcbnew,7.0.6
; #@! TF.FileFunction,Plated,1,2,PTH
FMAT,2
METRIC
; #@! TA.AperFunction,Plated,PTH,ViaDrill
T1C0.400
; #@! TA.AperFunction,Plated,PTH,ComponentDrill
T2C0.740
; #@! TA.AperFunction,Plated,PTH,ViaDrill
T3C0.800
; #@! TA.AperFunction,Plated,PTH,ComponentDrill
T4C1.000
; #@! TA.AperFunction,Plated,PTH,ComponentDrill
T5C1.016
; #@! TA.AperFunction,Plated,PTH,ComponentDrill
T6C1.020
; #@! TA.AperFunction,Plated,PTH,ComponentDrill
T7C1.200
%
G90
G05
T1
X91.64Y-83.79
X132.18Y-82.2
X137.7Y-82.19
T2
X156.78Y-86.62
X156.78Y-89.16
X156.78Y-91.7
X156.78Y-94.24
X156.78Y-96.78
X156.78Y-99.32
X156.78Y-101.86
X164.72Y-86.62
X164.72Y-89.16
X164.72Y-91.7
X164.72Y-94.24
X164.72Y-96.78
X164.72Y-99.32
X164.72Y-101.86
T3
X116.59Y-105.7
X119.74Y-98.24
T4
X150.67Y-123.39
X150.67Y-125.93
T5
X115.04Y-126.27
X117.58Y-126.27
X120.12Y-126.27
X122.66Y-126.27
T6
X79.3Y-92.18
X79.3Y-117.58
X81.84Y-92.18
X81.84Y-117.58
X84.38Y-92.18
X84.38Y-117.58
X86.92Y-92.18
X86.92Y-117.58
X89.46Y-92.18
X89.46Y-117.58
X92.0Y-92.18
X92.0Y-117.58
X94.54Y-92.18
X94.54Y-117.58
X97.08Y-92.18
X97.08Y-117.58
X99.62Y-92.18
X99.62Y-117.58
X102.16Y-92.18
X102.16Y-117.58
X104.7Y-92.18
X104.7Y-117.58
X107.24Y-92.18
X107.24Y-117.58
X109.78Y-92.18
X109.78Y-117.58
X112.32Y-92.18
X112.32Y-117.58
X114.86Y-92.18
X114.86Y-117.58
X117.4Y-92.18
X117.4Y-117.58
X119.94Y-92.18
X119.94Y-117.58
X122.48Y-92.18
X122.48Y-117.58
X125.02Y-92.18
X125.02Y-117.58
X127.56Y-92.18
X127.56Y-117.58
T7
X79.67Y-74.35
X83.17Y-74.35
X91.015Y-74.35
X94.515Y-74.35
X102.36Y-74.38
X105.86Y-74.38
X113.705Y-74.35
X117.205Y-74.35
X125.05Y-74.35
X128.55Y-74.35
X136.395Y-74.45
X139.895Y-74.45
X147.74Y-74.35
X151.24Y-74.35
X158.0Y-121.97
X159.085Y-74.25
X161.5Y-121.97
X162.585Y-74.25
X165.0Y-121.97
X170.43Y-74.35
X173.93Y-74.35
T0
M30
