G04 #@! TF.GenerationSoftware,KiCad,Pcbnew,7.0.6*
G04 #@! TF.CreationDate,2024-06-10T15:38:19+10:00*
G04 #@! TF.ProjectId,AnalogVoltMeterClock,416e616c-6f67-4566-9f6c-744d65746572,rev?*
G04 #@! TF.SameCoordinates,Original*
G04 #@! TF.FileFunction,Soldermask,Bot*
G04 #@! TF.FilePolarity,Negative*
%FSLAX46Y46*%
G04 Gerber Fmt 4.6, Leading zero omitted, Abs format (unit mm)*
G04 Created by KiCad (PCBNEW 7.0.6) date 2024-06-10 15:38:19*
%MOMM*%
%LPD*%
G01*
G04 APERTURE LIST*
G04 Aperture macros list*
%AMRoundRect*
0 Rectangle with rounded corners*
0 $1 Rounding radius*
0 $2 $3 $4 $5 $6 $7 $8 $9 X,Y pos of 4 corners*
0 Add a 4 corners polygon primitive as box body*
4,1,4,$2,$3,$4,$5,$6,$7,$8,$9,$2,$3,0*
0 Add four circle primitives for the rounded corners*
1,1,$1+$1,$2,$3*
1,1,$1+$1,$4,$5*
1,1,$1+$1,$6,$7*
1,1,$1+$1,$8,$9*
0 Add four rect primitives between the rounded corners*
20,1,$1+$1,$2,$3,$4,$5,0*
20,1,$1+$1,$4,$5,$6,$7,0*
20,1,$1+$1,$6,$7,$8,$9,0*
20,1,$1+$1,$8,$9,$2,$3,0*%
G04 Aperture macros list end*
%ADD10RoundRect,0.102000X-1.000000X1.000000X-1.000000X-1.000000X1.000000X-1.000000X1.000000X1.000000X0*%
%ADD11RoundRect,0.102000X0.570000X0.570000X-0.570000X0.570000X-0.570000X-0.570000X0.570000X-0.570000X0*%
%ADD12C,1.344000*%
%ADD13R,1.700000X1.700000*%
%ADD14O,1.700000X1.700000*%
%ADD15RoundRect,0.101600X-1.016000X-1.016000X1.016000X-1.016000X1.016000X1.016000X-1.016000X1.016000X0*%
%ADD16C,2.235200*%
%ADD17C,3.000000*%
%ADD18O,0.300000X0.800000*%
%ADD19RoundRect,0.101600X-1.206500X-1.206500X1.206500X-1.206500X1.206500X1.206500X-1.206500X1.206500X0*%
%ADD20C,2.616200*%
%ADD21C,2.082800*%
%ADD22R,1.000000X1.500000*%
%ADD23R,1.500000X1.000000*%
G04 APERTURE END LIST*
D10*
X127560000Y-92180000D03*
X125020000Y-92180000D03*
X122480000Y-92180000D03*
X119940000Y-92180000D03*
X117400000Y-92180000D03*
X114860000Y-92180000D03*
X112320000Y-92180000D03*
X109780000Y-92180000D03*
X107240000Y-92180000D03*
X104700000Y-92180000D03*
X102160000Y-92180000D03*
X99620000Y-92180000D03*
X97080000Y-92180000D03*
X94540000Y-92180000D03*
X92000000Y-92180000D03*
X89460000Y-92180000D03*
X86920000Y-92180000D03*
X84380000Y-92180000D03*
X81840000Y-92180000D03*
X79300000Y-92180000D03*
X79300000Y-117580000D03*
X81840000Y-117580000D03*
X84380000Y-117580000D03*
X86920000Y-117580000D03*
X89460000Y-117580000D03*
X92000000Y-117580000D03*
X94540000Y-117580000D03*
X97080000Y-117580000D03*
X99620000Y-117580000D03*
X102160000Y-117580000D03*
X104700000Y-117580000D03*
X107240000Y-117580000D03*
X109780000Y-117580000D03*
X112320000Y-117580000D03*
X114860000Y-117580000D03*
X117400000Y-117580000D03*
X119940000Y-117580000D03*
X122480000Y-117580000D03*
X125020000Y-117580000D03*
X127560000Y-117580000D03*
D11*
X164720000Y-101860000D03*
D12*
X164720000Y-99320000D03*
X164720000Y-96780000D03*
X164720000Y-94240000D03*
X164720000Y-91700000D03*
X164720000Y-89160000D03*
X164720000Y-86620000D03*
X156780000Y-86620000D03*
X156780000Y-89160000D03*
X156780000Y-91700000D03*
X156780000Y-94240000D03*
X156780000Y-96780000D03*
X156780000Y-99320000D03*
X156780000Y-101860000D03*
D13*
X150670000Y-123390000D03*
D14*
X150670000Y-125930000D03*
D15*
X147740000Y-74350000D03*
D16*
X151240000Y-74350000D03*
D15*
X79670000Y-74350000D03*
D16*
X83170000Y-74350000D03*
D15*
X113705000Y-74350000D03*
D16*
X117205000Y-74350000D03*
D15*
X159085000Y-74250000D03*
D16*
X162585000Y-74250000D03*
D17*
X173000000Y-125850000D03*
D15*
X125050000Y-74350000D03*
D16*
X128550000Y-74350000D03*
D18*
X135330000Y-127350000D03*
X135345000Y-123562500D03*
X143795000Y-123562500D03*
X143810000Y-127350000D03*
D15*
X91015000Y-74350000D03*
D16*
X94515000Y-74350000D03*
D19*
X158000000Y-121970000D03*
D20*
X161500000Y-121970000D03*
X165000000Y-121970000D03*
D15*
X136395000Y-74450000D03*
D16*
X139895000Y-74450000D03*
D21*
X122660000Y-126270000D03*
X120120000Y-126270000D03*
X117580000Y-126270000D03*
X115040000Y-126270000D03*
D15*
X170430000Y-74350000D03*
D16*
X173930000Y-74350000D03*
D17*
X81000000Y-125850000D03*
D15*
X102360000Y-74380000D03*
D16*
X105860000Y-74380000D03*
D22*
X161680000Y-102090000D03*
X160380000Y-102090000D03*
X159080000Y-102090000D03*
X163570000Y-82910000D03*
X164870000Y-82910000D03*
X166170000Y-82910000D03*
D23*
X146630000Y-91590000D03*
X146630000Y-92890000D03*
X146630000Y-94190000D03*
X173770000Y-99330000D03*
X173770000Y-100630000D03*
X173770000Y-101930000D03*
X169200000Y-94048600D03*
X169200000Y-92748600D03*
X169200000Y-91448600D03*
X152070000Y-95470000D03*
X152070000Y-94170000D03*
X152070000Y-92870000D03*
M02*
