G04 #@! TF.GenerationSoftware,KiCad,Pcbnew,7.0.6*
G04 #@! TF.CreationDate,2024-06-10T15:38:19+10:00*
G04 #@! TF.ProjectId,AnalogVoltMeterClock,416e616c-6f67-4566-9f6c-744d65746572,rev?*
G04 #@! TF.SameCoordinates,Original*
G04 #@! TF.FileFunction,Soldermask,Top*
G04 #@! TF.FilePolarity,Negative*
%FSLAX46Y46*%
G04 Gerber Fmt 4.6, Leading zero omitted, Abs format (unit mm)*
G04 Created by KiCad (PCBNEW 7.0.6) date 2024-06-10 15:38:19*
%MOMM*%
%LPD*%
G01*
G04 APERTURE LIST*
G04 Aperture macros list*
%AMRoundRect*
0 Rectangle with rounded corners*
0 $1 Rounding radius*
0 $2 $3 $4 $5 $6 $7 $8 $9 X,Y pos of 4 corners*
0 Add a 4 corners polygon primitive as box body*
4,1,4,$2,$3,$4,$5,$6,$7,$8,$9,$2,$3,0*
0 Add four circle primitives for the rounded corners*
1,1,$1+$1,$2,$3*
1,1,$1+$1,$4,$5*
1,1,$1+$1,$6,$7*
1,1,$1+$1,$8,$9*
0 Add four rect primitives between the rounded corners*
20,1,$1+$1,$2,$3,$4,$5,0*
20,1,$1+$1,$4,$5,$6,$7,0*
20,1,$1+$1,$6,$7,$8,$9,0*
20,1,$1+$1,$8,$9,$2,$3,0*%
G04 Aperture macros list end*
%ADD10RoundRect,0.102000X-1.000000X1.000000X-1.000000X-1.000000X1.000000X-1.000000X1.000000X1.000000X0*%
%ADD11RoundRect,0.102000X0.570000X0.570000X-0.570000X0.570000X-0.570000X-0.570000X0.570000X-0.570000X0*%
%ADD12C,1.344000*%
%ADD13R,2.000000X2.000000*%
%ADD14R,1.700000X1.700000*%
%ADD15O,1.700000X1.700000*%
%ADD16RoundRect,0.101600X-1.016000X-1.016000X1.016000X-1.016000X1.016000X1.016000X-1.016000X1.016000X0*%
%ADD17C,2.235200*%
%ADD18C,3.000000*%
%ADD19O,0.300000X0.800000*%
%ADD20R,0.700000X1.200000*%
%ADD21R,0.760000X1.200000*%
%ADD22R,0.800000X1.200000*%
%ADD23R,0.725000X1.350000*%
%ADD24R,0.715000X1.500000*%
%ADD25R,0.705000X1.500000*%
%ADD26R,0.715000X1.350000*%
%ADD27RoundRect,0.101600X-1.206500X-1.206500X1.206500X-1.206500X1.206500X1.206500X-1.206500X1.206500X0*%
%ADD28C,2.616200*%
%ADD29C,2.082800*%
G04 APERTURE END LIST*
D10*
X127560000Y-92180000D03*
X125020000Y-92180000D03*
X122480000Y-92180000D03*
X119940000Y-92180000D03*
X117400000Y-92180000D03*
X114860000Y-92180000D03*
X112320000Y-92180000D03*
X109780000Y-92180000D03*
X107240000Y-92180000D03*
X104700000Y-92180000D03*
X102160000Y-92180000D03*
X99620000Y-92180000D03*
X97080000Y-92180000D03*
X94540000Y-92180000D03*
X92000000Y-92180000D03*
X89460000Y-92180000D03*
X86920000Y-92180000D03*
X84380000Y-92180000D03*
X81840000Y-92180000D03*
X79300000Y-92180000D03*
X79300000Y-117580000D03*
X81840000Y-117580000D03*
X84380000Y-117580000D03*
X86920000Y-117580000D03*
X89460000Y-117580000D03*
X92000000Y-117580000D03*
X94540000Y-117580000D03*
X97080000Y-117580000D03*
X99620000Y-117580000D03*
X102160000Y-117580000D03*
X104700000Y-117580000D03*
X107240000Y-117580000D03*
X109780000Y-117580000D03*
X112320000Y-117580000D03*
X114860000Y-117580000D03*
X117400000Y-117580000D03*
X119940000Y-117580000D03*
X122480000Y-117580000D03*
X125020000Y-117580000D03*
X127560000Y-117580000D03*
D11*
X164720000Y-101860000D03*
D12*
X164720000Y-99320000D03*
X164720000Y-96780000D03*
X164720000Y-94240000D03*
X164720000Y-91700000D03*
X164720000Y-89160000D03*
X164720000Y-86620000D03*
X156780000Y-86620000D03*
X156780000Y-89160000D03*
X156780000Y-91700000D03*
X156780000Y-94240000D03*
X156780000Y-96780000D03*
X156780000Y-99320000D03*
X156780000Y-101860000D03*
D13*
X139030000Y-117590000D03*
D14*
X150670000Y-123390000D03*
D15*
X150670000Y-125930000D03*
D16*
X147740000Y-74350000D03*
D17*
X151240000Y-74350000D03*
D16*
X79670000Y-74350000D03*
D17*
X83170000Y-74350000D03*
D16*
X113705000Y-74350000D03*
D17*
X117205000Y-74350000D03*
D16*
X159085000Y-74250000D03*
D17*
X162585000Y-74250000D03*
D18*
X173000000Y-125850000D03*
D16*
X125050000Y-74350000D03*
D17*
X128550000Y-74350000D03*
D13*
X97620000Y-124730000D03*
D19*
X135330000Y-127350000D03*
X135345000Y-123562500D03*
X143795000Y-123562500D03*
X143810000Y-127350000D03*
D20*
X139070000Y-123507500D03*
D21*
X141090000Y-123507500D03*
D22*
X142320000Y-123507500D03*
D20*
X140070000Y-123507500D03*
D21*
X138050000Y-123507500D03*
D22*
X136820000Y-123507500D03*
D23*
X134982500Y-123562500D03*
D24*
X134987500Y-127142500D03*
D25*
X144147500Y-127142500D03*
D26*
X144152500Y-123562500D03*
D16*
X91015000Y-74350000D03*
D17*
X94515000Y-74350000D03*
D27*
X158000000Y-121970000D03*
D28*
X161500000Y-121970000D03*
X165000000Y-121970000D03*
D16*
X136395000Y-74450000D03*
D17*
X139895000Y-74450000D03*
D29*
X122660000Y-126270000D03*
X120120000Y-126270000D03*
X117580000Y-126270000D03*
X115040000Y-126270000D03*
D16*
X170430000Y-74350000D03*
D17*
X173930000Y-74350000D03*
D18*
X81000000Y-125850000D03*
D16*
X102360000Y-74380000D03*
D17*
X105860000Y-74380000D03*
D13*
X143060000Y-103250000D03*
M02*
