%TF.GenerationSoftware,KiCad,Pcbnew,7.0.6*%
%TF.CreationDate,2024-06-10T15:38:22+10:00*%
%TF.ProjectId,AnalogVoltMeterClock,416e616c-6f67-4566-9f6c-744d65746572,rev?*%
%TF.SameCoordinates,Original*%
%TF.FileFunction,Drillmap*%
%TF.FilePolarity,Positive*%
%FSLAX45Y45*%
G04 Gerber Fmt 4.5, Leading zero omitted, Abs format (unit mm)*
G04 Created by KiCad (PCBNEW 7.0.6) date 2024-06-10 15:38:22*
%MOMM*%
%LPD*%
G01*
G04 APERTURE LIST*
%ADD10C,0.100000*%
%ADD11C,0.200000*%
%ADD12C,0.040000*%
%ADD13C,0.074000*%
%ADD14C,0.080000*%
%ADD15C,0.101600*%
%ADD16C,0.102000*%
%ADD17C,0.120000*%
G04 APERTURE END LIST*
D10*
X7700000Y-7000000D02*
X17700000Y-7000000D01*
X7700000Y-13000000D02*
X17700000Y-13000000D01*
X7700000Y-7000000D02*
X7700000Y-13000000D01*
X17700000Y-7000000D02*
X17700000Y-13000000D01*
D11*
D12*
X9144000Y-8359000D02*
X9184000Y-8399000D01*
X9184000Y-8359000D02*
X9144000Y-8399000D01*
X13198000Y-8200000D02*
X13238000Y-8240000D01*
X13238000Y-8200000D02*
X13198000Y-8240000D01*
X13750000Y-8199000D02*
X13790000Y-8239000D01*
X13790000Y-8199000D02*
X13750000Y-8239000D01*
D13*
X15715000Y-8662000D02*
G75*
G03*
X15715000Y-8662000I-37000J0D01*
G01*
X15715000Y-8916000D02*
G75*
G03*
X15715000Y-8916000I-37000J0D01*
G01*
X15715000Y-9170000D02*
G75*
G03*
X15715000Y-9170000I-37000J0D01*
G01*
X15715000Y-9424000D02*
G75*
G03*
X15715000Y-9424000I-37000J0D01*
G01*
X15715000Y-9678000D02*
G75*
G03*
X15715000Y-9678000I-37000J0D01*
G01*
X15715000Y-9932000D02*
G75*
G03*
X15715000Y-9932000I-37000J0D01*
G01*
X15715000Y-10186000D02*
G75*
G03*
X15715000Y-10186000I-37000J0D01*
G01*
X16509000Y-8662000D02*
G75*
G03*
X16509000Y-8662000I-37000J0D01*
G01*
X16509000Y-8916000D02*
G75*
G03*
X16509000Y-8916000I-37000J0D01*
G01*
X16509000Y-9170000D02*
G75*
G03*
X16509000Y-9170000I-37000J0D01*
G01*
X16509000Y-9424000D02*
G75*
G03*
X16509000Y-9424000I-37000J0D01*
G01*
X16509000Y-9678000D02*
G75*
G03*
X16509000Y-9678000I-37000J0D01*
G01*
X16509000Y-9932000D02*
G75*
G03*
X16509000Y-9932000I-37000J0D01*
G01*
X16509000Y-10186000D02*
G75*
G03*
X16509000Y-10186000I-37000J0D01*
G01*
D14*
X11659000Y-10530000D02*
X11659000Y-10610000D01*
X11619000Y-10570000D02*
X11699000Y-10570000D01*
X11974000Y-9784000D02*
X11974000Y-9864000D01*
X11934000Y-9824000D02*
X12014000Y-9824000D01*
D10*
X15102356Y-12374356D02*
X15102356Y-12303644D01*
X15031644Y-12303644D01*
X15031644Y-12374356D01*
X15102356Y-12374356D01*
X15102356Y-12628356D02*
X15102356Y-12557644D01*
X15031644Y-12557644D01*
X15031644Y-12628356D01*
X15102356Y-12628356D01*
D15*
X11504000Y-12677800D02*
X11554800Y-12627000D01*
X11504000Y-12576200D01*
X11453200Y-12627000D01*
X11504000Y-12677800D01*
X11758000Y-12677800D02*
X11808800Y-12627000D01*
X11758000Y-12576200D01*
X11707200Y-12627000D01*
X11758000Y-12677800D01*
X12012000Y-12677800D02*
X12062800Y-12627000D01*
X12012000Y-12576200D01*
X11961200Y-12627000D01*
X12012000Y-12677800D01*
X12266000Y-12677800D02*
X12316800Y-12627000D01*
X12266000Y-12576200D01*
X12215200Y-12627000D01*
X12266000Y-12677800D01*
D16*
X7879000Y-9167000D02*
X7981000Y-9269000D01*
X7981000Y-9167000D02*
X7879000Y-9269000D01*
X7981000Y-9218000D02*
G75*
G03*
X7981000Y-9218000I-51000J0D01*
G01*
X7879000Y-11707000D02*
X7981000Y-11809000D01*
X7981000Y-11707000D02*
X7879000Y-11809000D01*
X7981000Y-11758000D02*
G75*
G03*
X7981000Y-11758000I-51000J0D01*
G01*
X8133000Y-9167000D02*
X8235000Y-9269000D01*
X8235000Y-9167000D02*
X8133000Y-9269000D01*
X8235000Y-9218000D02*
G75*
G03*
X8235000Y-9218000I-51000J0D01*
G01*
X8133000Y-11707000D02*
X8235000Y-11809000D01*
X8235000Y-11707000D02*
X8133000Y-11809000D01*
X8235000Y-11758000D02*
G75*
G03*
X8235000Y-11758000I-51000J0D01*
G01*
X8387000Y-9167000D02*
X8489000Y-9269000D01*
X8489000Y-9167000D02*
X8387000Y-9269000D01*
X8489000Y-9218000D02*
G75*
G03*
X8489000Y-9218000I-51000J0D01*
G01*
X8387000Y-11707000D02*
X8489000Y-11809000D01*
X8489000Y-11707000D02*
X8387000Y-11809000D01*
X8489000Y-11758000D02*
G75*
G03*
X8489000Y-11758000I-51000J0D01*
G01*
X8641000Y-9167000D02*
X8743000Y-9269000D01*
X8743000Y-9167000D02*
X8641000Y-9269000D01*
X8743000Y-9218000D02*
G75*
G03*
X8743000Y-9218000I-51000J0D01*
G01*
X8641000Y-11707000D02*
X8743000Y-11809000D01*
X8743000Y-11707000D02*
X8641000Y-11809000D01*
X8743000Y-11758000D02*
G75*
G03*
X8743000Y-11758000I-51000J0D01*
G01*
X8895000Y-9167000D02*
X8997000Y-9269000D01*
X8997000Y-9167000D02*
X8895000Y-9269000D01*
X8997000Y-9218000D02*
G75*
G03*
X8997000Y-9218000I-51000J0D01*
G01*
X8895000Y-11707000D02*
X8997000Y-11809000D01*
X8997000Y-11707000D02*
X8895000Y-11809000D01*
X8997000Y-11758000D02*
G75*
G03*
X8997000Y-11758000I-51000J0D01*
G01*
X9149000Y-9167000D02*
X9251000Y-9269000D01*
X9251000Y-9167000D02*
X9149000Y-9269000D01*
X9251000Y-9218000D02*
G75*
G03*
X9251000Y-9218000I-51000J0D01*
G01*
X9149000Y-11707000D02*
X9251000Y-11809000D01*
X9251000Y-11707000D02*
X9149000Y-11809000D01*
X9251000Y-11758000D02*
G75*
G03*
X9251000Y-11758000I-51000J0D01*
G01*
X9403000Y-9167000D02*
X9505000Y-9269000D01*
X9505000Y-9167000D02*
X9403000Y-9269000D01*
X9505000Y-9218000D02*
G75*
G03*
X9505000Y-9218000I-51000J0D01*
G01*
X9403000Y-11707000D02*
X9505000Y-11809000D01*
X9505000Y-11707000D02*
X9403000Y-11809000D01*
X9505000Y-11758000D02*
G75*
G03*
X9505000Y-11758000I-51000J0D01*
G01*
X9657000Y-9167000D02*
X9759000Y-9269000D01*
X9759000Y-9167000D02*
X9657000Y-9269000D01*
X9759000Y-9218000D02*
G75*
G03*
X9759000Y-9218000I-51000J0D01*
G01*
X9657000Y-11707000D02*
X9759000Y-11809000D01*
X9759000Y-11707000D02*
X9657000Y-11809000D01*
X9759000Y-11758000D02*
G75*
G03*
X9759000Y-11758000I-51000J0D01*
G01*
X9911000Y-9167000D02*
X10013000Y-9269000D01*
X10013000Y-9167000D02*
X9911000Y-9269000D01*
X10013000Y-9218000D02*
G75*
G03*
X10013000Y-9218000I-51000J0D01*
G01*
X9911000Y-11707000D02*
X10013000Y-11809000D01*
X10013000Y-11707000D02*
X9911000Y-11809000D01*
X10013000Y-11758000D02*
G75*
G03*
X10013000Y-11758000I-51000J0D01*
G01*
X10165000Y-9167000D02*
X10267000Y-9269000D01*
X10267000Y-9167000D02*
X10165000Y-9269000D01*
X10267000Y-9218000D02*
G75*
G03*
X10267000Y-9218000I-51000J0D01*
G01*
X10165000Y-11707000D02*
X10267000Y-11809000D01*
X10267000Y-11707000D02*
X10165000Y-11809000D01*
X10267000Y-11758000D02*
G75*
G03*
X10267000Y-11758000I-51000J0D01*
G01*
X10419000Y-9167000D02*
X10521000Y-9269000D01*
X10521000Y-9167000D02*
X10419000Y-9269000D01*
X10521000Y-9218000D02*
G75*
G03*
X10521000Y-9218000I-51000J0D01*
G01*
X10419000Y-11707000D02*
X10521000Y-11809000D01*
X10521000Y-11707000D02*
X10419000Y-11809000D01*
X10521000Y-11758000D02*
G75*
G03*
X10521000Y-11758000I-51000J0D01*
G01*
X10673000Y-9167000D02*
X10775000Y-9269000D01*
X10775000Y-9167000D02*
X10673000Y-9269000D01*
X10775000Y-9218000D02*
G75*
G03*
X10775000Y-9218000I-51000J0D01*
G01*
X10673000Y-11707000D02*
X10775000Y-11809000D01*
X10775000Y-11707000D02*
X10673000Y-11809000D01*
X10775000Y-11758000D02*
G75*
G03*
X10775000Y-11758000I-51000J0D01*
G01*
X10927000Y-9167000D02*
X11029000Y-9269000D01*
X11029000Y-9167000D02*
X10927000Y-9269000D01*
X11029000Y-9218000D02*
G75*
G03*
X11029000Y-9218000I-51000J0D01*
G01*
X10927000Y-11707000D02*
X11029000Y-11809000D01*
X11029000Y-11707000D02*
X10927000Y-11809000D01*
X11029000Y-11758000D02*
G75*
G03*
X11029000Y-11758000I-51000J0D01*
G01*
X11181000Y-9167000D02*
X11283000Y-9269000D01*
X11283000Y-9167000D02*
X11181000Y-9269000D01*
X11283000Y-9218000D02*
G75*
G03*
X11283000Y-9218000I-51000J0D01*
G01*
X11181000Y-11707000D02*
X11283000Y-11809000D01*
X11283000Y-11707000D02*
X11181000Y-11809000D01*
X11283000Y-11758000D02*
G75*
G03*
X11283000Y-11758000I-51000J0D01*
G01*
X11435000Y-9167000D02*
X11537000Y-9269000D01*
X11537000Y-9167000D02*
X11435000Y-9269000D01*
X11537000Y-9218000D02*
G75*
G03*
X11537000Y-9218000I-51000J0D01*
G01*
X11435000Y-11707000D02*
X11537000Y-11809000D01*
X11537000Y-11707000D02*
X11435000Y-11809000D01*
X11537000Y-11758000D02*
G75*
G03*
X11537000Y-11758000I-51000J0D01*
G01*
X11689000Y-9167000D02*
X11791000Y-9269000D01*
X11791000Y-9167000D02*
X11689000Y-9269000D01*
X11791000Y-9218000D02*
G75*
G03*
X11791000Y-9218000I-51000J0D01*
G01*
X11689000Y-11707000D02*
X11791000Y-11809000D01*
X11791000Y-11707000D02*
X11689000Y-11809000D01*
X11791000Y-11758000D02*
G75*
G03*
X11791000Y-11758000I-51000J0D01*
G01*
X11943000Y-9167000D02*
X12045000Y-9269000D01*
X12045000Y-9167000D02*
X11943000Y-9269000D01*
X12045000Y-9218000D02*
G75*
G03*
X12045000Y-9218000I-51000J0D01*
G01*
X11943000Y-11707000D02*
X12045000Y-11809000D01*
X12045000Y-11707000D02*
X11943000Y-11809000D01*
X12045000Y-11758000D02*
G75*
G03*
X12045000Y-11758000I-51000J0D01*
G01*
X12197000Y-9167000D02*
X12299000Y-9269000D01*
X12299000Y-9167000D02*
X12197000Y-9269000D01*
X12299000Y-9218000D02*
G75*
G03*
X12299000Y-9218000I-51000J0D01*
G01*
X12197000Y-11707000D02*
X12299000Y-11809000D01*
X12299000Y-11707000D02*
X12197000Y-11809000D01*
X12299000Y-11758000D02*
G75*
G03*
X12299000Y-11758000I-51000J0D01*
G01*
X12451000Y-9167000D02*
X12553000Y-9269000D01*
X12553000Y-9167000D02*
X12451000Y-9269000D01*
X12553000Y-9218000D02*
G75*
G03*
X12553000Y-9218000I-51000J0D01*
G01*
X12451000Y-11707000D02*
X12553000Y-11809000D01*
X12553000Y-11707000D02*
X12451000Y-11809000D01*
X12553000Y-11758000D02*
G75*
G03*
X12553000Y-11758000I-51000J0D01*
G01*
X12705000Y-9167000D02*
X12807000Y-9269000D01*
X12807000Y-9167000D02*
X12705000Y-9269000D01*
X12807000Y-9218000D02*
G75*
G03*
X12807000Y-9218000I-51000J0D01*
G01*
X12705000Y-11707000D02*
X12807000Y-11809000D01*
X12807000Y-11707000D02*
X12705000Y-11809000D01*
X12807000Y-11758000D02*
G75*
G03*
X12807000Y-11758000I-51000J0D01*
G01*
D17*
X7907000Y-7375000D02*
X8027000Y-7495000D01*
X8027000Y-7375000D02*
X7907000Y-7495000D01*
X7967000Y-7375000D02*
X7967000Y-7495000D01*
X7907000Y-7435000D02*
X8027000Y-7435000D01*
X8257000Y-7375000D02*
X8377000Y-7495000D01*
X8377000Y-7375000D02*
X8257000Y-7495000D01*
X8317000Y-7375000D02*
X8317000Y-7495000D01*
X8257000Y-7435000D02*
X8377000Y-7435000D01*
X9041500Y-7375000D02*
X9161500Y-7495000D01*
X9161500Y-7375000D02*
X9041500Y-7495000D01*
X9101500Y-7375000D02*
X9101500Y-7495000D01*
X9041500Y-7435000D02*
X9161500Y-7435000D01*
X9391500Y-7375000D02*
X9511500Y-7495000D01*
X9511500Y-7375000D02*
X9391500Y-7495000D01*
X9451500Y-7375000D02*
X9451500Y-7495000D01*
X9391500Y-7435000D02*
X9511500Y-7435000D01*
X10176000Y-7378000D02*
X10296000Y-7498000D01*
X10296000Y-7378000D02*
X10176000Y-7498000D01*
X10236000Y-7378000D02*
X10236000Y-7498000D01*
X10176000Y-7438000D02*
X10296000Y-7438000D01*
X10526000Y-7378000D02*
X10646000Y-7498000D01*
X10646000Y-7378000D02*
X10526000Y-7498000D01*
X10586000Y-7378000D02*
X10586000Y-7498000D01*
X10526000Y-7438000D02*
X10646000Y-7438000D01*
X11310500Y-7375000D02*
X11430500Y-7495000D01*
X11430500Y-7375000D02*
X11310500Y-7495000D01*
X11370500Y-7375000D02*
X11370500Y-7495000D01*
X11310500Y-7435000D02*
X11430500Y-7435000D01*
X11660500Y-7375000D02*
X11780500Y-7495000D01*
X11780500Y-7375000D02*
X11660500Y-7495000D01*
X11720500Y-7375000D02*
X11720500Y-7495000D01*
X11660500Y-7435000D02*
X11780500Y-7435000D01*
X12445000Y-7375000D02*
X12565000Y-7495000D01*
X12565000Y-7375000D02*
X12445000Y-7495000D01*
X12505000Y-7375000D02*
X12505000Y-7495000D01*
X12445000Y-7435000D02*
X12565000Y-7435000D01*
X12795000Y-7375000D02*
X12915000Y-7495000D01*
X12915000Y-7375000D02*
X12795000Y-7495000D01*
X12855000Y-7375000D02*
X12855000Y-7495000D01*
X12795000Y-7435000D02*
X12915000Y-7435000D01*
X13579500Y-7385000D02*
X13699500Y-7505000D01*
X13699500Y-7385000D02*
X13579500Y-7505000D01*
X13639500Y-7385000D02*
X13639500Y-7505000D01*
X13579500Y-7445000D02*
X13699500Y-7445000D01*
X13929500Y-7385000D02*
X14049500Y-7505000D01*
X14049500Y-7385000D02*
X13929500Y-7505000D01*
X13989500Y-7385000D02*
X13989500Y-7505000D01*
X13929500Y-7445000D02*
X14049500Y-7445000D01*
X14714000Y-7375000D02*
X14834000Y-7495000D01*
X14834000Y-7375000D02*
X14714000Y-7495000D01*
X14774000Y-7375000D02*
X14774000Y-7495000D01*
X14714000Y-7435000D02*
X14834000Y-7435000D01*
X15064000Y-7375000D02*
X15184000Y-7495000D01*
X15184000Y-7375000D02*
X15064000Y-7495000D01*
X15124000Y-7375000D02*
X15124000Y-7495000D01*
X15064000Y-7435000D02*
X15184000Y-7435000D01*
X15740000Y-12137000D02*
X15860000Y-12257000D01*
X15860000Y-12137000D02*
X15740000Y-12257000D01*
X15800000Y-12137000D02*
X15800000Y-12257000D01*
X15740000Y-12197000D02*
X15860000Y-12197000D01*
X15848500Y-7365000D02*
X15968500Y-7485000D01*
X15968500Y-7365000D02*
X15848500Y-7485000D01*
X15908500Y-7365000D02*
X15908500Y-7485000D01*
X15848500Y-7425000D02*
X15968500Y-7425000D01*
X16090000Y-12137000D02*
X16210000Y-12257000D01*
X16210000Y-12137000D02*
X16090000Y-12257000D01*
X16150000Y-12137000D02*
X16150000Y-12257000D01*
X16090000Y-12197000D02*
X16210000Y-12197000D01*
X16198500Y-7365000D02*
X16318500Y-7485000D01*
X16318500Y-7365000D02*
X16198500Y-7485000D01*
X16258500Y-7365000D02*
X16258500Y-7485000D01*
X16198500Y-7425000D02*
X16318500Y-7425000D01*
X16440000Y-12137000D02*
X16560000Y-12257000D01*
X16560000Y-12137000D02*
X16440000Y-12257000D01*
X16500000Y-12137000D02*
X16500000Y-12257000D01*
X16440000Y-12197000D02*
X16560000Y-12197000D01*
X16983000Y-7375000D02*
X17103000Y-7495000D01*
X17103000Y-7375000D02*
X16983000Y-7495000D01*
X17043000Y-7375000D02*
X17043000Y-7495000D01*
X16983000Y-7435000D02*
X17103000Y-7435000D01*
X17333000Y-7375000D02*
X17453000Y-7495000D01*
X17453000Y-7375000D02*
X17333000Y-7495000D01*
X17393000Y-7375000D02*
X17393000Y-7495000D01*
X17333000Y-7435000D02*
X17453000Y-7435000D01*
D11*
X7955777Y-13316484D02*
X7955777Y-13116484D01*
X7955777Y-13116484D02*
X8003396Y-13116484D01*
X8003396Y-13116484D02*
X8031967Y-13126008D01*
X8031967Y-13126008D02*
X8051015Y-13145055D01*
X8051015Y-13145055D02*
X8060539Y-13164103D01*
X8060539Y-13164103D02*
X8070062Y-13202198D01*
X8070062Y-13202198D02*
X8070062Y-13230769D01*
X8070062Y-13230769D02*
X8060539Y-13268865D01*
X8060539Y-13268865D02*
X8051015Y-13287912D01*
X8051015Y-13287912D02*
X8031967Y-13306960D01*
X8031967Y-13306960D02*
X8003396Y-13316484D01*
X8003396Y-13316484D02*
X7955777Y-13316484D01*
X8155777Y-13316484D02*
X8155777Y-13183150D01*
X8155777Y-13221246D02*
X8165301Y-13202198D01*
X8165301Y-13202198D02*
X8174824Y-13192674D01*
X8174824Y-13192674D02*
X8193872Y-13183150D01*
X8193872Y-13183150D02*
X8212920Y-13183150D01*
X8279586Y-13316484D02*
X8279586Y-13183150D01*
X8279586Y-13116484D02*
X8270062Y-13126008D01*
X8270062Y-13126008D02*
X8279586Y-13135531D01*
X8279586Y-13135531D02*
X8289110Y-13126008D01*
X8289110Y-13126008D02*
X8279586Y-13116484D01*
X8279586Y-13116484D02*
X8279586Y-13135531D01*
X8403396Y-13316484D02*
X8384348Y-13306960D01*
X8384348Y-13306960D02*
X8374824Y-13287912D01*
X8374824Y-13287912D02*
X8374824Y-13116484D01*
X8508158Y-13316484D02*
X8489110Y-13306960D01*
X8489110Y-13306960D02*
X8479586Y-13287912D01*
X8479586Y-13287912D02*
X8479586Y-13116484D01*
X8736729Y-13316484D02*
X8736729Y-13116484D01*
X8736729Y-13116484D02*
X8803396Y-13259341D01*
X8803396Y-13259341D02*
X8870063Y-13116484D01*
X8870063Y-13116484D02*
X8870063Y-13316484D01*
X9051015Y-13316484D02*
X9051015Y-13211722D01*
X9051015Y-13211722D02*
X9041491Y-13192674D01*
X9041491Y-13192674D02*
X9022444Y-13183150D01*
X9022444Y-13183150D02*
X8984348Y-13183150D01*
X8984348Y-13183150D02*
X8965301Y-13192674D01*
X9051015Y-13306960D02*
X9031967Y-13316484D01*
X9031967Y-13316484D02*
X8984348Y-13316484D01*
X8984348Y-13316484D02*
X8965301Y-13306960D01*
X8965301Y-13306960D02*
X8955777Y-13287912D01*
X8955777Y-13287912D02*
X8955777Y-13268865D01*
X8955777Y-13268865D02*
X8965301Y-13249817D01*
X8965301Y-13249817D02*
X8984348Y-13240293D01*
X8984348Y-13240293D02*
X9031967Y-13240293D01*
X9031967Y-13240293D02*
X9051015Y-13230769D01*
X9146253Y-13183150D02*
X9146253Y-13383150D01*
X9146253Y-13192674D02*
X9165301Y-13183150D01*
X9165301Y-13183150D02*
X9203396Y-13183150D01*
X9203396Y-13183150D02*
X9222444Y-13192674D01*
X9222444Y-13192674D02*
X9231967Y-13202198D01*
X9231967Y-13202198D02*
X9241491Y-13221246D01*
X9241491Y-13221246D02*
X9241491Y-13278388D01*
X9241491Y-13278388D02*
X9231967Y-13297436D01*
X9231967Y-13297436D02*
X9222444Y-13306960D01*
X9222444Y-13306960D02*
X9203396Y-13316484D01*
X9203396Y-13316484D02*
X9165301Y-13316484D01*
X9165301Y-13316484D02*
X9146253Y-13306960D01*
X9327205Y-13297436D02*
X9336729Y-13306960D01*
X9336729Y-13306960D02*
X9327205Y-13316484D01*
X9327205Y-13316484D02*
X9317682Y-13306960D01*
X9317682Y-13306960D02*
X9327205Y-13297436D01*
X9327205Y-13297436D02*
X9327205Y-13316484D01*
X9327205Y-13192674D02*
X9336729Y-13202198D01*
X9336729Y-13202198D02*
X9327205Y-13211722D01*
X9327205Y-13211722D02*
X9317682Y-13202198D01*
X9317682Y-13202198D02*
X9327205Y-13192674D01*
X9327205Y-13192674D02*
X9327205Y-13211722D01*
D12*
X7655000Y-13625000D02*
X7695000Y-13665000D01*
X7695000Y-13625000D02*
X7655000Y-13665000D01*
D11*
X7993872Y-13536484D02*
X8012920Y-13536484D01*
X8012920Y-13536484D02*
X8031967Y-13546008D01*
X8031967Y-13546008D02*
X8041491Y-13555531D01*
X8041491Y-13555531D02*
X8051015Y-13574579D01*
X8051015Y-13574579D02*
X8060539Y-13612674D01*
X8060539Y-13612674D02*
X8060539Y-13660293D01*
X8060539Y-13660293D02*
X8051015Y-13698388D01*
X8051015Y-13698388D02*
X8041491Y-13717436D01*
X8041491Y-13717436D02*
X8031967Y-13726960D01*
X8031967Y-13726960D02*
X8012920Y-13736484D01*
X8012920Y-13736484D02*
X7993872Y-13736484D01*
X7993872Y-13736484D02*
X7974824Y-13726960D01*
X7974824Y-13726960D02*
X7965301Y-13717436D01*
X7965301Y-13717436D02*
X7955777Y-13698388D01*
X7955777Y-13698388D02*
X7946253Y-13660293D01*
X7946253Y-13660293D02*
X7946253Y-13612674D01*
X7946253Y-13612674D02*
X7955777Y-13574579D01*
X7955777Y-13574579D02*
X7965301Y-13555531D01*
X7965301Y-13555531D02*
X7974824Y-13546008D01*
X7974824Y-13546008D02*
X7993872Y-13536484D01*
X8146253Y-13717436D02*
X8155777Y-13726960D01*
X8155777Y-13726960D02*
X8146253Y-13736484D01*
X8146253Y-13736484D02*
X8136729Y-13726960D01*
X8136729Y-13726960D02*
X8146253Y-13717436D01*
X8146253Y-13717436D02*
X8146253Y-13736484D01*
X8327205Y-13603150D02*
X8327205Y-13736484D01*
X8279586Y-13526960D02*
X8231967Y-13669817D01*
X8231967Y-13669817D02*
X8355777Y-13669817D01*
X8470063Y-13536484D02*
X8489110Y-13536484D01*
X8489110Y-13536484D02*
X8508158Y-13546008D01*
X8508158Y-13546008D02*
X8517682Y-13555531D01*
X8517682Y-13555531D02*
X8527205Y-13574579D01*
X8527205Y-13574579D02*
X8536729Y-13612674D01*
X8536729Y-13612674D02*
X8536729Y-13660293D01*
X8536729Y-13660293D02*
X8527205Y-13698388D01*
X8527205Y-13698388D02*
X8517682Y-13717436D01*
X8517682Y-13717436D02*
X8508158Y-13726960D01*
X8508158Y-13726960D02*
X8489110Y-13736484D01*
X8489110Y-13736484D02*
X8470063Y-13736484D01*
X8470063Y-13736484D02*
X8451015Y-13726960D01*
X8451015Y-13726960D02*
X8441491Y-13717436D01*
X8441491Y-13717436D02*
X8431967Y-13698388D01*
X8431967Y-13698388D02*
X8422444Y-13660293D01*
X8422444Y-13660293D02*
X8422444Y-13612674D01*
X8422444Y-13612674D02*
X8431967Y-13574579D01*
X8431967Y-13574579D02*
X8441491Y-13555531D01*
X8441491Y-13555531D02*
X8451015Y-13546008D01*
X8451015Y-13546008D02*
X8470063Y-13536484D01*
X8660539Y-13536484D02*
X8679586Y-13536484D01*
X8679586Y-13536484D02*
X8698634Y-13546008D01*
X8698634Y-13546008D02*
X8708158Y-13555531D01*
X8708158Y-13555531D02*
X8717682Y-13574579D01*
X8717682Y-13574579D02*
X8727205Y-13612674D01*
X8727205Y-13612674D02*
X8727205Y-13660293D01*
X8727205Y-13660293D02*
X8717682Y-13698388D01*
X8717682Y-13698388D02*
X8708158Y-13717436D01*
X8708158Y-13717436D02*
X8698634Y-13726960D01*
X8698634Y-13726960D02*
X8679586Y-13736484D01*
X8679586Y-13736484D02*
X8660539Y-13736484D01*
X8660539Y-13736484D02*
X8641491Y-13726960D01*
X8641491Y-13726960D02*
X8631967Y-13717436D01*
X8631967Y-13717436D02*
X8622444Y-13698388D01*
X8622444Y-13698388D02*
X8612920Y-13660293D01*
X8612920Y-13660293D02*
X8612920Y-13612674D01*
X8612920Y-13612674D02*
X8622444Y-13574579D01*
X8622444Y-13574579D02*
X8631967Y-13555531D01*
X8631967Y-13555531D02*
X8641491Y-13546008D01*
X8641491Y-13546008D02*
X8660539Y-13536484D01*
X8812920Y-13736484D02*
X8812920Y-13603150D01*
X8812920Y-13622198D02*
X8822444Y-13612674D01*
X8822444Y-13612674D02*
X8841491Y-13603150D01*
X8841491Y-13603150D02*
X8870063Y-13603150D01*
X8870063Y-13603150D02*
X8889110Y-13612674D01*
X8889110Y-13612674D02*
X8898634Y-13631722D01*
X8898634Y-13631722D02*
X8898634Y-13736484D01*
X8898634Y-13631722D02*
X8908158Y-13612674D01*
X8908158Y-13612674D02*
X8927205Y-13603150D01*
X8927205Y-13603150D02*
X8955777Y-13603150D01*
X8955777Y-13603150D02*
X8974825Y-13612674D01*
X8974825Y-13612674D02*
X8984348Y-13631722D01*
X8984348Y-13631722D02*
X8984348Y-13736484D01*
X9079586Y-13736484D02*
X9079586Y-13603150D01*
X9079586Y-13622198D02*
X9089110Y-13612674D01*
X9089110Y-13612674D02*
X9108158Y-13603150D01*
X9108158Y-13603150D02*
X9136729Y-13603150D01*
X9136729Y-13603150D02*
X9155777Y-13612674D01*
X9155777Y-13612674D02*
X9165301Y-13631722D01*
X9165301Y-13631722D02*
X9165301Y-13736484D01*
X9165301Y-13631722D02*
X9174825Y-13612674D01*
X9174825Y-13612674D02*
X9193872Y-13603150D01*
X9193872Y-13603150D02*
X9222444Y-13603150D01*
X9222444Y-13603150D02*
X9241491Y-13612674D01*
X9241491Y-13612674D02*
X9251015Y-13631722D01*
X9251015Y-13631722D02*
X9251015Y-13736484D01*
X9641491Y-13526960D02*
X9470063Y-13784103D01*
X9898634Y-13536484D02*
X9917682Y-13536484D01*
X9917682Y-13536484D02*
X9936729Y-13546008D01*
X9936729Y-13546008D02*
X9946253Y-13555531D01*
X9946253Y-13555531D02*
X9955777Y-13574579D01*
X9955777Y-13574579D02*
X9965301Y-13612674D01*
X9965301Y-13612674D02*
X9965301Y-13660293D01*
X9965301Y-13660293D02*
X9955777Y-13698388D01*
X9955777Y-13698388D02*
X9946253Y-13717436D01*
X9946253Y-13717436D02*
X9936729Y-13726960D01*
X9936729Y-13726960D02*
X9917682Y-13736484D01*
X9917682Y-13736484D02*
X9898634Y-13736484D01*
X9898634Y-13736484D02*
X9879587Y-13726960D01*
X9879587Y-13726960D02*
X9870063Y-13717436D01*
X9870063Y-13717436D02*
X9860539Y-13698388D01*
X9860539Y-13698388D02*
X9851015Y-13660293D01*
X9851015Y-13660293D02*
X9851015Y-13612674D01*
X9851015Y-13612674D02*
X9860539Y-13574579D01*
X9860539Y-13574579D02*
X9870063Y-13555531D01*
X9870063Y-13555531D02*
X9879587Y-13546008D01*
X9879587Y-13546008D02*
X9898634Y-13536484D01*
X10051015Y-13717436D02*
X10060539Y-13726960D01*
X10060539Y-13726960D02*
X10051015Y-13736484D01*
X10051015Y-13736484D02*
X10041491Y-13726960D01*
X10041491Y-13726960D02*
X10051015Y-13717436D01*
X10051015Y-13717436D02*
X10051015Y-13736484D01*
X10184348Y-13536484D02*
X10203396Y-13536484D01*
X10203396Y-13536484D02*
X10222444Y-13546008D01*
X10222444Y-13546008D02*
X10231968Y-13555531D01*
X10231968Y-13555531D02*
X10241491Y-13574579D01*
X10241491Y-13574579D02*
X10251015Y-13612674D01*
X10251015Y-13612674D02*
X10251015Y-13660293D01*
X10251015Y-13660293D02*
X10241491Y-13698388D01*
X10241491Y-13698388D02*
X10231968Y-13717436D01*
X10231968Y-13717436D02*
X10222444Y-13726960D01*
X10222444Y-13726960D02*
X10203396Y-13736484D01*
X10203396Y-13736484D02*
X10184348Y-13736484D01*
X10184348Y-13736484D02*
X10165301Y-13726960D01*
X10165301Y-13726960D02*
X10155777Y-13717436D01*
X10155777Y-13717436D02*
X10146253Y-13698388D01*
X10146253Y-13698388D02*
X10136729Y-13660293D01*
X10136729Y-13660293D02*
X10136729Y-13612674D01*
X10136729Y-13612674D02*
X10146253Y-13574579D01*
X10146253Y-13574579D02*
X10155777Y-13555531D01*
X10155777Y-13555531D02*
X10165301Y-13546008D01*
X10165301Y-13546008D02*
X10184348Y-13536484D01*
X10441491Y-13736484D02*
X10327206Y-13736484D01*
X10384348Y-13736484D02*
X10384348Y-13536484D01*
X10384348Y-13536484D02*
X10365301Y-13565055D01*
X10365301Y-13565055D02*
X10346253Y-13584103D01*
X10346253Y-13584103D02*
X10327206Y-13593627D01*
X10622444Y-13536484D02*
X10527206Y-13536484D01*
X10527206Y-13536484D02*
X10517682Y-13631722D01*
X10517682Y-13631722D02*
X10527206Y-13622198D01*
X10527206Y-13622198D02*
X10546253Y-13612674D01*
X10546253Y-13612674D02*
X10593872Y-13612674D01*
X10593872Y-13612674D02*
X10612920Y-13622198D01*
X10612920Y-13622198D02*
X10622444Y-13631722D01*
X10622444Y-13631722D02*
X10631968Y-13650769D01*
X10631968Y-13650769D02*
X10631968Y-13698388D01*
X10631968Y-13698388D02*
X10622444Y-13717436D01*
X10622444Y-13717436D02*
X10612920Y-13726960D01*
X10612920Y-13726960D02*
X10593872Y-13736484D01*
X10593872Y-13736484D02*
X10546253Y-13736484D01*
X10546253Y-13736484D02*
X10527206Y-13726960D01*
X10527206Y-13726960D02*
X10517682Y-13717436D01*
X10698634Y-13536484D02*
X10831968Y-13536484D01*
X10831968Y-13536484D02*
X10746253Y-13736484D01*
X10898634Y-13536484D02*
X10898634Y-13574579D01*
X10974825Y-13536484D02*
X10974825Y-13574579D01*
X11270063Y-13812674D02*
X11260539Y-13803150D01*
X11260539Y-13803150D02*
X11241491Y-13774579D01*
X11241491Y-13774579D02*
X11231968Y-13755531D01*
X11231968Y-13755531D02*
X11222444Y-13726960D01*
X11222444Y-13726960D02*
X11212920Y-13679341D01*
X11212920Y-13679341D02*
X11212920Y-13641246D01*
X11212920Y-13641246D02*
X11222444Y-13593627D01*
X11222444Y-13593627D02*
X11231968Y-13565055D01*
X11231968Y-13565055D02*
X11241491Y-13546008D01*
X11241491Y-13546008D02*
X11260539Y-13517436D01*
X11260539Y-13517436D02*
X11270063Y-13507912D01*
X11327206Y-13536484D02*
X11451015Y-13536484D01*
X11451015Y-13536484D02*
X11384348Y-13612674D01*
X11384348Y-13612674D02*
X11412920Y-13612674D01*
X11412920Y-13612674D02*
X11431968Y-13622198D01*
X11431968Y-13622198D02*
X11441491Y-13631722D01*
X11441491Y-13631722D02*
X11451015Y-13650769D01*
X11451015Y-13650769D02*
X11451015Y-13698388D01*
X11451015Y-13698388D02*
X11441491Y-13717436D01*
X11441491Y-13717436D02*
X11431968Y-13726960D01*
X11431968Y-13726960D02*
X11412920Y-13736484D01*
X11412920Y-13736484D02*
X11355777Y-13736484D01*
X11355777Y-13736484D02*
X11336729Y-13726960D01*
X11336729Y-13726960D02*
X11327206Y-13717436D01*
X11689110Y-13736484D02*
X11689110Y-13536484D01*
X11774825Y-13736484D02*
X11774825Y-13631722D01*
X11774825Y-13631722D02*
X11765301Y-13612674D01*
X11765301Y-13612674D02*
X11746253Y-13603150D01*
X11746253Y-13603150D02*
X11717682Y-13603150D01*
X11717682Y-13603150D02*
X11698634Y-13612674D01*
X11698634Y-13612674D02*
X11689110Y-13622198D01*
X11898634Y-13736484D02*
X11879587Y-13726960D01*
X11879587Y-13726960D02*
X11870063Y-13717436D01*
X11870063Y-13717436D02*
X11860539Y-13698388D01*
X11860539Y-13698388D02*
X11860539Y-13641246D01*
X11860539Y-13641246D02*
X11870063Y-13622198D01*
X11870063Y-13622198D02*
X11879587Y-13612674D01*
X11879587Y-13612674D02*
X11898634Y-13603150D01*
X11898634Y-13603150D02*
X11927206Y-13603150D01*
X11927206Y-13603150D02*
X11946253Y-13612674D01*
X11946253Y-13612674D02*
X11955777Y-13622198D01*
X11955777Y-13622198D02*
X11965301Y-13641246D01*
X11965301Y-13641246D02*
X11965301Y-13698388D01*
X11965301Y-13698388D02*
X11955777Y-13717436D01*
X11955777Y-13717436D02*
X11946253Y-13726960D01*
X11946253Y-13726960D02*
X11927206Y-13736484D01*
X11927206Y-13736484D02*
X11898634Y-13736484D01*
X12079587Y-13736484D02*
X12060539Y-13726960D01*
X12060539Y-13726960D02*
X12051015Y-13707912D01*
X12051015Y-13707912D02*
X12051015Y-13536484D01*
X12231968Y-13726960D02*
X12212920Y-13736484D01*
X12212920Y-13736484D02*
X12174825Y-13736484D01*
X12174825Y-13736484D02*
X12155777Y-13726960D01*
X12155777Y-13726960D02*
X12146253Y-13707912D01*
X12146253Y-13707912D02*
X12146253Y-13631722D01*
X12146253Y-13631722D02*
X12155777Y-13612674D01*
X12155777Y-13612674D02*
X12174825Y-13603150D01*
X12174825Y-13603150D02*
X12212920Y-13603150D01*
X12212920Y-13603150D02*
X12231968Y-13612674D01*
X12231968Y-13612674D02*
X12241491Y-13631722D01*
X12241491Y-13631722D02*
X12241491Y-13650769D01*
X12241491Y-13650769D02*
X12146253Y-13669817D01*
X12317682Y-13726960D02*
X12336730Y-13736484D01*
X12336730Y-13736484D02*
X12374825Y-13736484D01*
X12374825Y-13736484D02*
X12393872Y-13726960D01*
X12393872Y-13726960D02*
X12403396Y-13707912D01*
X12403396Y-13707912D02*
X12403396Y-13698388D01*
X12403396Y-13698388D02*
X12393872Y-13679341D01*
X12393872Y-13679341D02*
X12374825Y-13669817D01*
X12374825Y-13669817D02*
X12346253Y-13669817D01*
X12346253Y-13669817D02*
X12327206Y-13660293D01*
X12327206Y-13660293D02*
X12317682Y-13641246D01*
X12317682Y-13641246D02*
X12317682Y-13631722D01*
X12317682Y-13631722D02*
X12327206Y-13612674D01*
X12327206Y-13612674D02*
X12346253Y-13603150D01*
X12346253Y-13603150D02*
X12374825Y-13603150D01*
X12374825Y-13603150D02*
X12393872Y-13612674D01*
X12470063Y-13812674D02*
X12479587Y-13803150D01*
X12479587Y-13803150D02*
X12498634Y-13774579D01*
X12498634Y-13774579D02*
X12508158Y-13755531D01*
X12508158Y-13755531D02*
X12517682Y-13726960D01*
X12517682Y-13726960D02*
X12527206Y-13679341D01*
X12527206Y-13679341D02*
X12527206Y-13641246D01*
X12527206Y-13641246D02*
X12517682Y-13593627D01*
X12517682Y-13593627D02*
X12508158Y-13565055D01*
X12508158Y-13565055D02*
X12498634Y-13546008D01*
X12498634Y-13546008D02*
X12479587Y-13517436D01*
X12479587Y-13517436D02*
X12470063Y-13507912D01*
D13*
X7695000Y-13909000D02*
G75*
G03*
X7695000Y-13909000I-37000J0D01*
G01*
D11*
X7993872Y-13800484D02*
X8012920Y-13800484D01*
X8012920Y-13800484D02*
X8031967Y-13810008D01*
X8031967Y-13810008D02*
X8041491Y-13819531D01*
X8041491Y-13819531D02*
X8051015Y-13838579D01*
X8051015Y-13838579D02*
X8060539Y-13876674D01*
X8060539Y-13876674D02*
X8060539Y-13924293D01*
X8060539Y-13924293D02*
X8051015Y-13962388D01*
X8051015Y-13962388D02*
X8041491Y-13981436D01*
X8041491Y-13981436D02*
X8031967Y-13990960D01*
X8031967Y-13990960D02*
X8012920Y-14000484D01*
X8012920Y-14000484D02*
X7993872Y-14000484D01*
X7993872Y-14000484D02*
X7974824Y-13990960D01*
X7974824Y-13990960D02*
X7965301Y-13981436D01*
X7965301Y-13981436D02*
X7955777Y-13962388D01*
X7955777Y-13962388D02*
X7946253Y-13924293D01*
X7946253Y-13924293D02*
X7946253Y-13876674D01*
X7946253Y-13876674D02*
X7955777Y-13838579D01*
X7955777Y-13838579D02*
X7965301Y-13819531D01*
X7965301Y-13819531D02*
X7974824Y-13810008D01*
X7974824Y-13810008D02*
X7993872Y-13800484D01*
X8146253Y-13981436D02*
X8155777Y-13990960D01*
X8155777Y-13990960D02*
X8146253Y-14000484D01*
X8146253Y-14000484D02*
X8136729Y-13990960D01*
X8136729Y-13990960D02*
X8146253Y-13981436D01*
X8146253Y-13981436D02*
X8146253Y-14000484D01*
X8222443Y-13800484D02*
X8355777Y-13800484D01*
X8355777Y-13800484D02*
X8270062Y-14000484D01*
X8517682Y-13867150D02*
X8517682Y-14000484D01*
X8470063Y-13790960D02*
X8422444Y-13933817D01*
X8422444Y-13933817D02*
X8546253Y-13933817D01*
X8660539Y-13800484D02*
X8679586Y-13800484D01*
X8679586Y-13800484D02*
X8698634Y-13810008D01*
X8698634Y-13810008D02*
X8708158Y-13819531D01*
X8708158Y-13819531D02*
X8717682Y-13838579D01*
X8717682Y-13838579D02*
X8727205Y-13876674D01*
X8727205Y-13876674D02*
X8727205Y-13924293D01*
X8727205Y-13924293D02*
X8717682Y-13962388D01*
X8717682Y-13962388D02*
X8708158Y-13981436D01*
X8708158Y-13981436D02*
X8698634Y-13990960D01*
X8698634Y-13990960D02*
X8679586Y-14000484D01*
X8679586Y-14000484D02*
X8660539Y-14000484D01*
X8660539Y-14000484D02*
X8641491Y-13990960D01*
X8641491Y-13990960D02*
X8631967Y-13981436D01*
X8631967Y-13981436D02*
X8622444Y-13962388D01*
X8622444Y-13962388D02*
X8612920Y-13924293D01*
X8612920Y-13924293D02*
X8612920Y-13876674D01*
X8612920Y-13876674D02*
X8622444Y-13838579D01*
X8622444Y-13838579D02*
X8631967Y-13819531D01*
X8631967Y-13819531D02*
X8641491Y-13810008D01*
X8641491Y-13810008D02*
X8660539Y-13800484D01*
X8812920Y-14000484D02*
X8812920Y-13867150D01*
X8812920Y-13886198D02*
X8822444Y-13876674D01*
X8822444Y-13876674D02*
X8841491Y-13867150D01*
X8841491Y-13867150D02*
X8870063Y-13867150D01*
X8870063Y-13867150D02*
X8889110Y-13876674D01*
X8889110Y-13876674D02*
X8898634Y-13895722D01*
X8898634Y-13895722D02*
X8898634Y-14000484D01*
X8898634Y-13895722D02*
X8908158Y-13876674D01*
X8908158Y-13876674D02*
X8927205Y-13867150D01*
X8927205Y-13867150D02*
X8955777Y-13867150D01*
X8955777Y-13867150D02*
X8974825Y-13876674D01*
X8974825Y-13876674D02*
X8984348Y-13895722D01*
X8984348Y-13895722D02*
X8984348Y-14000484D01*
X9079586Y-14000484D02*
X9079586Y-13867150D01*
X9079586Y-13886198D02*
X9089110Y-13876674D01*
X9089110Y-13876674D02*
X9108158Y-13867150D01*
X9108158Y-13867150D02*
X9136729Y-13867150D01*
X9136729Y-13867150D02*
X9155777Y-13876674D01*
X9155777Y-13876674D02*
X9165301Y-13895722D01*
X9165301Y-13895722D02*
X9165301Y-14000484D01*
X9165301Y-13895722D02*
X9174825Y-13876674D01*
X9174825Y-13876674D02*
X9193872Y-13867150D01*
X9193872Y-13867150D02*
X9222444Y-13867150D01*
X9222444Y-13867150D02*
X9241491Y-13876674D01*
X9241491Y-13876674D02*
X9251015Y-13895722D01*
X9251015Y-13895722D02*
X9251015Y-14000484D01*
X9641491Y-13790960D02*
X9470063Y-14048103D01*
X9898634Y-13800484D02*
X9917682Y-13800484D01*
X9917682Y-13800484D02*
X9936729Y-13810008D01*
X9936729Y-13810008D02*
X9946253Y-13819531D01*
X9946253Y-13819531D02*
X9955777Y-13838579D01*
X9955777Y-13838579D02*
X9965301Y-13876674D01*
X9965301Y-13876674D02*
X9965301Y-13924293D01*
X9965301Y-13924293D02*
X9955777Y-13962388D01*
X9955777Y-13962388D02*
X9946253Y-13981436D01*
X9946253Y-13981436D02*
X9936729Y-13990960D01*
X9936729Y-13990960D02*
X9917682Y-14000484D01*
X9917682Y-14000484D02*
X9898634Y-14000484D01*
X9898634Y-14000484D02*
X9879587Y-13990960D01*
X9879587Y-13990960D02*
X9870063Y-13981436D01*
X9870063Y-13981436D02*
X9860539Y-13962388D01*
X9860539Y-13962388D02*
X9851015Y-13924293D01*
X9851015Y-13924293D02*
X9851015Y-13876674D01*
X9851015Y-13876674D02*
X9860539Y-13838579D01*
X9860539Y-13838579D02*
X9870063Y-13819531D01*
X9870063Y-13819531D02*
X9879587Y-13810008D01*
X9879587Y-13810008D02*
X9898634Y-13800484D01*
X10051015Y-13981436D02*
X10060539Y-13990960D01*
X10060539Y-13990960D02*
X10051015Y-14000484D01*
X10051015Y-14000484D02*
X10041491Y-13990960D01*
X10041491Y-13990960D02*
X10051015Y-13981436D01*
X10051015Y-13981436D02*
X10051015Y-14000484D01*
X10184348Y-13800484D02*
X10203396Y-13800484D01*
X10203396Y-13800484D02*
X10222444Y-13810008D01*
X10222444Y-13810008D02*
X10231968Y-13819531D01*
X10231968Y-13819531D02*
X10241491Y-13838579D01*
X10241491Y-13838579D02*
X10251015Y-13876674D01*
X10251015Y-13876674D02*
X10251015Y-13924293D01*
X10251015Y-13924293D02*
X10241491Y-13962388D01*
X10241491Y-13962388D02*
X10231968Y-13981436D01*
X10231968Y-13981436D02*
X10222444Y-13990960D01*
X10222444Y-13990960D02*
X10203396Y-14000484D01*
X10203396Y-14000484D02*
X10184348Y-14000484D01*
X10184348Y-14000484D02*
X10165301Y-13990960D01*
X10165301Y-13990960D02*
X10155777Y-13981436D01*
X10155777Y-13981436D02*
X10146253Y-13962388D01*
X10146253Y-13962388D02*
X10136729Y-13924293D01*
X10136729Y-13924293D02*
X10136729Y-13876674D01*
X10136729Y-13876674D02*
X10146253Y-13838579D01*
X10146253Y-13838579D02*
X10155777Y-13819531D01*
X10155777Y-13819531D02*
X10165301Y-13810008D01*
X10165301Y-13810008D02*
X10184348Y-13800484D01*
X10327206Y-13819531D02*
X10336729Y-13810008D01*
X10336729Y-13810008D02*
X10355777Y-13800484D01*
X10355777Y-13800484D02*
X10403396Y-13800484D01*
X10403396Y-13800484D02*
X10422444Y-13810008D01*
X10422444Y-13810008D02*
X10431968Y-13819531D01*
X10431968Y-13819531D02*
X10441491Y-13838579D01*
X10441491Y-13838579D02*
X10441491Y-13857627D01*
X10441491Y-13857627D02*
X10431968Y-13886198D01*
X10431968Y-13886198D02*
X10317682Y-14000484D01*
X10317682Y-14000484D02*
X10441491Y-14000484D01*
X10536729Y-14000484D02*
X10574825Y-14000484D01*
X10574825Y-14000484D02*
X10593872Y-13990960D01*
X10593872Y-13990960D02*
X10603396Y-13981436D01*
X10603396Y-13981436D02*
X10622444Y-13952865D01*
X10622444Y-13952865D02*
X10631968Y-13914769D01*
X10631968Y-13914769D02*
X10631968Y-13838579D01*
X10631968Y-13838579D02*
X10622444Y-13819531D01*
X10622444Y-13819531D02*
X10612920Y-13810008D01*
X10612920Y-13810008D02*
X10593872Y-13800484D01*
X10593872Y-13800484D02*
X10555777Y-13800484D01*
X10555777Y-13800484D02*
X10536729Y-13810008D01*
X10536729Y-13810008D02*
X10527206Y-13819531D01*
X10527206Y-13819531D02*
X10517682Y-13838579D01*
X10517682Y-13838579D02*
X10517682Y-13886198D01*
X10517682Y-13886198D02*
X10527206Y-13905246D01*
X10527206Y-13905246D02*
X10536729Y-13914769D01*
X10536729Y-13914769D02*
X10555777Y-13924293D01*
X10555777Y-13924293D02*
X10593872Y-13924293D01*
X10593872Y-13924293D02*
X10612920Y-13914769D01*
X10612920Y-13914769D02*
X10622444Y-13905246D01*
X10622444Y-13905246D02*
X10631968Y-13886198D01*
X10822444Y-14000484D02*
X10708158Y-14000484D01*
X10765301Y-14000484D02*
X10765301Y-13800484D01*
X10765301Y-13800484D02*
X10746253Y-13829055D01*
X10746253Y-13829055D02*
X10727206Y-13848103D01*
X10727206Y-13848103D02*
X10708158Y-13857627D01*
X10898634Y-13800484D02*
X10898634Y-13838579D01*
X10974825Y-13800484D02*
X10974825Y-13838579D01*
X11270063Y-14076674D02*
X11260539Y-14067150D01*
X11260539Y-14067150D02*
X11241491Y-14038579D01*
X11241491Y-14038579D02*
X11231968Y-14019531D01*
X11231968Y-14019531D02*
X11222444Y-13990960D01*
X11222444Y-13990960D02*
X11212920Y-13943341D01*
X11212920Y-13943341D02*
X11212920Y-13905246D01*
X11212920Y-13905246D02*
X11222444Y-13857627D01*
X11222444Y-13857627D02*
X11231968Y-13829055D01*
X11231968Y-13829055D02*
X11241491Y-13810008D01*
X11241491Y-13810008D02*
X11260539Y-13781436D01*
X11260539Y-13781436D02*
X11270063Y-13771912D01*
X11451015Y-14000484D02*
X11336729Y-14000484D01*
X11393872Y-14000484D02*
X11393872Y-13800484D01*
X11393872Y-13800484D02*
X11374825Y-13829055D01*
X11374825Y-13829055D02*
X11355777Y-13848103D01*
X11355777Y-13848103D02*
X11336729Y-13857627D01*
X11622444Y-13867150D02*
X11622444Y-14000484D01*
X11574825Y-13790960D02*
X11527206Y-13933817D01*
X11527206Y-13933817D02*
X11651015Y-13933817D01*
X11879587Y-14000484D02*
X11879587Y-13800484D01*
X11965301Y-14000484D02*
X11965301Y-13895722D01*
X11965301Y-13895722D02*
X11955777Y-13876674D01*
X11955777Y-13876674D02*
X11936730Y-13867150D01*
X11936730Y-13867150D02*
X11908158Y-13867150D01*
X11908158Y-13867150D02*
X11889110Y-13876674D01*
X11889110Y-13876674D02*
X11879587Y-13886198D01*
X12089110Y-14000484D02*
X12070063Y-13990960D01*
X12070063Y-13990960D02*
X12060539Y-13981436D01*
X12060539Y-13981436D02*
X12051015Y-13962388D01*
X12051015Y-13962388D02*
X12051015Y-13905246D01*
X12051015Y-13905246D02*
X12060539Y-13886198D01*
X12060539Y-13886198D02*
X12070063Y-13876674D01*
X12070063Y-13876674D02*
X12089110Y-13867150D01*
X12089110Y-13867150D02*
X12117682Y-13867150D01*
X12117682Y-13867150D02*
X12136730Y-13876674D01*
X12136730Y-13876674D02*
X12146253Y-13886198D01*
X12146253Y-13886198D02*
X12155777Y-13905246D01*
X12155777Y-13905246D02*
X12155777Y-13962388D01*
X12155777Y-13962388D02*
X12146253Y-13981436D01*
X12146253Y-13981436D02*
X12136730Y-13990960D01*
X12136730Y-13990960D02*
X12117682Y-14000484D01*
X12117682Y-14000484D02*
X12089110Y-14000484D01*
X12270063Y-14000484D02*
X12251015Y-13990960D01*
X12251015Y-13990960D02*
X12241491Y-13971912D01*
X12241491Y-13971912D02*
X12241491Y-13800484D01*
X12422444Y-13990960D02*
X12403396Y-14000484D01*
X12403396Y-14000484D02*
X12365301Y-14000484D01*
X12365301Y-14000484D02*
X12346253Y-13990960D01*
X12346253Y-13990960D02*
X12336730Y-13971912D01*
X12336730Y-13971912D02*
X12336730Y-13895722D01*
X12336730Y-13895722D02*
X12346253Y-13876674D01*
X12346253Y-13876674D02*
X12365301Y-13867150D01*
X12365301Y-13867150D02*
X12403396Y-13867150D01*
X12403396Y-13867150D02*
X12422444Y-13876674D01*
X12422444Y-13876674D02*
X12431968Y-13895722D01*
X12431968Y-13895722D02*
X12431968Y-13914769D01*
X12431968Y-13914769D02*
X12336730Y-13933817D01*
X12508158Y-13990960D02*
X12527206Y-14000484D01*
X12527206Y-14000484D02*
X12565301Y-14000484D01*
X12565301Y-14000484D02*
X12584349Y-13990960D01*
X12584349Y-13990960D02*
X12593872Y-13971912D01*
X12593872Y-13971912D02*
X12593872Y-13962388D01*
X12593872Y-13962388D02*
X12584349Y-13943341D01*
X12584349Y-13943341D02*
X12565301Y-13933817D01*
X12565301Y-13933817D02*
X12536730Y-13933817D01*
X12536730Y-13933817D02*
X12517682Y-13924293D01*
X12517682Y-13924293D02*
X12508158Y-13905246D01*
X12508158Y-13905246D02*
X12508158Y-13895722D01*
X12508158Y-13895722D02*
X12517682Y-13876674D01*
X12517682Y-13876674D02*
X12536730Y-13867150D01*
X12536730Y-13867150D02*
X12565301Y-13867150D01*
X12565301Y-13867150D02*
X12584349Y-13876674D01*
X12660539Y-14076674D02*
X12670063Y-14067150D01*
X12670063Y-14067150D02*
X12689111Y-14038579D01*
X12689111Y-14038579D02*
X12698634Y-14019531D01*
X12698634Y-14019531D02*
X12708158Y-13990960D01*
X12708158Y-13990960D02*
X12717682Y-13943341D01*
X12717682Y-13943341D02*
X12717682Y-13905246D01*
X12717682Y-13905246D02*
X12708158Y-13857627D01*
X12708158Y-13857627D02*
X12698634Y-13829055D01*
X12698634Y-13829055D02*
X12689111Y-13810008D01*
X12689111Y-13810008D02*
X12670063Y-13781436D01*
X12670063Y-13781436D02*
X12660539Y-13771912D01*
D14*
X7655000Y-14133000D02*
X7655000Y-14213000D01*
X7615000Y-14173000D02*
X7695000Y-14173000D01*
D11*
X7993872Y-14064484D02*
X8012920Y-14064484D01*
X8012920Y-14064484D02*
X8031967Y-14074008D01*
X8031967Y-14074008D02*
X8041491Y-14083531D01*
X8041491Y-14083531D02*
X8051015Y-14102579D01*
X8051015Y-14102579D02*
X8060539Y-14140674D01*
X8060539Y-14140674D02*
X8060539Y-14188293D01*
X8060539Y-14188293D02*
X8051015Y-14226388D01*
X8051015Y-14226388D02*
X8041491Y-14245436D01*
X8041491Y-14245436D02*
X8031967Y-14254960D01*
X8031967Y-14254960D02*
X8012920Y-14264484D01*
X8012920Y-14264484D02*
X7993872Y-14264484D01*
X7993872Y-14264484D02*
X7974824Y-14254960D01*
X7974824Y-14254960D02*
X7965301Y-14245436D01*
X7965301Y-14245436D02*
X7955777Y-14226388D01*
X7955777Y-14226388D02*
X7946253Y-14188293D01*
X7946253Y-14188293D02*
X7946253Y-14140674D01*
X7946253Y-14140674D02*
X7955777Y-14102579D01*
X7955777Y-14102579D02*
X7965301Y-14083531D01*
X7965301Y-14083531D02*
X7974824Y-14074008D01*
X7974824Y-14074008D02*
X7993872Y-14064484D01*
X8146253Y-14245436D02*
X8155777Y-14254960D01*
X8155777Y-14254960D02*
X8146253Y-14264484D01*
X8146253Y-14264484D02*
X8136729Y-14254960D01*
X8136729Y-14254960D02*
X8146253Y-14245436D01*
X8146253Y-14245436D02*
X8146253Y-14264484D01*
X8270062Y-14150198D02*
X8251015Y-14140674D01*
X8251015Y-14140674D02*
X8241491Y-14131150D01*
X8241491Y-14131150D02*
X8231967Y-14112103D01*
X8231967Y-14112103D02*
X8231967Y-14102579D01*
X8231967Y-14102579D02*
X8241491Y-14083531D01*
X8241491Y-14083531D02*
X8251015Y-14074008D01*
X8251015Y-14074008D02*
X8270062Y-14064484D01*
X8270062Y-14064484D02*
X8308158Y-14064484D01*
X8308158Y-14064484D02*
X8327205Y-14074008D01*
X8327205Y-14074008D02*
X8336729Y-14083531D01*
X8336729Y-14083531D02*
X8346253Y-14102579D01*
X8346253Y-14102579D02*
X8346253Y-14112103D01*
X8346253Y-14112103D02*
X8336729Y-14131150D01*
X8336729Y-14131150D02*
X8327205Y-14140674D01*
X8327205Y-14140674D02*
X8308158Y-14150198D01*
X8308158Y-14150198D02*
X8270062Y-14150198D01*
X8270062Y-14150198D02*
X8251015Y-14159722D01*
X8251015Y-14159722D02*
X8241491Y-14169246D01*
X8241491Y-14169246D02*
X8231967Y-14188293D01*
X8231967Y-14188293D02*
X8231967Y-14226388D01*
X8231967Y-14226388D02*
X8241491Y-14245436D01*
X8241491Y-14245436D02*
X8251015Y-14254960D01*
X8251015Y-14254960D02*
X8270062Y-14264484D01*
X8270062Y-14264484D02*
X8308158Y-14264484D01*
X8308158Y-14264484D02*
X8327205Y-14254960D01*
X8327205Y-14254960D02*
X8336729Y-14245436D01*
X8336729Y-14245436D02*
X8346253Y-14226388D01*
X8346253Y-14226388D02*
X8346253Y-14188293D01*
X8346253Y-14188293D02*
X8336729Y-14169246D01*
X8336729Y-14169246D02*
X8327205Y-14159722D01*
X8327205Y-14159722D02*
X8308158Y-14150198D01*
X8470063Y-14064484D02*
X8489110Y-14064484D01*
X8489110Y-14064484D02*
X8508158Y-14074008D01*
X8508158Y-14074008D02*
X8517682Y-14083531D01*
X8517682Y-14083531D02*
X8527205Y-14102579D01*
X8527205Y-14102579D02*
X8536729Y-14140674D01*
X8536729Y-14140674D02*
X8536729Y-14188293D01*
X8536729Y-14188293D02*
X8527205Y-14226388D01*
X8527205Y-14226388D02*
X8517682Y-14245436D01*
X8517682Y-14245436D02*
X8508158Y-14254960D01*
X8508158Y-14254960D02*
X8489110Y-14264484D01*
X8489110Y-14264484D02*
X8470063Y-14264484D01*
X8470063Y-14264484D02*
X8451015Y-14254960D01*
X8451015Y-14254960D02*
X8441491Y-14245436D01*
X8441491Y-14245436D02*
X8431967Y-14226388D01*
X8431967Y-14226388D02*
X8422444Y-14188293D01*
X8422444Y-14188293D02*
X8422444Y-14140674D01*
X8422444Y-14140674D02*
X8431967Y-14102579D01*
X8431967Y-14102579D02*
X8441491Y-14083531D01*
X8441491Y-14083531D02*
X8451015Y-14074008D01*
X8451015Y-14074008D02*
X8470063Y-14064484D01*
X8660539Y-14064484D02*
X8679586Y-14064484D01*
X8679586Y-14064484D02*
X8698634Y-14074008D01*
X8698634Y-14074008D02*
X8708158Y-14083531D01*
X8708158Y-14083531D02*
X8717682Y-14102579D01*
X8717682Y-14102579D02*
X8727205Y-14140674D01*
X8727205Y-14140674D02*
X8727205Y-14188293D01*
X8727205Y-14188293D02*
X8717682Y-14226388D01*
X8717682Y-14226388D02*
X8708158Y-14245436D01*
X8708158Y-14245436D02*
X8698634Y-14254960D01*
X8698634Y-14254960D02*
X8679586Y-14264484D01*
X8679586Y-14264484D02*
X8660539Y-14264484D01*
X8660539Y-14264484D02*
X8641491Y-14254960D01*
X8641491Y-14254960D02*
X8631967Y-14245436D01*
X8631967Y-14245436D02*
X8622444Y-14226388D01*
X8622444Y-14226388D02*
X8612920Y-14188293D01*
X8612920Y-14188293D02*
X8612920Y-14140674D01*
X8612920Y-14140674D02*
X8622444Y-14102579D01*
X8622444Y-14102579D02*
X8631967Y-14083531D01*
X8631967Y-14083531D02*
X8641491Y-14074008D01*
X8641491Y-14074008D02*
X8660539Y-14064484D01*
X8812920Y-14264484D02*
X8812920Y-14131150D01*
X8812920Y-14150198D02*
X8822444Y-14140674D01*
X8822444Y-14140674D02*
X8841491Y-14131150D01*
X8841491Y-14131150D02*
X8870063Y-14131150D01*
X8870063Y-14131150D02*
X8889110Y-14140674D01*
X8889110Y-14140674D02*
X8898634Y-14159722D01*
X8898634Y-14159722D02*
X8898634Y-14264484D01*
X8898634Y-14159722D02*
X8908158Y-14140674D01*
X8908158Y-14140674D02*
X8927205Y-14131150D01*
X8927205Y-14131150D02*
X8955777Y-14131150D01*
X8955777Y-14131150D02*
X8974825Y-14140674D01*
X8974825Y-14140674D02*
X8984348Y-14159722D01*
X8984348Y-14159722D02*
X8984348Y-14264484D01*
X9079586Y-14264484D02*
X9079586Y-14131150D01*
X9079586Y-14150198D02*
X9089110Y-14140674D01*
X9089110Y-14140674D02*
X9108158Y-14131150D01*
X9108158Y-14131150D02*
X9136729Y-14131150D01*
X9136729Y-14131150D02*
X9155777Y-14140674D01*
X9155777Y-14140674D02*
X9165301Y-14159722D01*
X9165301Y-14159722D02*
X9165301Y-14264484D01*
X9165301Y-14159722D02*
X9174825Y-14140674D01*
X9174825Y-14140674D02*
X9193872Y-14131150D01*
X9193872Y-14131150D02*
X9222444Y-14131150D01*
X9222444Y-14131150D02*
X9241491Y-14140674D01*
X9241491Y-14140674D02*
X9251015Y-14159722D01*
X9251015Y-14159722D02*
X9251015Y-14264484D01*
X9641491Y-14054960D02*
X9470063Y-14312103D01*
X9898634Y-14064484D02*
X9917682Y-14064484D01*
X9917682Y-14064484D02*
X9936729Y-14074008D01*
X9936729Y-14074008D02*
X9946253Y-14083531D01*
X9946253Y-14083531D02*
X9955777Y-14102579D01*
X9955777Y-14102579D02*
X9965301Y-14140674D01*
X9965301Y-14140674D02*
X9965301Y-14188293D01*
X9965301Y-14188293D02*
X9955777Y-14226388D01*
X9955777Y-14226388D02*
X9946253Y-14245436D01*
X9946253Y-14245436D02*
X9936729Y-14254960D01*
X9936729Y-14254960D02*
X9917682Y-14264484D01*
X9917682Y-14264484D02*
X9898634Y-14264484D01*
X9898634Y-14264484D02*
X9879587Y-14254960D01*
X9879587Y-14254960D02*
X9870063Y-14245436D01*
X9870063Y-14245436D02*
X9860539Y-14226388D01*
X9860539Y-14226388D02*
X9851015Y-14188293D01*
X9851015Y-14188293D02*
X9851015Y-14140674D01*
X9851015Y-14140674D02*
X9860539Y-14102579D01*
X9860539Y-14102579D02*
X9870063Y-14083531D01*
X9870063Y-14083531D02*
X9879587Y-14074008D01*
X9879587Y-14074008D02*
X9898634Y-14064484D01*
X10051015Y-14245436D02*
X10060539Y-14254960D01*
X10060539Y-14254960D02*
X10051015Y-14264484D01*
X10051015Y-14264484D02*
X10041491Y-14254960D01*
X10041491Y-14254960D02*
X10051015Y-14245436D01*
X10051015Y-14245436D02*
X10051015Y-14264484D01*
X10184348Y-14064484D02*
X10203396Y-14064484D01*
X10203396Y-14064484D02*
X10222444Y-14074008D01*
X10222444Y-14074008D02*
X10231968Y-14083531D01*
X10231968Y-14083531D02*
X10241491Y-14102579D01*
X10241491Y-14102579D02*
X10251015Y-14140674D01*
X10251015Y-14140674D02*
X10251015Y-14188293D01*
X10251015Y-14188293D02*
X10241491Y-14226388D01*
X10241491Y-14226388D02*
X10231968Y-14245436D01*
X10231968Y-14245436D02*
X10222444Y-14254960D01*
X10222444Y-14254960D02*
X10203396Y-14264484D01*
X10203396Y-14264484D02*
X10184348Y-14264484D01*
X10184348Y-14264484D02*
X10165301Y-14254960D01*
X10165301Y-14254960D02*
X10155777Y-14245436D01*
X10155777Y-14245436D02*
X10146253Y-14226388D01*
X10146253Y-14226388D02*
X10136729Y-14188293D01*
X10136729Y-14188293D02*
X10136729Y-14140674D01*
X10136729Y-14140674D02*
X10146253Y-14102579D01*
X10146253Y-14102579D02*
X10155777Y-14083531D01*
X10155777Y-14083531D02*
X10165301Y-14074008D01*
X10165301Y-14074008D02*
X10184348Y-14064484D01*
X10317682Y-14064484D02*
X10441491Y-14064484D01*
X10441491Y-14064484D02*
X10374825Y-14140674D01*
X10374825Y-14140674D02*
X10403396Y-14140674D01*
X10403396Y-14140674D02*
X10422444Y-14150198D01*
X10422444Y-14150198D02*
X10431968Y-14159722D01*
X10431968Y-14159722D02*
X10441491Y-14178769D01*
X10441491Y-14178769D02*
X10441491Y-14226388D01*
X10441491Y-14226388D02*
X10431968Y-14245436D01*
X10431968Y-14245436D02*
X10422444Y-14254960D01*
X10422444Y-14254960D02*
X10403396Y-14264484D01*
X10403396Y-14264484D02*
X10346253Y-14264484D01*
X10346253Y-14264484D02*
X10327206Y-14254960D01*
X10327206Y-14254960D02*
X10317682Y-14245436D01*
X10631968Y-14264484D02*
X10517682Y-14264484D01*
X10574825Y-14264484D02*
X10574825Y-14064484D01*
X10574825Y-14064484D02*
X10555777Y-14093055D01*
X10555777Y-14093055D02*
X10536729Y-14112103D01*
X10536729Y-14112103D02*
X10517682Y-14121627D01*
X10812920Y-14064484D02*
X10717682Y-14064484D01*
X10717682Y-14064484D02*
X10708158Y-14159722D01*
X10708158Y-14159722D02*
X10717682Y-14150198D01*
X10717682Y-14150198D02*
X10736729Y-14140674D01*
X10736729Y-14140674D02*
X10784349Y-14140674D01*
X10784349Y-14140674D02*
X10803396Y-14150198D01*
X10803396Y-14150198D02*
X10812920Y-14159722D01*
X10812920Y-14159722D02*
X10822444Y-14178769D01*
X10822444Y-14178769D02*
X10822444Y-14226388D01*
X10822444Y-14226388D02*
X10812920Y-14245436D01*
X10812920Y-14245436D02*
X10803396Y-14254960D01*
X10803396Y-14254960D02*
X10784349Y-14264484D01*
X10784349Y-14264484D02*
X10736729Y-14264484D01*
X10736729Y-14264484D02*
X10717682Y-14254960D01*
X10717682Y-14254960D02*
X10708158Y-14245436D01*
X10898634Y-14064484D02*
X10898634Y-14102579D01*
X10974825Y-14064484D02*
X10974825Y-14102579D01*
X11270063Y-14340674D02*
X11260539Y-14331150D01*
X11260539Y-14331150D02*
X11241491Y-14302579D01*
X11241491Y-14302579D02*
X11231968Y-14283531D01*
X11231968Y-14283531D02*
X11222444Y-14254960D01*
X11222444Y-14254960D02*
X11212920Y-14207341D01*
X11212920Y-14207341D02*
X11212920Y-14169246D01*
X11212920Y-14169246D02*
X11222444Y-14121627D01*
X11222444Y-14121627D02*
X11231968Y-14093055D01*
X11231968Y-14093055D02*
X11241491Y-14074008D01*
X11241491Y-14074008D02*
X11260539Y-14045436D01*
X11260539Y-14045436D02*
X11270063Y-14035912D01*
X11336729Y-14083531D02*
X11346253Y-14074008D01*
X11346253Y-14074008D02*
X11365301Y-14064484D01*
X11365301Y-14064484D02*
X11412920Y-14064484D01*
X11412920Y-14064484D02*
X11431968Y-14074008D01*
X11431968Y-14074008D02*
X11441491Y-14083531D01*
X11441491Y-14083531D02*
X11451015Y-14102579D01*
X11451015Y-14102579D02*
X11451015Y-14121627D01*
X11451015Y-14121627D02*
X11441491Y-14150198D01*
X11441491Y-14150198D02*
X11327206Y-14264484D01*
X11327206Y-14264484D02*
X11451015Y-14264484D01*
X11689110Y-14264484D02*
X11689110Y-14064484D01*
X11774825Y-14264484D02*
X11774825Y-14159722D01*
X11774825Y-14159722D02*
X11765301Y-14140674D01*
X11765301Y-14140674D02*
X11746253Y-14131150D01*
X11746253Y-14131150D02*
X11717682Y-14131150D01*
X11717682Y-14131150D02*
X11698634Y-14140674D01*
X11698634Y-14140674D02*
X11689110Y-14150198D01*
X11898634Y-14264484D02*
X11879587Y-14254960D01*
X11879587Y-14254960D02*
X11870063Y-14245436D01*
X11870063Y-14245436D02*
X11860539Y-14226388D01*
X11860539Y-14226388D02*
X11860539Y-14169246D01*
X11860539Y-14169246D02*
X11870063Y-14150198D01*
X11870063Y-14150198D02*
X11879587Y-14140674D01*
X11879587Y-14140674D02*
X11898634Y-14131150D01*
X11898634Y-14131150D02*
X11927206Y-14131150D01*
X11927206Y-14131150D02*
X11946253Y-14140674D01*
X11946253Y-14140674D02*
X11955777Y-14150198D01*
X11955777Y-14150198D02*
X11965301Y-14169246D01*
X11965301Y-14169246D02*
X11965301Y-14226388D01*
X11965301Y-14226388D02*
X11955777Y-14245436D01*
X11955777Y-14245436D02*
X11946253Y-14254960D01*
X11946253Y-14254960D02*
X11927206Y-14264484D01*
X11927206Y-14264484D02*
X11898634Y-14264484D01*
X12079587Y-14264484D02*
X12060539Y-14254960D01*
X12060539Y-14254960D02*
X12051015Y-14235912D01*
X12051015Y-14235912D02*
X12051015Y-14064484D01*
X12231968Y-14254960D02*
X12212920Y-14264484D01*
X12212920Y-14264484D02*
X12174825Y-14264484D01*
X12174825Y-14264484D02*
X12155777Y-14254960D01*
X12155777Y-14254960D02*
X12146253Y-14235912D01*
X12146253Y-14235912D02*
X12146253Y-14159722D01*
X12146253Y-14159722D02*
X12155777Y-14140674D01*
X12155777Y-14140674D02*
X12174825Y-14131150D01*
X12174825Y-14131150D02*
X12212920Y-14131150D01*
X12212920Y-14131150D02*
X12231968Y-14140674D01*
X12231968Y-14140674D02*
X12241491Y-14159722D01*
X12241491Y-14159722D02*
X12241491Y-14178769D01*
X12241491Y-14178769D02*
X12146253Y-14197817D01*
X12317682Y-14254960D02*
X12336730Y-14264484D01*
X12336730Y-14264484D02*
X12374825Y-14264484D01*
X12374825Y-14264484D02*
X12393872Y-14254960D01*
X12393872Y-14254960D02*
X12403396Y-14235912D01*
X12403396Y-14235912D02*
X12403396Y-14226388D01*
X12403396Y-14226388D02*
X12393872Y-14207341D01*
X12393872Y-14207341D02*
X12374825Y-14197817D01*
X12374825Y-14197817D02*
X12346253Y-14197817D01*
X12346253Y-14197817D02*
X12327206Y-14188293D01*
X12327206Y-14188293D02*
X12317682Y-14169246D01*
X12317682Y-14169246D02*
X12317682Y-14159722D01*
X12317682Y-14159722D02*
X12327206Y-14140674D01*
X12327206Y-14140674D02*
X12346253Y-14131150D01*
X12346253Y-14131150D02*
X12374825Y-14131150D01*
X12374825Y-14131150D02*
X12393872Y-14140674D01*
X12470063Y-14340674D02*
X12479587Y-14331150D01*
X12479587Y-14331150D02*
X12498634Y-14302579D01*
X12498634Y-14302579D02*
X12508158Y-14283531D01*
X12508158Y-14283531D02*
X12517682Y-14254960D01*
X12517682Y-14254960D02*
X12527206Y-14207341D01*
X12527206Y-14207341D02*
X12527206Y-14169246D01*
X12527206Y-14169246D02*
X12517682Y-14121627D01*
X12517682Y-14121627D02*
X12508158Y-14093055D01*
X12508158Y-14093055D02*
X12498634Y-14074008D01*
X12498634Y-14074008D02*
X12479587Y-14045436D01*
X12479587Y-14045436D02*
X12470063Y-14035912D01*
D10*
X7680356Y-14472356D02*
X7680356Y-14401644D01*
X7609644Y-14401644D01*
X7609644Y-14472356D01*
X7680356Y-14472356D01*
D11*
X8060539Y-14528484D02*
X7946253Y-14528484D01*
X8003396Y-14528484D02*
X8003396Y-14328484D01*
X8003396Y-14328484D02*
X7984348Y-14357055D01*
X7984348Y-14357055D02*
X7965301Y-14376103D01*
X7965301Y-14376103D02*
X7946253Y-14385627D01*
X8146253Y-14509436D02*
X8155777Y-14518960D01*
X8155777Y-14518960D02*
X8146253Y-14528484D01*
X8146253Y-14528484D02*
X8136729Y-14518960D01*
X8136729Y-14518960D02*
X8146253Y-14509436D01*
X8146253Y-14509436D02*
X8146253Y-14528484D01*
X8279586Y-14328484D02*
X8298634Y-14328484D01*
X8298634Y-14328484D02*
X8317682Y-14338008D01*
X8317682Y-14338008D02*
X8327205Y-14347531D01*
X8327205Y-14347531D02*
X8336729Y-14366579D01*
X8336729Y-14366579D02*
X8346253Y-14404674D01*
X8346253Y-14404674D02*
X8346253Y-14452293D01*
X8346253Y-14452293D02*
X8336729Y-14490388D01*
X8336729Y-14490388D02*
X8327205Y-14509436D01*
X8327205Y-14509436D02*
X8317682Y-14518960D01*
X8317682Y-14518960D02*
X8298634Y-14528484D01*
X8298634Y-14528484D02*
X8279586Y-14528484D01*
X8279586Y-14528484D02*
X8260539Y-14518960D01*
X8260539Y-14518960D02*
X8251015Y-14509436D01*
X8251015Y-14509436D02*
X8241491Y-14490388D01*
X8241491Y-14490388D02*
X8231967Y-14452293D01*
X8231967Y-14452293D02*
X8231967Y-14404674D01*
X8231967Y-14404674D02*
X8241491Y-14366579D01*
X8241491Y-14366579D02*
X8251015Y-14347531D01*
X8251015Y-14347531D02*
X8260539Y-14338008D01*
X8260539Y-14338008D02*
X8279586Y-14328484D01*
X8470063Y-14328484D02*
X8489110Y-14328484D01*
X8489110Y-14328484D02*
X8508158Y-14338008D01*
X8508158Y-14338008D02*
X8517682Y-14347531D01*
X8517682Y-14347531D02*
X8527205Y-14366579D01*
X8527205Y-14366579D02*
X8536729Y-14404674D01*
X8536729Y-14404674D02*
X8536729Y-14452293D01*
X8536729Y-14452293D02*
X8527205Y-14490388D01*
X8527205Y-14490388D02*
X8517682Y-14509436D01*
X8517682Y-14509436D02*
X8508158Y-14518960D01*
X8508158Y-14518960D02*
X8489110Y-14528484D01*
X8489110Y-14528484D02*
X8470063Y-14528484D01*
X8470063Y-14528484D02*
X8451015Y-14518960D01*
X8451015Y-14518960D02*
X8441491Y-14509436D01*
X8441491Y-14509436D02*
X8431967Y-14490388D01*
X8431967Y-14490388D02*
X8422444Y-14452293D01*
X8422444Y-14452293D02*
X8422444Y-14404674D01*
X8422444Y-14404674D02*
X8431967Y-14366579D01*
X8431967Y-14366579D02*
X8441491Y-14347531D01*
X8441491Y-14347531D02*
X8451015Y-14338008D01*
X8451015Y-14338008D02*
X8470063Y-14328484D01*
X8660539Y-14328484D02*
X8679586Y-14328484D01*
X8679586Y-14328484D02*
X8698634Y-14338008D01*
X8698634Y-14338008D02*
X8708158Y-14347531D01*
X8708158Y-14347531D02*
X8717682Y-14366579D01*
X8717682Y-14366579D02*
X8727205Y-14404674D01*
X8727205Y-14404674D02*
X8727205Y-14452293D01*
X8727205Y-14452293D02*
X8717682Y-14490388D01*
X8717682Y-14490388D02*
X8708158Y-14509436D01*
X8708158Y-14509436D02*
X8698634Y-14518960D01*
X8698634Y-14518960D02*
X8679586Y-14528484D01*
X8679586Y-14528484D02*
X8660539Y-14528484D01*
X8660539Y-14528484D02*
X8641491Y-14518960D01*
X8641491Y-14518960D02*
X8631967Y-14509436D01*
X8631967Y-14509436D02*
X8622444Y-14490388D01*
X8622444Y-14490388D02*
X8612920Y-14452293D01*
X8612920Y-14452293D02*
X8612920Y-14404674D01*
X8612920Y-14404674D02*
X8622444Y-14366579D01*
X8622444Y-14366579D02*
X8631967Y-14347531D01*
X8631967Y-14347531D02*
X8641491Y-14338008D01*
X8641491Y-14338008D02*
X8660539Y-14328484D01*
X8812920Y-14528484D02*
X8812920Y-14395150D01*
X8812920Y-14414198D02*
X8822444Y-14404674D01*
X8822444Y-14404674D02*
X8841491Y-14395150D01*
X8841491Y-14395150D02*
X8870063Y-14395150D01*
X8870063Y-14395150D02*
X8889110Y-14404674D01*
X8889110Y-14404674D02*
X8898634Y-14423722D01*
X8898634Y-14423722D02*
X8898634Y-14528484D01*
X8898634Y-14423722D02*
X8908158Y-14404674D01*
X8908158Y-14404674D02*
X8927205Y-14395150D01*
X8927205Y-14395150D02*
X8955777Y-14395150D01*
X8955777Y-14395150D02*
X8974825Y-14404674D01*
X8974825Y-14404674D02*
X8984348Y-14423722D01*
X8984348Y-14423722D02*
X8984348Y-14528484D01*
X9079586Y-14528484D02*
X9079586Y-14395150D01*
X9079586Y-14414198D02*
X9089110Y-14404674D01*
X9089110Y-14404674D02*
X9108158Y-14395150D01*
X9108158Y-14395150D02*
X9136729Y-14395150D01*
X9136729Y-14395150D02*
X9155777Y-14404674D01*
X9155777Y-14404674D02*
X9165301Y-14423722D01*
X9165301Y-14423722D02*
X9165301Y-14528484D01*
X9165301Y-14423722D02*
X9174825Y-14404674D01*
X9174825Y-14404674D02*
X9193872Y-14395150D01*
X9193872Y-14395150D02*
X9222444Y-14395150D01*
X9222444Y-14395150D02*
X9241491Y-14404674D01*
X9241491Y-14404674D02*
X9251015Y-14423722D01*
X9251015Y-14423722D02*
X9251015Y-14528484D01*
X9641491Y-14318960D02*
X9470063Y-14576103D01*
X9898634Y-14328484D02*
X9917682Y-14328484D01*
X9917682Y-14328484D02*
X9936729Y-14338008D01*
X9936729Y-14338008D02*
X9946253Y-14347531D01*
X9946253Y-14347531D02*
X9955777Y-14366579D01*
X9955777Y-14366579D02*
X9965301Y-14404674D01*
X9965301Y-14404674D02*
X9965301Y-14452293D01*
X9965301Y-14452293D02*
X9955777Y-14490388D01*
X9955777Y-14490388D02*
X9946253Y-14509436D01*
X9946253Y-14509436D02*
X9936729Y-14518960D01*
X9936729Y-14518960D02*
X9917682Y-14528484D01*
X9917682Y-14528484D02*
X9898634Y-14528484D01*
X9898634Y-14528484D02*
X9879587Y-14518960D01*
X9879587Y-14518960D02*
X9870063Y-14509436D01*
X9870063Y-14509436D02*
X9860539Y-14490388D01*
X9860539Y-14490388D02*
X9851015Y-14452293D01*
X9851015Y-14452293D02*
X9851015Y-14404674D01*
X9851015Y-14404674D02*
X9860539Y-14366579D01*
X9860539Y-14366579D02*
X9870063Y-14347531D01*
X9870063Y-14347531D02*
X9879587Y-14338008D01*
X9879587Y-14338008D02*
X9898634Y-14328484D01*
X10051015Y-14509436D02*
X10060539Y-14518960D01*
X10060539Y-14518960D02*
X10051015Y-14528484D01*
X10051015Y-14528484D02*
X10041491Y-14518960D01*
X10041491Y-14518960D02*
X10051015Y-14509436D01*
X10051015Y-14509436D02*
X10051015Y-14528484D01*
X10184348Y-14328484D02*
X10203396Y-14328484D01*
X10203396Y-14328484D02*
X10222444Y-14338008D01*
X10222444Y-14338008D02*
X10231968Y-14347531D01*
X10231968Y-14347531D02*
X10241491Y-14366579D01*
X10241491Y-14366579D02*
X10251015Y-14404674D01*
X10251015Y-14404674D02*
X10251015Y-14452293D01*
X10251015Y-14452293D02*
X10241491Y-14490388D01*
X10241491Y-14490388D02*
X10231968Y-14509436D01*
X10231968Y-14509436D02*
X10222444Y-14518960D01*
X10222444Y-14518960D02*
X10203396Y-14528484D01*
X10203396Y-14528484D02*
X10184348Y-14528484D01*
X10184348Y-14528484D02*
X10165301Y-14518960D01*
X10165301Y-14518960D02*
X10155777Y-14509436D01*
X10155777Y-14509436D02*
X10146253Y-14490388D01*
X10146253Y-14490388D02*
X10136729Y-14452293D01*
X10136729Y-14452293D02*
X10136729Y-14404674D01*
X10136729Y-14404674D02*
X10146253Y-14366579D01*
X10146253Y-14366579D02*
X10155777Y-14347531D01*
X10155777Y-14347531D02*
X10165301Y-14338008D01*
X10165301Y-14338008D02*
X10184348Y-14328484D01*
X10317682Y-14328484D02*
X10441491Y-14328484D01*
X10441491Y-14328484D02*
X10374825Y-14404674D01*
X10374825Y-14404674D02*
X10403396Y-14404674D01*
X10403396Y-14404674D02*
X10422444Y-14414198D01*
X10422444Y-14414198D02*
X10431968Y-14423722D01*
X10431968Y-14423722D02*
X10441491Y-14442769D01*
X10441491Y-14442769D02*
X10441491Y-14490388D01*
X10441491Y-14490388D02*
X10431968Y-14509436D01*
X10431968Y-14509436D02*
X10422444Y-14518960D01*
X10422444Y-14518960D02*
X10403396Y-14528484D01*
X10403396Y-14528484D02*
X10346253Y-14528484D01*
X10346253Y-14528484D02*
X10327206Y-14518960D01*
X10327206Y-14518960D02*
X10317682Y-14509436D01*
X10536729Y-14528484D02*
X10574825Y-14528484D01*
X10574825Y-14528484D02*
X10593872Y-14518960D01*
X10593872Y-14518960D02*
X10603396Y-14509436D01*
X10603396Y-14509436D02*
X10622444Y-14480865D01*
X10622444Y-14480865D02*
X10631968Y-14442769D01*
X10631968Y-14442769D02*
X10631968Y-14366579D01*
X10631968Y-14366579D02*
X10622444Y-14347531D01*
X10622444Y-14347531D02*
X10612920Y-14338008D01*
X10612920Y-14338008D02*
X10593872Y-14328484D01*
X10593872Y-14328484D02*
X10555777Y-14328484D01*
X10555777Y-14328484D02*
X10536729Y-14338008D01*
X10536729Y-14338008D02*
X10527206Y-14347531D01*
X10527206Y-14347531D02*
X10517682Y-14366579D01*
X10517682Y-14366579D02*
X10517682Y-14414198D01*
X10517682Y-14414198D02*
X10527206Y-14433246D01*
X10527206Y-14433246D02*
X10536729Y-14442769D01*
X10536729Y-14442769D02*
X10555777Y-14452293D01*
X10555777Y-14452293D02*
X10593872Y-14452293D01*
X10593872Y-14452293D02*
X10612920Y-14442769D01*
X10612920Y-14442769D02*
X10622444Y-14433246D01*
X10622444Y-14433246D02*
X10631968Y-14414198D01*
X10803396Y-14395150D02*
X10803396Y-14528484D01*
X10755777Y-14318960D02*
X10708158Y-14461817D01*
X10708158Y-14461817D02*
X10831968Y-14461817D01*
X10898634Y-14328484D02*
X10898634Y-14366579D01*
X10974825Y-14328484D02*
X10974825Y-14366579D01*
X11270063Y-14604674D02*
X11260539Y-14595150D01*
X11260539Y-14595150D02*
X11241491Y-14566579D01*
X11241491Y-14566579D02*
X11231968Y-14547531D01*
X11231968Y-14547531D02*
X11222444Y-14518960D01*
X11222444Y-14518960D02*
X11212920Y-14471341D01*
X11212920Y-14471341D02*
X11212920Y-14433246D01*
X11212920Y-14433246D02*
X11222444Y-14385627D01*
X11222444Y-14385627D02*
X11231968Y-14357055D01*
X11231968Y-14357055D02*
X11241491Y-14338008D01*
X11241491Y-14338008D02*
X11260539Y-14309436D01*
X11260539Y-14309436D02*
X11270063Y-14299912D01*
X11336729Y-14347531D02*
X11346253Y-14338008D01*
X11346253Y-14338008D02*
X11365301Y-14328484D01*
X11365301Y-14328484D02*
X11412920Y-14328484D01*
X11412920Y-14328484D02*
X11431968Y-14338008D01*
X11431968Y-14338008D02*
X11441491Y-14347531D01*
X11441491Y-14347531D02*
X11451015Y-14366579D01*
X11451015Y-14366579D02*
X11451015Y-14385627D01*
X11451015Y-14385627D02*
X11441491Y-14414198D01*
X11441491Y-14414198D02*
X11327206Y-14528484D01*
X11327206Y-14528484D02*
X11451015Y-14528484D01*
X11689110Y-14528484D02*
X11689110Y-14328484D01*
X11774825Y-14528484D02*
X11774825Y-14423722D01*
X11774825Y-14423722D02*
X11765301Y-14404674D01*
X11765301Y-14404674D02*
X11746253Y-14395150D01*
X11746253Y-14395150D02*
X11717682Y-14395150D01*
X11717682Y-14395150D02*
X11698634Y-14404674D01*
X11698634Y-14404674D02*
X11689110Y-14414198D01*
X11898634Y-14528484D02*
X11879587Y-14518960D01*
X11879587Y-14518960D02*
X11870063Y-14509436D01*
X11870063Y-14509436D02*
X11860539Y-14490388D01*
X11860539Y-14490388D02*
X11860539Y-14433246D01*
X11860539Y-14433246D02*
X11870063Y-14414198D01*
X11870063Y-14414198D02*
X11879587Y-14404674D01*
X11879587Y-14404674D02*
X11898634Y-14395150D01*
X11898634Y-14395150D02*
X11927206Y-14395150D01*
X11927206Y-14395150D02*
X11946253Y-14404674D01*
X11946253Y-14404674D02*
X11955777Y-14414198D01*
X11955777Y-14414198D02*
X11965301Y-14433246D01*
X11965301Y-14433246D02*
X11965301Y-14490388D01*
X11965301Y-14490388D02*
X11955777Y-14509436D01*
X11955777Y-14509436D02*
X11946253Y-14518960D01*
X11946253Y-14518960D02*
X11927206Y-14528484D01*
X11927206Y-14528484D02*
X11898634Y-14528484D01*
X12079587Y-14528484D02*
X12060539Y-14518960D01*
X12060539Y-14518960D02*
X12051015Y-14499912D01*
X12051015Y-14499912D02*
X12051015Y-14328484D01*
X12231968Y-14518960D02*
X12212920Y-14528484D01*
X12212920Y-14528484D02*
X12174825Y-14528484D01*
X12174825Y-14528484D02*
X12155777Y-14518960D01*
X12155777Y-14518960D02*
X12146253Y-14499912D01*
X12146253Y-14499912D02*
X12146253Y-14423722D01*
X12146253Y-14423722D02*
X12155777Y-14404674D01*
X12155777Y-14404674D02*
X12174825Y-14395150D01*
X12174825Y-14395150D02*
X12212920Y-14395150D01*
X12212920Y-14395150D02*
X12231968Y-14404674D01*
X12231968Y-14404674D02*
X12241491Y-14423722D01*
X12241491Y-14423722D02*
X12241491Y-14442769D01*
X12241491Y-14442769D02*
X12146253Y-14461817D01*
X12317682Y-14518960D02*
X12336730Y-14528484D01*
X12336730Y-14528484D02*
X12374825Y-14528484D01*
X12374825Y-14528484D02*
X12393872Y-14518960D01*
X12393872Y-14518960D02*
X12403396Y-14499912D01*
X12403396Y-14499912D02*
X12403396Y-14490388D01*
X12403396Y-14490388D02*
X12393872Y-14471341D01*
X12393872Y-14471341D02*
X12374825Y-14461817D01*
X12374825Y-14461817D02*
X12346253Y-14461817D01*
X12346253Y-14461817D02*
X12327206Y-14452293D01*
X12327206Y-14452293D02*
X12317682Y-14433246D01*
X12317682Y-14433246D02*
X12317682Y-14423722D01*
X12317682Y-14423722D02*
X12327206Y-14404674D01*
X12327206Y-14404674D02*
X12346253Y-14395150D01*
X12346253Y-14395150D02*
X12374825Y-14395150D01*
X12374825Y-14395150D02*
X12393872Y-14404674D01*
X12470063Y-14604674D02*
X12479587Y-14595150D01*
X12479587Y-14595150D02*
X12498634Y-14566579D01*
X12498634Y-14566579D02*
X12508158Y-14547531D01*
X12508158Y-14547531D02*
X12517682Y-14518960D01*
X12517682Y-14518960D02*
X12527206Y-14471341D01*
X12527206Y-14471341D02*
X12527206Y-14433246D01*
X12527206Y-14433246D02*
X12517682Y-14385627D01*
X12517682Y-14385627D02*
X12508158Y-14357055D01*
X12508158Y-14357055D02*
X12498634Y-14338008D01*
X12498634Y-14338008D02*
X12479587Y-14309436D01*
X12479587Y-14309436D02*
X12470063Y-14299912D01*
D15*
X7644200Y-14751800D02*
X7695000Y-14701000D01*
X7644200Y-14650200D01*
X7593400Y-14701000D01*
X7644200Y-14751800D01*
D11*
X8060539Y-14792484D02*
X7946253Y-14792484D01*
X8003396Y-14792484D02*
X8003396Y-14592484D01*
X8003396Y-14592484D02*
X7984348Y-14621055D01*
X7984348Y-14621055D02*
X7965301Y-14640103D01*
X7965301Y-14640103D02*
X7946253Y-14649627D01*
X8146253Y-14773436D02*
X8155777Y-14782960D01*
X8155777Y-14782960D02*
X8146253Y-14792484D01*
X8146253Y-14792484D02*
X8136729Y-14782960D01*
X8136729Y-14782960D02*
X8146253Y-14773436D01*
X8146253Y-14773436D02*
X8146253Y-14792484D01*
X8279586Y-14592484D02*
X8298634Y-14592484D01*
X8298634Y-14592484D02*
X8317682Y-14602008D01*
X8317682Y-14602008D02*
X8327205Y-14611531D01*
X8327205Y-14611531D02*
X8336729Y-14630579D01*
X8336729Y-14630579D02*
X8346253Y-14668674D01*
X8346253Y-14668674D02*
X8346253Y-14716293D01*
X8346253Y-14716293D02*
X8336729Y-14754388D01*
X8336729Y-14754388D02*
X8327205Y-14773436D01*
X8327205Y-14773436D02*
X8317682Y-14782960D01*
X8317682Y-14782960D02*
X8298634Y-14792484D01*
X8298634Y-14792484D02*
X8279586Y-14792484D01*
X8279586Y-14792484D02*
X8260539Y-14782960D01*
X8260539Y-14782960D02*
X8251015Y-14773436D01*
X8251015Y-14773436D02*
X8241491Y-14754388D01*
X8241491Y-14754388D02*
X8231967Y-14716293D01*
X8231967Y-14716293D02*
X8231967Y-14668674D01*
X8231967Y-14668674D02*
X8241491Y-14630579D01*
X8241491Y-14630579D02*
X8251015Y-14611531D01*
X8251015Y-14611531D02*
X8260539Y-14602008D01*
X8260539Y-14602008D02*
X8279586Y-14592484D01*
X8536729Y-14792484D02*
X8422444Y-14792484D01*
X8479586Y-14792484D02*
X8479586Y-14592484D01*
X8479586Y-14592484D02*
X8460539Y-14621055D01*
X8460539Y-14621055D02*
X8441491Y-14640103D01*
X8441491Y-14640103D02*
X8422444Y-14649627D01*
X8708158Y-14592484D02*
X8670063Y-14592484D01*
X8670063Y-14592484D02*
X8651015Y-14602008D01*
X8651015Y-14602008D02*
X8641491Y-14611531D01*
X8641491Y-14611531D02*
X8622444Y-14640103D01*
X8622444Y-14640103D02*
X8612920Y-14678198D01*
X8612920Y-14678198D02*
X8612920Y-14754388D01*
X8612920Y-14754388D02*
X8622444Y-14773436D01*
X8622444Y-14773436D02*
X8631967Y-14782960D01*
X8631967Y-14782960D02*
X8651015Y-14792484D01*
X8651015Y-14792484D02*
X8689110Y-14792484D01*
X8689110Y-14792484D02*
X8708158Y-14782960D01*
X8708158Y-14782960D02*
X8717682Y-14773436D01*
X8717682Y-14773436D02*
X8727205Y-14754388D01*
X8727205Y-14754388D02*
X8727205Y-14706769D01*
X8727205Y-14706769D02*
X8717682Y-14687722D01*
X8717682Y-14687722D02*
X8708158Y-14678198D01*
X8708158Y-14678198D02*
X8689110Y-14668674D01*
X8689110Y-14668674D02*
X8651015Y-14668674D01*
X8651015Y-14668674D02*
X8631967Y-14678198D01*
X8631967Y-14678198D02*
X8622444Y-14687722D01*
X8622444Y-14687722D02*
X8612920Y-14706769D01*
X8812920Y-14792484D02*
X8812920Y-14659150D01*
X8812920Y-14678198D02*
X8822444Y-14668674D01*
X8822444Y-14668674D02*
X8841491Y-14659150D01*
X8841491Y-14659150D02*
X8870063Y-14659150D01*
X8870063Y-14659150D02*
X8889110Y-14668674D01*
X8889110Y-14668674D02*
X8898634Y-14687722D01*
X8898634Y-14687722D02*
X8898634Y-14792484D01*
X8898634Y-14687722D02*
X8908158Y-14668674D01*
X8908158Y-14668674D02*
X8927205Y-14659150D01*
X8927205Y-14659150D02*
X8955777Y-14659150D01*
X8955777Y-14659150D02*
X8974825Y-14668674D01*
X8974825Y-14668674D02*
X8984348Y-14687722D01*
X8984348Y-14687722D02*
X8984348Y-14792484D01*
X9079586Y-14792484D02*
X9079586Y-14659150D01*
X9079586Y-14678198D02*
X9089110Y-14668674D01*
X9089110Y-14668674D02*
X9108158Y-14659150D01*
X9108158Y-14659150D02*
X9136729Y-14659150D01*
X9136729Y-14659150D02*
X9155777Y-14668674D01*
X9155777Y-14668674D02*
X9165301Y-14687722D01*
X9165301Y-14687722D02*
X9165301Y-14792484D01*
X9165301Y-14687722D02*
X9174825Y-14668674D01*
X9174825Y-14668674D02*
X9193872Y-14659150D01*
X9193872Y-14659150D02*
X9222444Y-14659150D01*
X9222444Y-14659150D02*
X9241491Y-14668674D01*
X9241491Y-14668674D02*
X9251015Y-14687722D01*
X9251015Y-14687722D02*
X9251015Y-14792484D01*
X9641491Y-14582960D02*
X9470063Y-14840103D01*
X9898634Y-14592484D02*
X9917682Y-14592484D01*
X9917682Y-14592484D02*
X9936729Y-14602008D01*
X9936729Y-14602008D02*
X9946253Y-14611531D01*
X9946253Y-14611531D02*
X9955777Y-14630579D01*
X9955777Y-14630579D02*
X9965301Y-14668674D01*
X9965301Y-14668674D02*
X9965301Y-14716293D01*
X9965301Y-14716293D02*
X9955777Y-14754388D01*
X9955777Y-14754388D02*
X9946253Y-14773436D01*
X9946253Y-14773436D02*
X9936729Y-14782960D01*
X9936729Y-14782960D02*
X9917682Y-14792484D01*
X9917682Y-14792484D02*
X9898634Y-14792484D01*
X9898634Y-14792484D02*
X9879587Y-14782960D01*
X9879587Y-14782960D02*
X9870063Y-14773436D01*
X9870063Y-14773436D02*
X9860539Y-14754388D01*
X9860539Y-14754388D02*
X9851015Y-14716293D01*
X9851015Y-14716293D02*
X9851015Y-14668674D01*
X9851015Y-14668674D02*
X9860539Y-14630579D01*
X9860539Y-14630579D02*
X9870063Y-14611531D01*
X9870063Y-14611531D02*
X9879587Y-14602008D01*
X9879587Y-14602008D02*
X9898634Y-14592484D01*
X10051015Y-14773436D02*
X10060539Y-14782960D01*
X10060539Y-14782960D02*
X10051015Y-14792484D01*
X10051015Y-14792484D02*
X10041491Y-14782960D01*
X10041491Y-14782960D02*
X10051015Y-14773436D01*
X10051015Y-14773436D02*
X10051015Y-14792484D01*
X10184348Y-14592484D02*
X10203396Y-14592484D01*
X10203396Y-14592484D02*
X10222444Y-14602008D01*
X10222444Y-14602008D02*
X10231968Y-14611531D01*
X10231968Y-14611531D02*
X10241491Y-14630579D01*
X10241491Y-14630579D02*
X10251015Y-14668674D01*
X10251015Y-14668674D02*
X10251015Y-14716293D01*
X10251015Y-14716293D02*
X10241491Y-14754388D01*
X10241491Y-14754388D02*
X10231968Y-14773436D01*
X10231968Y-14773436D02*
X10222444Y-14782960D01*
X10222444Y-14782960D02*
X10203396Y-14792484D01*
X10203396Y-14792484D02*
X10184348Y-14792484D01*
X10184348Y-14792484D02*
X10165301Y-14782960D01*
X10165301Y-14782960D02*
X10155777Y-14773436D01*
X10155777Y-14773436D02*
X10146253Y-14754388D01*
X10146253Y-14754388D02*
X10136729Y-14716293D01*
X10136729Y-14716293D02*
X10136729Y-14668674D01*
X10136729Y-14668674D02*
X10146253Y-14630579D01*
X10146253Y-14630579D02*
X10155777Y-14611531D01*
X10155777Y-14611531D02*
X10165301Y-14602008D01*
X10165301Y-14602008D02*
X10184348Y-14592484D01*
X10422444Y-14659150D02*
X10422444Y-14792484D01*
X10374825Y-14582960D02*
X10327206Y-14725817D01*
X10327206Y-14725817D02*
X10451015Y-14725817D01*
X10565301Y-14592484D02*
X10584349Y-14592484D01*
X10584349Y-14592484D02*
X10603396Y-14602008D01*
X10603396Y-14602008D02*
X10612920Y-14611531D01*
X10612920Y-14611531D02*
X10622444Y-14630579D01*
X10622444Y-14630579D02*
X10631968Y-14668674D01*
X10631968Y-14668674D02*
X10631968Y-14716293D01*
X10631968Y-14716293D02*
X10622444Y-14754388D01*
X10622444Y-14754388D02*
X10612920Y-14773436D01*
X10612920Y-14773436D02*
X10603396Y-14782960D01*
X10603396Y-14782960D02*
X10584349Y-14792484D01*
X10584349Y-14792484D02*
X10565301Y-14792484D01*
X10565301Y-14792484D02*
X10546253Y-14782960D01*
X10546253Y-14782960D02*
X10536729Y-14773436D01*
X10536729Y-14773436D02*
X10527206Y-14754388D01*
X10527206Y-14754388D02*
X10517682Y-14716293D01*
X10517682Y-14716293D02*
X10517682Y-14668674D01*
X10517682Y-14668674D02*
X10527206Y-14630579D01*
X10527206Y-14630579D02*
X10536729Y-14611531D01*
X10536729Y-14611531D02*
X10546253Y-14602008D01*
X10546253Y-14602008D02*
X10565301Y-14592484D01*
X10755777Y-14592484D02*
X10774825Y-14592484D01*
X10774825Y-14592484D02*
X10793872Y-14602008D01*
X10793872Y-14602008D02*
X10803396Y-14611531D01*
X10803396Y-14611531D02*
X10812920Y-14630579D01*
X10812920Y-14630579D02*
X10822444Y-14668674D01*
X10822444Y-14668674D02*
X10822444Y-14716293D01*
X10822444Y-14716293D02*
X10812920Y-14754388D01*
X10812920Y-14754388D02*
X10803396Y-14773436D01*
X10803396Y-14773436D02*
X10793872Y-14782960D01*
X10793872Y-14782960D02*
X10774825Y-14792484D01*
X10774825Y-14792484D02*
X10755777Y-14792484D01*
X10755777Y-14792484D02*
X10736729Y-14782960D01*
X10736729Y-14782960D02*
X10727206Y-14773436D01*
X10727206Y-14773436D02*
X10717682Y-14754388D01*
X10717682Y-14754388D02*
X10708158Y-14716293D01*
X10708158Y-14716293D02*
X10708158Y-14668674D01*
X10708158Y-14668674D02*
X10717682Y-14630579D01*
X10717682Y-14630579D02*
X10727206Y-14611531D01*
X10727206Y-14611531D02*
X10736729Y-14602008D01*
X10736729Y-14602008D02*
X10755777Y-14592484D01*
X10898634Y-14592484D02*
X10898634Y-14630579D01*
X10974825Y-14592484D02*
X10974825Y-14630579D01*
X11270063Y-14868674D02*
X11260539Y-14859150D01*
X11260539Y-14859150D02*
X11241491Y-14830579D01*
X11241491Y-14830579D02*
X11231968Y-14811531D01*
X11231968Y-14811531D02*
X11222444Y-14782960D01*
X11222444Y-14782960D02*
X11212920Y-14735341D01*
X11212920Y-14735341D02*
X11212920Y-14697246D01*
X11212920Y-14697246D02*
X11222444Y-14649627D01*
X11222444Y-14649627D02*
X11231968Y-14621055D01*
X11231968Y-14621055D02*
X11241491Y-14602008D01*
X11241491Y-14602008D02*
X11260539Y-14573436D01*
X11260539Y-14573436D02*
X11270063Y-14563912D01*
X11431968Y-14659150D02*
X11431968Y-14792484D01*
X11384348Y-14582960D02*
X11336729Y-14725817D01*
X11336729Y-14725817D02*
X11460539Y-14725817D01*
X11689110Y-14792484D02*
X11689110Y-14592484D01*
X11774825Y-14792484D02*
X11774825Y-14687722D01*
X11774825Y-14687722D02*
X11765301Y-14668674D01*
X11765301Y-14668674D02*
X11746253Y-14659150D01*
X11746253Y-14659150D02*
X11717682Y-14659150D01*
X11717682Y-14659150D02*
X11698634Y-14668674D01*
X11698634Y-14668674D02*
X11689110Y-14678198D01*
X11898634Y-14792484D02*
X11879587Y-14782960D01*
X11879587Y-14782960D02*
X11870063Y-14773436D01*
X11870063Y-14773436D02*
X11860539Y-14754388D01*
X11860539Y-14754388D02*
X11860539Y-14697246D01*
X11860539Y-14697246D02*
X11870063Y-14678198D01*
X11870063Y-14678198D02*
X11879587Y-14668674D01*
X11879587Y-14668674D02*
X11898634Y-14659150D01*
X11898634Y-14659150D02*
X11927206Y-14659150D01*
X11927206Y-14659150D02*
X11946253Y-14668674D01*
X11946253Y-14668674D02*
X11955777Y-14678198D01*
X11955777Y-14678198D02*
X11965301Y-14697246D01*
X11965301Y-14697246D02*
X11965301Y-14754388D01*
X11965301Y-14754388D02*
X11955777Y-14773436D01*
X11955777Y-14773436D02*
X11946253Y-14782960D01*
X11946253Y-14782960D02*
X11927206Y-14792484D01*
X11927206Y-14792484D02*
X11898634Y-14792484D01*
X12079587Y-14792484D02*
X12060539Y-14782960D01*
X12060539Y-14782960D02*
X12051015Y-14763912D01*
X12051015Y-14763912D02*
X12051015Y-14592484D01*
X12231968Y-14782960D02*
X12212920Y-14792484D01*
X12212920Y-14792484D02*
X12174825Y-14792484D01*
X12174825Y-14792484D02*
X12155777Y-14782960D01*
X12155777Y-14782960D02*
X12146253Y-14763912D01*
X12146253Y-14763912D02*
X12146253Y-14687722D01*
X12146253Y-14687722D02*
X12155777Y-14668674D01*
X12155777Y-14668674D02*
X12174825Y-14659150D01*
X12174825Y-14659150D02*
X12212920Y-14659150D01*
X12212920Y-14659150D02*
X12231968Y-14668674D01*
X12231968Y-14668674D02*
X12241491Y-14687722D01*
X12241491Y-14687722D02*
X12241491Y-14706769D01*
X12241491Y-14706769D02*
X12146253Y-14725817D01*
X12317682Y-14782960D02*
X12336730Y-14792484D01*
X12336730Y-14792484D02*
X12374825Y-14792484D01*
X12374825Y-14792484D02*
X12393872Y-14782960D01*
X12393872Y-14782960D02*
X12403396Y-14763912D01*
X12403396Y-14763912D02*
X12403396Y-14754388D01*
X12403396Y-14754388D02*
X12393872Y-14735341D01*
X12393872Y-14735341D02*
X12374825Y-14725817D01*
X12374825Y-14725817D02*
X12346253Y-14725817D01*
X12346253Y-14725817D02*
X12327206Y-14716293D01*
X12327206Y-14716293D02*
X12317682Y-14697246D01*
X12317682Y-14697246D02*
X12317682Y-14687722D01*
X12317682Y-14687722D02*
X12327206Y-14668674D01*
X12327206Y-14668674D02*
X12346253Y-14659150D01*
X12346253Y-14659150D02*
X12374825Y-14659150D01*
X12374825Y-14659150D02*
X12393872Y-14668674D01*
X12470063Y-14868674D02*
X12479587Y-14859150D01*
X12479587Y-14859150D02*
X12498634Y-14830579D01*
X12498634Y-14830579D02*
X12508158Y-14811531D01*
X12508158Y-14811531D02*
X12517682Y-14782960D01*
X12517682Y-14782960D02*
X12527206Y-14735341D01*
X12527206Y-14735341D02*
X12527206Y-14697246D01*
X12527206Y-14697246D02*
X12517682Y-14649627D01*
X12517682Y-14649627D02*
X12508158Y-14621055D01*
X12508158Y-14621055D02*
X12498634Y-14602008D01*
X12498634Y-14602008D02*
X12479587Y-14573436D01*
X12479587Y-14573436D02*
X12470063Y-14563912D01*
D16*
X7593000Y-14914000D02*
X7695000Y-15016000D01*
X7695000Y-14914000D02*
X7593000Y-15016000D01*
X7695000Y-14965000D02*
G75*
G03*
X7695000Y-14965000I-51000J0D01*
G01*
D11*
X8060539Y-15056484D02*
X7946253Y-15056484D01*
X8003396Y-15056484D02*
X8003396Y-14856484D01*
X8003396Y-14856484D02*
X7984348Y-14885055D01*
X7984348Y-14885055D02*
X7965301Y-14904103D01*
X7965301Y-14904103D02*
X7946253Y-14913627D01*
X8146253Y-15037436D02*
X8155777Y-15046960D01*
X8155777Y-15046960D02*
X8146253Y-15056484D01*
X8146253Y-15056484D02*
X8136729Y-15046960D01*
X8136729Y-15046960D02*
X8146253Y-15037436D01*
X8146253Y-15037436D02*
X8146253Y-15056484D01*
X8279586Y-14856484D02*
X8298634Y-14856484D01*
X8298634Y-14856484D02*
X8317682Y-14866008D01*
X8317682Y-14866008D02*
X8327205Y-14875531D01*
X8327205Y-14875531D02*
X8336729Y-14894579D01*
X8336729Y-14894579D02*
X8346253Y-14932674D01*
X8346253Y-14932674D02*
X8346253Y-14980293D01*
X8346253Y-14980293D02*
X8336729Y-15018388D01*
X8336729Y-15018388D02*
X8327205Y-15037436D01*
X8327205Y-15037436D02*
X8317682Y-15046960D01*
X8317682Y-15046960D02*
X8298634Y-15056484D01*
X8298634Y-15056484D02*
X8279586Y-15056484D01*
X8279586Y-15056484D02*
X8260539Y-15046960D01*
X8260539Y-15046960D02*
X8251015Y-15037436D01*
X8251015Y-15037436D02*
X8241491Y-15018388D01*
X8241491Y-15018388D02*
X8231967Y-14980293D01*
X8231967Y-14980293D02*
X8231967Y-14932674D01*
X8231967Y-14932674D02*
X8241491Y-14894579D01*
X8241491Y-14894579D02*
X8251015Y-14875531D01*
X8251015Y-14875531D02*
X8260539Y-14866008D01*
X8260539Y-14866008D02*
X8279586Y-14856484D01*
X8422444Y-14875531D02*
X8431967Y-14866008D01*
X8431967Y-14866008D02*
X8451015Y-14856484D01*
X8451015Y-14856484D02*
X8498634Y-14856484D01*
X8498634Y-14856484D02*
X8517682Y-14866008D01*
X8517682Y-14866008D02*
X8527205Y-14875531D01*
X8527205Y-14875531D02*
X8536729Y-14894579D01*
X8536729Y-14894579D02*
X8536729Y-14913627D01*
X8536729Y-14913627D02*
X8527205Y-14942198D01*
X8527205Y-14942198D02*
X8412920Y-15056484D01*
X8412920Y-15056484D02*
X8536729Y-15056484D01*
X8660539Y-14856484D02*
X8679586Y-14856484D01*
X8679586Y-14856484D02*
X8698634Y-14866008D01*
X8698634Y-14866008D02*
X8708158Y-14875531D01*
X8708158Y-14875531D02*
X8717682Y-14894579D01*
X8717682Y-14894579D02*
X8727205Y-14932674D01*
X8727205Y-14932674D02*
X8727205Y-14980293D01*
X8727205Y-14980293D02*
X8717682Y-15018388D01*
X8717682Y-15018388D02*
X8708158Y-15037436D01*
X8708158Y-15037436D02*
X8698634Y-15046960D01*
X8698634Y-15046960D02*
X8679586Y-15056484D01*
X8679586Y-15056484D02*
X8660539Y-15056484D01*
X8660539Y-15056484D02*
X8641491Y-15046960D01*
X8641491Y-15046960D02*
X8631967Y-15037436D01*
X8631967Y-15037436D02*
X8622444Y-15018388D01*
X8622444Y-15018388D02*
X8612920Y-14980293D01*
X8612920Y-14980293D02*
X8612920Y-14932674D01*
X8612920Y-14932674D02*
X8622444Y-14894579D01*
X8622444Y-14894579D02*
X8631967Y-14875531D01*
X8631967Y-14875531D02*
X8641491Y-14866008D01*
X8641491Y-14866008D02*
X8660539Y-14856484D01*
X8812920Y-15056484D02*
X8812920Y-14923150D01*
X8812920Y-14942198D02*
X8822444Y-14932674D01*
X8822444Y-14932674D02*
X8841491Y-14923150D01*
X8841491Y-14923150D02*
X8870063Y-14923150D01*
X8870063Y-14923150D02*
X8889110Y-14932674D01*
X8889110Y-14932674D02*
X8898634Y-14951722D01*
X8898634Y-14951722D02*
X8898634Y-15056484D01*
X8898634Y-14951722D02*
X8908158Y-14932674D01*
X8908158Y-14932674D02*
X8927205Y-14923150D01*
X8927205Y-14923150D02*
X8955777Y-14923150D01*
X8955777Y-14923150D02*
X8974825Y-14932674D01*
X8974825Y-14932674D02*
X8984348Y-14951722D01*
X8984348Y-14951722D02*
X8984348Y-15056484D01*
X9079586Y-15056484D02*
X9079586Y-14923150D01*
X9079586Y-14942198D02*
X9089110Y-14932674D01*
X9089110Y-14932674D02*
X9108158Y-14923150D01*
X9108158Y-14923150D02*
X9136729Y-14923150D01*
X9136729Y-14923150D02*
X9155777Y-14932674D01*
X9155777Y-14932674D02*
X9165301Y-14951722D01*
X9165301Y-14951722D02*
X9165301Y-15056484D01*
X9165301Y-14951722D02*
X9174825Y-14932674D01*
X9174825Y-14932674D02*
X9193872Y-14923150D01*
X9193872Y-14923150D02*
X9222444Y-14923150D01*
X9222444Y-14923150D02*
X9241491Y-14932674D01*
X9241491Y-14932674D02*
X9251015Y-14951722D01*
X9251015Y-14951722D02*
X9251015Y-15056484D01*
X9641491Y-14846960D02*
X9470063Y-15104103D01*
X9898634Y-14856484D02*
X9917682Y-14856484D01*
X9917682Y-14856484D02*
X9936729Y-14866008D01*
X9936729Y-14866008D02*
X9946253Y-14875531D01*
X9946253Y-14875531D02*
X9955777Y-14894579D01*
X9955777Y-14894579D02*
X9965301Y-14932674D01*
X9965301Y-14932674D02*
X9965301Y-14980293D01*
X9965301Y-14980293D02*
X9955777Y-15018388D01*
X9955777Y-15018388D02*
X9946253Y-15037436D01*
X9946253Y-15037436D02*
X9936729Y-15046960D01*
X9936729Y-15046960D02*
X9917682Y-15056484D01*
X9917682Y-15056484D02*
X9898634Y-15056484D01*
X9898634Y-15056484D02*
X9879587Y-15046960D01*
X9879587Y-15046960D02*
X9870063Y-15037436D01*
X9870063Y-15037436D02*
X9860539Y-15018388D01*
X9860539Y-15018388D02*
X9851015Y-14980293D01*
X9851015Y-14980293D02*
X9851015Y-14932674D01*
X9851015Y-14932674D02*
X9860539Y-14894579D01*
X9860539Y-14894579D02*
X9870063Y-14875531D01*
X9870063Y-14875531D02*
X9879587Y-14866008D01*
X9879587Y-14866008D02*
X9898634Y-14856484D01*
X10051015Y-15037436D02*
X10060539Y-15046960D01*
X10060539Y-15046960D02*
X10051015Y-15056484D01*
X10051015Y-15056484D02*
X10041491Y-15046960D01*
X10041491Y-15046960D02*
X10051015Y-15037436D01*
X10051015Y-15037436D02*
X10051015Y-15056484D01*
X10184348Y-14856484D02*
X10203396Y-14856484D01*
X10203396Y-14856484D02*
X10222444Y-14866008D01*
X10222444Y-14866008D02*
X10231968Y-14875531D01*
X10231968Y-14875531D02*
X10241491Y-14894579D01*
X10241491Y-14894579D02*
X10251015Y-14932674D01*
X10251015Y-14932674D02*
X10251015Y-14980293D01*
X10251015Y-14980293D02*
X10241491Y-15018388D01*
X10241491Y-15018388D02*
X10231968Y-15037436D01*
X10231968Y-15037436D02*
X10222444Y-15046960D01*
X10222444Y-15046960D02*
X10203396Y-15056484D01*
X10203396Y-15056484D02*
X10184348Y-15056484D01*
X10184348Y-15056484D02*
X10165301Y-15046960D01*
X10165301Y-15046960D02*
X10155777Y-15037436D01*
X10155777Y-15037436D02*
X10146253Y-15018388D01*
X10146253Y-15018388D02*
X10136729Y-14980293D01*
X10136729Y-14980293D02*
X10136729Y-14932674D01*
X10136729Y-14932674D02*
X10146253Y-14894579D01*
X10146253Y-14894579D02*
X10155777Y-14875531D01*
X10155777Y-14875531D02*
X10165301Y-14866008D01*
X10165301Y-14866008D02*
X10184348Y-14856484D01*
X10422444Y-14923150D02*
X10422444Y-15056484D01*
X10374825Y-14846960D02*
X10327206Y-14989817D01*
X10327206Y-14989817D02*
X10451015Y-14989817D01*
X10565301Y-14856484D02*
X10584349Y-14856484D01*
X10584349Y-14856484D02*
X10603396Y-14866008D01*
X10603396Y-14866008D02*
X10612920Y-14875531D01*
X10612920Y-14875531D02*
X10622444Y-14894579D01*
X10622444Y-14894579D02*
X10631968Y-14932674D01*
X10631968Y-14932674D02*
X10631968Y-14980293D01*
X10631968Y-14980293D02*
X10622444Y-15018388D01*
X10622444Y-15018388D02*
X10612920Y-15037436D01*
X10612920Y-15037436D02*
X10603396Y-15046960D01*
X10603396Y-15046960D02*
X10584349Y-15056484D01*
X10584349Y-15056484D02*
X10565301Y-15056484D01*
X10565301Y-15056484D02*
X10546253Y-15046960D01*
X10546253Y-15046960D02*
X10536729Y-15037436D01*
X10536729Y-15037436D02*
X10527206Y-15018388D01*
X10527206Y-15018388D02*
X10517682Y-14980293D01*
X10517682Y-14980293D02*
X10517682Y-14932674D01*
X10517682Y-14932674D02*
X10527206Y-14894579D01*
X10527206Y-14894579D02*
X10536729Y-14875531D01*
X10536729Y-14875531D02*
X10546253Y-14866008D01*
X10546253Y-14866008D02*
X10565301Y-14856484D01*
X10708158Y-14875531D02*
X10717682Y-14866008D01*
X10717682Y-14866008D02*
X10736729Y-14856484D01*
X10736729Y-14856484D02*
X10784349Y-14856484D01*
X10784349Y-14856484D02*
X10803396Y-14866008D01*
X10803396Y-14866008D02*
X10812920Y-14875531D01*
X10812920Y-14875531D02*
X10822444Y-14894579D01*
X10822444Y-14894579D02*
X10822444Y-14913627D01*
X10822444Y-14913627D02*
X10812920Y-14942198D01*
X10812920Y-14942198D02*
X10698634Y-15056484D01*
X10698634Y-15056484D02*
X10822444Y-15056484D01*
X10898634Y-14856484D02*
X10898634Y-14894579D01*
X10974825Y-14856484D02*
X10974825Y-14894579D01*
X11270063Y-15132674D02*
X11260539Y-15123150D01*
X11260539Y-15123150D02*
X11241491Y-15094579D01*
X11241491Y-15094579D02*
X11231968Y-15075531D01*
X11231968Y-15075531D02*
X11222444Y-15046960D01*
X11222444Y-15046960D02*
X11212920Y-14999341D01*
X11212920Y-14999341D02*
X11212920Y-14961246D01*
X11212920Y-14961246D02*
X11222444Y-14913627D01*
X11222444Y-14913627D02*
X11231968Y-14885055D01*
X11231968Y-14885055D02*
X11241491Y-14866008D01*
X11241491Y-14866008D02*
X11260539Y-14837436D01*
X11260539Y-14837436D02*
X11270063Y-14827912D01*
X11431968Y-14923150D02*
X11431968Y-15056484D01*
X11384348Y-14846960D02*
X11336729Y-14989817D01*
X11336729Y-14989817D02*
X11460539Y-14989817D01*
X11574825Y-14856484D02*
X11593872Y-14856484D01*
X11593872Y-14856484D02*
X11612920Y-14866008D01*
X11612920Y-14866008D02*
X11622444Y-14875531D01*
X11622444Y-14875531D02*
X11631968Y-14894579D01*
X11631968Y-14894579D02*
X11641491Y-14932674D01*
X11641491Y-14932674D02*
X11641491Y-14980293D01*
X11641491Y-14980293D02*
X11631968Y-15018388D01*
X11631968Y-15018388D02*
X11622444Y-15037436D01*
X11622444Y-15037436D02*
X11612920Y-15046960D01*
X11612920Y-15046960D02*
X11593872Y-15056484D01*
X11593872Y-15056484D02*
X11574825Y-15056484D01*
X11574825Y-15056484D02*
X11555777Y-15046960D01*
X11555777Y-15046960D02*
X11546253Y-15037436D01*
X11546253Y-15037436D02*
X11536729Y-15018388D01*
X11536729Y-15018388D02*
X11527206Y-14980293D01*
X11527206Y-14980293D02*
X11527206Y-14932674D01*
X11527206Y-14932674D02*
X11536729Y-14894579D01*
X11536729Y-14894579D02*
X11546253Y-14875531D01*
X11546253Y-14875531D02*
X11555777Y-14866008D01*
X11555777Y-14866008D02*
X11574825Y-14856484D01*
X11879587Y-15056484D02*
X11879587Y-14856484D01*
X11965301Y-15056484D02*
X11965301Y-14951722D01*
X11965301Y-14951722D02*
X11955777Y-14932674D01*
X11955777Y-14932674D02*
X11936730Y-14923150D01*
X11936730Y-14923150D02*
X11908158Y-14923150D01*
X11908158Y-14923150D02*
X11889110Y-14932674D01*
X11889110Y-14932674D02*
X11879587Y-14942198D01*
X12089110Y-15056484D02*
X12070063Y-15046960D01*
X12070063Y-15046960D02*
X12060539Y-15037436D01*
X12060539Y-15037436D02*
X12051015Y-15018388D01*
X12051015Y-15018388D02*
X12051015Y-14961246D01*
X12051015Y-14961246D02*
X12060539Y-14942198D01*
X12060539Y-14942198D02*
X12070063Y-14932674D01*
X12070063Y-14932674D02*
X12089110Y-14923150D01*
X12089110Y-14923150D02*
X12117682Y-14923150D01*
X12117682Y-14923150D02*
X12136730Y-14932674D01*
X12136730Y-14932674D02*
X12146253Y-14942198D01*
X12146253Y-14942198D02*
X12155777Y-14961246D01*
X12155777Y-14961246D02*
X12155777Y-15018388D01*
X12155777Y-15018388D02*
X12146253Y-15037436D01*
X12146253Y-15037436D02*
X12136730Y-15046960D01*
X12136730Y-15046960D02*
X12117682Y-15056484D01*
X12117682Y-15056484D02*
X12089110Y-15056484D01*
X12270063Y-15056484D02*
X12251015Y-15046960D01*
X12251015Y-15046960D02*
X12241491Y-15027912D01*
X12241491Y-15027912D02*
X12241491Y-14856484D01*
X12422444Y-15046960D02*
X12403396Y-15056484D01*
X12403396Y-15056484D02*
X12365301Y-15056484D01*
X12365301Y-15056484D02*
X12346253Y-15046960D01*
X12346253Y-15046960D02*
X12336730Y-15027912D01*
X12336730Y-15027912D02*
X12336730Y-14951722D01*
X12336730Y-14951722D02*
X12346253Y-14932674D01*
X12346253Y-14932674D02*
X12365301Y-14923150D01*
X12365301Y-14923150D02*
X12403396Y-14923150D01*
X12403396Y-14923150D02*
X12422444Y-14932674D01*
X12422444Y-14932674D02*
X12431968Y-14951722D01*
X12431968Y-14951722D02*
X12431968Y-14970769D01*
X12431968Y-14970769D02*
X12336730Y-14989817D01*
X12508158Y-15046960D02*
X12527206Y-15056484D01*
X12527206Y-15056484D02*
X12565301Y-15056484D01*
X12565301Y-15056484D02*
X12584349Y-15046960D01*
X12584349Y-15046960D02*
X12593872Y-15027912D01*
X12593872Y-15027912D02*
X12593872Y-15018388D01*
X12593872Y-15018388D02*
X12584349Y-14999341D01*
X12584349Y-14999341D02*
X12565301Y-14989817D01*
X12565301Y-14989817D02*
X12536730Y-14989817D01*
X12536730Y-14989817D02*
X12517682Y-14980293D01*
X12517682Y-14980293D02*
X12508158Y-14961246D01*
X12508158Y-14961246D02*
X12508158Y-14951722D01*
X12508158Y-14951722D02*
X12517682Y-14932674D01*
X12517682Y-14932674D02*
X12536730Y-14923150D01*
X12536730Y-14923150D02*
X12565301Y-14923150D01*
X12565301Y-14923150D02*
X12584349Y-14932674D01*
X12660539Y-15132674D02*
X12670063Y-15123150D01*
X12670063Y-15123150D02*
X12689111Y-15094579D01*
X12689111Y-15094579D02*
X12698634Y-15075531D01*
X12698634Y-15075531D02*
X12708158Y-15046960D01*
X12708158Y-15046960D02*
X12717682Y-14999341D01*
X12717682Y-14999341D02*
X12717682Y-14961246D01*
X12717682Y-14961246D02*
X12708158Y-14913627D01*
X12708158Y-14913627D02*
X12698634Y-14885055D01*
X12698634Y-14885055D02*
X12689111Y-14866008D01*
X12689111Y-14866008D02*
X12670063Y-14837436D01*
X12670063Y-14837436D02*
X12660539Y-14827912D01*
D17*
X7575000Y-15169000D02*
X7695000Y-15289000D01*
X7695000Y-15169000D02*
X7575000Y-15289000D01*
X7635000Y-15169000D02*
X7635000Y-15289000D01*
X7575000Y-15229000D02*
X7695000Y-15229000D01*
D11*
X8060539Y-15320484D02*
X7946253Y-15320484D01*
X8003396Y-15320484D02*
X8003396Y-15120484D01*
X8003396Y-15120484D02*
X7984348Y-15149055D01*
X7984348Y-15149055D02*
X7965301Y-15168103D01*
X7965301Y-15168103D02*
X7946253Y-15177627D01*
X8146253Y-15301436D02*
X8155777Y-15310960D01*
X8155777Y-15310960D02*
X8146253Y-15320484D01*
X8146253Y-15320484D02*
X8136729Y-15310960D01*
X8136729Y-15310960D02*
X8146253Y-15301436D01*
X8146253Y-15301436D02*
X8146253Y-15320484D01*
X8231967Y-15139531D02*
X8241491Y-15130008D01*
X8241491Y-15130008D02*
X8260539Y-15120484D01*
X8260539Y-15120484D02*
X8308158Y-15120484D01*
X8308158Y-15120484D02*
X8327205Y-15130008D01*
X8327205Y-15130008D02*
X8336729Y-15139531D01*
X8336729Y-15139531D02*
X8346253Y-15158579D01*
X8346253Y-15158579D02*
X8346253Y-15177627D01*
X8346253Y-15177627D02*
X8336729Y-15206198D01*
X8336729Y-15206198D02*
X8222443Y-15320484D01*
X8222443Y-15320484D02*
X8346253Y-15320484D01*
X8470063Y-15120484D02*
X8489110Y-15120484D01*
X8489110Y-15120484D02*
X8508158Y-15130008D01*
X8508158Y-15130008D02*
X8517682Y-15139531D01*
X8517682Y-15139531D02*
X8527205Y-15158579D01*
X8527205Y-15158579D02*
X8536729Y-15196674D01*
X8536729Y-15196674D02*
X8536729Y-15244293D01*
X8536729Y-15244293D02*
X8527205Y-15282388D01*
X8527205Y-15282388D02*
X8517682Y-15301436D01*
X8517682Y-15301436D02*
X8508158Y-15310960D01*
X8508158Y-15310960D02*
X8489110Y-15320484D01*
X8489110Y-15320484D02*
X8470063Y-15320484D01*
X8470063Y-15320484D02*
X8451015Y-15310960D01*
X8451015Y-15310960D02*
X8441491Y-15301436D01*
X8441491Y-15301436D02*
X8431967Y-15282388D01*
X8431967Y-15282388D02*
X8422444Y-15244293D01*
X8422444Y-15244293D02*
X8422444Y-15196674D01*
X8422444Y-15196674D02*
X8431967Y-15158579D01*
X8431967Y-15158579D02*
X8441491Y-15139531D01*
X8441491Y-15139531D02*
X8451015Y-15130008D01*
X8451015Y-15130008D02*
X8470063Y-15120484D01*
X8660539Y-15120484D02*
X8679586Y-15120484D01*
X8679586Y-15120484D02*
X8698634Y-15130008D01*
X8698634Y-15130008D02*
X8708158Y-15139531D01*
X8708158Y-15139531D02*
X8717682Y-15158579D01*
X8717682Y-15158579D02*
X8727205Y-15196674D01*
X8727205Y-15196674D02*
X8727205Y-15244293D01*
X8727205Y-15244293D02*
X8717682Y-15282388D01*
X8717682Y-15282388D02*
X8708158Y-15301436D01*
X8708158Y-15301436D02*
X8698634Y-15310960D01*
X8698634Y-15310960D02*
X8679586Y-15320484D01*
X8679586Y-15320484D02*
X8660539Y-15320484D01*
X8660539Y-15320484D02*
X8641491Y-15310960D01*
X8641491Y-15310960D02*
X8631967Y-15301436D01*
X8631967Y-15301436D02*
X8622444Y-15282388D01*
X8622444Y-15282388D02*
X8612920Y-15244293D01*
X8612920Y-15244293D02*
X8612920Y-15196674D01*
X8612920Y-15196674D02*
X8622444Y-15158579D01*
X8622444Y-15158579D02*
X8631967Y-15139531D01*
X8631967Y-15139531D02*
X8641491Y-15130008D01*
X8641491Y-15130008D02*
X8660539Y-15120484D01*
X8812920Y-15320484D02*
X8812920Y-15187150D01*
X8812920Y-15206198D02*
X8822444Y-15196674D01*
X8822444Y-15196674D02*
X8841491Y-15187150D01*
X8841491Y-15187150D02*
X8870063Y-15187150D01*
X8870063Y-15187150D02*
X8889110Y-15196674D01*
X8889110Y-15196674D02*
X8898634Y-15215722D01*
X8898634Y-15215722D02*
X8898634Y-15320484D01*
X8898634Y-15215722D02*
X8908158Y-15196674D01*
X8908158Y-15196674D02*
X8927205Y-15187150D01*
X8927205Y-15187150D02*
X8955777Y-15187150D01*
X8955777Y-15187150D02*
X8974825Y-15196674D01*
X8974825Y-15196674D02*
X8984348Y-15215722D01*
X8984348Y-15215722D02*
X8984348Y-15320484D01*
X9079586Y-15320484D02*
X9079586Y-15187150D01*
X9079586Y-15206198D02*
X9089110Y-15196674D01*
X9089110Y-15196674D02*
X9108158Y-15187150D01*
X9108158Y-15187150D02*
X9136729Y-15187150D01*
X9136729Y-15187150D02*
X9155777Y-15196674D01*
X9155777Y-15196674D02*
X9165301Y-15215722D01*
X9165301Y-15215722D02*
X9165301Y-15320484D01*
X9165301Y-15215722D02*
X9174825Y-15196674D01*
X9174825Y-15196674D02*
X9193872Y-15187150D01*
X9193872Y-15187150D02*
X9222444Y-15187150D01*
X9222444Y-15187150D02*
X9241491Y-15196674D01*
X9241491Y-15196674D02*
X9251015Y-15215722D01*
X9251015Y-15215722D02*
X9251015Y-15320484D01*
X9641491Y-15110960D02*
X9470063Y-15368103D01*
X9898634Y-15120484D02*
X9917682Y-15120484D01*
X9917682Y-15120484D02*
X9936729Y-15130008D01*
X9936729Y-15130008D02*
X9946253Y-15139531D01*
X9946253Y-15139531D02*
X9955777Y-15158579D01*
X9955777Y-15158579D02*
X9965301Y-15196674D01*
X9965301Y-15196674D02*
X9965301Y-15244293D01*
X9965301Y-15244293D02*
X9955777Y-15282388D01*
X9955777Y-15282388D02*
X9946253Y-15301436D01*
X9946253Y-15301436D02*
X9936729Y-15310960D01*
X9936729Y-15310960D02*
X9917682Y-15320484D01*
X9917682Y-15320484D02*
X9898634Y-15320484D01*
X9898634Y-15320484D02*
X9879587Y-15310960D01*
X9879587Y-15310960D02*
X9870063Y-15301436D01*
X9870063Y-15301436D02*
X9860539Y-15282388D01*
X9860539Y-15282388D02*
X9851015Y-15244293D01*
X9851015Y-15244293D02*
X9851015Y-15196674D01*
X9851015Y-15196674D02*
X9860539Y-15158579D01*
X9860539Y-15158579D02*
X9870063Y-15139531D01*
X9870063Y-15139531D02*
X9879587Y-15130008D01*
X9879587Y-15130008D02*
X9898634Y-15120484D01*
X10051015Y-15301436D02*
X10060539Y-15310960D01*
X10060539Y-15310960D02*
X10051015Y-15320484D01*
X10051015Y-15320484D02*
X10041491Y-15310960D01*
X10041491Y-15310960D02*
X10051015Y-15301436D01*
X10051015Y-15301436D02*
X10051015Y-15320484D01*
X10184348Y-15120484D02*
X10203396Y-15120484D01*
X10203396Y-15120484D02*
X10222444Y-15130008D01*
X10222444Y-15130008D02*
X10231968Y-15139531D01*
X10231968Y-15139531D02*
X10241491Y-15158579D01*
X10241491Y-15158579D02*
X10251015Y-15196674D01*
X10251015Y-15196674D02*
X10251015Y-15244293D01*
X10251015Y-15244293D02*
X10241491Y-15282388D01*
X10241491Y-15282388D02*
X10231968Y-15301436D01*
X10231968Y-15301436D02*
X10222444Y-15310960D01*
X10222444Y-15310960D02*
X10203396Y-15320484D01*
X10203396Y-15320484D02*
X10184348Y-15320484D01*
X10184348Y-15320484D02*
X10165301Y-15310960D01*
X10165301Y-15310960D02*
X10155777Y-15301436D01*
X10155777Y-15301436D02*
X10146253Y-15282388D01*
X10146253Y-15282388D02*
X10136729Y-15244293D01*
X10136729Y-15244293D02*
X10136729Y-15196674D01*
X10136729Y-15196674D02*
X10146253Y-15158579D01*
X10146253Y-15158579D02*
X10155777Y-15139531D01*
X10155777Y-15139531D02*
X10165301Y-15130008D01*
X10165301Y-15130008D02*
X10184348Y-15120484D01*
X10422444Y-15187150D02*
X10422444Y-15320484D01*
X10374825Y-15110960D02*
X10327206Y-15253817D01*
X10327206Y-15253817D02*
X10451015Y-15253817D01*
X10508158Y-15120484D02*
X10641491Y-15120484D01*
X10641491Y-15120484D02*
X10555777Y-15320484D01*
X10708158Y-15139531D02*
X10717682Y-15130008D01*
X10717682Y-15130008D02*
X10736729Y-15120484D01*
X10736729Y-15120484D02*
X10784349Y-15120484D01*
X10784349Y-15120484D02*
X10803396Y-15130008D01*
X10803396Y-15130008D02*
X10812920Y-15139531D01*
X10812920Y-15139531D02*
X10822444Y-15158579D01*
X10822444Y-15158579D02*
X10822444Y-15177627D01*
X10822444Y-15177627D02*
X10812920Y-15206198D01*
X10812920Y-15206198D02*
X10698634Y-15320484D01*
X10698634Y-15320484D02*
X10822444Y-15320484D01*
X10898634Y-15120484D02*
X10898634Y-15158579D01*
X10974825Y-15120484D02*
X10974825Y-15158579D01*
X11270063Y-15396674D02*
X11260539Y-15387150D01*
X11260539Y-15387150D02*
X11241491Y-15358579D01*
X11241491Y-15358579D02*
X11231968Y-15339531D01*
X11231968Y-15339531D02*
X11222444Y-15310960D01*
X11222444Y-15310960D02*
X11212920Y-15263341D01*
X11212920Y-15263341D02*
X11212920Y-15225246D01*
X11212920Y-15225246D02*
X11222444Y-15177627D01*
X11222444Y-15177627D02*
X11231968Y-15149055D01*
X11231968Y-15149055D02*
X11241491Y-15130008D01*
X11241491Y-15130008D02*
X11260539Y-15101436D01*
X11260539Y-15101436D02*
X11270063Y-15091912D01*
X11336729Y-15139531D02*
X11346253Y-15130008D01*
X11346253Y-15130008D02*
X11365301Y-15120484D01*
X11365301Y-15120484D02*
X11412920Y-15120484D01*
X11412920Y-15120484D02*
X11431968Y-15130008D01*
X11431968Y-15130008D02*
X11441491Y-15139531D01*
X11441491Y-15139531D02*
X11451015Y-15158579D01*
X11451015Y-15158579D02*
X11451015Y-15177627D01*
X11451015Y-15177627D02*
X11441491Y-15206198D01*
X11441491Y-15206198D02*
X11327206Y-15320484D01*
X11327206Y-15320484D02*
X11451015Y-15320484D01*
X11641491Y-15320484D02*
X11527206Y-15320484D01*
X11584348Y-15320484D02*
X11584348Y-15120484D01*
X11584348Y-15120484D02*
X11565301Y-15149055D01*
X11565301Y-15149055D02*
X11546253Y-15168103D01*
X11546253Y-15168103D02*
X11527206Y-15177627D01*
X11879587Y-15320484D02*
X11879587Y-15120484D01*
X11965301Y-15320484D02*
X11965301Y-15215722D01*
X11965301Y-15215722D02*
X11955777Y-15196674D01*
X11955777Y-15196674D02*
X11936730Y-15187150D01*
X11936730Y-15187150D02*
X11908158Y-15187150D01*
X11908158Y-15187150D02*
X11889110Y-15196674D01*
X11889110Y-15196674D02*
X11879587Y-15206198D01*
X12089110Y-15320484D02*
X12070063Y-15310960D01*
X12070063Y-15310960D02*
X12060539Y-15301436D01*
X12060539Y-15301436D02*
X12051015Y-15282388D01*
X12051015Y-15282388D02*
X12051015Y-15225246D01*
X12051015Y-15225246D02*
X12060539Y-15206198D01*
X12060539Y-15206198D02*
X12070063Y-15196674D01*
X12070063Y-15196674D02*
X12089110Y-15187150D01*
X12089110Y-15187150D02*
X12117682Y-15187150D01*
X12117682Y-15187150D02*
X12136730Y-15196674D01*
X12136730Y-15196674D02*
X12146253Y-15206198D01*
X12146253Y-15206198D02*
X12155777Y-15225246D01*
X12155777Y-15225246D02*
X12155777Y-15282388D01*
X12155777Y-15282388D02*
X12146253Y-15301436D01*
X12146253Y-15301436D02*
X12136730Y-15310960D01*
X12136730Y-15310960D02*
X12117682Y-15320484D01*
X12117682Y-15320484D02*
X12089110Y-15320484D01*
X12270063Y-15320484D02*
X12251015Y-15310960D01*
X12251015Y-15310960D02*
X12241491Y-15291912D01*
X12241491Y-15291912D02*
X12241491Y-15120484D01*
X12422444Y-15310960D02*
X12403396Y-15320484D01*
X12403396Y-15320484D02*
X12365301Y-15320484D01*
X12365301Y-15320484D02*
X12346253Y-15310960D01*
X12346253Y-15310960D02*
X12336730Y-15291912D01*
X12336730Y-15291912D02*
X12336730Y-15215722D01*
X12336730Y-15215722D02*
X12346253Y-15196674D01*
X12346253Y-15196674D02*
X12365301Y-15187150D01*
X12365301Y-15187150D02*
X12403396Y-15187150D01*
X12403396Y-15187150D02*
X12422444Y-15196674D01*
X12422444Y-15196674D02*
X12431968Y-15215722D01*
X12431968Y-15215722D02*
X12431968Y-15234769D01*
X12431968Y-15234769D02*
X12336730Y-15253817D01*
X12508158Y-15310960D02*
X12527206Y-15320484D01*
X12527206Y-15320484D02*
X12565301Y-15320484D01*
X12565301Y-15320484D02*
X12584349Y-15310960D01*
X12584349Y-15310960D02*
X12593872Y-15291912D01*
X12593872Y-15291912D02*
X12593872Y-15282388D01*
X12593872Y-15282388D02*
X12584349Y-15263341D01*
X12584349Y-15263341D02*
X12565301Y-15253817D01*
X12565301Y-15253817D02*
X12536730Y-15253817D01*
X12536730Y-15253817D02*
X12517682Y-15244293D01*
X12517682Y-15244293D02*
X12508158Y-15225246D01*
X12508158Y-15225246D02*
X12508158Y-15215722D01*
X12508158Y-15215722D02*
X12517682Y-15196674D01*
X12517682Y-15196674D02*
X12536730Y-15187150D01*
X12536730Y-15187150D02*
X12565301Y-15187150D01*
X12565301Y-15187150D02*
X12584349Y-15196674D01*
X12660539Y-15396674D02*
X12670063Y-15387150D01*
X12670063Y-15387150D02*
X12689111Y-15358579D01*
X12689111Y-15358579D02*
X12698634Y-15339531D01*
X12698634Y-15339531D02*
X12708158Y-15310960D01*
X12708158Y-15310960D02*
X12717682Y-15263341D01*
X12717682Y-15263341D02*
X12717682Y-15225246D01*
X12717682Y-15225246D02*
X12708158Y-15177627D01*
X12708158Y-15177627D02*
X12698634Y-15149055D01*
X12698634Y-15149055D02*
X12689111Y-15130008D01*
X12689111Y-15130008D02*
X12670063Y-15101436D01*
X12670063Y-15101436D02*
X12660539Y-15091912D01*
M02*
