G04 #@! TF.GenerationSoftware,KiCad,Pcbnew,7.0.6*
G04 #@! TF.CreationDate,2024-06-10T15:38:19+10:00*
G04 #@! TF.ProjectId,AnalogVoltMeterClock,416e616c-6f67-4566-9f6c-744d65746572,rev?*
G04 #@! TF.SameCoordinates,Original*
G04 #@! TF.FileFunction,Copper,L2,Bot*
G04 #@! TF.FilePolarity,Positive*
%FSLAX46Y46*%
G04 Gerber Fmt 4.6, Leading zero omitted, Abs format (unit mm)*
G04 Created by KiCad (PCBNEW 7.0.6) date 2024-06-10 15:38:19*
%MOMM*%
%LPD*%
G01*
G04 APERTURE LIST*
G04 #@! TA.AperFunction,ComponentPad*
%ADD10R,2.000000X2.000000*%
G04 #@! TD*
G04 #@! TA.AperFunction,ComponentPad*
%ADD11R,1.140000X1.140000*%
G04 #@! TD*
G04 #@! TA.AperFunction,ComponentPad*
%ADD12C,1.140000*%
G04 #@! TD*
G04 #@! TA.AperFunction,ComponentPad*
%ADD13R,1.700000X1.700000*%
G04 #@! TD*
G04 #@! TA.AperFunction,ComponentPad*
%ADD14O,1.700000X1.700000*%
G04 #@! TD*
G04 #@! TA.AperFunction,ComponentPad*
%ADD15R,2.032000X2.032000*%
G04 #@! TD*
G04 #@! TA.AperFunction,ComponentPad*
%ADD16C,2.032000*%
G04 #@! TD*
G04 #@! TA.AperFunction,ComponentPad*
%ADD17R,2.413000X2.413000*%
G04 #@! TD*
G04 #@! TA.AperFunction,ComponentPad*
%ADD18C,2.413000*%
G04 #@! TD*
G04 #@! TA.AperFunction,ComponentPad*
%ADD19C,1.879600*%
G04 #@! TD*
G04 #@! TA.AperFunction,SMDPad,CuDef*
%ADD20R,1.000000X1.500000*%
G04 #@! TD*
G04 #@! TA.AperFunction,SMDPad,CuDef*
%ADD21R,1.500000X1.000000*%
G04 #@! TD*
G04 #@! TA.AperFunction,ViaPad*
%ADD22C,0.600000*%
G04 #@! TD*
G04 #@! TA.AperFunction,ViaPad*
%ADD23C,1.000000*%
G04 #@! TD*
G04 #@! TA.AperFunction,Conductor*
%ADD24C,0.600000*%
G04 #@! TD*
G04 #@! TA.AperFunction,Conductor*
%ADD25C,0.250000*%
G04 #@! TD*
G04 APERTURE END LIST*
G04 #@! TA.AperFunction,EtchedComponent*
G36*
X164470000Y-82710000D02*
G01*
X163970000Y-82710000D01*
X163970000Y-82310000D01*
X164470000Y-82310000D01*
X164470000Y-82710000D01*
G37*
G04 #@! TD.AperFunction*
G04 #@! TA.AperFunction,EtchedComponent*
G36*
X164470000Y-83510000D02*
G01*
X163970000Y-83510000D01*
X163970000Y-83110000D01*
X164470000Y-83110000D01*
X164470000Y-83510000D01*
G37*
G04 #@! TD.AperFunction*
G04 #@! TA.AperFunction,EtchedComponent*
G36*
X147230000Y-92490000D02*
G01*
X146830000Y-92490000D01*
X146830000Y-91990000D01*
X147230000Y-91990000D01*
X147230000Y-92490000D01*
G37*
G04 #@! TD.AperFunction*
G04 #@! TA.AperFunction,EtchedComponent*
G36*
X146430000Y-92490000D02*
G01*
X146030000Y-92490000D01*
X146030000Y-91990000D01*
X146430000Y-91990000D01*
X146430000Y-92490000D01*
G37*
G04 #@! TD.AperFunction*
G04 #@! TA.AperFunction,EtchedComponent*
G36*
X174370000Y-100230000D02*
G01*
X173970000Y-100230000D01*
X173970000Y-99730000D01*
X174370000Y-99730000D01*
X174370000Y-100230000D01*
G37*
G04 #@! TD.AperFunction*
G04 #@! TA.AperFunction,EtchedComponent*
G36*
X173570000Y-100230000D02*
G01*
X173170000Y-100230000D01*
X173170000Y-99730000D01*
X173570000Y-99730000D01*
X173570000Y-100230000D01*
G37*
G04 #@! TD.AperFunction*
G04 #@! TA.AperFunction,EtchedComponent*
G36*
X169000000Y-93648600D02*
G01*
X168600000Y-93648600D01*
X168600000Y-93148600D01*
X169000000Y-93148600D01*
X169000000Y-93648600D01*
G37*
G04 #@! TD.AperFunction*
G04 #@! TA.AperFunction,EtchedComponent*
G36*
X169800000Y-93648600D02*
G01*
X169400000Y-93648600D01*
X169400000Y-93148600D01*
X169800000Y-93148600D01*
X169800000Y-93648600D01*
G37*
G04 #@! TD.AperFunction*
D10*
X127560000Y-92180000D03*
X125020000Y-92180000D03*
X122480000Y-92180000D03*
X119940000Y-92180000D03*
X117400000Y-92180000D03*
X114860000Y-92180000D03*
X112320000Y-92180000D03*
X109780000Y-92180000D03*
X107240000Y-92180000D03*
X104700000Y-92180000D03*
X102160000Y-92180000D03*
X99620000Y-92180000D03*
X97080000Y-92180000D03*
X94540000Y-92180000D03*
X92000000Y-92180000D03*
X89460000Y-92180000D03*
X86920000Y-92180000D03*
X84380000Y-92180000D03*
X81840000Y-92180000D03*
X79300000Y-92180000D03*
X79300000Y-117580000D03*
X81840000Y-117580000D03*
X84380000Y-117580000D03*
X86920000Y-117580000D03*
X89460000Y-117580000D03*
X92000000Y-117580000D03*
X94540000Y-117580000D03*
X97080000Y-117580000D03*
X99620000Y-117580000D03*
X102160000Y-117580000D03*
X104700000Y-117580000D03*
X107240000Y-117580000D03*
X109780000Y-117580000D03*
X112320000Y-117580000D03*
X114860000Y-117580000D03*
X117400000Y-117580000D03*
X119940000Y-117580000D03*
X122480000Y-117580000D03*
X125020000Y-117580000D03*
X127560000Y-117580000D03*
D11*
X164720000Y-101860000D03*
D12*
X164720000Y-99320000D03*
X164720000Y-96780000D03*
X164720000Y-94240000D03*
X164720000Y-91700000D03*
X164720000Y-89160000D03*
X164720000Y-86620000D03*
X156780000Y-86620000D03*
X156780000Y-89160000D03*
X156780000Y-91700000D03*
X156780000Y-94240000D03*
X156780000Y-96780000D03*
X156780000Y-99320000D03*
X156780000Y-101860000D03*
D13*
X150670000Y-123390000D03*
D14*
X150670000Y-125930000D03*
D15*
X147740000Y-74350000D03*
D16*
X151240000Y-74350000D03*
D15*
X79670000Y-74350000D03*
D16*
X83170000Y-74350000D03*
D15*
X113705000Y-74350000D03*
D16*
X117205000Y-74350000D03*
D15*
X159085000Y-74250000D03*
D16*
X162585000Y-74250000D03*
D15*
X125050000Y-74350000D03*
D16*
X128550000Y-74350000D03*
D15*
X91015000Y-74350000D03*
D16*
X94515000Y-74350000D03*
D17*
X158000000Y-121970000D03*
D18*
X161500000Y-121970000D03*
X165000000Y-121970000D03*
D15*
X136395000Y-74450000D03*
D16*
X139895000Y-74450000D03*
D19*
X122660000Y-126270000D03*
X120120000Y-126270000D03*
X117580000Y-126270000D03*
X115040000Y-126270000D03*
D15*
X170430000Y-74350000D03*
D16*
X173930000Y-74350000D03*
D15*
X102360000Y-74380000D03*
D16*
X105860000Y-74380000D03*
D20*
X161680000Y-102090000D03*
X160380000Y-102090000D03*
X159080000Y-102090000D03*
X163570000Y-82910000D03*
X164870000Y-82910000D03*
X166170000Y-82910000D03*
D21*
X146630000Y-91590000D03*
X146630000Y-92890000D03*
X146630000Y-94190000D03*
X173770000Y-99330000D03*
X173770000Y-100630000D03*
X173770000Y-101930000D03*
X169200000Y-94048600D03*
X169200000Y-92748600D03*
X169200000Y-91448600D03*
X152070000Y-95470000D03*
X152070000Y-94170000D03*
X152070000Y-92870000D03*
D22*
X91640000Y-83790000D03*
X132180000Y-82200000D03*
X137700000Y-82190000D03*
D23*
X119740000Y-98240000D03*
X116590000Y-105700000D03*
D24*
X125050000Y-83020000D02*
X124260000Y-83810000D01*
X91660000Y-83810000D02*
X124260000Y-83810000D01*
X91640000Y-83790000D02*
X91660000Y-83810000D01*
X150670000Y-123390000D02*
X150620000Y-123340000D01*
X156780000Y-109640000D02*
X156780000Y-101860000D01*
X125050000Y-83020000D02*
X125050000Y-74350000D01*
X130950000Y-83020000D02*
X125050000Y-83020000D01*
X150620000Y-115800000D02*
X156780000Y-109640000D01*
X150620000Y-123340000D02*
X150620000Y-115800000D01*
X156780000Y-101860000D02*
X149790000Y-101860000D01*
X149790000Y-101860000D02*
X130950000Y-83020000D01*
D25*
X143900000Y-76340000D02*
X145910000Y-74330000D01*
X145930000Y-74350000D02*
X147740000Y-74350000D01*
X146630000Y-92890000D02*
X144130000Y-92890000D01*
X143900000Y-92660000D02*
X143900000Y-76340000D01*
X144130000Y-92890000D02*
X143900000Y-92660000D01*
X145910000Y-74330000D02*
X145930000Y-74350000D01*
D24*
X132190000Y-82190000D02*
X132180000Y-82200000D01*
X137700000Y-82190000D02*
X132190000Y-82190000D01*
X115400000Y-81410000D02*
X81200000Y-81410000D01*
X81200000Y-81410000D02*
X79670000Y-79880000D01*
X117205000Y-79605000D02*
X115400000Y-81410000D01*
X79670000Y-79880000D02*
X79670000Y-74350000D01*
X117205000Y-74350000D02*
X117205000Y-79605000D01*
D25*
X169200000Y-97730000D02*
X167610000Y-99320000D01*
X169200000Y-93790000D02*
X169200000Y-97730000D01*
X167610000Y-99320000D02*
X164720000Y-99320000D01*
X173780000Y-92910000D02*
X173770000Y-92920000D01*
X169200000Y-92748600D02*
X173618600Y-92748600D01*
X173618600Y-92748600D02*
X173780000Y-92910000D01*
X173770000Y-92920000D02*
X173770000Y-99330000D01*
X164727200Y-91707200D02*
X164720000Y-91700000D01*
X169200000Y-91707200D02*
X164727200Y-91707200D01*
X161680000Y-99420000D02*
X161680000Y-102090000D01*
X156780000Y-89160000D02*
X157710000Y-89160000D01*
X158610000Y-96350000D02*
X161680000Y-99420000D01*
X158610000Y-90060000D02*
X158610000Y-96350000D01*
X157710000Y-89160000D02*
X158610000Y-90060000D01*
X168740000Y-101930000D02*
X173770000Y-101930000D01*
X168680000Y-101990000D02*
X168740000Y-101930000D01*
X160810000Y-104690000D02*
X167710000Y-104690000D01*
X160380000Y-102090000D02*
X160380000Y-104260000D01*
X167710000Y-104690000D02*
X168680000Y-103720000D01*
X168680000Y-103720000D02*
X168680000Y-101990000D01*
X160380000Y-104260000D02*
X160810000Y-104690000D01*
X159080000Y-102090000D02*
X159080000Y-99080000D01*
X159080000Y-99080000D02*
X156780000Y-96780000D01*
D24*
X175820000Y-101350000D02*
X175820000Y-109870000D01*
X168360000Y-128320000D02*
X167900000Y-128780000D01*
X167900000Y-128780000D02*
X159360000Y-128780000D01*
X168360000Y-117330000D02*
X168360000Y-128320000D01*
X173770000Y-100630000D02*
X175100000Y-100630000D01*
X94540000Y-126340000D02*
X94540000Y-117580000D01*
X175100000Y-100630000D02*
X175820000Y-101350000D01*
X97280000Y-129080000D02*
X94540000Y-126340000D01*
X159060000Y-129080000D02*
X97280000Y-129080000D01*
X159360000Y-128780000D02*
X159060000Y-129080000D01*
X175820000Y-109870000D02*
X168360000Y-117330000D01*
D25*
X152067200Y-94200000D02*
X152070000Y-94197200D01*
X152070000Y-94170000D02*
X146650000Y-94170000D01*
X146650000Y-94170000D02*
X146630000Y-94190000D01*
X164870000Y-81290000D02*
X164020000Y-80440000D01*
X164020000Y-80440000D02*
X151730000Y-80440000D01*
X146630000Y-85540000D02*
X146630000Y-91590000D01*
X164870000Y-82910000D02*
X164870000Y-81290000D01*
X151730000Y-80440000D02*
X146630000Y-85540000D01*
X161900000Y-82910000D02*
X161060000Y-83750000D01*
X161600000Y-96780000D02*
X164720000Y-96780000D01*
X161060000Y-83750000D02*
X161060000Y-96280000D01*
X161580000Y-96800000D02*
X161600000Y-96780000D01*
X161060000Y-96280000D02*
X161580000Y-96800000D01*
X163570000Y-82910000D02*
X161900000Y-82910000D01*
X167870000Y-89170000D02*
X167860000Y-89160000D01*
X166170000Y-82910000D02*
X167050000Y-82910000D01*
X167860000Y-89160000D02*
X164720000Y-89160000D01*
X167050000Y-82910000D02*
X167870000Y-83730000D01*
X167870000Y-83730000D02*
X167870000Y-89170000D01*
X152070000Y-95497200D02*
X153672800Y-95497200D01*
X154930000Y-94240000D02*
X156780000Y-94240000D01*
X153672800Y-95497200D02*
X154930000Y-94240000D01*
X152070000Y-87040000D02*
X152500000Y-86610000D01*
X152070000Y-92897200D02*
X152070000Y-87040000D01*
X152500000Y-86610000D02*
X152510000Y-86620000D01*
X152510000Y-86620000D02*
X156780000Y-86620000D01*
D24*
X130950000Y-109200000D02*
X130960000Y-109210000D01*
X92000000Y-92180000D02*
X92000000Y-89710000D01*
X92000000Y-89710000D02*
X92440000Y-89270000D01*
X130060000Y-89270000D02*
X130950000Y-90160000D01*
X130960000Y-109210000D02*
X130960000Y-127870000D01*
X130950000Y-90160000D02*
X130950000Y-109200000D01*
X130960000Y-127870000D02*
X130550000Y-128280000D01*
X92440000Y-89270000D02*
X130060000Y-89270000D01*
X130550000Y-128280000D02*
X117600000Y-128280000D01*
X117580000Y-128260000D02*
X117580000Y-126270000D01*
X117600000Y-128280000D02*
X117580000Y-128260000D01*
X85480000Y-94450000D02*
X84380000Y-93350000D01*
X130160000Y-110980000D02*
X120180000Y-101000000D01*
X105410000Y-101000000D02*
X98860000Y-94450000D01*
X130100000Y-111040000D02*
X130160000Y-110980000D01*
X130100000Y-122970000D02*
X130100000Y-111040000D01*
X98860000Y-94450000D02*
X85480000Y-94450000D01*
X115040000Y-124090000D02*
X115270000Y-123860000D01*
X115040000Y-126270000D02*
X115040000Y-124090000D01*
X129210000Y-123860000D02*
X130100000Y-122970000D01*
X115270000Y-123860000D02*
X129210000Y-123860000D01*
X120180000Y-101000000D02*
X105410000Y-101000000D01*
X84380000Y-93350000D02*
X84380000Y-92180000D01*
G04 #@! TA.AperFunction,Conductor*
G36*
X130366373Y-123630243D02*
G01*
X130428997Y-123692867D01*
X130458248Y-123776460D01*
X130459499Y-123798741D01*
X130459500Y-127580256D01*
X130439793Y-127666599D01*
X130401503Y-127720681D01*
X130401260Y-127720925D01*
X130326368Y-127768197D01*
X130260257Y-127779500D01*
X120398169Y-127779500D01*
X120311826Y-127759793D01*
X120242585Y-127704574D01*
X120204158Y-127624782D01*
X120204158Y-127536218D01*
X120242585Y-127456426D01*
X120311826Y-127401207D01*
X120361600Y-127384888D01*
X120433395Y-127371468D01*
X120630453Y-127295128D01*
X120745540Y-127223868D01*
X120810119Y-127183883D01*
X120810122Y-127183880D01*
X120810128Y-127183877D01*
X120966302Y-127041506D01*
X121093656Y-126872862D01*
X121187853Y-126683689D01*
X121187856Y-126683681D01*
X121216769Y-126582058D01*
X121245686Y-126480427D01*
X121265185Y-126270000D01*
X121245686Y-126059573D01*
X121216018Y-125955300D01*
X121187855Y-125856316D01*
X121119389Y-125718818D01*
X121093656Y-125667138D01*
X121093655Y-125667136D01*
X120966304Y-125498497D01*
X120966301Y-125498493D01*
X120810130Y-125356124D01*
X120810119Y-125356116D01*
X120630455Y-125244873D01*
X120630444Y-125244868D01*
X120433400Y-125168533D01*
X120433398Y-125168532D01*
X120308756Y-125145232D01*
X120225664Y-125129700D01*
X120014336Y-125129700D01*
X119945092Y-125142644D01*
X119806601Y-125168532D01*
X119806599Y-125168533D01*
X119609555Y-125244868D01*
X119609544Y-125244873D01*
X119429880Y-125356116D01*
X119429869Y-125356124D01*
X119273698Y-125498493D01*
X119273695Y-125498497D01*
X119146344Y-125667136D01*
X119146343Y-125667138D01*
X119052145Y-125856315D01*
X119041403Y-125894070D01*
X118998819Y-125971723D01*
X118926760Y-126023210D01*
X118839497Y-126038333D01*
X118754315Y-126014096D01*
X118688084Y-125955300D01*
X118658597Y-125894070D01*
X118647854Y-125856315D01*
X118647853Y-125856311D01*
X118553656Y-125667138D01*
X118553655Y-125667136D01*
X118426304Y-125498497D01*
X118426301Y-125498493D01*
X118270130Y-125356124D01*
X118270119Y-125356116D01*
X118090455Y-125244873D01*
X118090444Y-125244868D01*
X117893400Y-125168533D01*
X117893398Y-125168532D01*
X117768756Y-125145232D01*
X117685664Y-125129700D01*
X117474336Y-125129700D01*
X117405092Y-125142644D01*
X117266601Y-125168532D01*
X117266599Y-125168533D01*
X117069555Y-125244868D01*
X117069544Y-125244873D01*
X116889880Y-125356116D01*
X116889869Y-125356124D01*
X116733698Y-125498493D01*
X116733695Y-125498497D01*
X116606344Y-125667136D01*
X116606343Y-125667138D01*
X116512145Y-125856315D01*
X116501403Y-125894070D01*
X116458819Y-125971723D01*
X116386760Y-126023210D01*
X116299497Y-126038333D01*
X116214315Y-126014096D01*
X116148084Y-125955300D01*
X116118597Y-125894070D01*
X116107854Y-125856315D01*
X116107853Y-125856311D01*
X116013656Y-125667138D01*
X116013655Y-125667136D01*
X115886304Y-125498497D01*
X115886301Y-125498493D01*
X115730130Y-125356124D01*
X115730123Y-125356119D01*
X115634739Y-125297060D01*
X115571704Y-125234851D01*
X115541903Y-125151452D01*
X115540500Y-125127867D01*
X115540500Y-124559500D01*
X115560207Y-124473157D01*
X115615426Y-124403916D01*
X115695218Y-124365489D01*
X115739500Y-124360500D01*
X129134791Y-124360500D01*
X129164245Y-124363667D01*
X129173922Y-124364359D01*
X129173925Y-124364358D01*
X129173927Y-124364359D01*
X129194703Y-124362872D01*
X129224335Y-124360754D01*
X129231436Y-124360500D01*
X129245798Y-124360500D01*
X129245799Y-124360500D01*
X129260026Y-124358453D01*
X129267060Y-124357697D01*
X129317483Y-124354091D01*
X129317484Y-124354090D01*
X129327014Y-124352017D01*
X129343112Y-124347908D01*
X129352453Y-124345165D01*
X129352457Y-124345165D01*
X129398459Y-124324155D01*
X129404947Y-124321468D01*
X129452331Y-124303796D01*
X129452333Y-124303793D01*
X129460887Y-124299123D01*
X129475154Y-124290658D01*
X129483365Y-124285380D01*
X129483373Y-124285377D01*
X129521567Y-124252280D01*
X129527083Y-124247836D01*
X129538593Y-124239221D01*
X129548768Y-124229044D01*
X129553936Y-124224232D01*
X129592143Y-124191128D01*
X129592145Y-124191124D01*
X129592147Y-124191123D01*
X129598510Y-124183779D01*
X129617083Y-124160729D01*
X130119787Y-123658025D01*
X130194773Y-123610908D01*
X130282780Y-123600992D01*
X130366373Y-123630243D01*
G37*
G04 #@! TD.AperFunction*
G04 #@! TA.AperFunction,Conductor*
G36*
X129856601Y-89790207D02*
G01*
X129910972Y-89828786D01*
X130391213Y-90309027D01*
X130438332Y-90384015D01*
X130449499Y-90449741D01*
X130449500Y-109124792D01*
X130446333Y-109154242D01*
X130445640Y-109163925D01*
X130449245Y-109214333D01*
X130449499Y-109221426D01*
X130449499Y-109235795D01*
X130451544Y-109250018D01*
X130452302Y-109257075D01*
X130456873Y-109320962D01*
X130459500Y-109345384D01*
X130459500Y-110091258D01*
X130439793Y-110177601D01*
X130384574Y-110246842D01*
X130304782Y-110285269D01*
X130216218Y-110285269D01*
X130136426Y-110246842D01*
X130119786Y-110231972D01*
X120587087Y-100699273D01*
X120568507Y-100676217D01*
X120562143Y-100668872D01*
X120523946Y-100635773D01*
X120518747Y-100630933D01*
X120508596Y-100620781D01*
X120497093Y-100612170D01*
X120491559Y-100607711D01*
X120453374Y-100574623D01*
X120445211Y-100569377D01*
X120430831Y-100560845D01*
X120422333Y-100556205D01*
X120422331Y-100556204D01*
X120407170Y-100550549D01*
X120374979Y-100538542D01*
X120368417Y-100535824D01*
X120322459Y-100514835D01*
X120313181Y-100512111D01*
X120296949Y-100507968D01*
X120287483Y-100505909D01*
X120237074Y-100502302D01*
X120230018Y-100501544D01*
X120215799Y-100499500D01*
X120215798Y-100499500D01*
X120201436Y-100499500D01*
X120194335Y-100499246D01*
X120143922Y-100495640D01*
X120134245Y-100496332D01*
X120104791Y-100499500D01*
X105699742Y-100499500D01*
X105613399Y-100479793D01*
X105559028Y-100441214D01*
X99267087Y-94149273D01*
X99248507Y-94126217D01*
X99242143Y-94118872D01*
X99203946Y-94085773D01*
X99198747Y-94080933D01*
X99188596Y-94070781D01*
X99177093Y-94062170D01*
X99171559Y-94057711D01*
X99133374Y-94024623D01*
X99125211Y-94019377D01*
X99110831Y-94010845D01*
X99102333Y-94006205D01*
X99102331Y-94006204D01*
X99087170Y-94000549D01*
X99054979Y-93988542D01*
X99048417Y-93985824D01*
X99002459Y-93964835D01*
X98993181Y-93962111D01*
X98976949Y-93957968D01*
X98967483Y-93955909D01*
X98917074Y-93952302D01*
X98910018Y-93951544D01*
X98895799Y-93949500D01*
X98895798Y-93949500D01*
X98881436Y-93949500D01*
X98874335Y-93949246D01*
X98823922Y-93945640D01*
X98814245Y-93946332D01*
X98784791Y-93949500D01*
X85769742Y-93949500D01*
X85683399Y-93929793D01*
X85629028Y-93891214D01*
X85418953Y-93681139D01*
X85371834Y-93606151D01*
X85361918Y-93518144D01*
X85391169Y-93434551D01*
X85449107Y-93374964D01*
X85539440Y-93314604D01*
X85622180Y-93283019D01*
X85710430Y-93290462D01*
X85760560Y-93314604D01*
X85841767Y-93368866D01*
X85841769Y-93368867D01*
X85872421Y-93374964D01*
X85900250Y-93380500D01*
X85900252Y-93380500D01*
X87939750Y-93380500D01*
X87959155Y-93376639D01*
X87998231Y-93368867D01*
X88064552Y-93324552D01*
X88064552Y-93324551D01*
X88079440Y-93314604D01*
X88162180Y-93283019D01*
X88250430Y-93290462D01*
X88300560Y-93314604D01*
X88381767Y-93368866D01*
X88381769Y-93368867D01*
X88412421Y-93374964D01*
X88440250Y-93380500D01*
X88440252Y-93380500D01*
X90479750Y-93380500D01*
X90499155Y-93376639D01*
X90538231Y-93368867D01*
X90604552Y-93324552D01*
X90604552Y-93324551D01*
X90619440Y-93314604D01*
X90702180Y-93283019D01*
X90790430Y-93290462D01*
X90840560Y-93314604D01*
X90921767Y-93368866D01*
X90921769Y-93368867D01*
X90952421Y-93374964D01*
X90980250Y-93380500D01*
X90980252Y-93380500D01*
X93019750Y-93380500D01*
X93034320Y-93377601D01*
X93078231Y-93368867D01*
X93144552Y-93324552D01*
X93144553Y-93324549D01*
X93159438Y-93314604D01*
X93242178Y-93283019D01*
X93330428Y-93290462D01*
X93380559Y-93314603D01*
X93395447Y-93324551D01*
X93395448Y-93324552D01*
X93461769Y-93368867D01*
X93503606Y-93377188D01*
X93520250Y-93380500D01*
X93520252Y-93380500D01*
X95559750Y-93380500D01*
X95579155Y-93376639D01*
X95618231Y-93368867D01*
X95684552Y-93324552D01*
X95684552Y-93324551D01*
X95699440Y-93314604D01*
X95782180Y-93283019D01*
X95870430Y-93290462D01*
X95920560Y-93314604D01*
X96001767Y-93368866D01*
X96001769Y-93368867D01*
X96032421Y-93374964D01*
X96060250Y-93380500D01*
X96060252Y-93380500D01*
X98099750Y-93380500D01*
X98119155Y-93376639D01*
X98158231Y-93368867D01*
X98224552Y-93324552D01*
X98224552Y-93324551D01*
X98239440Y-93314604D01*
X98322180Y-93283019D01*
X98410430Y-93290462D01*
X98460560Y-93314604D01*
X98541767Y-93368866D01*
X98541769Y-93368867D01*
X98572421Y-93374964D01*
X98600250Y-93380500D01*
X98600252Y-93380500D01*
X100639750Y-93380500D01*
X100659155Y-93376639D01*
X100698231Y-93368867D01*
X100764552Y-93324552D01*
X100764552Y-93324551D01*
X100779440Y-93314604D01*
X100862180Y-93283019D01*
X100950430Y-93290462D01*
X101000560Y-93314604D01*
X101081767Y-93368866D01*
X101081769Y-93368867D01*
X101112421Y-93374964D01*
X101140250Y-93380500D01*
X101140252Y-93380500D01*
X103179750Y-93380500D01*
X103194320Y-93377601D01*
X103238231Y-93368867D01*
X103304552Y-93324552D01*
X103304553Y-93324549D01*
X103319438Y-93314604D01*
X103402178Y-93283019D01*
X103490428Y-93290462D01*
X103540559Y-93314603D01*
X103555447Y-93324551D01*
X103555448Y-93324552D01*
X103621769Y-93368867D01*
X103663606Y-93377188D01*
X103680250Y-93380500D01*
X103680252Y-93380500D01*
X105719750Y-93380500D01*
X105739155Y-93376639D01*
X105778231Y-93368867D01*
X105844552Y-93324552D01*
X105844552Y-93324551D01*
X105859440Y-93314604D01*
X105942180Y-93283019D01*
X106030430Y-93290462D01*
X106080560Y-93314604D01*
X106161767Y-93368866D01*
X106161769Y-93368867D01*
X106192421Y-93374964D01*
X106220250Y-93380500D01*
X106220252Y-93380500D01*
X108259750Y-93380500D01*
X108279155Y-93376639D01*
X108318231Y-93368867D01*
X108384552Y-93324552D01*
X108384552Y-93324551D01*
X108399440Y-93314604D01*
X108482180Y-93283019D01*
X108570430Y-93290462D01*
X108620560Y-93314604D01*
X108701767Y-93368866D01*
X108701769Y-93368867D01*
X108732421Y-93374964D01*
X108760250Y-93380500D01*
X108760252Y-93380500D01*
X110799750Y-93380500D01*
X110819155Y-93376639D01*
X110858231Y-93368867D01*
X110924552Y-93324552D01*
X110924552Y-93324551D01*
X110939440Y-93314604D01*
X111022180Y-93283019D01*
X111110430Y-93290462D01*
X111160560Y-93314604D01*
X111241767Y-93368866D01*
X111241769Y-93368867D01*
X111272421Y-93374964D01*
X111300250Y-93380500D01*
X111300252Y-93380500D01*
X113339750Y-93380500D01*
X113354320Y-93377601D01*
X113398231Y-93368867D01*
X113464552Y-93324552D01*
X113464553Y-93324549D01*
X113479438Y-93314604D01*
X113562178Y-93283019D01*
X113650428Y-93290462D01*
X113700559Y-93314603D01*
X113715447Y-93324551D01*
X113715448Y-93324552D01*
X113781769Y-93368867D01*
X113823606Y-93377188D01*
X113840250Y-93380500D01*
X113840252Y-93380500D01*
X115879750Y-93380500D01*
X115899155Y-93376639D01*
X115938231Y-93368867D01*
X116004552Y-93324552D01*
X116004552Y-93324551D01*
X116019440Y-93314604D01*
X116102180Y-93283019D01*
X116190430Y-93290462D01*
X116240560Y-93314604D01*
X116321767Y-93368866D01*
X116321769Y-93368867D01*
X116352421Y-93374964D01*
X116380250Y-93380500D01*
X116380252Y-93380500D01*
X118419750Y-93380500D01*
X118439155Y-93376639D01*
X118478231Y-93368867D01*
X118544552Y-93324552D01*
X118544552Y-93324551D01*
X118559440Y-93314604D01*
X118642180Y-93283019D01*
X118730430Y-93290462D01*
X118780560Y-93314604D01*
X118861767Y-93368866D01*
X118861769Y-93368867D01*
X118892421Y-93374964D01*
X118920250Y-93380500D01*
X118920252Y-93380500D01*
X120959750Y-93380500D01*
X120979155Y-93376639D01*
X121018231Y-93368867D01*
X121084552Y-93324552D01*
X121084552Y-93324551D01*
X121099440Y-93314604D01*
X121182180Y-93283019D01*
X121270430Y-93290462D01*
X121320560Y-93314604D01*
X121401767Y-93368866D01*
X121401769Y-93368867D01*
X121432421Y-93374964D01*
X121460250Y-93380500D01*
X121460252Y-93380500D01*
X123499750Y-93380500D01*
X123519155Y-93376639D01*
X123558231Y-93368867D01*
X123624552Y-93324552D01*
X123624552Y-93324551D01*
X123639440Y-93314604D01*
X123722180Y-93283019D01*
X123810430Y-93290462D01*
X123860560Y-93314604D01*
X123941767Y-93368866D01*
X123941769Y-93368867D01*
X123972421Y-93374964D01*
X124000250Y-93380500D01*
X124000252Y-93380500D01*
X126039750Y-93380500D01*
X126059155Y-93376639D01*
X126098231Y-93368867D01*
X126164552Y-93324552D01*
X126164552Y-93324551D01*
X126179440Y-93314604D01*
X126262180Y-93283019D01*
X126350430Y-93290462D01*
X126400560Y-93314604D01*
X126481767Y-93368866D01*
X126481769Y-93368867D01*
X126512421Y-93374964D01*
X126540250Y-93380500D01*
X126540252Y-93380500D01*
X128579750Y-93380500D01*
X128599155Y-93376639D01*
X128638231Y-93368867D01*
X128704552Y-93324552D01*
X128748867Y-93258231D01*
X128758618Y-93209211D01*
X128760500Y-93199749D01*
X128760500Y-91160250D01*
X128755871Y-91136983D01*
X128748867Y-91101769D01*
X128743534Y-91093787D01*
X128704552Y-91035447D01*
X128638232Y-90991133D01*
X128579750Y-90979500D01*
X128579748Y-90979500D01*
X126540252Y-90979500D01*
X126540250Y-90979500D01*
X126481767Y-90991133D01*
X126400559Y-91045396D01*
X126317819Y-91076980D01*
X126229569Y-91069536D01*
X126179441Y-91045396D01*
X126098232Y-90991133D01*
X126039750Y-90979500D01*
X126039748Y-90979500D01*
X124000252Y-90979500D01*
X124000250Y-90979500D01*
X123941767Y-90991133D01*
X123860559Y-91045396D01*
X123777819Y-91076980D01*
X123689569Y-91069536D01*
X123639441Y-91045396D01*
X123558232Y-90991133D01*
X123499750Y-90979500D01*
X123499748Y-90979500D01*
X121460252Y-90979500D01*
X121460250Y-90979500D01*
X121401767Y-90991133D01*
X121320559Y-91045396D01*
X121237819Y-91076980D01*
X121149569Y-91069536D01*
X121099441Y-91045396D01*
X121018232Y-90991133D01*
X120959750Y-90979500D01*
X120959748Y-90979500D01*
X118920252Y-90979500D01*
X118920250Y-90979500D01*
X118861767Y-90991133D01*
X118780559Y-91045396D01*
X118697819Y-91076980D01*
X118609569Y-91069536D01*
X118559441Y-91045396D01*
X118478232Y-90991133D01*
X118419750Y-90979500D01*
X118419748Y-90979500D01*
X116380252Y-90979500D01*
X116380250Y-90979500D01*
X116321767Y-90991133D01*
X116240559Y-91045396D01*
X116157819Y-91076980D01*
X116069569Y-91069536D01*
X116019441Y-91045396D01*
X115938232Y-90991133D01*
X115879750Y-90979500D01*
X115879748Y-90979500D01*
X113840252Y-90979500D01*
X113840250Y-90979500D01*
X113781767Y-90991133D01*
X113700559Y-91045396D01*
X113617819Y-91076980D01*
X113529569Y-91069536D01*
X113479441Y-91045396D01*
X113398232Y-90991133D01*
X113339750Y-90979500D01*
X113339748Y-90979500D01*
X111300252Y-90979500D01*
X111300250Y-90979500D01*
X111241767Y-90991133D01*
X111160559Y-91045396D01*
X111077819Y-91076980D01*
X110989569Y-91069536D01*
X110939441Y-91045396D01*
X110858232Y-90991133D01*
X110799750Y-90979500D01*
X110799748Y-90979500D01*
X108760252Y-90979500D01*
X108760250Y-90979500D01*
X108701767Y-90991133D01*
X108620559Y-91045396D01*
X108537819Y-91076980D01*
X108449569Y-91069536D01*
X108399441Y-91045396D01*
X108318232Y-90991133D01*
X108259750Y-90979500D01*
X108259748Y-90979500D01*
X106220252Y-90979500D01*
X106220250Y-90979500D01*
X106161767Y-90991133D01*
X106080559Y-91045396D01*
X105997819Y-91076980D01*
X105909569Y-91069536D01*
X105859441Y-91045396D01*
X105778232Y-90991133D01*
X105719750Y-90979500D01*
X105719748Y-90979500D01*
X103680252Y-90979500D01*
X103680250Y-90979500D01*
X103621767Y-90991133D01*
X103540559Y-91045396D01*
X103457819Y-91076980D01*
X103369569Y-91069536D01*
X103319441Y-91045396D01*
X103238232Y-90991133D01*
X103179750Y-90979500D01*
X103179748Y-90979500D01*
X101140252Y-90979500D01*
X101140250Y-90979500D01*
X101081767Y-90991133D01*
X101000559Y-91045396D01*
X100917819Y-91076980D01*
X100829569Y-91069536D01*
X100779441Y-91045396D01*
X100698232Y-90991133D01*
X100639750Y-90979500D01*
X100639748Y-90979500D01*
X98600252Y-90979500D01*
X98600250Y-90979500D01*
X98541767Y-90991133D01*
X98460559Y-91045396D01*
X98377819Y-91076980D01*
X98289569Y-91069536D01*
X98239441Y-91045396D01*
X98158232Y-90991133D01*
X98099750Y-90979500D01*
X98099748Y-90979500D01*
X96060252Y-90979500D01*
X96060250Y-90979500D01*
X96001767Y-90991133D01*
X95920559Y-91045396D01*
X95837819Y-91076980D01*
X95749569Y-91069536D01*
X95699441Y-91045396D01*
X95618232Y-90991133D01*
X95559750Y-90979500D01*
X95559748Y-90979500D01*
X93520252Y-90979500D01*
X93520250Y-90979500D01*
X93461767Y-90991133D01*
X93380559Y-91045396D01*
X93297819Y-91076980D01*
X93209569Y-91069536D01*
X93159441Y-91045396D01*
X93078232Y-90991133D01*
X93019750Y-90979500D01*
X93019748Y-90979500D01*
X92699500Y-90979500D01*
X92613157Y-90959793D01*
X92543916Y-90904574D01*
X92505489Y-90824782D01*
X92500500Y-90780500D01*
X92500500Y-89999742D01*
X92520207Y-89913399D01*
X92558788Y-89859025D01*
X92589031Y-89828783D01*
X92664021Y-89781666D01*
X92729743Y-89770500D01*
X129770258Y-89770500D01*
X129856601Y-89790207D01*
G37*
G04 #@! TD.AperFunction*
G04 #@! TA.AperFunction,Conductor*
G36*
X176886843Y-70049707D02*
G01*
X176956084Y-70104926D01*
X176994511Y-70184718D01*
X176999500Y-70229000D01*
X176999500Y-129781000D01*
X176979793Y-129867343D01*
X176924574Y-129936584D01*
X176844782Y-129975011D01*
X176800500Y-129980000D01*
X159064014Y-129980000D01*
X159038633Y-129974207D01*
X159037942Y-129974549D01*
X158991686Y-129980000D01*
X97348314Y-129980000D01*
X97315364Y-129972479D01*
X97275986Y-129980000D01*
X77209000Y-129980000D01*
X77122657Y-129960293D01*
X77053416Y-129905074D01*
X77014989Y-129825282D01*
X77010000Y-129781000D01*
X77010000Y-125981183D01*
X79249500Y-125981183D01*
X79288603Y-126240608D01*
X79288606Y-126240623D01*
X79365938Y-126491327D01*
X79440392Y-126645931D01*
X79473343Y-126714355D01*
X79479772Y-126727703D01*
X79479776Y-126727711D01*
X79627564Y-126944476D01*
X79806015Y-127136801D01*
X79806021Y-127136807D01*
X79865043Y-127183875D01*
X80011141Y-127300384D01*
X80011141Y-127300385D01*
X80238359Y-127431569D01*
X80281585Y-127448533D01*
X80482584Y-127527420D01*
X80738370Y-127585802D01*
X80875709Y-127596093D01*
X80934502Y-127600500D01*
X80934506Y-127600500D01*
X81065498Y-127600500D01*
X81120191Y-127596401D01*
X81261630Y-127585802D01*
X81517416Y-127527420D01*
X81761643Y-127431568D01*
X81988857Y-127300386D01*
X82193981Y-127136805D01*
X82372433Y-126944479D01*
X82520228Y-126727704D01*
X82634063Y-126491323D01*
X82711396Y-126240615D01*
X82750500Y-125981182D01*
X82750500Y-125718818D01*
X82711396Y-125459385D01*
X82634063Y-125208677D01*
X82520228Y-124972296D01*
X82467324Y-124894700D01*
X82372435Y-124755523D01*
X82193984Y-124563198D01*
X82193978Y-124563192D01*
X82025538Y-124428866D01*
X81988858Y-124399614D01*
X81761640Y-124268430D01*
X81582552Y-124198144D01*
X81517416Y-124172580D01*
X81453469Y-124157984D01*
X81261633Y-124114198D01*
X81065498Y-124099500D01*
X81065494Y-124099500D01*
X80934506Y-124099500D01*
X80934502Y-124099500D01*
X80738366Y-124114198D01*
X80482584Y-124172580D01*
X80238360Y-124268430D01*
X80238359Y-124268430D01*
X80011141Y-124399614D01*
X80011141Y-124399615D01*
X79806021Y-124563192D01*
X79806015Y-124563198D01*
X79627564Y-124755523D01*
X79479776Y-124972288D01*
X79479772Y-124972296D01*
X79365938Y-125208672D01*
X79288606Y-125459376D01*
X79288603Y-125459391D01*
X79249500Y-125718816D01*
X79249500Y-125981183D01*
X77010000Y-125981183D01*
X77010000Y-113859000D01*
X77029707Y-113772657D01*
X77084926Y-113703416D01*
X77164718Y-113664989D01*
X77209000Y-113660000D01*
X97290000Y-113660000D01*
X97290000Y-96060001D01*
X97289999Y-96059999D01*
X97278286Y-96048286D01*
X97231167Y-95973298D01*
X97230730Y-95970730D01*
X97220000Y-95960000D01*
X77209000Y-95960000D01*
X77122657Y-95940293D01*
X77053416Y-95885074D01*
X77014989Y-95805282D01*
X77010000Y-95761000D01*
X77010000Y-93199749D01*
X78099500Y-93199749D01*
X78111133Y-93258232D01*
X78155447Y-93324552D01*
X78221767Y-93368866D01*
X78221769Y-93368867D01*
X78252421Y-93374964D01*
X78280250Y-93380500D01*
X78280252Y-93380500D01*
X80319750Y-93380500D01*
X80339155Y-93376639D01*
X80378231Y-93368867D01*
X80444552Y-93324552D01*
X80444552Y-93324551D01*
X80459440Y-93314604D01*
X80542180Y-93283019D01*
X80630430Y-93290462D01*
X80680560Y-93314604D01*
X80761767Y-93368866D01*
X80761769Y-93368867D01*
X80792421Y-93374964D01*
X80820250Y-93380500D01*
X80820252Y-93380500D01*
X82859750Y-93380500D01*
X82879155Y-93376639D01*
X82918231Y-93368867D01*
X82984552Y-93324552D01*
X82984552Y-93324551D01*
X82999440Y-93314604D01*
X83082180Y-93283019D01*
X83170430Y-93290462D01*
X83220560Y-93314604D01*
X83301767Y-93368866D01*
X83301769Y-93368867D01*
X83332421Y-93374964D01*
X83360250Y-93380500D01*
X83360252Y-93380500D01*
X83715816Y-93380500D01*
X83802159Y-93400207D01*
X83871400Y-93455426D01*
X83896833Y-93496833D01*
X83915823Y-93538417D01*
X83918541Y-93544979D01*
X83936204Y-93592331D01*
X83940845Y-93600831D01*
X83949377Y-93615211D01*
X83954623Y-93623374D01*
X83987711Y-93661559D01*
X83992170Y-93667093D01*
X84000781Y-93678596D01*
X84010933Y-93688747D01*
X84015773Y-93693946D01*
X84048872Y-93732143D01*
X84056217Y-93738507D01*
X84079273Y-93757087D01*
X85072913Y-94750727D01*
X85091507Y-94773801D01*
X85097856Y-94781128D01*
X85136046Y-94814219D01*
X85141233Y-94819047D01*
X85151407Y-94829221D01*
X85162937Y-94837852D01*
X85168429Y-94842278D01*
X85190733Y-94861605D01*
X85206625Y-94875376D01*
X85214807Y-94880633D01*
X85229160Y-94889149D01*
X85237673Y-94893798D01*
X85285021Y-94911457D01*
X85291587Y-94914177D01*
X85337543Y-94935165D01*
X85346883Y-94937907D01*
X85363013Y-94942024D01*
X85372513Y-94944090D01*
X85372514Y-94944090D01*
X85372517Y-94944091D01*
X85422938Y-94947697D01*
X85429973Y-94948454D01*
X85444201Y-94950500D01*
X85458564Y-94950500D01*
X85465665Y-94950754D01*
X85497958Y-94953063D01*
X85516073Y-94954359D01*
X85516073Y-94954358D01*
X85516077Y-94954359D01*
X85525754Y-94953667D01*
X85555209Y-94950500D01*
X98570258Y-94950500D01*
X98656601Y-94970207D01*
X98710972Y-95008786D01*
X105002913Y-101300727D01*
X105021507Y-101323801D01*
X105027856Y-101331128D01*
X105066046Y-101364219D01*
X105071233Y-101369047D01*
X105081407Y-101379221D01*
X105092937Y-101387852D01*
X105098429Y-101392278D01*
X105111740Y-101403812D01*
X105136625Y-101425376D01*
X105144807Y-101430633D01*
X105159160Y-101439149D01*
X105167673Y-101443798D01*
X105215021Y-101461457D01*
X105221587Y-101464177D01*
X105267543Y-101485165D01*
X105276883Y-101487907D01*
X105293013Y-101492024D01*
X105302513Y-101494090D01*
X105302514Y-101494090D01*
X105302517Y-101494091D01*
X105352938Y-101497697D01*
X105359973Y-101498454D01*
X105374201Y-101500500D01*
X105388564Y-101500500D01*
X105395665Y-101500754D01*
X105427958Y-101503063D01*
X105446073Y-101504359D01*
X105446073Y-101504358D01*
X105446077Y-101504359D01*
X105455754Y-101503667D01*
X105485209Y-101500500D01*
X119890258Y-101500500D01*
X119976601Y-101520207D01*
X120030972Y-101558786D01*
X129541214Y-111069027D01*
X129588333Y-111144015D01*
X129599500Y-111209741D01*
X129599500Y-122680258D01*
X129579793Y-122766601D01*
X129541214Y-122820972D01*
X129060972Y-123301214D01*
X128985984Y-123348333D01*
X128920258Y-123359500D01*
X115345209Y-123359500D01*
X115315754Y-123356332D01*
X115306077Y-123355640D01*
X115255665Y-123359246D01*
X115248564Y-123359500D01*
X115234201Y-123359500D01*
X115219975Y-123361544D01*
X115212927Y-123362302D01*
X115162516Y-123365909D01*
X115153060Y-123367966D01*
X115136808Y-123372114D01*
X115127539Y-123374836D01*
X115081578Y-123395825D01*
X115075018Y-123398543D01*
X115027675Y-123416201D01*
X115027670Y-123416203D01*
X115027669Y-123416204D01*
X115027667Y-123416205D01*
X115019201Y-123420827D01*
X115004746Y-123429404D01*
X114996626Y-123434623D01*
X114958442Y-123467708D01*
X114952917Y-123472162D01*
X114941410Y-123480775D01*
X114941401Y-123480783D01*
X114931239Y-123490945D01*
X114926046Y-123495779D01*
X114887856Y-123528872D01*
X114881514Y-123536190D01*
X114862914Y-123559270D01*
X114739270Y-123682914D01*
X114716190Y-123701514D01*
X114708872Y-123707856D01*
X114675779Y-123746046D01*
X114670945Y-123751239D01*
X114660783Y-123761401D01*
X114660775Y-123761410D01*
X114652162Y-123772917D01*
X114647708Y-123778442D01*
X114614623Y-123816626D01*
X114609404Y-123824746D01*
X114600827Y-123839201D01*
X114596201Y-123847675D01*
X114578543Y-123895018D01*
X114575825Y-123901578D01*
X114554836Y-123947539D01*
X114552114Y-123956808D01*
X114547966Y-123973060D01*
X114545909Y-123982516D01*
X114542302Y-124032927D01*
X114541544Y-124039983D01*
X114539500Y-124054201D01*
X114539500Y-124068564D01*
X114539246Y-124075665D01*
X114535641Y-124126073D01*
X114536332Y-124135754D01*
X114539500Y-124165209D01*
X114539500Y-125127867D01*
X114519793Y-125214210D01*
X114464574Y-125283451D01*
X114445261Y-125297060D01*
X114349876Y-125356119D01*
X114349869Y-125356124D01*
X114193698Y-125498493D01*
X114193695Y-125498497D01*
X114066344Y-125667136D01*
X114066343Y-125667138D01*
X113972144Y-125856316D01*
X113914315Y-126059566D01*
X113914313Y-126059576D01*
X113894815Y-126269999D01*
X113894815Y-126270000D01*
X113914313Y-126480423D01*
X113914315Y-126480433D01*
X113972144Y-126683683D01*
X114066343Y-126872861D01*
X114066344Y-126872863D01*
X114193695Y-127041502D01*
X114193698Y-127041506D01*
X114349869Y-127183875D01*
X114349880Y-127183883D01*
X114508017Y-127281797D01*
X114529547Y-127295128D01*
X114543117Y-127300385D01*
X114726599Y-127371466D01*
X114726601Y-127371467D01*
X114726603Y-127371467D01*
X114726605Y-127371468D01*
X114934336Y-127410300D01*
X114934338Y-127410300D01*
X115145662Y-127410300D01*
X115145664Y-127410300D01*
X115353395Y-127371468D01*
X115550453Y-127295128D01*
X115665540Y-127223868D01*
X115730119Y-127183883D01*
X115730122Y-127183880D01*
X115730128Y-127183877D01*
X115886302Y-127041506D01*
X116013656Y-126872862D01*
X116107853Y-126683689D01*
X116107855Y-126683683D01*
X116107856Y-126683681D01*
X116118597Y-126645931D01*
X116161180Y-126568277D01*
X116233239Y-126516789D01*
X116320502Y-126501666D01*
X116405684Y-126525903D01*
X116471915Y-126584698D01*
X116501403Y-126645931D01*
X116512143Y-126683681D01*
X116606343Y-126872861D01*
X116606344Y-126872863D01*
X116733695Y-127041502D01*
X116733698Y-127041506D01*
X116889869Y-127183875D01*
X116889880Y-127183883D01*
X116985259Y-127242939D01*
X117048295Y-127305148D01*
X117078096Y-127388547D01*
X117079499Y-127412132D01*
X117079499Y-128184796D01*
X117076332Y-128214257D01*
X117075641Y-128223928D01*
X117079246Y-128274335D01*
X117079500Y-128281435D01*
X117079500Y-128295798D01*
X117081544Y-128310017D01*
X117082302Y-128317073D01*
X117085824Y-128366297D01*
X117072330Y-128453826D01*
X117022195Y-128526832D01*
X116945348Y-128570855D01*
X116887332Y-128579500D01*
X97569742Y-128579500D01*
X97483399Y-128559793D01*
X97429028Y-128521214D01*
X95098786Y-126190972D01*
X95051667Y-126115984D01*
X95040500Y-126050258D01*
X95040500Y-118979500D01*
X95060207Y-118893157D01*
X95115426Y-118823916D01*
X95195218Y-118785489D01*
X95239500Y-118780500D01*
X95559750Y-118780500D01*
X95579155Y-118776639D01*
X95618231Y-118768867D01*
X95684552Y-118724552D01*
X95684552Y-118724551D01*
X95699440Y-118714604D01*
X95782180Y-118683019D01*
X95870430Y-118690462D01*
X95920560Y-118714604D01*
X96001767Y-118768866D01*
X96001769Y-118768867D01*
X96036984Y-118775871D01*
X96060250Y-118780500D01*
X96060252Y-118780500D01*
X98099750Y-118780500D01*
X98119155Y-118776639D01*
X98158231Y-118768867D01*
X98224552Y-118724552D01*
X98224552Y-118724551D01*
X98239440Y-118714604D01*
X98322180Y-118683019D01*
X98410430Y-118690462D01*
X98460560Y-118714604D01*
X98541767Y-118768866D01*
X98541769Y-118768867D01*
X98576983Y-118775871D01*
X98600250Y-118780500D01*
X98600252Y-118780500D01*
X100639750Y-118780500D01*
X100659155Y-118776639D01*
X100698231Y-118768867D01*
X100764552Y-118724552D01*
X100764552Y-118724551D01*
X100779440Y-118714604D01*
X100862180Y-118683019D01*
X100950430Y-118690462D01*
X101000560Y-118714604D01*
X101081767Y-118768866D01*
X101081769Y-118768867D01*
X101116983Y-118775871D01*
X101140250Y-118780500D01*
X101140252Y-118780500D01*
X103179750Y-118780500D01*
X103194320Y-118777601D01*
X103238231Y-118768867D01*
X103304552Y-118724552D01*
X103304553Y-118724549D01*
X103319438Y-118714604D01*
X103402178Y-118683019D01*
X103490428Y-118690462D01*
X103540559Y-118714603D01*
X103555447Y-118724551D01*
X103555448Y-118724552D01*
X103621769Y-118768867D01*
X103663606Y-118777188D01*
X103680250Y-118780500D01*
X103680252Y-118780500D01*
X105719750Y-118780500D01*
X105739155Y-118776639D01*
X105778231Y-118768867D01*
X105844552Y-118724552D01*
X105844552Y-118724551D01*
X105859440Y-118714604D01*
X105942180Y-118683019D01*
X106030430Y-118690462D01*
X106080560Y-118714604D01*
X106161767Y-118768866D01*
X106161769Y-118768867D01*
X106196984Y-118775871D01*
X106220250Y-118780500D01*
X106220252Y-118780500D01*
X108259750Y-118780500D01*
X108279155Y-118776639D01*
X108318231Y-118768867D01*
X108384552Y-118724552D01*
X108384552Y-118724551D01*
X108399440Y-118714604D01*
X108482180Y-118683019D01*
X108570430Y-118690462D01*
X108620560Y-118714604D01*
X108701767Y-118768866D01*
X108701769Y-118768867D01*
X108736983Y-118775871D01*
X108760250Y-118780500D01*
X108760252Y-118780500D01*
X110799750Y-118780500D01*
X110819155Y-118776639D01*
X110858231Y-118768867D01*
X110924552Y-118724552D01*
X110924552Y-118724551D01*
X110939440Y-118714604D01*
X111022180Y-118683019D01*
X111110430Y-118690462D01*
X111160560Y-118714604D01*
X111241767Y-118768866D01*
X111241769Y-118768867D01*
X111276983Y-118775871D01*
X111300250Y-118780500D01*
X111300252Y-118780500D01*
X113339750Y-118780500D01*
X113354320Y-118777601D01*
X113398231Y-118768867D01*
X113464552Y-118724552D01*
X113464553Y-118724549D01*
X113479438Y-118714604D01*
X113562178Y-118683019D01*
X113650428Y-118690462D01*
X113700559Y-118714603D01*
X113715447Y-118724551D01*
X113715448Y-118724552D01*
X113781769Y-118768867D01*
X113823606Y-118777188D01*
X113840250Y-118780500D01*
X113840252Y-118780500D01*
X115879750Y-118780500D01*
X115899155Y-118776639D01*
X115938231Y-118768867D01*
X116004552Y-118724552D01*
X116048867Y-118658231D01*
X116060500Y-118599749D01*
X123819500Y-118599749D01*
X123831133Y-118658232D01*
X123875447Y-118724552D01*
X123941767Y-118768866D01*
X123941769Y-118768867D01*
X123976983Y-118775871D01*
X124000250Y-118780500D01*
X124000252Y-118780500D01*
X126039750Y-118780500D01*
X126059155Y-118776639D01*
X126098231Y-118768867D01*
X126164552Y-118724552D01*
X126164552Y-118724551D01*
X126179440Y-118714604D01*
X126262180Y-118683019D01*
X126350430Y-118690462D01*
X126400560Y-118714604D01*
X126481767Y-118768866D01*
X126481769Y-118768867D01*
X126516984Y-118775871D01*
X126540250Y-118780500D01*
X126540252Y-118780500D01*
X128579750Y-118780500D01*
X128599155Y-118776639D01*
X128638231Y-118768867D01*
X128704552Y-118724552D01*
X128748867Y-118658231D01*
X128760500Y-118599748D01*
X128760500Y-116560252D01*
X128748867Y-116501769D01*
X128748866Y-116501767D01*
X128704552Y-116435447D01*
X128638232Y-116391133D01*
X128579750Y-116379500D01*
X128579748Y-116379500D01*
X126540252Y-116379500D01*
X126540250Y-116379500D01*
X126481767Y-116391133D01*
X126400559Y-116445396D01*
X126317819Y-116476980D01*
X126229569Y-116469536D01*
X126179441Y-116445396D01*
X126098232Y-116391133D01*
X126039750Y-116379500D01*
X126039748Y-116379500D01*
X124000252Y-116379500D01*
X124000250Y-116379500D01*
X123941767Y-116391133D01*
X123875447Y-116435447D01*
X123831133Y-116501767D01*
X123819500Y-116560250D01*
X123819500Y-118599749D01*
X116060500Y-118599749D01*
X116060500Y-118599748D01*
X116060500Y-116560252D01*
X116048867Y-116501769D01*
X116048866Y-116501767D01*
X116004552Y-116435447D01*
X115938232Y-116391133D01*
X115879750Y-116379500D01*
X115879748Y-116379500D01*
X113840252Y-116379500D01*
X113840250Y-116379500D01*
X113781767Y-116391133D01*
X113700559Y-116445396D01*
X113617819Y-116476980D01*
X113529569Y-116469536D01*
X113479441Y-116445396D01*
X113398232Y-116391133D01*
X113339750Y-116379500D01*
X113339748Y-116379500D01*
X111300252Y-116379500D01*
X111300250Y-116379500D01*
X111241767Y-116391133D01*
X111160559Y-116445396D01*
X111077819Y-116476980D01*
X110989569Y-116469536D01*
X110939441Y-116445396D01*
X110858232Y-116391133D01*
X110799750Y-116379500D01*
X110799748Y-116379500D01*
X108760252Y-116379500D01*
X108760250Y-116379500D01*
X108701767Y-116391133D01*
X108620559Y-116445396D01*
X108537819Y-116476980D01*
X108449569Y-116469536D01*
X108399441Y-116445396D01*
X108318232Y-116391133D01*
X108259750Y-116379500D01*
X108259748Y-116379500D01*
X106220252Y-116379500D01*
X106220250Y-116379500D01*
X106161767Y-116391133D01*
X106080559Y-116445396D01*
X105997819Y-116476980D01*
X105909569Y-116469536D01*
X105859441Y-116445396D01*
X105778232Y-116391133D01*
X105719750Y-116379500D01*
X105719748Y-116379500D01*
X103680252Y-116379500D01*
X103680250Y-116379500D01*
X103621767Y-116391133D01*
X103540559Y-116445396D01*
X103457819Y-116476980D01*
X103369569Y-116469536D01*
X103319441Y-116445396D01*
X103238232Y-116391133D01*
X103179750Y-116379500D01*
X103179748Y-116379500D01*
X101140252Y-116379500D01*
X101140250Y-116379500D01*
X101081767Y-116391133D01*
X101000559Y-116445396D01*
X100917819Y-116476980D01*
X100829569Y-116469536D01*
X100779441Y-116445396D01*
X100698232Y-116391133D01*
X100639750Y-116379500D01*
X100639748Y-116379500D01*
X98600252Y-116379500D01*
X98600250Y-116379500D01*
X98541767Y-116391133D01*
X98460559Y-116445396D01*
X98377819Y-116476980D01*
X98289569Y-116469536D01*
X98239441Y-116445396D01*
X98158232Y-116391133D01*
X98099750Y-116379500D01*
X98099748Y-116379500D01*
X96060252Y-116379500D01*
X96060250Y-116379500D01*
X96001767Y-116391133D01*
X95920559Y-116445396D01*
X95837819Y-116476980D01*
X95749569Y-116469536D01*
X95699441Y-116445396D01*
X95618232Y-116391133D01*
X95559750Y-116379500D01*
X95559748Y-116379500D01*
X93520252Y-116379500D01*
X93520250Y-116379500D01*
X93461767Y-116391133D01*
X93380559Y-116445396D01*
X93297819Y-116476980D01*
X93209569Y-116469536D01*
X93159441Y-116445396D01*
X93078232Y-116391133D01*
X93019750Y-116379500D01*
X93019748Y-116379500D01*
X90980252Y-116379500D01*
X90980250Y-116379500D01*
X90921767Y-116391133D01*
X90840559Y-116445396D01*
X90757819Y-116476980D01*
X90669569Y-116469536D01*
X90619441Y-116445396D01*
X90538232Y-116391133D01*
X90479750Y-116379500D01*
X90479748Y-116379500D01*
X88440252Y-116379500D01*
X88440250Y-116379500D01*
X88381767Y-116391133D01*
X88300559Y-116445396D01*
X88217819Y-116476980D01*
X88129569Y-116469536D01*
X88079441Y-116445396D01*
X87998232Y-116391133D01*
X87939750Y-116379500D01*
X87939748Y-116379500D01*
X85900252Y-116379500D01*
X85900250Y-116379500D01*
X85841767Y-116391133D01*
X85760559Y-116445396D01*
X85677819Y-116476980D01*
X85589569Y-116469536D01*
X85539441Y-116445396D01*
X85458232Y-116391133D01*
X85399750Y-116379500D01*
X85399748Y-116379500D01*
X83360252Y-116379500D01*
X83360250Y-116379500D01*
X83301767Y-116391133D01*
X83220559Y-116445396D01*
X83137819Y-116476980D01*
X83049569Y-116469536D01*
X82999441Y-116445396D01*
X82918232Y-116391133D01*
X82859750Y-116379500D01*
X82859748Y-116379500D01*
X80820252Y-116379500D01*
X80820250Y-116379500D01*
X80761767Y-116391133D01*
X80695447Y-116435447D01*
X80651133Y-116501767D01*
X80639500Y-116560250D01*
X80639500Y-118599749D01*
X80651133Y-118658232D01*
X80695447Y-118724552D01*
X80761767Y-118768866D01*
X80761769Y-118768867D01*
X80796983Y-118775871D01*
X80820250Y-118780500D01*
X80820252Y-118780500D01*
X82859750Y-118780500D01*
X82879155Y-118776639D01*
X82918231Y-118768867D01*
X82984552Y-118724552D01*
X82984552Y-118724551D01*
X82999440Y-118714604D01*
X83082180Y-118683019D01*
X83170430Y-118690462D01*
X83220560Y-118714604D01*
X83301767Y-118768866D01*
X83301769Y-118768867D01*
X83336983Y-118775871D01*
X83360250Y-118780500D01*
X83360252Y-118780500D01*
X85399750Y-118780500D01*
X85419155Y-118776639D01*
X85458231Y-118768867D01*
X85524552Y-118724552D01*
X85524552Y-118724551D01*
X85539440Y-118714604D01*
X85622180Y-118683019D01*
X85710430Y-118690462D01*
X85760560Y-118714604D01*
X85841767Y-118768866D01*
X85841769Y-118768867D01*
X85876984Y-118775871D01*
X85900250Y-118780500D01*
X85900252Y-118780500D01*
X87939750Y-118780500D01*
X87959155Y-118776639D01*
X87998231Y-118768867D01*
X88064552Y-118724552D01*
X88064552Y-118724551D01*
X88079440Y-118714604D01*
X88162180Y-118683019D01*
X88250430Y-118690462D01*
X88300560Y-118714604D01*
X88381767Y-118768866D01*
X88381769Y-118768867D01*
X88416983Y-118775871D01*
X88440250Y-118780500D01*
X88440252Y-118780500D01*
X90479750Y-118780500D01*
X90499155Y-118776639D01*
X90538231Y-118768867D01*
X90604552Y-118724552D01*
X90604552Y-118724551D01*
X90619440Y-118714604D01*
X90702180Y-118683019D01*
X90790430Y-118690462D01*
X90840560Y-118714604D01*
X90921767Y-118768866D01*
X90921769Y-118768867D01*
X90956983Y-118775871D01*
X90980250Y-118780500D01*
X90980252Y-118780500D01*
X93019750Y-118780500D01*
X93034320Y-118777601D01*
X93078231Y-118768867D01*
X93144552Y-118724552D01*
X93144553Y-118724549D01*
X93159438Y-118714604D01*
X93242178Y-118683019D01*
X93330428Y-118690462D01*
X93380559Y-118714603D01*
X93395447Y-118724551D01*
X93395448Y-118724552D01*
X93461769Y-118768867D01*
X93503606Y-118777188D01*
X93520250Y-118780500D01*
X93520252Y-118780500D01*
X93840500Y-118780500D01*
X93926843Y-118800207D01*
X93996084Y-118855426D01*
X94034511Y-118935218D01*
X94039500Y-118979500D01*
X94039500Y-126264792D01*
X94036332Y-126294255D01*
X94035640Y-126303924D01*
X94039246Y-126354335D01*
X94039500Y-126361436D01*
X94039500Y-126375798D01*
X94041544Y-126390018D01*
X94042302Y-126397074D01*
X94045909Y-126447483D01*
X94047968Y-126456949D01*
X94052111Y-126473181D01*
X94054835Y-126482459D01*
X94075824Y-126528417D01*
X94078542Y-126534979D01*
X94096205Y-126582333D01*
X94100845Y-126590831D01*
X94109377Y-126605211D01*
X94114623Y-126613374D01*
X94147711Y-126651559D01*
X94152170Y-126657093D01*
X94160781Y-126668596D01*
X94170933Y-126678747D01*
X94175773Y-126683946D01*
X94208872Y-126722143D01*
X94216217Y-126728507D01*
X94239273Y-126747087D01*
X96872913Y-129380727D01*
X96891507Y-129403801D01*
X96897856Y-129411128D01*
X96936046Y-129444219D01*
X96941233Y-129449047D01*
X96951407Y-129459221D01*
X96962937Y-129467852D01*
X96968429Y-129472278D01*
X96990733Y-129491605D01*
X97006625Y-129505376D01*
X97014807Y-129510633D01*
X97029160Y-129519149D01*
X97037673Y-129523798D01*
X97085021Y-129541457D01*
X97091583Y-129544175D01*
X97091584Y-129544176D01*
X97091587Y-129544177D01*
X97137543Y-129565165D01*
X97146883Y-129567907D01*
X97163013Y-129572024D01*
X97172513Y-129574090D01*
X97172514Y-129574090D01*
X97172517Y-129574091D01*
X97222938Y-129577697D01*
X97229973Y-129578454D01*
X97244201Y-129580500D01*
X97258564Y-129580500D01*
X97265664Y-129580754D01*
X97286392Y-129582236D01*
X97290182Y-129582507D01*
X97304805Y-129586963D01*
X97306011Y-129586548D01*
X97312906Y-129585048D01*
X97355209Y-129580500D01*
X158984791Y-129580500D01*
X159027094Y-129585048D01*
X159033989Y-129586548D01*
X159034222Y-129586657D01*
X159049817Y-129582507D01*
X159053607Y-129582236D01*
X159074336Y-129580754D01*
X159081436Y-129580500D01*
X159095798Y-129580500D01*
X159095799Y-129580500D01*
X159110026Y-129578453D01*
X159117060Y-129577697D01*
X159167483Y-129574091D01*
X159167484Y-129574090D01*
X159177014Y-129572017D01*
X159193112Y-129567908D01*
X159202453Y-129565165D01*
X159202457Y-129565165D01*
X159248459Y-129544155D01*
X159254947Y-129541468D01*
X159302331Y-129523796D01*
X159302333Y-129523793D01*
X159310887Y-129519123D01*
X159325154Y-129510658D01*
X159333365Y-129505380D01*
X159333373Y-129505377D01*
X159371567Y-129472280D01*
X159377083Y-129467836D01*
X159388593Y-129459221D01*
X159398768Y-129449044D01*
X159403936Y-129444232D01*
X159442143Y-129411128D01*
X159442145Y-129411124D01*
X159442147Y-129411123D01*
X159448504Y-129403787D01*
X159467082Y-129380730D01*
X159509030Y-129338783D01*
X159584019Y-129291666D01*
X159649742Y-129280500D01*
X167824791Y-129280500D01*
X167854245Y-129283667D01*
X167863922Y-129284359D01*
X167863925Y-129284358D01*
X167863927Y-129284359D01*
X167884703Y-129282872D01*
X167914335Y-129280754D01*
X167921436Y-129280500D01*
X167935798Y-129280500D01*
X167935799Y-129280500D01*
X167950026Y-129278453D01*
X167957060Y-129277697D01*
X168007483Y-129274091D01*
X168007484Y-129274090D01*
X168017014Y-129272017D01*
X168033112Y-129267908D01*
X168042453Y-129265165D01*
X168042457Y-129265165D01*
X168088459Y-129244155D01*
X168094947Y-129241468D01*
X168142331Y-129223796D01*
X168142333Y-129223793D01*
X168150887Y-129219123D01*
X168165154Y-129210658D01*
X168173366Y-129205380D01*
X168173373Y-129205377D01*
X168211567Y-129172280D01*
X168217069Y-129167846D01*
X168228593Y-129159221D01*
X168238772Y-129149039D01*
X168243939Y-129144229D01*
X168282143Y-129111128D01*
X168282145Y-129111124D01*
X168288514Y-129103774D01*
X168307084Y-129080728D01*
X168660727Y-128727084D01*
X168683783Y-128708507D01*
X168691126Y-128702144D01*
X168691125Y-128702144D01*
X168691128Y-128702143D01*
X168724227Y-128663943D01*
X168729065Y-128658747D01*
X168739220Y-128648593D01*
X168747837Y-128637080D01*
X168752268Y-128631580D01*
X168785377Y-128593373D01*
X168785381Y-128593362D01*
X168790658Y-128585154D01*
X168799123Y-128570887D01*
X168803793Y-128562333D01*
X168803796Y-128562331D01*
X168821468Y-128514947D01*
X168824155Y-128508459D01*
X168845165Y-128462457D01*
X168845165Y-128462453D01*
X168847908Y-128453112D01*
X168852017Y-128437014D01*
X168854091Y-128427482D01*
X168855094Y-128413453D01*
X168857697Y-128377057D01*
X168858455Y-128370016D01*
X168858820Y-128367483D01*
X168860500Y-128355799D01*
X168860499Y-128341437D01*
X168860753Y-128334335D01*
X168861971Y-128317302D01*
X168864359Y-128283927D01*
X168864358Y-128283922D01*
X168863667Y-128274257D01*
X168860500Y-128244793D01*
X168860500Y-125981183D01*
X171249500Y-125981183D01*
X171288603Y-126240608D01*
X171288606Y-126240623D01*
X171365938Y-126491327D01*
X171440392Y-126645931D01*
X171473343Y-126714355D01*
X171479772Y-126727703D01*
X171479776Y-126727711D01*
X171627564Y-126944476D01*
X171806015Y-127136801D01*
X171806021Y-127136807D01*
X171865043Y-127183875D01*
X172011141Y-127300384D01*
X172011141Y-127300385D01*
X172238359Y-127431569D01*
X172281585Y-127448533D01*
X172482584Y-127527420D01*
X172738370Y-127585802D01*
X172875710Y-127596093D01*
X172934502Y-127600500D01*
X172934506Y-127600500D01*
X173065498Y-127600500D01*
X173120191Y-127596401D01*
X173261630Y-127585802D01*
X173517416Y-127527420D01*
X173761643Y-127431568D01*
X173988857Y-127300386D01*
X174193981Y-127136805D01*
X174372433Y-126944479D01*
X174520228Y-126727704D01*
X174634063Y-126491323D01*
X174711396Y-126240615D01*
X174750500Y-125981182D01*
X174750500Y-125718818D01*
X174711396Y-125459385D01*
X174634063Y-125208677D01*
X174520228Y-124972296D01*
X174467324Y-124894700D01*
X174372435Y-124755523D01*
X174193984Y-124563198D01*
X174193978Y-124563192D01*
X174025538Y-124428866D01*
X173988858Y-124399614D01*
X173761640Y-124268430D01*
X173582552Y-124198144D01*
X173517416Y-124172580D01*
X173453469Y-124157984D01*
X173261633Y-124114198D01*
X173065498Y-124099500D01*
X173065494Y-124099500D01*
X172934506Y-124099500D01*
X172934502Y-124099500D01*
X172738366Y-124114198D01*
X172482584Y-124172580D01*
X172238360Y-124268430D01*
X172238359Y-124268430D01*
X172011141Y-124399614D01*
X172011141Y-124399615D01*
X171806021Y-124563192D01*
X171806015Y-124563198D01*
X171627564Y-124755523D01*
X171479776Y-124972288D01*
X171479772Y-124972296D01*
X171365938Y-125208672D01*
X171288606Y-125459376D01*
X171288603Y-125459391D01*
X171249500Y-125718816D01*
X171249500Y-125981183D01*
X168860500Y-125981183D01*
X168860500Y-117619740D01*
X168880207Y-117533397D01*
X168918783Y-117479029D01*
X176120729Y-110277083D01*
X176143779Y-110258510D01*
X176151123Y-110252147D01*
X176151124Y-110252145D01*
X176151128Y-110252143D01*
X176184232Y-110213936D01*
X176189044Y-110208768D01*
X176199221Y-110198593D01*
X176207836Y-110187083D01*
X176212280Y-110181567D01*
X176245377Y-110143373D01*
X176245380Y-110143365D01*
X176250658Y-110135154D01*
X176259123Y-110120887D01*
X176263793Y-110112333D01*
X176263796Y-110112331D01*
X176281468Y-110064947D01*
X176284155Y-110058459D01*
X176305165Y-110012457D01*
X176305165Y-110012453D01*
X176307908Y-110003112D01*
X176312017Y-109987014D01*
X176314091Y-109977482D01*
X176317697Y-109927060D01*
X176318455Y-109920017D01*
X176319411Y-109913374D01*
X176320500Y-109905799D01*
X176320500Y-109891436D01*
X176320754Y-109884335D01*
X176323291Y-109848854D01*
X176324359Y-109833927D01*
X176324358Y-109833926D01*
X176324359Y-109833924D01*
X176323666Y-109824241D01*
X176320500Y-109794801D01*
X176320500Y-101425199D01*
X176323667Y-101395747D01*
X176324359Y-101386073D01*
X176320754Y-101335665D01*
X176320500Y-101328564D01*
X176320500Y-101314200D01*
X176318455Y-101299982D01*
X176317697Y-101292938D01*
X176314091Y-101242517D01*
X176314090Y-101242513D01*
X176312024Y-101233013D01*
X176307907Y-101216883D01*
X176305165Y-101207543D01*
X176284177Y-101161587D01*
X176281457Y-101155021D01*
X176263798Y-101107673D01*
X176259149Y-101099160D01*
X176250633Y-101084807D01*
X176245376Y-101076625D01*
X176231605Y-101060733D01*
X176212278Y-101038429D01*
X176207852Y-101032937D01*
X176199221Y-101021407D01*
X176189047Y-101011233D01*
X176184219Y-101006046D01*
X176151128Y-100967856D01*
X176143801Y-100961507D01*
X176120727Y-100942913D01*
X175507087Y-100329273D01*
X175488507Y-100306217D01*
X175482143Y-100298872D01*
X175443946Y-100265773D01*
X175438747Y-100260933D01*
X175428596Y-100250781D01*
X175417093Y-100242170D01*
X175411559Y-100237711D01*
X175373374Y-100204623D01*
X175365211Y-100199377D01*
X175350831Y-100190845D01*
X175342333Y-100186205D01*
X175342331Y-100186204D01*
X175327170Y-100180549D01*
X175294979Y-100168542D01*
X175288417Y-100165824D01*
X175242459Y-100144835D01*
X175233181Y-100142111D01*
X175216949Y-100137968D01*
X175207483Y-100135909D01*
X175157074Y-100132302D01*
X175150018Y-100131544D01*
X175135799Y-100129500D01*
X175135798Y-100129500D01*
X175121436Y-100129500D01*
X175114335Y-100129246D01*
X175063922Y-100125640D01*
X175054245Y-100126332D01*
X175024791Y-100129500D01*
X174907336Y-100129500D01*
X174820993Y-100109793D01*
X174751752Y-100054574D01*
X174713325Y-99974782D01*
X174712160Y-99891675D01*
X174720500Y-99849749D01*
X174720500Y-98810250D01*
X174715871Y-98786984D01*
X174708867Y-98751769D01*
X174683488Y-98713787D01*
X174664552Y-98685447D01*
X174598232Y-98641133D01*
X174539750Y-98629500D01*
X174539748Y-98629500D01*
X174294500Y-98629500D01*
X174208157Y-98609793D01*
X174138916Y-98554574D01*
X174100489Y-98474782D01*
X174095500Y-98430500D01*
X174095500Y-93035773D01*
X174098503Y-93012962D01*
X174097741Y-93012896D01*
X174099257Y-92995548D01*
X174099259Y-92995546D01*
X174100262Y-92984074D01*
X174106284Y-92949921D01*
X174109263Y-92938807D01*
X174108260Y-92927342D01*
X174108260Y-92892667D01*
X174109264Y-92881193D01*
X174106285Y-92870076D01*
X174100261Y-92835914D01*
X174099259Y-92824455D01*
X174094396Y-92814027D01*
X174082530Y-92781424D01*
X174080285Y-92773045D01*
X174079554Y-92770316D01*
X174072950Y-92760884D01*
X174055612Y-92730855D01*
X174050747Y-92720421D01*
X173969579Y-92639253D01*
X173861886Y-92531560D01*
X173856028Y-92525168D01*
X173831055Y-92495406D01*
X173797418Y-92475985D01*
X173790095Y-92471319D01*
X173758286Y-92449047D01*
X173745202Y-92442946D01*
X173731646Y-92438011D01*
X173693411Y-92431269D01*
X173684936Y-92429390D01*
X173647409Y-92419335D01*
X173608712Y-92422721D01*
X173600036Y-92423100D01*
X170349500Y-92423100D01*
X170263157Y-92403393D01*
X170193916Y-92348174D01*
X170155489Y-92268382D01*
X170152123Y-92238510D01*
X170151458Y-92238576D01*
X170150500Y-92228854D01*
X170150497Y-92228838D01*
X170138867Y-92170369D01*
X170138866Y-92170367D01*
X170135043Y-92151147D01*
X170136619Y-92150833D01*
X170125848Y-92087444D01*
X170135284Y-92046101D01*
X170135043Y-92046053D01*
X170141264Y-92014782D01*
X170150500Y-91968348D01*
X170150500Y-90928852D01*
X170149659Y-90924625D01*
X170141680Y-90884511D01*
X170138867Y-90870369D01*
X170122640Y-90846084D01*
X170094552Y-90804047D01*
X170028232Y-90759733D01*
X169969750Y-90748100D01*
X169969748Y-90748100D01*
X168430252Y-90748100D01*
X168430250Y-90748100D01*
X168371767Y-90759733D01*
X168305447Y-90804047D01*
X168261133Y-90870367D01*
X168249500Y-90928850D01*
X168249500Y-91182700D01*
X168229793Y-91269043D01*
X168174574Y-91338284D01*
X168094782Y-91376711D01*
X168050500Y-91381700D01*
X165539959Y-91381700D01*
X165453616Y-91361993D01*
X165384375Y-91306774D01*
X165371461Y-91288574D01*
X165326212Y-91216561D01*
X165326209Y-91216557D01*
X165203442Y-91093790D01*
X165203439Y-91093788D01*
X165203438Y-91093787D01*
X165056423Y-91001411D01*
X165056422Y-91001410D01*
X165056421Y-91001410D01*
X164892536Y-90944064D01*
X164720000Y-90924625D01*
X164547463Y-90944064D01*
X164383578Y-91001410D01*
X164383577Y-91001410D01*
X164284682Y-91063550D01*
X164236562Y-91093787D01*
X164236560Y-91093788D01*
X164236558Y-91093790D01*
X164236557Y-91093790D01*
X164113790Y-91216557D01*
X164113790Y-91216558D01*
X164021410Y-91363577D01*
X164021410Y-91363578D01*
X163964064Y-91527463D01*
X163944625Y-91700000D01*
X163964064Y-91872536D01*
X164021410Y-92036421D01*
X164021410Y-92036422D01*
X164021411Y-92036423D01*
X164113787Y-92183438D01*
X164113790Y-92183441D01*
X164113790Y-92183442D01*
X164236557Y-92306209D01*
X164236559Y-92306210D01*
X164236562Y-92306213D01*
X164383577Y-92398589D01*
X164547463Y-92455935D01*
X164720000Y-92475375D01*
X164892537Y-92455935D01*
X165056423Y-92398589D01*
X165203438Y-92306213D01*
X165326213Y-92183438D01*
X165362413Y-92125825D01*
X165425037Y-92063202D01*
X165508630Y-92033951D01*
X165530911Y-92032700D01*
X168050500Y-92032700D01*
X168136843Y-92052407D01*
X168206084Y-92107626D01*
X168244511Y-92187418D01*
X168249500Y-92231700D01*
X168249500Y-93268349D01*
X168264957Y-93346053D01*
X168263381Y-93346366D01*
X168274150Y-93409768D01*
X168264716Y-93451099D01*
X168264957Y-93451147D01*
X168261133Y-93470368D01*
X168261133Y-93470369D01*
X168257673Y-93487766D01*
X168249500Y-93528850D01*
X168249500Y-94568349D01*
X168261133Y-94626832D01*
X168305447Y-94693152D01*
X168371767Y-94737466D01*
X168371769Y-94737467D01*
X168406983Y-94744471D01*
X168430250Y-94749100D01*
X168430252Y-94749100D01*
X168675500Y-94749100D01*
X168761843Y-94768807D01*
X168831084Y-94824026D01*
X168869511Y-94903818D01*
X168874500Y-94948100D01*
X168874500Y-97512745D01*
X168854793Y-97599088D01*
X168816214Y-97653459D01*
X167533460Y-98936214D01*
X167458472Y-98983333D01*
X167392746Y-98994500D01*
X165535436Y-98994500D01*
X165449093Y-98974793D01*
X165379852Y-98919574D01*
X165366939Y-98901376D01*
X165326212Y-98836560D01*
X165203442Y-98713790D01*
X165203439Y-98713788D01*
X165203438Y-98713787D01*
X165056423Y-98621411D01*
X165056422Y-98621410D01*
X165056421Y-98621410D01*
X164892536Y-98564064D01*
X164720000Y-98544625D01*
X164547463Y-98564064D01*
X164383578Y-98621410D01*
X164383577Y-98621410D01*
X164284682Y-98683550D01*
X164236562Y-98713787D01*
X164236560Y-98713788D01*
X164236558Y-98713790D01*
X164236557Y-98713790D01*
X164113790Y-98836557D01*
X164113790Y-98836558D01*
X164113788Y-98836560D01*
X164113787Y-98836562D01*
X164110004Y-98842583D01*
X164021410Y-98983577D01*
X164021410Y-98983578D01*
X163964064Y-99147463D01*
X163944625Y-99320000D01*
X163964064Y-99492536D01*
X164021410Y-99656421D01*
X164021410Y-99656422D01*
X164021411Y-99656423D01*
X164113787Y-99803438D01*
X164113790Y-99803441D01*
X164113790Y-99803442D01*
X164236557Y-99926209D01*
X164236559Y-99926210D01*
X164236562Y-99926213D01*
X164383577Y-100018589D01*
X164547463Y-100075935D01*
X164720000Y-100095375D01*
X164892537Y-100075935D01*
X165056423Y-100018589D01*
X165203438Y-99926213D01*
X165326213Y-99803438D01*
X165343400Y-99776084D01*
X165366939Y-99738624D01*
X165429563Y-99676001D01*
X165513157Y-99646751D01*
X165535436Y-99645500D01*
X167591436Y-99645500D01*
X167600111Y-99645879D01*
X167616346Y-99647298D01*
X167638807Y-99649264D01*
X167676332Y-99639208D01*
X167684787Y-99637333D01*
X167723045Y-99630588D01*
X167723047Y-99630586D01*
X167736608Y-99625651D01*
X167749680Y-99619555D01*
X167749679Y-99619555D01*
X167749684Y-99619554D01*
X167781502Y-99597273D01*
X167788806Y-99592620D01*
X167822455Y-99573194D01*
X167847434Y-99543423D01*
X167853284Y-99537040D01*
X169417047Y-97973277D01*
X169423418Y-97967438D01*
X169453194Y-97942455D01*
X169472620Y-97908806D01*
X169477278Y-97901496D01*
X169499554Y-97869684D01*
X169499555Y-97869679D01*
X169505651Y-97856608D01*
X169510587Y-97843046D01*
X169510588Y-97843045D01*
X169517333Y-97804787D01*
X169519207Y-97796337D01*
X169529264Y-97758807D01*
X169525879Y-97720109D01*
X169525500Y-97711434D01*
X169525500Y-94948100D01*
X169545207Y-94861757D01*
X169600426Y-94792516D01*
X169680218Y-94754089D01*
X169724500Y-94749100D01*
X169969750Y-94749100D01*
X169989155Y-94745239D01*
X170028231Y-94737467D01*
X170094552Y-94693152D01*
X170138867Y-94626831D01*
X170150500Y-94568348D01*
X170150500Y-93528852D01*
X170150497Y-93528838D01*
X170142327Y-93487766D01*
X170138867Y-93470369D01*
X170138866Y-93470368D01*
X170135043Y-93451147D01*
X170136619Y-93450833D01*
X170125848Y-93387444D01*
X170135284Y-93346101D01*
X170135043Y-93346053D01*
X170138866Y-93326832D01*
X170138867Y-93326831D01*
X170150500Y-93268348D01*
X170150500Y-93268345D01*
X170151458Y-93258624D01*
X170153752Y-93258849D01*
X170170207Y-93186757D01*
X170225426Y-93117516D01*
X170305218Y-93079089D01*
X170349500Y-93074100D01*
X173245500Y-93074100D01*
X173331843Y-93093807D01*
X173401084Y-93149026D01*
X173439511Y-93228818D01*
X173444500Y-93273100D01*
X173444500Y-98430500D01*
X173424793Y-98516843D01*
X173369574Y-98586084D01*
X173289782Y-98624511D01*
X173245500Y-98629500D01*
X173000250Y-98629500D01*
X172941767Y-98641133D01*
X172875447Y-98685447D01*
X172831133Y-98751767D01*
X172819500Y-98810250D01*
X172819500Y-99849749D01*
X172834957Y-99927453D01*
X172833381Y-99927766D01*
X172844150Y-99991168D01*
X172834716Y-100032499D01*
X172834957Y-100032547D01*
X172819500Y-100110250D01*
X172819500Y-101149749D01*
X172820488Y-101154716D01*
X172828590Y-101195448D01*
X172834957Y-101227453D01*
X172833381Y-101227766D01*
X172844150Y-101291168D01*
X172834716Y-101332499D01*
X172834957Y-101332547D01*
X172819499Y-101410254D01*
X172818542Y-101419976D01*
X172816247Y-101419750D01*
X172799793Y-101491843D01*
X172744574Y-101561084D01*
X172664782Y-101599511D01*
X172620500Y-101604500D01*
X168758564Y-101604500D01*
X168749888Y-101604121D01*
X168711191Y-101600735D01*
X168711190Y-101600735D01*
X168673665Y-101610790D01*
X168665190Y-101612669D01*
X168626954Y-101619411D01*
X168613396Y-101624346D01*
X168600312Y-101630447D01*
X168568503Y-101652720D01*
X168561184Y-101657383D01*
X168527544Y-101676805D01*
X168502573Y-101706564D01*
X168496708Y-101712964D01*
X168462963Y-101746710D01*
X168456562Y-101752575D01*
X168426808Y-101777542D01*
X168426803Y-101777548D01*
X168407383Y-101811184D01*
X168402720Y-101818503D01*
X168380447Y-101850312D01*
X168374346Y-101863396D01*
X168369411Y-101876954D01*
X168362669Y-101915190D01*
X168360790Y-101923665D01*
X168350735Y-101961190D01*
X168350735Y-101961191D01*
X168354121Y-101999887D01*
X168354500Y-102008563D01*
X168354500Y-103502745D01*
X168334793Y-103589088D01*
X168296214Y-103643459D01*
X167633460Y-104306214D01*
X167558472Y-104353333D01*
X167492746Y-104364500D01*
X161027255Y-104364500D01*
X160940912Y-104344793D01*
X160886540Y-104306214D01*
X160763785Y-104183458D01*
X160716667Y-104108469D01*
X160705500Y-104042744D01*
X160705500Y-103239500D01*
X160725207Y-103153157D01*
X160780426Y-103083916D01*
X160860218Y-103045489D01*
X160890089Y-103042123D01*
X160890024Y-103041458D01*
X160899745Y-103040500D01*
X160899748Y-103040500D01*
X160958231Y-103028867D01*
X160958232Y-103028866D01*
X160977453Y-103025043D01*
X160977766Y-103026619D01*
X161041156Y-103015848D01*
X161082498Y-103025284D01*
X161082547Y-103025043D01*
X161101768Y-103028866D01*
X161101769Y-103028867D01*
X161125966Y-103033680D01*
X161160250Y-103040500D01*
X161160252Y-103040500D01*
X162199750Y-103040500D01*
X162219155Y-103036639D01*
X162258231Y-103028867D01*
X162324552Y-102984552D01*
X162368867Y-102918231D01*
X162380500Y-102859748D01*
X162380500Y-102449749D01*
X163949500Y-102449749D01*
X163961133Y-102508232D01*
X164005447Y-102574552D01*
X164071767Y-102618866D01*
X164071769Y-102618867D01*
X164106984Y-102625871D01*
X164130250Y-102630500D01*
X164130252Y-102630500D01*
X165309750Y-102630500D01*
X165329155Y-102626639D01*
X165368231Y-102618867D01*
X165434552Y-102574552D01*
X165478867Y-102508231D01*
X165490500Y-102449748D01*
X165490500Y-101270252D01*
X165478867Y-101211769D01*
X165476503Y-101208231D01*
X165434552Y-101145447D01*
X165368232Y-101101133D01*
X165309750Y-101089500D01*
X165309748Y-101089500D01*
X164130252Y-101089500D01*
X164130250Y-101089500D01*
X164071767Y-101101133D01*
X164005447Y-101145447D01*
X163961133Y-101211767D01*
X163949500Y-101270250D01*
X163949500Y-102449749D01*
X162380500Y-102449749D01*
X162380500Y-101320252D01*
X162379296Y-101314201D01*
X162372493Y-101280000D01*
X162368867Y-101261769D01*
X162356003Y-101242517D01*
X162324552Y-101195447D01*
X162258232Y-101151133D01*
X162199745Y-101139499D01*
X162190024Y-101138542D01*
X162190249Y-101136247D01*
X162118157Y-101119793D01*
X162048916Y-101064574D01*
X162010489Y-100984782D01*
X162005500Y-100940500D01*
X162005500Y-99438563D01*
X162005879Y-99429887D01*
X162007156Y-99415283D01*
X162009264Y-99391193D01*
X161999204Y-99353652D01*
X161997329Y-99345189D01*
X161990587Y-99306952D01*
X161985657Y-99293407D01*
X161979554Y-99280319D01*
X161979554Y-99280316D01*
X161979551Y-99280313D01*
X161979551Y-99280311D01*
X161957280Y-99248505D01*
X161952625Y-99241201D01*
X161933194Y-99207545D01*
X161903440Y-99182578D01*
X161897048Y-99176722D01*
X158993785Y-96273459D01*
X158946667Y-96198472D01*
X158935500Y-96132746D01*
X158935500Y-90078553D01*
X158935879Y-90069878D01*
X158937398Y-90052513D01*
X158939263Y-90031193D01*
X158938108Y-90026883D01*
X158929211Y-89993678D01*
X158927331Y-89985198D01*
X158920588Y-89946956D01*
X158915655Y-89933404D01*
X158909554Y-89920319D01*
X158909554Y-89920316D01*
X158887267Y-89888487D01*
X158882619Y-89881190D01*
X158863194Y-89847545D01*
X158861063Y-89845757D01*
X158833446Y-89822583D01*
X158827054Y-89816727D01*
X157953285Y-88942959D01*
X157947428Y-88936568D01*
X157922455Y-88906806D01*
X157888818Y-88887385D01*
X157881495Y-88882719D01*
X157849686Y-88860447D01*
X157836602Y-88854346D01*
X157823046Y-88849411D01*
X157784811Y-88842669D01*
X157776336Y-88840790D01*
X157738809Y-88830735D01*
X157700112Y-88834121D01*
X157691436Y-88834500D01*
X157595436Y-88834500D01*
X157509093Y-88814793D01*
X157439852Y-88759574D01*
X157426939Y-88741376D01*
X157386212Y-88676560D01*
X157263442Y-88553790D01*
X157263439Y-88553788D01*
X157263438Y-88553787D01*
X157116423Y-88461411D01*
X157116422Y-88461410D01*
X157116421Y-88461410D01*
X156952536Y-88404064D01*
X156780000Y-88384625D01*
X156607463Y-88404064D01*
X156443578Y-88461410D01*
X156443577Y-88461410D01*
X156344682Y-88523550D01*
X156296562Y-88553787D01*
X156296560Y-88553788D01*
X156296558Y-88553790D01*
X156296557Y-88553790D01*
X156173790Y-88676557D01*
X156173790Y-88676558D01*
X156081410Y-88823577D01*
X156081410Y-88823578D01*
X156024064Y-88987463D01*
X156004625Y-89160000D01*
X156024064Y-89332536D01*
X156081410Y-89496421D01*
X156081410Y-89496422D01*
X156083195Y-89499262D01*
X156173787Y-89643438D01*
X156173789Y-89643440D01*
X156173790Y-89643441D01*
X156173790Y-89643442D01*
X156296557Y-89766209D01*
X156296559Y-89766210D01*
X156296562Y-89766213D01*
X156443577Y-89858589D01*
X156607463Y-89915935D01*
X156780000Y-89935375D01*
X156952537Y-89915935D01*
X157116423Y-89858589D01*
X157263438Y-89766213D01*
X157386213Y-89643438D01*
X157387308Y-89641694D01*
X157388764Y-89640237D01*
X157393177Y-89634705D01*
X157393800Y-89635201D01*
X157449924Y-89579071D01*
X157533516Y-89549816D01*
X157621523Y-89559726D01*
X157696512Y-89606838D01*
X157696523Y-89606849D01*
X158226214Y-90136540D01*
X158273333Y-90211528D01*
X158284500Y-90277254D01*
X158284500Y-96331435D01*
X158284121Y-96340110D01*
X158280736Y-96378806D01*
X158280735Y-96378809D01*
X158290790Y-96416336D01*
X158292669Y-96424811D01*
X158299411Y-96463046D01*
X158304346Y-96476602D01*
X158310447Y-96489686D01*
X158332719Y-96521495D01*
X158337385Y-96528818D01*
X158356805Y-96562453D01*
X158356805Y-96562454D01*
X158386565Y-96587426D01*
X158392967Y-96593293D01*
X161296214Y-99496540D01*
X161343333Y-99571528D01*
X161354500Y-99637254D01*
X161354500Y-100940500D01*
X161334793Y-101026843D01*
X161279574Y-101096084D01*
X161199782Y-101134511D01*
X161169910Y-101137876D01*
X161169976Y-101138542D01*
X161160254Y-101139499D01*
X161130354Y-101145447D01*
X161101769Y-101151133D01*
X161101768Y-101151133D01*
X161082547Y-101154957D01*
X161082233Y-101153381D01*
X161018832Y-101164150D01*
X160977500Y-101154716D01*
X160977453Y-101154957D01*
X160958231Y-101151133D01*
X160929646Y-101145447D01*
X160899750Y-101139500D01*
X160899748Y-101139500D01*
X159860252Y-101139500D01*
X159860250Y-101139500D01*
X159830354Y-101145447D01*
X159801769Y-101151133D01*
X159801768Y-101151133D01*
X159782547Y-101154957D01*
X159782233Y-101153381D01*
X159718832Y-101164150D01*
X159677500Y-101154716D01*
X159677453Y-101154957D01*
X159658231Y-101151133D01*
X159629646Y-101145447D01*
X159599745Y-101139499D01*
X159590024Y-101138542D01*
X159590249Y-101136247D01*
X159518157Y-101119793D01*
X159448916Y-101064574D01*
X159410489Y-100984782D01*
X159405500Y-100940500D01*
X159405500Y-99098553D01*
X159405879Y-99089878D01*
X159406914Y-99078032D01*
X159409263Y-99051193D01*
X159399211Y-99013678D01*
X159397331Y-99005198D01*
X159390588Y-98966956D01*
X159385655Y-98953404D01*
X159379554Y-98940319D01*
X159379554Y-98940316D01*
X159357267Y-98908487D01*
X159352619Y-98901190D01*
X159333194Y-98867545D01*
X159303446Y-98842583D01*
X159297054Y-98836727D01*
X157590833Y-97130507D01*
X157543715Y-97055520D01*
X157533799Y-96967513D01*
X157535127Y-96959695D01*
X157535932Y-96952543D01*
X157535935Y-96952537D01*
X157555375Y-96780000D01*
X157535935Y-96607463D01*
X157478589Y-96443577D01*
X157386213Y-96296562D01*
X157386209Y-96296558D01*
X157386209Y-96296557D01*
X157263442Y-96173790D01*
X157263439Y-96173788D01*
X157263438Y-96173787D01*
X157116423Y-96081411D01*
X157116422Y-96081410D01*
X157116421Y-96081410D01*
X156952536Y-96024064D01*
X156780000Y-96004625D01*
X156607463Y-96024064D01*
X156443578Y-96081410D01*
X156443577Y-96081410D01*
X156368680Y-96128472D01*
X156296562Y-96173787D01*
X156296560Y-96173788D01*
X156296558Y-96173790D01*
X156296557Y-96173790D01*
X156173790Y-96296557D01*
X156173790Y-96296558D01*
X156081410Y-96443577D01*
X156081410Y-96443578D01*
X156024064Y-96607463D01*
X156004625Y-96780000D01*
X156024064Y-96952536D01*
X156081410Y-97116421D01*
X156081410Y-97116422D01*
X156090261Y-97130508D01*
X156173787Y-97263438D01*
X156173790Y-97263441D01*
X156173790Y-97263442D01*
X156296557Y-97386209D01*
X156296559Y-97386210D01*
X156296562Y-97386213D01*
X156443577Y-97478589D01*
X156607463Y-97535935D01*
X156780000Y-97555375D01*
X156952537Y-97535935D01*
X156952540Y-97535933D01*
X156963642Y-97534683D01*
X156963963Y-97537539D01*
X157034053Y-97537532D01*
X157113851Y-97575949D01*
X157130508Y-97590834D01*
X158696214Y-99156540D01*
X158743333Y-99231528D01*
X158754500Y-99297254D01*
X158754500Y-100940500D01*
X158734793Y-101026843D01*
X158679574Y-101096084D01*
X158599782Y-101134511D01*
X158569910Y-101137876D01*
X158569976Y-101138542D01*
X158560254Y-101139499D01*
X158501767Y-101151133D01*
X158435447Y-101195447D01*
X158391133Y-101261767D01*
X158379500Y-101320250D01*
X158379500Y-102859749D01*
X158391133Y-102918232D01*
X158435447Y-102984552D01*
X158501767Y-103028866D01*
X158501769Y-103028867D01*
X158536983Y-103035871D01*
X158560250Y-103040500D01*
X158560252Y-103040500D01*
X159599750Y-103040500D01*
X159634033Y-103033680D01*
X159658231Y-103028867D01*
X159658231Y-103028866D01*
X159677453Y-103025043D01*
X159677766Y-103026619D01*
X159741156Y-103015848D01*
X159782498Y-103025284D01*
X159782547Y-103025043D01*
X159801767Y-103028866D01*
X159801769Y-103028867D01*
X159860252Y-103040500D01*
X159860254Y-103040500D01*
X159869976Y-103041458D01*
X159869750Y-103043752D01*
X159941843Y-103060207D01*
X160011084Y-103115426D01*
X160049511Y-103195218D01*
X160054500Y-103239500D01*
X160054500Y-104241435D01*
X160054121Y-104250110D01*
X160050736Y-104288806D01*
X160050735Y-104288809D01*
X160060790Y-104326336D01*
X160062669Y-104334811D01*
X160069411Y-104373046D01*
X160074346Y-104386602D01*
X160080447Y-104399686D01*
X160102719Y-104431495D01*
X160107385Y-104438818D01*
X160126805Y-104472453D01*
X160126805Y-104472454D01*
X160156565Y-104497426D01*
X160162967Y-104503293D01*
X160566712Y-104907038D01*
X160572572Y-104913432D01*
X160597545Y-104943194D01*
X160631201Y-104962625D01*
X160638505Y-104967280D01*
X160670311Y-104989551D01*
X160670313Y-104989551D01*
X160670316Y-104989554D01*
X160670319Y-104989554D01*
X160683407Y-104995657D01*
X160696952Y-105000587D01*
X160696953Y-105000587D01*
X160696955Y-105000588D01*
X160735194Y-105007330D01*
X160743657Y-105009206D01*
X160781193Y-105019264D01*
X160810082Y-105016736D01*
X160819890Y-105015879D01*
X160828565Y-105015500D01*
X167691436Y-105015500D01*
X167700111Y-105015879D01*
X167716346Y-105017298D01*
X167738807Y-105019264D01*
X167776332Y-105009208D01*
X167784787Y-105007333D01*
X167823045Y-105000588D01*
X167823047Y-105000586D01*
X167836608Y-104995651D01*
X167849680Y-104989555D01*
X167849679Y-104989555D01*
X167849684Y-104989554D01*
X167881502Y-104967273D01*
X167888806Y-104962620D01*
X167922455Y-104943194D01*
X167947434Y-104913423D01*
X167953287Y-104907038D01*
X168897065Y-103963260D01*
X168903437Y-103957422D01*
X168933194Y-103932455D01*
X168952614Y-103898818D01*
X168957274Y-103891501D01*
X168979554Y-103859684D01*
X168979554Y-103859681D01*
X168985652Y-103846605D01*
X168990587Y-103833048D01*
X168990588Y-103833045D01*
X168997333Y-103794784D01*
X168999210Y-103786323D01*
X169009262Y-103748810D01*
X169009263Y-103748807D01*
X169005877Y-103710105D01*
X169005500Y-103701467D01*
X169005500Y-102454500D01*
X169025207Y-102368157D01*
X169080426Y-102298915D01*
X169160218Y-102260489D01*
X169204500Y-102255500D01*
X172620500Y-102255500D01*
X172706843Y-102275207D01*
X172776084Y-102330426D01*
X172814511Y-102410218D01*
X172817876Y-102440089D01*
X172818542Y-102440024D01*
X172819499Y-102449745D01*
X172831133Y-102508232D01*
X172875447Y-102574552D01*
X172941767Y-102618866D01*
X172941769Y-102618867D01*
X172976983Y-102625871D01*
X173000250Y-102630500D01*
X173000252Y-102630500D01*
X174539750Y-102630500D01*
X174559155Y-102626639D01*
X174598231Y-102618867D01*
X174664552Y-102574552D01*
X174708867Y-102508231D01*
X174720500Y-102449748D01*
X174720500Y-101438736D01*
X174740206Y-101352398D01*
X174795424Y-101283157D01*
X174875217Y-101244730D01*
X174963780Y-101244730D01*
X175043573Y-101283156D01*
X175060213Y-101298027D01*
X175261214Y-101499028D01*
X175308333Y-101574016D01*
X175319500Y-101639742D01*
X175319500Y-109580256D01*
X175299793Y-109666599D01*
X175261214Y-109720970D01*
X168059270Y-116922914D01*
X168036190Y-116941514D01*
X168028872Y-116947856D01*
X167995779Y-116986046D01*
X167990945Y-116991239D01*
X167980783Y-117001401D01*
X167980775Y-117001410D01*
X167972162Y-117012917D01*
X167967708Y-117018442D01*
X167934623Y-117056626D01*
X167929404Y-117064746D01*
X167920827Y-117079201D01*
X167916201Y-117087675D01*
X167898543Y-117135018D01*
X167895825Y-117141578D01*
X167874836Y-117187539D01*
X167872114Y-117196808D01*
X167867966Y-117213060D01*
X167865909Y-117222516D01*
X167862302Y-117272927D01*
X167861544Y-117279983D01*
X167859500Y-117294201D01*
X167859500Y-117308564D01*
X167859246Y-117315665D01*
X167855641Y-117366073D01*
X167856332Y-117375754D01*
X167859500Y-117405209D01*
X167859500Y-128030258D01*
X167839793Y-128116601D01*
X167801214Y-128170972D01*
X167750972Y-128221214D01*
X167675984Y-128268333D01*
X167610258Y-128279500D01*
X159435209Y-128279500D01*
X159405754Y-128276332D01*
X159396077Y-128275640D01*
X159345665Y-128279246D01*
X159338564Y-128279500D01*
X159324201Y-128279500D01*
X159309975Y-128281544D01*
X159302927Y-128282302D01*
X159252516Y-128285909D01*
X159243060Y-128287966D01*
X159226808Y-128292114D01*
X159217539Y-128294836D01*
X159171578Y-128315825D01*
X159165018Y-128318543D01*
X159117675Y-128336201D01*
X159117670Y-128336203D01*
X159117669Y-128336204D01*
X159117667Y-128336205D01*
X159109201Y-128340827D01*
X159094746Y-128349404D01*
X159086626Y-128354623D01*
X159048442Y-128387708D01*
X159042917Y-128392162D01*
X159031410Y-128400775D01*
X159031401Y-128400783D01*
X159021239Y-128410945D01*
X159016046Y-128415779D01*
X158977856Y-128448872D01*
X158971507Y-128456198D01*
X158952916Y-128479268D01*
X158910970Y-128521214D01*
X158835982Y-128568333D01*
X158770256Y-128579500D01*
X131443220Y-128579500D01*
X131356877Y-128559793D01*
X131287636Y-128504574D01*
X131249209Y-128424782D01*
X131249209Y-128336218D01*
X131287636Y-128256426D01*
X131292802Y-128250210D01*
X131324232Y-128213936D01*
X131329044Y-128208768D01*
X131339221Y-128198593D01*
X131347836Y-128187083D01*
X131352280Y-128181567D01*
X131385377Y-128143373D01*
X131385380Y-128143365D01*
X131390658Y-128135154D01*
X131399123Y-128120887D01*
X131403793Y-128112333D01*
X131403796Y-128112331D01*
X131421468Y-128064947D01*
X131424155Y-128058459D01*
X131445165Y-128012457D01*
X131445165Y-128012453D01*
X131447908Y-128003112D01*
X131452017Y-127987014D01*
X131454091Y-127977482D01*
X131457697Y-127927057D01*
X131458455Y-127920016D01*
X131460499Y-127905803D01*
X131460500Y-127905799D01*
X131460499Y-127891437D01*
X131460753Y-127884335D01*
X131461641Y-127871906D01*
X131464359Y-127833927D01*
X131464358Y-127833922D01*
X131463667Y-127824257D01*
X131460500Y-127794793D01*
X131460500Y-127631518D01*
X134929500Y-127631518D01*
X134944353Y-127725300D01*
X134944355Y-127725307D01*
X135001949Y-127838342D01*
X135091657Y-127928050D01*
X135188673Y-127977482D01*
X135204696Y-127985646D01*
X135330000Y-128005492D01*
X135455304Y-127985646D01*
X135568342Y-127928050D01*
X135658050Y-127838342D01*
X135715646Y-127725304D01*
X135730500Y-127631519D01*
X135730500Y-127631518D01*
X143409500Y-127631518D01*
X143424353Y-127725300D01*
X143424355Y-127725307D01*
X143481949Y-127838342D01*
X143571657Y-127928050D01*
X143668673Y-127977482D01*
X143684696Y-127985646D01*
X143810000Y-128005492D01*
X143935304Y-127985646D01*
X144048342Y-127928050D01*
X144138050Y-127838342D01*
X144195646Y-127725304D01*
X144210500Y-127631519D01*
X144210500Y-127068481D01*
X144195646Y-126974696D01*
X144195644Y-126974692D01*
X144138050Y-126861657D01*
X144048342Y-126771949D01*
X143935307Y-126714355D01*
X143935304Y-126714354D01*
X143935302Y-126714353D01*
X143935300Y-126714353D01*
X143810000Y-126694508D01*
X143684699Y-126714353D01*
X143684692Y-126714355D01*
X143571657Y-126771949D01*
X143481949Y-126861657D01*
X143424355Y-126974692D01*
X143424353Y-126974699D01*
X143409500Y-127068481D01*
X143409500Y-127631518D01*
X135730500Y-127631518D01*
X135730500Y-127068481D01*
X135715646Y-126974696D01*
X135715644Y-126974692D01*
X135658050Y-126861657D01*
X135568342Y-126771949D01*
X135455307Y-126714355D01*
X135455304Y-126714354D01*
X135455302Y-126714353D01*
X135455300Y-126714353D01*
X135330000Y-126694508D01*
X135204699Y-126714353D01*
X135204692Y-126714355D01*
X135091657Y-126771949D01*
X135001949Y-126861657D01*
X134944355Y-126974692D01*
X134944353Y-126974699D01*
X134929500Y-127068481D01*
X134929500Y-127631518D01*
X131460500Y-127631518D01*
X131460500Y-125930000D01*
X149614417Y-125930000D01*
X149634699Y-126135933D01*
X149694768Y-126333955D01*
X149792313Y-126516448D01*
X149807521Y-126534979D01*
X149923590Y-126676410D01*
X149986101Y-126727711D01*
X150083551Y-126807686D01*
X150205488Y-126872863D01*
X150266046Y-126905232D01*
X150464066Y-126965300D01*
X150670000Y-126985583D01*
X150875934Y-126965300D01*
X151073954Y-126905232D01*
X151256450Y-126807685D01*
X151416410Y-126676410D01*
X151547685Y-126516450D01*
X151645232Y-126333954D01*
X151705300Y-126135934D01*
X151725583Y-125930000D01*
X151705300Y-125724066D01*
X151645232Y-125526046D01*
X151630505Y-125498494D01*
X151547686Y-125343551D01*
X151466703Y-125244873D01*
X151416410Y-125183590D01*
X151256450Y-125052315D01*
X151256451Y-125052315D01*
X151256448Y-125052313D01*
X151073955Y-124954768D01*
X150875933Y-124894699D01*
X150670000Y-124874417D01*
X150464066Y-124894699D01*
X150266044Y-124954768D01*
X150083551Y-125052313D01*
X149923590Y-125183590D01*
X149792313Y-125343551D01*
X149694768Y-125526044D01*
X149634699Y-125724066D01*
X149614417Y-125930000D01*
X131460500Y-125930000D01*
X131460500Y-123844018D01*
X134944500Y-123844018D01*
X134959353Y-123937800D01*
X134959355Y-123937807D01*
X135016949Y-124050842D01*
X135106657Y-124140550D01*
X135205922Y-124191128D01*
X135219696Y-124198146D01*
X135345000Y-124217992D01*
X135470304Y-124198146D01*
X135583342Y-124140550D01*
X135673050Y-124050842D01*
X135730646Y-123937804D01*
X135745500Y-123844019D01*
X135745500Y-123844018D01*
X143394500Y-123844018D01*
X143409353Y-123937800D01*
X143409355Y-123937807D01*
X143466949Y-124050842D01*
X143556657Y-124140550D01*
X143655922Y-124191128D01*
X143669696Y-124198146D01*
X143795000Y-124217992D01*
X143920304Y-124198146D01*
X144033342Y-124140550D01*
X144123050Y-124050842D01*
X144180646Y-123937804D01*
X144195500Y-123844019D01*
X144195500Y-123280981D01*
X144180646Y-123187196D01*
X144162677Y-123151930D01*
X144123050Y-123074157D01*
X144033342Y-122984449D01*
X143920307Y-122926855D01*
X143920304Y-122926854D01*
X143920302Y-122926853D01*
X143920300Y-122926853D01*
X143795000Y-122907008D01*
X143669699Y-122926853D01*
X143669692Y-122926855D01*
X143556657Y-122984449D01*
X143466949Y-123074157D01*
X143409355Y-123187192D01*
X143409353Y-123187199D01*
X143394500Y-123280981D01*
X143394500Y-123844018D01*
X135745500Y-123844018D01*
X135745500Y-123280981D01*
X135730646Y-123187196D01*
X135712677Y-123151930D01*
X135673050Y-123074157D01*
X135583342Y-122984449D01*
X135470307Y-122926855D01*
X135470304Y-122926854D01*
X135470302Y-122926853D01*
X135470300Y-122926853D01*
X135345000Y-122907008D01*
X135219699Y-122926853D01*
X135219692Y-122926855D01*
X135106657Y-122984449D01*
X135016949Y-123074157D01*
X134959355Y-123187192D01*
X134959353Y-123187199D01*
X134944500Y-123280981D01*
X134944500Y-123844018D01*
X131460500Y-123844018D01*
X131460500Y-109285208D01*
X131463667Y-109255752D01*
X131464358Y-109246078D01*
X131464357Y-109246077D01*
X131464359Y-109246073D01*
X131461847Y-109210970D01*
X131460753Y-109195662D01*
X131460499Y-109188555D01*
X131460500Y-109174201D01*
X131458453Y-109159970D01*
X131457697Y-109152944D01*
X131454091Y-109102517D01*
X131454090Y-109102516D01*
X131453130Y-109089080D01*
X131450500Y-109064614D01*
X131450500Y-90235209D01*
X131453667Y-90205754D01*
X131454359Y-90196073D01*
X131450754Y-90145665D01*
X131450500Y-90138564D01*
X131450500Y-90124200D01*
X131448455Y-90109982D01*
X131447697Y-90102938D01*
X131444091Y-90052517D01*
X131444090Y-90052513D01*
X131442024Y-90043013D01*
X131437907Y-90026883D01*
X131435165Y-90017543D01*
X131414177Y-89971587D01*
X131411457Y-89965021D01*
X131393798Y-89917673D01*
X131389149Y-89909160D01*
X131380633Y-89894807D01*
X131375376Y-89886625D01*
X131361605Y-89870733D01*
X131342278Y-89848429D01*
X131337852Y-89842937D01*
X131329221Y-89831407D01*
X131319047Y-89821233D01*
X131314219Y-89816046D01*
X131281128Y-89777856D01*
X131273801Y-89771507D01*
X131250727Y-89752913D01*
X130467087Y-88969273D01*
X130448507Y-88946217D01*
X130442143Y-88938872D01*
X130403946Y-88905773D01*
X130398747Y-88900933D01*
X130388596Y-88890781D01*
X130377093Y-88882170D01*
X130371559Y-88877711D01*
X130333374Y-88844623D01*
X130325211Y-88839377D01*
X130310831Y-88830845D01*
X130302333Y-88826205D01*
X130302331Y-88826204D01*
X130287170Y-88820549D01*
X130254979Y-88808542D01*
X130248417Y-88805824D01*
X130202459Y-88784835D01*
X130193181Y-88782111D01*
X130176949Y-88777968D01*
X130167483Y-88775909D01*
X130117074Y-88772302D01*
X130110018Y-88771544D01*
X130095799Y-88769500D01*
X130095798Y-88769500D01*
X130081436Y-88769500D01*
X130074335Y-88769246D01*
X130023922Y-88765640D01*
X130014245Y-88766332D01*
X129984791Y-88769500D01*
X92515209Y-88769500D01*
X92485754Y-88766332D01*
X92476077Y-88765640D01*
X92425665Y-88769246D01*
X92418564Y-88769500D01*
X92404201Y-88769500D01*
X92389975Y-88771544D01*
X92382927Y-88772302D01*
X92332516Y-88775909D01*
X92323060Y-88777966D01*
X92306808Y-88782114D01*
X92297539Y-88784836D01*
X92251578Y-88805825D01*
X92245018Y-88808543D01*
X92197675Y-88826201D01*
X92197670Y-88826203D01*
X92197669Y-88826204D01*
X92197667Y-88826205D01*
X92189201Y-88830827D01*
X92174746Y-88839404D01*
X92166626Y-88844623D01*
X92128442Y-88877708D01*
X92122917Y-88882162D01*
X92111410Y-88890775D01*
X92111401Y-88890783D01*
X92101239Y-88900945D01*
X92096046Y-88905779D01*
X92057856Y-88938872D01*
X92051514Y-88946190D01*
X92032914Y-88969270D01*
X91699270Y-89302914D01*
X91676190Y-89321514D01*
X91668872Y-89327856D01*
X91635779Y-89366046D01*
X91630945Y-89371239D01*
X91620783Y-89381401D01*
X91620775Y-89381410D01*
X91612162Y-89392917D01*
X91607708Y-89398442D01*
X91574623Y-89436626D01*
X91569404Y-89444746D01*
X91560827Y-89459201D01*
X91556201Y-89467675D01*
X91538543Y-89515018D01*
X91535825Y-89521578D01*
X91514836Y-89567539D01*
X91512114Y-89576808D01*
X91507966Y-89593060D01*
X91505909Y-89602516D01*
X91502302Y-89652927D01*
X91501544Y-89659983D01*
X91499500Y-89674201D01*
X91499500Y-89688564D01*
X91499246Y-89695665D01*
X91495641Y-89746073D01*
X91496332Y-89755754D01*
X91499500Y-89785209D01*
X91499500Y-90780500D01*
X91479793Y-90866843D01*
X91424574Y-90936084D01*
X91344782Y-90974511D01*
X91300500Y-90979500D01*
X90980250Y-90979500D01*
X90921767Y-90991133D01*
X90840559Y-91045396D01*
X90757819Y-91076980D01*
X90669569Y-91069536D01*
X90619441Y-91045396D01*
X90538232Y-90991133D01*
X90479750Y-90979500D01*
X90479748Y-90979500D01*
X88440252Y-90979500D01*
X88440250Y-90979500D01*
X88381767Y-90991133D01*
X88300559Y-91045396D01*
X88217819Y-91076980D01*
X88129569Y-91069536D01*
X88079441Y-91045396D01*
X87998232Y-90991133D01*
X87939750Y-90979500D01*
X87939748Y-90979500D01*
X85900252Y-90979500D01*
X85900250Y-90979500D01*
X85841767Y-90991133D01*
X85760559Y-91045396D01*
X85677819Y-91076980D01*
X85589569Y-91069536D01*
X85539441Y-91045396D01*
X85458232Y-90991133D01*
X85399750Y-90979500D01*
X85399748Y-90979500D01*
X83360252Y-90979500D01*
X83360250Y-90979500D01*
X83301767Y-90991133D01*
X83220559Y-91045396D01*
X83137819Y-91076980D01*
X83049569Y-91069536D01*
X82999441Y-91045396D01*
X82918232Y-90991133D01*
X82859750Y-90979500D01*
X82859748Y-90979500D01*
X80820252Y-90979500D01*
X80820250Y-90979500D01*
X80761767Y-90991133D01*
X80680559Y-91045396D01*
X80597819Y-91076980D01*
X80509569Y-91069536D01*
X80459441Y-91045396D01*
X80378232Y-90991133D01*
X80319750Y-90979500D01*
X80319748Y-90979500D01*
X78280252Y-90979500D01*
X78280250Y-90979500D01*
X78221767Y-90991133D01*
X78155447Y-91035447D01*
X78111133Y-91101767D01*
X78099500Y-91160250D01*
X78099500Y-93199749D01*
X77010000Y-93199749D01*
X77010000Y-83789998D01*
X91134353Y-83789998D01*
X91141544Y-83840019D01*
X91142303Y-83847080D01*
X91145909Y-83897484D01*
X91147968Y-83906949D01*
X91152111Y-83923181D01*
X91154835Y-83932459D01*
X91175824Y-83978417D01*
X91178542Y-83984979D01*
X91196205Y-84032333D01*
X91200845Y-84040831D01*
X91209377Y-84055211D01*
X91214623Y-84063374D01*
X91247711Y-84101559D01*
X91252170Y-84107093D01*
X91260780Y-84118595D01*
X91261505Y-84119431D01*
X91277054Y-84140202D01*
X91277853Y-84141125D01*
X91280864Y-84143734D01*
X91283715Y-84146204D01*
X91303791Y-84166279D01*
X91308870Y-84172141D01*
X91309807Y-84172952D01*
X91330569Y-84188494D01*
X91331404Y-84189217D01*
X91331407Y-84189220D01*
X91342923Y-84197841D01*
X91348431Y-84202280D01*
X91386627Y-84235377D01*
X91386631Y-84235378D01*
X91394807Y-84240633D01*
X91409160Y-84249149D01*
X91417673Y-84253798D01*
X91465021Y-84271457D01*
X91471583Y-84274175D01*
X91471584Y-84274176D01*
X91471587Y-84274177D01*
X91517543Y-84295165D01*
X91526883Y-84297907D01*
X91543013Y-84302024D01*
X91552513Y-84304090D01*
X91552514Y-84304090D01*
X91552517Y-84304091D01*
X91602938Y-84307697D01*
X91609973Y-84308454D01*
X91624201Y-84310500D01*
X91638564Y-84310500D01*
X91645665Y-84310754D01*
X91677958Y-84313063D01*
X91696073Y-84314359D01*
X91696073Y-84314358D01*
X91696077Y-84314359D01*
X91705754Y-84313667D01*
X91735209Y-84310500D01*
X124184791Y-84310500D01*
X124214245Y-84313667D01*
X124223922Y-84314359D01*
X124223925Y-84314358D01*
X124223927Y-84314359D01*
X124244703Y-84312872D01*
X124274335Y-84310754D01*
X124281436Y-84310500D01*
X124295798Y-84310500D01*
X124295799Y-84310500D01*
X124310026Y-84308453D01*
X124317060Y-84307697D01*
X124367483Y-84304091D01*
X124367484Y-84304090D01*
X124377014Y-84302017D01*
X124393112Y-84297908D01*
X124402453Y-84295165D01*
X124402457Y-84295165D01*
X124448459Y-84274155D01*
X124454947Y-84271468D01*
X124502331Y-84253796D01*
X124502333Y-84253793D01*
X124510887Y-84249123D01*
X124525154Y-84240658D01*
X124533365Y-84235380D01*
X124533373Y-84235377D01*
X124571567Y-84202280D01*
X124577083Y-84197836D01*
X124588593Y-84189221D01*
X124598768Y-84179044D01*
X124603936Y-84174232D01*
X124642143Y-84141128D01*
X124642145Y-84141124D01*
X124642147Y-84141123D01*
X124648507Y-84133783D01*
X124667079Y-84110733D01*
X125199030Y-83578783D01*
X125274017Y-83531667D01*
X125339742Y-83520500D01*
X130660258Y-83520500D01*
X130746601Y-83540207D01*
X130800972Y-83578786D01*
X149382913Y-102160727D01*
X149401507Y-102183801D01*
X149407856Y-102191128D01*
X149446046Y-102224219D01*
X149451233Y-102229047D01*
X149461407Y-102239221D01*
X149472937Y-102247852D01*
X149478429Y-102252278D01*
X149487905Y-102260489D01*
X149516625Y-102285376D01*
X149524807Y-102290633D01*
X149539160Y-102299149D01*
X149547673Y-102303798D01*
X149595021Y-102321457D01*
X149601583Y-102324175D01*
X149643764Y-102343439D01*
X149647543Y-102345165D01*
X149656883Y-102347907D01*
X149673013Y-102352024D01*
X149682513Y-102354090D01*
X149682514Y-102354090D01*
X149682517Y-102354091D01*
X149732938Y-102357697D01*
X149739973Y-102358454D01*
X149754201Y-102360500D01*
X149768564Y-102360500D01*
X149775665Y-102360754D01*
X149807958Y-102363063D01*
X149826073Y-102364359D01*
X149826073Y-102364358D01*
X149826077Y-102364359D01*
X149835754Y-102363667D01*
X149865209Y-102360500D01*
X156080500Y-102360500D01*
X156166843Y-102380207D01*
X156236084Y-102435426D01*
X156274511Y-102515218D01*
X156279500Y-102559500D01*
X156279500Y-109350257D01*
X156259793Y-109436600D01*
X156221214Y-109490971D01*
X150319270Y-115392914D01*
X150296190Y-115411514D01*
X150288872Y-115417856D01*
X150255779Y-115456046D01*
X150250945Y-115461239D01*
X150240783Y-115471401D01*
X150240775Y-115471410D01*
X150232162Y-115482917D01*
X150227708Y-115488442D01*
X150194623Y-115526626D01*
X150189404Y-115534746D01*
X150180827Y-115549201D01*
X150176201Y-115557675D01*
X150158543Y-115605018D01*
X150155825Y-115611578D01*
X150134836Y-115657539D01*
X150132114Y-115666808D01*
X150127966Y-115683060D01*
X150125909Y-115692516D01*
X150122302Y-115742927D01*
X150121544Y-115749983D01*
X150119500Y-115764201D01*
X150119500Y-115778564D01*
X150119246Y-115785665D01*
X150115641Y-115836073D01*
X150116332Y-115845754D01*
X150119500Y-115875209D01*
X150119500Y-122140500D01*
X150099793Y-122226843D01*
X150044574Y-122296084D01*
X149964782Y-122334511D01*
X149920500Y-122339500D01*
X149800250Y-122339500D01*
X149741767Y-122351133D01*
X149675447Y-122395447D01*
X149631133Y-122461767D01*
X149619500Y-122520250D01*
X149619500Y-124259749D01*
X149631133Y-124318232D01*
X149675447Y-124384552D01*
X149741767Y-124428866D01*
X149741769Y-124428867D01*
X149776983Y-124435871D01*
X149800250Y-124440500D01*
X149800252Y-124440500D01*
X151539750Y-124440500D01*
X151559155Y-124436639D01*
X151598231Y-124428867D01*
X151664552Y-124384552D01*
X151708867Y-124318231D01*
X151720500Y-124259748D01*
X151720500Y-122520252D01*
X151708867Y-122461769D01*
X151686584Y-122428420D01*
X151664552Y-122395447D01*
X151598232Y-122351133D01*
X151539750Y-122339500D01*
X151539748Y-122339500D01*
X151319500Y-122339500D01*
X151233157Y-122319793D01*
X151163916Y-122264574D01*
X151125489Y-122184782D01*
X151120500Y-122140500D01*
X151120500Y-121970004D01*
X160088178Y-121970004D01*
X160107431Y-122202370D01*
X160107432Y-122202373D01*
X160107432Y-122202376D01*
X160107433Y-122202378D01*
X160123183Y-122264574D01*
X160164674Y-122428420D01*
X160164675Y-122428423D01*
X160258339Y-122641951D01*
X160258339Y-122641952D01*
X160258340Y-122641953D01*
X160385874Y-122837159D01*
X160543799Y-123008711D01*
X160727807Y-123151930D01*
X160932878Y-123262909D01*
X161153418Y-123338621D01*
X161383413Y-123377000D01*
X161383415Y-123377000D01*
X161616585Y-123377000D01*
X161616587Y-123377000D01*
X161846582Y-123338621D01*
X162067122Y-123262909D01*
X162272193Y-123151930D01*
X162456201Y-123008711D01*
X162614126Y-122837159D01*
X162741660Y-122641953D01*
X162835326Y-122428418D01*
X162892567Y-122202378D01*
X162897695Y-122140500D01*
X162911822Y-121970004D01*
X163588178Y-121970004D01*
X163607431Y-122202370D01*
X163607432Y-122202373D01*
X163607432Y-122202376D01*
X163607433Y-122202378D01*
X163623183Y-122264574D01*
X163664674Y-122428420D01*
X163664675Y-122428423D01*
X163758339Y-122641951D01*
X163758339Y-122641952D01*
X163758340Y-122641953D01*
X163885874Y-122837159D01*
X164043799Y-123008711D01*
X164227807Y-123151930D01*
X164432878Y-123262909D01*
X164653418Y-123338621D01*
X164883413Y-123377000D01*
X164883415Y-123377000D01*
X165116585Y-123377000D01*
X165116587Y-123377000D01*
X165346582Y-123338621D01*
X165567122Y-123262909D01*
X165772193Y-123151930D01*
X165956201Y-123008711D01*
X166114126Y-122837159D01*
X166241660Y-122641953D01*
X166335326Y-122428418D01*
X166392567Y-122202378D01*
X166397695Y-122140500D01*
X166411822Y-121970004D01*
X166411822Y-121969995D01*
X166392568Y-121737629D01*
X166392567Y-121737626D01*
X166392567Y-121737622D01*
X166335326Y-121511582D01*
X166335325Y-121511579D01*
X166335324Y-121511576D01*
X166241660Y-121298048D01*
X166241660Y-121298047D01*
X166241660Y-121298046D01*
X166114126Y-121102841D01*
X165956201Y-120931289D01*
X165772193Y-120788070D01*
X165772190Y-120788068D01*
X165567122Y-120677091D01*
X165346586Y-120601380D01*
X165346584Y-120601379D01*
X165116592Y-120563000D01*
X165116587Y-120563000D01*
X164883413Y-120563000D01*
X164883407Y-120563000D01*
X164653415Y-120601379D01*
X164653413Y-120601380D01*
X164432877Y-120677091D01*
X164227809Y-120788068D01*
X164227806Y-120788070D01*
X164043803Y-120931285D01*
X163885878Y-121102836D01*
X163885874Y-121102841D01*
X163758339Y-121298047D01*
X163758339Y-121298048D01*
X163664675Y-121511576D01*
X163664674Y-121511579D01*
X163607432Y-121737626D01*
X163607431Y-121737629D01*
X163588178Y-121969995D01*
X163588178Y-121970004D01*
X162911822Y-121970004D01*
X162911822Y-121969995D01*
X162892568Y-121737629D01*
X162892567Y-121737626D01*
X162892567Y-121737622D01*
X162835326Y-121511582D01*
X162835325Y-121511579D01*
X162835324Y-121511576D01*
X162741660Y-121298048D01*
X162741660Y-121298047D01*
X162741659Y-121298046D01*
X162614126Y-121102841D01*
X162456201Y-120931289D01*
X162272193Y-120788070D01*
X162272190Y-120788068D01*
X162067122Y-120677091D01*
X161846586Y-120601380D01*
X161846584Y-120601379D01*
X161616592Y-120563000D01*
X161616587Y-120563000D01*
X161383413Y-120563000D01*
X161383407Y-120563000D01*
X161153415Y-120601379D01*
X161153413Y-120601380D01*
X160932877Y-120677091D01*
X160727809Y-120788068D01*
X160727806Y-120788070D01*
X160543803Y-120931285D01*
X160385878Y-121102836D01*
X160385874Y-121102841D01*
X160258339Y-121298047D01*
X160258339Y-121298048D01*
X160164675Y-121511576D01*
X160164674Y-121511579D01*
X160107432Y-121737626D01*
X160107431Y-121737629D01*
X160088178Y-121969995D01*
X160088178Y-121970004D01*
X151120500Y-121970004D01*
X151120500Y-116089741D01*
X151140207Y-116003398D01*
X151178783Y-115949030D01*
X157080729Y-110047083D01*
X157103779Y-110028510D01*
X157111123Y-110022147D01*
X157111124Y-110022145D01*
X157111128Y-110022143D01*
X157144232Y-109983936D01*
X157149044Y-109978768D01*
X157159221Y-109968593D01*
X157167836Y-109957083D01*
X157172280Y-109951567D01*
X157205377Y-109913373D01*
X157205380Y-109913365D01*
X157210658Y-109905154D01*
X157219123Y-109890887D01*
X157223793Y-109882333D01*
X157223796Y-109882331D01*
X157241468Y-109834947D01*
X157244155Y-109828459D01*
X157265165Y-109782457D01*
X157265165Y-109782453D01*
X157267908Y-109773112D01*
X157272017Y-109757014D01*
X157274091Y-109747482D01*
X157275987Y-109720970D01*
X157277697Y-109697060D01*
X157278455Y-109690017D01*
X157280500Y-109675798D01*
X157280500Y-109661436D01*
X157280754Y-109654335D01*
X157284359Y-109603924D01*
X157283666Y-109594241D01*
X157280499Y-109564801D01*
X157280499Y-102531579D01*
X157300206Y-102445237D01*
X157338784Y-102390865D01*
X157386213Y-102343438D01*
X157478589Y-102196423D01*
X157535935Y-102032537D01*
X157555375Y-101860000D01*
X157535935Y-101687463D01*
X157478589Y-101523577D01*
X157386213Y-101376562D01*
X157386209Y-101376558D01*
X157386209Y-101376557D01*
X157263442Y-101253790D01*
X157263439Y-101253788D01*
X157263438Y-101253787D01*
X157116423Y-101161411D01*
X157116422Y-101161410D01*
X157116421Y-101161410D01*
X156952536Y-101104064D01*
X156780000Y-101084625D01*
X156607463Y-101104064D01*
X156443578Y-101161410D01*
X156443577Y-101161410D01*
X156363436Y-101211767D01*
X156296562Y-101253787D01*
X156296560Y-101253788D01*
X156296558Y-101253790D01*
X156296557Y-101253790D01*
X156249134Y-101301214D01*
X156174146Y-101348333D01*
X156108420Y-101359500D01*
X150079742Y-101359500D01*
X149993399Y-101339793D01*
X149939028Y-101301214D01*
X147957814Y-99320000D01*
X156004625Y-99320000D01*
X156024064Y-99492536D01*
X156081410Y-99656421D01*
X156081410Y-99656422D01*
X156081411Y-99656423D01*
X156173787Y-99803438D01*
X156173789Y-99803441D01*
X156173790Y-99803441D01*
X156173790Y-99803442D01*
X156296557Y-99926209D01*
X156296559Y-99926210D01*
X156296562Y-99926213D01*
X156443577Y-100018589D01*
X156607463Y-100075935D01*
X156780000Y-100095375D01*
X156952537Y-100075935D01*
X157116423Y-100018589D01*
X157263438Y-99926213D01*
X157386213Y-99803438D01*
X157478589Y-99656423D01*
X157535935Y-99492537D01*
X157555375Y-99320000D01*
X157535935Y-99147463D01*
X157478589Y-98983577D01*
X157386213Y-98836562D01*
X157386209Y-98836558D01*
X157386209Y-98836557D01*
X157263442Y-98713790D01*
X157263439Y-98713788D01*
X157263438Y-98713787D01*
X157116423Y-98621411D01*
X157116422Y-98621410D01*
X157116421Y-98621410D01*
X156952536Y-98564064D01*
X156780000Y-98544625D01*
X156607463Y-98564064D01*
X156443578Y-98621410D01*
X156443577Y-98621410D01*
X156344682Y-98683550D01*
X156296562Y-98713787D01*
X156296560Y-98713788D01*
X156296558Y-98713790D01*
X156296557Y-98713790D01*
X156173790Y-98836557D01*
X156173790Y-98836558D01*
X156173788Y-98836560D01*
X156173787Y-98836562D01*
X156170004Y-98842583D01*
X156081410Y-98983577D01*
X156081410Y-98983578D01*
X156024064Y-99147463D01*
X156004625Y-99320000D01*
X147957814Y-99320000D01*
X141326623Y-92688809D01*
X143570735Y-92688809D01*
X143580790Y-92726336D01*
X143582669Y-92734811D01*
X143589411Y-92773046D01*
X143594346Y-92786602D01*
X143600447Y-92799686D01*
X143622719Y-92831495D01*
X143627385Y-92838818D01*
X143646805Y-92872453D01*
X143646805Y-92872454D01*
X143676565Y-92897426D01*
X143682967Y-92903293D01*
X143886712Y-93107038D01*
X143892572Y-93113432D01*
X143917545Y-93143194D01*
X143951201Y-93162625D01*
X143958505Y-93167280D01*
X143990311Y-93189551D01*
X143990313Y-93189551D01*
X143990316Y-93189554D01*
X143990319Y-93189554D01*
X144003404Y-93195655D01*
X144016953Y-93200587D01*
X144016955Y-93200588D01*
X144037004Y-93204123D01*
X144055198Y-93207331D01*
X144063678Y-93209211D01*
X144101189Y-93219262D01*
X144101193Y-93219263D01*
X144126194Y-93217075D01*
X144139879Y-93215879D01*
X144148554Y-93215500D01*
X145480500Y-93215500D01*
X145566843Y-93235207D01*
X145636084Y-93290426D01*
X145674511Y-93370218D01*
X145677876Y-93400089D01*
X145678542Y-93400024D01*
X145679499Y-93409745D01*
X145679500Y-93409748D01*
X145690978Y-93467453D01*
X145694957Y-93487453D01*
X145693381Y-93487766D01*
X145704150Y-93551168D01*
X145694716Y-93592499D01*
X145694957Y-93592547D01*
X145691133Y-93611768D01*
X145691133Y-93611769D01*
X145688825Y-93623373D01*
X145679500Y-93670250D01*
X145679500Y-94709749D01*
X145691133Y-94768232D01*
X145735447Y-94834552D01*
X145801767Y-94878866D01*
X145801769Y-94878867D01*
X145836983Y-94885871D01*
X145860250Y-94890500D01*
X145860252Y-94890500D01*
X147399750Y-94890500D01*
X147419155Y-94886639D01*
X147458231Y-94878867D01*
X147524552Y-94834552D01*
X147568867Y-94768231D01*
X147580500Y-94709748D01*
X147580500Y-94694500D01*
X147600207Y-94608157D01*
X147655426Y-94538916D01*
X147735218Y-94500489D01*
X147779500Y-94495500D01*
X150920500Y-94495500D01*
X151006843Y-94515207D01*
X151076084Y-94570426D01*
X151114511Y-94650218D01*
X151117876Y-94680089D01*
X151118542Y-94680024D01*
X151119499Y-94689745D01*
X151134957Y-94767453D01*
X151133381Y-94767766D01*
X151144150Y-94831168D01*
X151134716Y-94872499D01*
X151134957Y-94872547D01*
X151131133Y-94891768D01*
X151131133Y-94891769D01*
X151128736Y-94903818D01*
X151119500Y-94950250D01*
X151119500Y-95989749D01*
X151131133Y-96048232D01*
X151175447Y-96114552D01*
X151241767Y-96158866D01*
X151241769Y-96158867D01*
X151276983Y-96165871D01*
X151300250Y-96170500D01*
X151300252Y-96170500D01*
X152839750Y-96170500D01*
X152859155Y-96166639D01*
X152898231Y-96158867D01*
X152964552Y-96114552D01*
X153008867Y-96048231D01*
X153020500Y-95989749D01*
X153021868Y-95982874D01*
X153058043Y-95902035D01*
X153125709Y-95844898D01*
X153211466Y-95822778D01*
X153217044Y-95822700D01*
X153654236Y-95822700D01*
X153662911Y-95823079D01*
X153679146Y-95824498D01*
X153701607Y-95826464D01*
X153739132Y-95816408D01*
X153747587Y-95814533D01*
X153785845Y-95807788D01*
X153785847Y-95807786D01*
X153799408Y-95802851D01*
X153812480Y-95796755D01*
X153812479Y-95796755D01*
X153812484Y-95796754D01*
X153844302Y-95774473D01*
X153851606Y-95769820D01*
X153885255Y-95750394D01*
X153910234Y-95720623D01*
X153916083Y-95714241D01*
X155006540Y-94623786D01*
X155081530Y-94576667D01*
X155147255Y-94565500D01*
X155964564Y-94565500D01*
X156050907Y-94585207D01*
X156120148Y-94640426D01*
X156133061Y-94658624D01*
X156173787Y-94723439D01*
X156296557Y-94846209D01*
X156296559Y-94846210D01*
X156296562Y-94846213D01*
X156443577Y-94938589D01*
X156607463Y-94995935D01*
X156780000Y-95015375D01*
X156952537Y-94995935D01*
X157116423Y-94938589D01*
X157263438Y-94846213D01*
X157386213Y-94723438D01*
X157478589Y-94576423D01*
X157535935Y-94412537D01*
X157555375Y-94240000D01*
X157535935Y-94067463D01*
X157478589Y-93903577D01*
X157386213Y-93756562D01*
X157386209Y-93756558D01*
X157386209Y-93756557D01*
X157263442Y-93633790D01*
X157263439Y-93633788D01*
X157263438Y-93633787D01*
X157116423Y-93541411D01*
X157116422Y-93541410D01*
X157116421Y-93541410D01*
X156952536Y-93484064D01*
X156780000Y-93464625D01*
X156607463Y-93484064D01*
X156443578Y-93541410D01*
X156443577Y-93541410D01*
X156362271Y-93592499D01*
X156296562Y-93633787D01*
X156296560Y-93633788D01*
X156296558Y-93633790D01*
X156296557Y-93633790D01*
X156173787Y-93756560D01*
X156133061Y-93821376D01*
X156070437Y-93883999D01*
X155986843Y-93913249D01*
X155964564Y-93914500D01*
X154948555Y-93914500D01*
X154939880Y-93914121D01*
X154901191Y-93910736D01*
X154863673Y-93920789D01*
X154855198Y-93922668D01*
X154816956Y-93929411D01*
X154803392Y-93934348D01*
X154790315Y-93940446D01*
X154758495Y-93962725D01*
X154751177Y-93967387D01*
X154717547Y-93986803D01*
X154717542Y-93986808D01*
X154692578Y-94016558D01*
X154686713Y-94022958D01*
X153826758Y-94882916D01*
X153596260Y-95113414D01*
X153521272Y-95160533D01*
X153455546Y-95171700D01*
X153219500Y-95171700D01*
X153133157Y-95151993D01*
X153063916Y-95096774D01*
X153025489Y-95016982D01*
X153020500Y-94972700D01*
X153020500Y-94950250D01*
X153011264Y-94903818D01*
X153008867Y-94891769D01*
X153008866Y-94891768D01*
X153005043Y-94872547D01*
X153006619Y-94872233D01*
X152995848Y-94808844D01*
X153005284Y-94767501D01*
X153005043Y-94767453D01*
X153020500Y-94689749D01*
X153020500Y-93650250D01*
X153012845Y-93611769D01*
X153008867Y-93591769D01*
X153008866Y-93591768D01*
X153005043Y-93572547D01*
X153006619Y-93572233D01*
X152995848Y-93508844D01*
X153005284Y-93467501D01*
X153005043Y-93467453D01*
X153020500Y-93389749D01*
X153020500Y-92350250D01*
X153011739Y-92306209D01*
X153008867Y-92291769D01*
X153008866Y-92291767D01*
X152964552Y-92225447D01*
X152898232Y-92181133D01*
X152839750Y-92169500D01*
X152839748Y-92169500D01*
X152594500Y-92169500D01*
X152508157Y-92149793D01*
X152438916Y-92094574D01*
X152400489Y-92014782D01*
X152395500Y-91970500D01*
X152395500Y-91699999D01*
X156004625Y-91699999D01*
X156024064Y-91872536D01*
X156081410Y-92036421D01*
X156081410Y-92036422D01*
X156081411Y-92036423D01*
X156173787Y-92183438D01*
X156173790Y-92183441D01*
X156173790Y-92183442D01*
X156296557Y-92306209D01*
X156296559Y-92306210D01*
X156296562Y-92306213D01*
X156443577Y-92398589D01*
X156607463Y-92455935D01*
X156780000Y-92475375D01*
X156952537Y-92455935D01*
X157116423Y-92398589D01*
X157263438Y-92306213D01*
X157386213Y-92183438D01*
X157478589Y-92036423D01*
X157535935Y-91872537D01*
X157555375Y-91700000D01*
X157535935Y-91527463D01*
X157478589Y-91363577D01*
X157386213Y-91216562D01*
X157386209Y-91216558D01*
X157386209Y-91216557D01*
X157263442Y-91093790D01*
X157263439Y-91093788D01*
X157263438Y-91093787D01*
X157116423Y-91001411D01*
X157116422Y-91001410D01*
X157116421Y-91001410D01*
X156952536Y-90944064D01*
X156780000Y-90924625D01*
X156607463Y-90944064D01*
X156443578Y-91001410D01*
X156443577Y-91001410D01*
X156344682Y-91063550D01*
X156296562Y-91093787D01*
X156296560Y-91093788D01*
X156296558Y-91093790D01*
X156296557Y-91093790D01*
X156173790Y-91216557D01*
X156173790Y-91216558D01*
X156081410Y-91363577D01*
X156081410Y-91363578D01*
X156024064Y-91527463D01*
X156004625Y-91699999D01*
X152395500Y-91699999D01*
X152395500Y-87257254D01*
X152415207Y-87170911D01*
X152453786Y-87116540D01*
X152566540Y-87003786D01*
X152641528Y-86956667D01*
X152707254Y-86945500D01*
X155964564Y-86945500D01*
X156050907Y-86965207D01*
X156120148Y-87020426D01*
X156133061Y-87038624D01*
X156173787Y-87103439D01*
X156296557Y-87226209D01*
X156296559Y-87226210D01*
X156296562Y-87226213D01*
X156443577Y-87318589D01*
X156607463Y-87375935D01*
X156780000Y-87395375D01*
X156952537Y-87375935D01*
X157116423Y-87318589D01*
X157263438Y-87226213D01*
X157386213Y-87103438D01*
X157478589Y-86956423D01*
X157535935Y-86792537D01*
X157555375Y-86620000D01*
X157535935Y-86447463D01*
X157478589Y-86283577D01*
X157386213Y-86136562D01*
X157386209Y-86136558D01*
X157386209Y-86136557D01*
X157263442Y-86013790D01*
X157263439Y-86013788D01*
X157263438Y-86013787D01*
X157116423Y-85921411D01*
X157116422Y-85921410D01*
X157116421Y-85921410D01*
X156952536Y-85864064D01*
X156780000Y-85844625D01*
X156607463Y-85864064D01*
X156443578Y-85921410D01*
X156443577Y-85921410D01*
X156344682Y-85983550D01*
X156296562Y-86013787D01*
X156296560Y-86013788D01*
X156296558Y-86013790D01*
X156296557Y-86013790D01*
X156173787Y-86136560D01*
X156133061Y-86201376D01*
X156070437Y-86263999D01*
X155986843Y-86293249D01*
X155964564Y-86294500D01*
X152625776Y-86294500D01*
X152602957Y-86291495D01*
X152602891Y-86292258D01*
X152574081Y-86289737D01*
X152539929Y-86283716D01*
X152528809Y-86280736D01*
X152528802Y-86280736D01*
X152517335Y-86281739D01*
X152482665Y-86281739D01*
X152471193Y-86280735D01*
X152471190Y-86280736D01*
X152460072Y-86283715D01*
X152425920Y-86289737D01*
X152414458Y-86290740D01*
X152414449Y-86290742D01*
X152404016Y-86295607D01*
X152371443Y-86307463D01*
X152360317Y-86310444D01*
X152360315Y-86310445D01*
X152350878Y-86317053D01*
X152320857Y-86334385D01*
X152310419Y-86339252D01*
X152256308Y-86393363D01*
X152229253Y-86420420D01*
X152229252Y-86420421D01*
X151852963Y-86796710D01*
X151846562Y-86802575D01*
X151816808Y-86827542D01*
X151816803Y-86827548D01*
X151797383Y-86861184D01*
X151792720Y-86868503D01*
X151770447Y-86900312D01*
X151764346Y-86913396D01*
X151759411Y-86926954D01*
X151752669Y-86965190D01*
X151750790Y-86973665D01*
X151740735Y-87011190D01*
X151740735Y-87011191D01*
X151744121Y-87049887D01*
X151744500Y-87058563D01*
X151744500Y-91970500D01*
X151724793Y-92056843D01*
X151669574Y-92126084D01*
X151589782Y-92164511D01*
X151545500Y-92169500D01*
X151300250Y-92169500D01*
X151241767Y-92181133D01*
X151175447Y-92225447D01*
X151131133Y-92291767D01*
X151119500Y-92350250D01*
X151119500Y-93389749D01*
X151134957Y-93467453D01*
X151133381Y-93467766D01*
X151144150Y-93531168D01*
X151134716Y-93572499D01*
X151134957Y-93572547D01*
X151131133Y-93591768D01*
X151131133Y-93591769D01*
X151128272Y-93606151D01*
X151119499Y-93650254D01*
X151118542Y-93659976D01*
X151116247Y-93659750D01*
X151099793Y-93731843D01*
X151044574Y-93801084D01*
X150964782Y-93839511D01*
X150920500Y-93844500D01*
X147778025Y-93844500D01*
X147691682Y-93824793D01*
X147622441Y-93769574D01*
X147584014Y-93689782D01*
X147582350Y-93679554D01*
X147580500Y-93670252D01*
X147568867Y-93611769D01*
X147568866Y-93611768D01*
X147565043Y-93592547D01*
X147566618Y-93592233D01*
X147555848Y-93528838D01*
X147565284Y-93487500D01*
X147565043Y-93487453D01*
X147569022Y-93467453D01*
X147580500Y-93409748D01*
X147580500Y-92370252D01*
X147576521Y-92350250D01*
X147565043Y-92292547D01*
X147566618Y-92292233D01*
X147555848Y-92228838D01*
X147565284Y-92187500D01*
X147565043Y-92187453D01*
X147572535Y-92149793D01*
X147580500Y-92109748D01*
X147580500Y-91070252D01*
X147568867Y-91011769D01*
X147561946Y-91001411D01*
X147524552Y-90945447D01*
X147458232Y-90901133D01*
X147399750Y-90889500D01*
X147399748Y-90889500D01*
X147154500Y-90889500D01*
X147068157Y-90869793D01*
X146998916Y-90814574D01*
X146960489Y-90734782D01*
X146955500Y-90690500D01*
X146955500Y-85757254D01*
X146975207Y-85670911D01*
X147013786Y-85616540D01*
X151806541Y-80823786D01*
X151881529Y-80776667D01*
X151947255Y-80765500D01*
X163802746Y-80765500D01*
X163889089Y-80785207D01*
X163943460Y-80823786D01*
X164486214Y-81366540D01*
X164533333Y-81441528D01*
X164544500Y-81507254D01*
X164544500Y-81760500D01*
X164524793Y-81846843D01*
X164469574Y-81916084D01*
X164389782Y-81954511D01*
X164359910Y-81957876D01*
X164359976Y-81958542D01*
X164350254Y-81959499D01*
X164307946Y-81967915D01*
X164291769Y-81971133D01*
X164291768Y-81971133D01*
X164272547Y-81974957D01*
X164272233Y-81973381D01*
X164208832Y-81984150D01*
X164167500Y-81974716D01*
X164167453Y-81974957D01*
X164148231Y-81971133D01*
X164124033Y-81966319D01*
X164089750Y-81959500D01*
X164089748Y-81959500D01*
X163050252Y-81959500D01*
X163050250Y-81959500D01*
X162991767Y-81971133D01*
X162925447Y-82015447D01*
X162881133Y-82081767D01*
X162869500Y-82140250D01*
X162869500Y-82385500D01*
X162849793Y-82471843D01*
X162794574Y-82541084D01*
X162714782Y-82579511D01*
X162670500Y-82584500D01*
X161918553Y-82584500D01*
X161909877Y-82584121D01*
X161871191Y-82580736D01*
X161833681Y-82590787D01*
X161825207Y-82592666D01*
X161786953Y-82599412D01*
X161773396Y-82604346D01*
X161760315Y-82610446D01*
X161728502Y-82632721D01*
X161721184Y-82637384D01*
X161687544Y-82656806D01*
X161687543Y-82656807D01*
X161662578Y-82686558D01*
X161656713Y-82692958D01*
X160842963Y-83506710D01*
X160836562Y-83512575D01*
X160806808Y-83537542D01*
X160806803Y-83537548D01*
X160787383Y-83571184D01*
X160782720Y-83578503D01*
X160760447Y-83610312D01*
X160754346Y-83623396D01*
X160749411Y-83636954D01*
X160742669Y-83675190D01*
X160740790Y-83683665D01*
X160730735Y-83721190D01*
X160730735Y-83721191D01*
X160734121Y-83759887D01*
X160734500Y-83768563D01*
X160734500Y-96261435D01*
X160734121Y-96270110D01*
X160730736Y-96308806D01*
X160730735Y-96308809D01*
X160740790Y-96346336D01*
X160742669Y-96354811D01*
X160749411Y-96393046D01*
X160754346Y-96406602D01*
X160760447Y-96419686D01*
X160782719Y-96451495D01*
X160787385Y-96458818D01*
X160806805Y-96492453D01*
X160806805Y-96492454D01*
X160836565Y-96517426D01*
X160842967Y-96523293D01*
X161297907Y-96978233D01*
X161297910Y-96978237D01*
X161297911Y-96978237D01*
X161309252Y-96989578D01*
X161309253Y-96989580D01*
X161390420Y-97070747D01*
X161400856Y-97075613D01*
X161430891Y-97092954D01*
X161440316Y-97099554D01*
X161451424Y-97102530D01*
X161484028Y-97114397D01*
X161488373Y-97116423D01*
X161494454Y-97119259D01*
X161505918Y-97120261D01*
X161540075Y-97126284D01*
X161551193Y-97129264D01*
X161562654Y-97128261D01*
X161597346Y-97128261D01*
X161608807Y-97129264D01*
X161619920Y-97126285D01*
X161654076Y-97120262D01*
X161665545Y-97119259D01*
X161665549Y-97119257D01*
X161665550Y-97119257D01*
X161682368Y-97114752D01*
X161683212Y-97117905D01*
X161739170Y-97105500D01*
X163904564Y-97105500D01*
X163990907Y-97125207D01*
X164060148Y-97180426D01*
X164073061Y-97198624D01*
X164113787Y-97263439D01*
X164236557Y-97386209D01*
X164236559Y-97386210D01*
X164236562Y-97386213D01*
X164383577Y-97478589D01*
X164547463Y-97535935D01*
X164720000Y-97555375D01*
X164892537Y-97535935D01*
X165056423Y-97478589D01*
X165203438Y-97386213D01*
X165326213Y-97263438D01*
X165418589Y-97116423D01*
X165475935Y-96952537D01*
X165495375Y-96780000D01*
X165475935Y-96607463D01*
X165418589Y-96443577D01*
X165326213Y-96296562D01*
X165326209Y-96296558D01*
X165326209Y-96296557D01*
X165203442Y-96173790D01*
X165203439Y-96173788D01*
X165203438Y-96173787D01*
X165056423Y-96081411D01*
X165056422Y-96081410D01*
X165056421Y-96081410D01*
X164892536Y-96024064D01*
X164720000Y-96004625D01*
X164547463Y-96024064D01*
X164383578Y-96081410D01*
X164383577Y-96081410D01*
X164308680Y-96128472D01*
X164236562Y-96173787D01*
X164236560Y-96173788D01*
X164236558Y-96173790D01*
X164236557Y-96173790D01*
X164113787Y-96296560D01*
X164073061Y-96361376D01*
X164010437Y-96423999D01*
X163926843Y-96453249D01*
X163904564Y-96454500D01*
X161777254Y-96454500D01*
X161690911Y-96434793D01*
X161636540Y-96396214D01*
X161443786Y-96203460D01*
X161396667Y-96128472D01*
X161385500Y-96062746D01*
X161385500Y-94240000D01*
X163944625Y-94240000D01*
X163964064Y-94412536D01*
X164021410Y-94576421D01*
X164021410Y-94576422D01*
X164021411Y-94576423D01*
X164113787Y-94723438D01*
X164113790Y-94723441D01*
X164113790Y-94723442D01*
X164236557Y-94846209D01*
X164236559Y-94846210D01*
X164236562Y-94846213D01*
X164383577Y-94938589D01*
X164547463Y-94995935D01*
X164720000Y-95015375D01*
X164892537Y-94995935D01*
X165056423Y-94938589D01*
X165203438Y-94846213D01*
X165326213Y-94723438D01*
X165418589Y-94576423D01*
X165475935Y-94412537D01*
X165495375Y-94240000D01*
X165475935Y-94067463D01*
X165418589Y-93903577D01*
X165326213Y-93756562D01*
X165326209Y-93756558D01*
X165326209Y-93756557D01*
X165203442Y-93633790D01*
X165203439Y-93633788D01*
X165203438Y-93633787D01*
X165056423Y-93541411D01*
X165056422Y-93541410D01*
X165056421Y-93541410D01*
X164892536Y-93484064D01*
X164720000Y-93464625D01*
X164547463Y-93484064D01*
X164383578Y-93541410D01*
X164383577Y-93541410D01*
X164302271Y-93592499D01*
X164236562Y-93633787D01*
X164236560Y-93633788D01*
X164236558Y-93633790D01*
X164236557Y-93633790D01*
X164113790Y-93756557D01*
X164113790Y-93756558D01*
X164113788Y-93756560D01*
X164113787Y-93756562D01*
X164105611Y-93769574D01*
X164021410Y-93903577D01*
X164021410Y-93903578D01*
X163964064Y-94067463D01*
X163944625Y-94240000D01*
X161385500Y-94240000D01*
X161385500Y-86619999D01*
X163944625Y-86619999D01*
X163964064Y-86792536D01*
X164021410Y-86956421D01*
X164021410Y-86956422D01*
X164032245Y-86973665D01*
X164113787Y-87103438D01*
X164113790Y-87103441D01*
X164113790Y-87103442D01*
X164236557Y-87226209D01*
X164236559Y-87226210D01*
X164236562Y-87226213D01*
X164383577Y-87318589D01*
X164547463Y-87375935D01*
X164720000Y-87395375D01*
X164892537Y-87375935D01*
X165056423Y-87318589D01*
X165203438Y-87226213D01*
X165326213Y-87103438D01*
X165418589Y-86956423D01*
X165475935Y-86792537D01*
X165495375Y-86620000D01*
X165475935Y-86447463D01*
X165418589Y-86283577D01*
X165326213Y-86136562D01*
X165326209Y-86136558D01*
X165326209Y-86136557D01*
X165203442Y-86013790D01*
X165203439Y-86013788D01*
X165203438Y-86013787D01*
X165056423Y-85921411D01*
X165056422Y-85921410D01*
X165056421Y-85921410D01*
X164892536Y-85864064D01*
X164720000Y-85844625D01*
X164547463Y-85864064D01*
X164383578Y-85921410D01*
X164383577Y-85921410D01*
X164284682Y-85983550D01*
X164236562Y-86013787D01*
X164236560Y-86013788D01*
X164236558Y-86013790D01*
X164236557Y-86013790D01*
X164113790Y-86136557D01*
X164113790Y-86136558D01*
X164021410Y-86283577D01*
X164021410Y-86283578D01*
X163964064Y-86447463D01*
X163944625Y-86619999D01*
X161385500Y-86619999D01*
X161385500Y-83967254D01*
X161405207Y-83880911D01*
X161443786Y-83826540D01*
X161976541Y-83293786D01*
X162051530Y-83246667D01*
X162117255Y-83235500D01*
X162670500Y-83235500D01*
X162756843Y-83255207D01*
X162826084Y-83310426D01*
X162864511Y-83390218D01*
X162869500Y-83434500D01*
X162869500Y-83679749D01*
X162881133Y-83738232D01*
X162925447Y-83804552D01*
X162991767Y-83848866D01*
X162991769Y-83848867D01*
X163026983Y-83855871D01*
X163050250Y-83860500D01*
X163050252Y-83860500D01*
X164089750Y-83860500D01*
X164124033Y-83853680D01*
X164148231Y-83848867D01*
X164148231Y-83848866D01*
X164167453Y-83845043D01*
X164167766Y-83846619D01*
X164231156Y-83835848D01*
X164272498Y-83845284D01*
X164272547Y-83845043D01*
X164291768Y-83848866D01*
X164291769Y-83848867D01*
X164315966Y-83853680D01*
X164350250Y-83860500D01*
X164350252Y-83860500D01*
X165389750Y-83860500D01*
X165424033Y-83853680D01*
X165448231Y-83848867D01*
X165448231Y-83848866D01*
X165467453Y-83845043D01*
X165467766Y-83846619D01*
X165531156Y-83835848D01*
X165572498Y-83845284D01*
X165572547Y-83845043D01*
X165591768Y-83848866D01*
X165591769Y-83848867D01*
X165615966Y-83853680D01*
X165650250Y-83860500D01*
X165650252Y-83860500D01*
X166689750Y-83860500D01*
X166709155Y-83856639D01*
X166748231Y-83848867D01*
X166814552Y-83804552D01*
X166858867Y-83738231D01*
X166870500Y-83679748D01*
X166870500Y-83671254D01*
X166890207Y-83584911D01*
X166945426Y-83515670D01*
X167025218Y-83477243D01*
X167113782Y-83477243D01*
X167193574Y-83515670D01*
X167210214Y-83530540D01*
X167486214Y-83806540D01*
X167533333Y-83881528D01*
X167544500Y-83947254D01*
X167544500Y-88635500D01*
X167524793Y-88721843D01*
X167469574Y-88791084D01*
X167389782Y-88829511D01*
X167345500Y-88834500D01*
X165535436Y-88834500D01*
X165449093Y-88814793D01*
X165379852Y-88759574D01*
X165366939Y-88741376D01*
X165326212Y-88676560D01*
X165203442Y-88553790D01*
X165203439Y-88553788D01*
X165203438Y-88553787D01*
X165056423Y-88461411D01*
X165056422Y-88461410D01*
X165056421Y-88461410D01*
X164892536Y-88404064D01*
X164720000Y-88384625D01*
X164547463Y-88404064D01*
X164383578Y-88461410D01*
X164383577Y-88461410D01*
X164284682Y-88523550D01*
X164236562Y-88553787D01*
X164236560Y-88553788D01*
X164236558Y-88553790D01*
X164236557Y-88553790D01*
X164113790Y-88676557D01*
X164113790Y-88676558D01*
X164021410Y-88823577D01*
X164021410Y-88823578D01*
X163964064Y-88987463D01*
X163944625Y-89160000D01*
X163964064Y-89332536D01*
X164021410Y-89496421D01*
X164021410Y-89496422D01*
X164023195Y-89499262D01*
X164113787Y-89643438D01*
X164113790Y-89643441D01*
X164113790Y-89643442D01*
X164236557Y-89766209D01*
X164236559Y-89766210D01*
X164236562Y-89766213D01*
X164383577Y-89858589D01*
X164547463Y-89915935D01*
X164720000Y-89935375D01*
X164892537Y-89915935D01*
X165056423Y-89858589D01*
X165203438Y-89766213D01*
X165326213Y-89643438D01*
X165343400Y-89616084D01*
X165366939Y-89578624D01*
X165429563Y-89516001D01*
X165513157Y-89486751D01*
X165535436Y-89485500D01*
X167750041Y-89485500D01*
X167795282Y-89493476D01*
X167795459Y-89492477D01*
X167826800Y-89498003D01*
X167841185Y-89499260D01*
X167841193Y-89499263D01*
X167864021Y-89497265D01*
X167879879Y-89495879D01*
X167888554Y-89495500D01*
X167927393Y-89495500D01*
X167927394Y-89495500D01*
X167927394Y-89495499D01*
X167941606Y-89492993D01*
X167955543Y-89489259D01*
X167955545Y-89489259D01*
X167990775Y-89472829D01*
X167998736Y-89469532D01*
X168035260Y-89456240D01*
X168035265Y-89456235D01*
X168047761Y-89449021D01*
X168059574Y-89440748D01*
X168059579Y-89440747D01*
X168087053Y-89413271D01*
X168093437Y-89407422D01*
X168123194Y-89382455D01*
X168123198Y-89382447D01*
X168132473Y-89371394D01*
X168140743Y-89359582D01*
X168140747Y-89359579D01*
X168157163Y-89324372D01*
X168161166Y-89316683D01*
X168180588Y-89283045D01*
X168180588Y-89283043D01*
X168185522Y-89269488D01*
X168189257Y-89255550D01*
X168189259Y-89255546D01*
X168192643Y-89216846D01*
X168193777Y-89208242D01*
X168195499Y-89198480D01*
X168195500Y-89198473D01*
X168195500Y-89188553D01*
X168195879Y-89179878D01*
X168196997Y-89167092D01*
X168199263Y-89141193D01*
X168199261Y-89141186D01*
X168197745Y-89123852D01*
X168198505Y-89123785D01*
X168195500Y-89100951D01*
X168195500Y-83748553D01*
X168195879Y-83739878D01*
X168197513Y-83721191D01*
X168199263Y-83701193D01*
X168193517Y-83679748D01*
X168189211Y-83663678D01*
X168187331Y-83655198D01*
X168180588Y-83616956D01*
X168175655Y-83603404D01*
X168169554Y-83590319D01*
X168169554Y-83590316D01*
X168169551Y-83590313D01*
X168169551Y-83590311D01*
X168147280Y-83558505D01*
X168142625Y-83551201D01*
X168123194Y-83517545D01*
X168122099Y-83516626D01*
X168093440Y-83492578D01*
X168087048Y-83486722D01*
X167293284Y-82692958D01*
X167287428Y-82686568D01*
X167262455Y-82656806D01*
X167228816Y-82637384D01*
X167221495Y-82632719D01*
X167189686Y-82610447D01*
X167176602Y-82604346D01*
X167163046Y-82599411D01*
X167124811Y-82592669D01*
X167116336Y-82590790D01*
X167078809Y-82580735D01*
X167061467Y-82579219D01*
X167061699Y-82576563D01*
X166999109Y-82567925D01*
X166925319Y-82518950D01*
X166880086Y-82442809D01*
X166870500Y-82381790D01*
X166870500Y-82140250D01*
X166861896Y-82096998D01*
X166858867Y-82081769D01*
X166858866Y-82081767D01*
X166814552Y-82015447D01*
X166748232Y-81971133D01*
X166689750Y-81959500D01*
X166689748Y-81959500D01*
X165650252Y-81959500D01*
X165650250Y-81959500D01*
X165615966Y-81966319D01*
X165591769Y-81971133D01*
X165591768Y-81971133D01*
X165572547Y-81974957D01*
X165572233Y-81973381D01*
X165508832Y-81984150D01*
X165467500Y-81974716D01*
X165467453Y-81974957D01*
X165448231Y-81971133D01*
X165424291Y-81966371D01*
X165389745Y-81959499D01*
X165380024Y-81958542D01*
X165380249Y-81956247D01*
X165308157Y-81939793D01*
X165238916Y-81884574D01*
X165200489Y-81804782D01*
X165195500Y-81760500D01*
X165195500Y-81308564D01*
X165195879Y-81299888D01*
X165197007Y-81286987D01*
X165199264Y-81261194D01*
X165189205Y-81223656D01*
X165187330Y-81215195D01*
X165180588Y-81176955D01*
X165180587Y-81176953D01*
X165175655Y-81163404D01*
X165169554Y-81150319D01*
X165169554Y-81150316D01*
X165169551Y-81150313D01*
X165169551Y-81150311D01*
X165147280Y-81118505D01*
X165142625Y-81111201D01*
X165123194Y-81077545D01*
X165093440Y-81052578D01*
X165087048Y-81046722D01*
X164263284Y-80222958D01*
X164257428Y-80216568D01*
X164232455Y-80186806D01*
X164198818Y-80167385D01*
X164191495Y-80162719D01*
X164159686Y-80140447D01*
X164146602Y-80134346D01*
X164133046Y-80129411D01*
X164094811Y-80122669D01*
X164086336Y-80120790D01*
X164048809Y-80110735D01*
X164010112Y-80114121D01*
X164001436Y-80114500D01*
X151748555Y-80114500D01*
X151739880Y-80114121D01*
X151701191Y-80110736D01*
X151663673Y-80120789D01*
X151655198Y-80122668D01*
X151616956Y-80129411D01*
X151603392Y-80134348D01*
X151590315Y-80140446D01*
X151558495Y-80162725D01*
X151551177Y-80167387D01*
X151517547Y-80186803D01*
X151517542Y-80186808D01*
X151492578Y-80216558D01*
X151486713Y-80222958D01*
X146412963Y-85296710D01*
X146406562Y-85302575D01*
X146376808Y-85327542D01*
X146376803Y-85327548D01*
X146357383Y-85361184D01*
X146352720Y-85368503D01*
X146330447Y-85400312D01*
X146324346Y-85413396D01*
X146319411Y-85426954D01*
X146312669Y-85465190D01*
X146310790Y-85473665D01*
X146300735Y-85511190D01*
X146300735Y-85511191D01*
X146304121Y-85549887D01*
X146304500Y-85558563D01*
X146304500Y-90690500D01*
X146284793Y-90776843D01*
X146229574Y-90846084D01*
X146149782Y-90884511D01*
X146105500Y-90889500D01*
X145860250Y-90889500D01*
X145801767Y-90901133D01*
X145735447Y-90945447D01*
X145691133Y-91011767D01*
X145691132Y-91011769D01*
X145691133Y-91011769D01*
X145679500Y-91070252D01*
X145679500Y-92109748D01*
X145687465Y-92149793D01*
X145694957Y-92187453D01*
X145693381Y-92187766D01*
X145704150Y-92251168D01*
X145694716Y-92292499D01*
X145694957Y-92292547D01*
X145679499Y-92370254D01*
X145678542Y-92379976D01*
X145676247Y-92379750D01*
X145659793Y-92451843D01*
X145604574Y-92521084D01*
X145524782Y-92559511D01*
X145480500Y-92564500D01*
X144424500Y-92564500D01*
X144338157Y-92544793D01*
X144268916Y-92489574D01*
X144230489Y-92409782D01*
X144225500Y-92365500D01*
X144225500Y-76557254D01*
X144245207Y-76470911D01*
X144283786Y-76416540D01*
X145966541Y-74733786D01*
X146041530Y-74686667D01*
X146107255Y-74675500D01*
X146324500Y-74675500D01*
X146410843Y-74695207D01*
X146480084Y-74750426D01*
X146518511Y-74830218D01*
X146523500Y-74874500D01*
X146523500Y-75385749D01*
X146535133Y-75444232D01*
X146579447Y-75510552D01*
X146645767Y-75554866D01*
X146645769Y-75554867D01*
X146680983Y-75561871D01*
X146704250Y-75566500D01*
X146704252Y-75566500D01*
X148775750Y-75566500D01*
X148795155Y-75562639D01*
X148834231Y-75554867D01*
X148900552Y-75510552D01*
X148944867Y-75444231D01*
X148956500Y-75385748D01*
X148956500Y-74350000D01*
X150018853Y-74350000D01*
X150037405Y-74562051D01*
X150037407Y-74562062D01*
X150092495Y-74767653D01*
X150092495Y-74767654D01*
X150182455Y-74960573D01*
X150182457Y-74960577D01*
X150304548Y-75134940D01*
X150455059Y-75285451D01*
X150629422Y-75407542D01*
X150629426Y-75407544D01*
X150822345Y-75497504D01*
X151027937Y-75552592D01*
X151027942Y-75552593D01*
X151027950Y-75552595D01*
X151240000Y-75571147D01*
X151452050Y-75552595D01*
X151452059Y-75552592D01*
X151452062Y-75552592D01*
X151657653Y-75497504D01*
X151657654Y-75497504D01*
X151657654Y-75497503D01*
X151657657Y-75497503D01*
X151850574Y-75407544D01*
X152024515Y-75285749D01*
X157868500Y-75285749D01*
X157880133Y-75344232D01*
X157924447Y-75410552D01*
X157990767Y-75454866D01*
X157990769Y-75454867D01*
X158025984Y-75461871D01*
X158049250Y-75466500D01*
X158049252Y-75466500D01*
X160120750Y-75466500D01*
X160140155Y-75462639D01*
X160179231Y-75454867D01*
X160245552Y-75410552D01*
X160289867Y-75344231D01*
X160301500Y-75285748D01*
X160301500Y-74250000D01*
X161363853Y-74250000D01*
X161382405Y-74462051D01*
X161382407Y-74462062D01*
X161437495Y-74667653D01*
X161437495Y-74667654D01*
X161527455Y-74860573D01*
X161527457Y-74860577D01*
X161649548Y-75034940D01*
X161800059Y-75185451D01*
X161974422Y-75307542D01*
X161974426Y-75307544D01*
X162167345Y-75397504D01*
X162372937Y-75452592D01*
X162372942Y-75452593D01*
X162372950Y-75452595D01*
X162585000Y-75471147D01*
X162797050Y-75452595D01*
X162797059Y-75452592D01*
X162797062Y-75452592D01*
X163002653Y-75397504D01*
X163002654Y-75397504D01*
X163002654Y-75397503D01*
X163002657Y-75397503D01*
X163027863Y-75385749D01*
X169213500Y-75385749D01*
X169225133Y-75444232D01*
X169269447Y-75510552D01*
X169335767Y-75554866D01*
X169335769Y-75554867D01*
X169370984Y-75561871D01*
X169394250Y-75566500D01*
X169394252Y-75566500D01*
X171465750Y-75566500D01*
X171485155Y-75562639D01*
X171524231Y-75554867D01*
X171590552Y-75510552D01*
X171634867Y-75444231D01*
X171646500Y-75385748D01*
X171646500Y-74350000D01*
X172708853Y-74350000D01*
X172727405Y-74562051D01*
X172727407Y-74562062D01*
X172782495Y-74767653D01*
X172782495Y-74767654D01*
X172872455Y-74960573D01*
X172872457Y-74960577D01*
X172994548Y-75134940D01*
X173145059Y-75285451D01*
X173319422Y-75407542D01*
X173319426Y-75407544D01*
X173512345Y-75497504D01*
X173717937Y-75552592D01*
X173717942Y-75552593D01*
X173717950Y-75552595D01*
X173930000Y-75571147D01*
X174142050Y-75552595D01*
X174142059Y-75552592D01*
X174142062Y-75552592D01*
X174347653Y-75497504D01*
X174347654Y-75497504D01*
X174347654Y-75497503D01*
X174347657Y-75497503D01*
X174540574Y-75407544D01*
X174714938Y-75285453D01*
X174865453Y-75134938D01*
X174987544Y-74960574D01*
X175077503Y-74767657D01*
X175105800Y-74662050D01*
X175132592Y-74562062D01*
X175132592Y-74562059D01*
X175132595Y-74562050D01*
X175151147Y-74350000D01*
X175132595Y-74137950D01*
X175077503Y-73932343D01*
X174987544Y-73739427D01*
X174865453Y-73565062D01*
X174714938Y-73414547D01*
X174714937Y-73414546D01*
X174714936Y-73414545D01*
X174540577Y-73292457D01*
X174540573Y-73292455D01*
X174347654Y-73202495D01*
X174142062Y-73147407D01*
X174142051Y-73147405D01*
X173930000Y-73128853D01*
X173717948Y-73147405D01*
X173717941Y-73147407D01*
X173512342Y-73202497D01*
X173512341Y-73202497D01*
X173319427Y-73292456D01*
X173145066Y-73414543D01*
X173145058Y-73414550D01*
X172994550Y-73565058D01*
X172994543Y-73565066D01*
X172872456Y-73739427D01*
X172782497Y-73932341D01*
X172782497Y-73932342D01*
X172727407Y-74137941D01*
X172727405Y-74137948D01*
X172708853Y-74350000D01*
X171646500Y-74350000D01*
X171646500Y-73314252D01*
X171644161Y-73302495D01*
X171640834Y-73285767D01*
X171634867Y-73255769D01*
X171629280Y-73247407D01*
X171590552Y-73189447D01*
X171524232Y-73145133D01*
X171465750Y-73133500D01*
X171465748Y-73133500D01*
X169394252Y-73133500D01*
X169394250Y-73133500D01*
X169335767Y-73145133D01*
X169269447Y-73189447D01*
X169225133Y-73255767D01*
X169213500Y-73314250D01*
X169213500Y-75385749D01*
X163027863Y-75385749D01*
X163195574Y-75307544D01*
X163369938Y-75185453D01*
X163520453Y-75034938D01*
X163632793Y-74874500D01*
X163642542Y-74860577D01*
X163642544Y-74860573D01*
X163671883Y-74797657D01*
X163732503Y-74667657D01*
X163752759Y-74592062D01*
X163787592Y-74462062D01*
X163787592Y-74462059D01*
X163787595Y-74462050D01*
X163806147Y-74250000D01*
X163787595Y-74037950D01*
X163732503Y-73832343D01*
X163642544Y-73639427D01*
X163520453Y-73465062D01*
X163369938Y-73314547D01*
X163369937Y-73314546D01*
X163369936Y-73314545D01*
X163195577Y-73192457D01*
X163195573Y-73192455D01*
X163002654Y-73102495D01*
X162797062Y-73047407D01*
X162797051Y-73047405D01*
X162585000Y-73028853D01*
X162372948Y-73047405D01*
X162372941Y-73047407D01*
X162167342Y-73102497D01*
X162167341Y-73102497D01*
X161974427Y-73192456D01*
X161800066Y-73314543D01*
X161800058Y-73314550D01*
X161649550Y-73465058D01*
X161649543Y-73465066D01*
X161527456Y-73639427D01*
X161437497Y-73832341D01*
X161437497Y-73832342D01*
X161382407Y-74037941D01*
X161382405Y-74037948D01*
X161363853Y-74250000D01*
X160301500Y-74250000D01*
X160301500Y-73214252D01*
X160299161Y-73202495D01*
X160294171Y-73177407D01*
X160289867Y-73155769D01*
X160284280Y-73147407D01*
X160245552Y-73089447D01*
X160179232Y-73045133D01*
X160120750Y-73033500D01*
X160120748Y-73033500D01*
X158049252Y-73033500D01*
X158049250Y-73033500D01*
X157990767Y-73045133D01*
X157924447Y-73089447D01*
X157880133Y-73155767D01*
X157868500Y-73214250D01*
X157868500Y-75285749D01*
X152024515Y-75285749D01*
X152024938Y-75285453D01*
X152175453Y-75134938D01*
X152297544Y-74960574D01*
X152387503Y-74767657D01*
X152415800Y-74662050D01*
X152442592Y-74562062D01*
X152442592Y-74562059D01*
X152442595Y-74562050D01*
X152461147Y-74350000D01*
X152442595Y-74137950D01*
X152387503Y-73932343D01*
X152297544Y-73739427D01*
X152175453Y-73565062D01*
X152024938Y-73414547D01*
X152024937Y-73414546D01*
X152024936Y-73414545D01*
X151850577Y-73292457D01*
X151850573Y-73292455D01*
X151657654Y-73202495D01*
X151452062Y-73147407D01*
X151452051Y-73147405D01*
X151240000Y-73128853D01*
X151027948Y-73147405D01*
X151027941Y-73147407D01*
X150822342Y-73202497D01*
X150822341Y-73202497D01*
X150629427Y-73292456D01*
X150455066Y-73414543D01*
X150455058Y-73414550D01*
X150304550Y-73565058D01*
X150304543Y-73565066D01*
X150182456Y-73739427D01*
X150092497Y-73932341D01*
X150092497Y-73932342D01*
X150037407Y-74137941D01*
X150037405Y-74137948D01*
X150018853Y-74350000D01*
X148956500Y-74350000D01*
X148956500Y-73314252D01*
X148954161Y-73302495D01*
X148950834Y-73285767D01*
X148944867Y-73255769D01*
X148939280Y-73247407D01*
X148900552Y-73189447D01*
X148834232Y-73145133D01*
X148775750Y-73133500D01*
X148775748Y-73133500D01*
X146704252Y-73133500D01*
X146704250Y-73133500D01*
X146645767Y-73145133D01*
X146579447Y-73189447D01*
X146535133Y-73255767D01*
X146523500Y-73314250D01*
X146523500Y-73825500D01*
X146503793Y-73911843D01*
X146448574Y-73981084D01*
X146368782Y-74019511D01*
X146324500Y-74024500D01*
X146069169Y-74024500D01*
X146013204Y-74012094D01*
X146012360Y-74015246D01*
X145995546Y-74010740D01*
X145984084Y-74009738D01*
X145949922Y-74003714D01*
X145938810Y-74000736D01*
X145938801Y-74000735D01*
X145927330Y-74001739D01*
X145892657Y-74001739D01*
X145881196Y-74000736D01*
X145877705Y-74001671D01*
X145870071Y-74003716D01*
X145835927Y-74009737D01*
X145829488Y-74010300D01*
X145824451Y-74010741D01*
X145814019Y-74015606D01*
X145781441Y-74027464D01*
X145770317Y-74030445D01*
X145770314Y-74030446D01*
X145760886Y-74037048D01*
X145730854Y-74054387D01*
X145720421Y-74059252D01*
X145671983Y-74107687D01*
X145671980Y-74107692D01*
X143682963Y-76096710D01*
X143676562Y-76102575D01*
X143646808Y-76127542D01*
X143646803Y-76127548D01*
X143627383Y-76161184D01*
X143622720Y-76168503D01*
X143600447Y-76200312D01*
X143594346Y-76213396D01*
X143589411Y-76226954D01*
X143582669Y-76265190D01*
X143580790Y-76273665D01*
X143570735Y-76311190D01*
X143570735Y-76311191D01*
X143574121Y-76349887D01*
X143574500Y-76358563D01*
X143574500Y-92641435D01*
X143574121Y-92650110D01*
X143570736Y-92688806D01*
X143570735Y-92688809D01*
X141326623Y-92688809D01*
X131357087Y-82719273D01*
X131338507Y-82696217D01*
X131332143Y-82688872D01*
X131293946Y-82655773D01*
X131288747Y-82650933D01*
X131278596Y-82640781D01*
X131267093Y-82632170D01*
X131261559Y-82627711D01*
X131223374Y-82594623D01*
X131215211Y-82589377D01*
X131200831Y-82580845D01*
X131192333Y-82576205D01*
X131192331Y-82576204D01*
X131177170Y-82570549D01*
X131144979Y-82558542D01*
X131138417Y-82555824D01*
X131092459Y-82534835D01*
X131083181Y-82532111D01*
X131066949Y-82527968D01*
X131057483Y-82525909D01*
X131007074Y-82522302D01*
X131000018Y-82521544D01*
X130997082Y-82521122D01*
X130985799Y-82519500D01*
X130985798Y-82519500D01*
X130971436Y-82519500D01*
X130964335Y-82519246D01*
X130913922Y-82515640D01*
X130904245Y-82516332D01*
X130874791Y-82519500D01*
X125749500Y-82519500D01*
X125663157Y-82499793D01*
X125593916Y-82444574D01*
X125555489Y-82364782D01*
X125550500Y-82320500D01*
X125550500Y-82209688D01*
X131674353Y-82209688D01*
X131674950Y-82226419D01*
X131675640Y-82236072D01*
X131686382Y-82285449D01*
X131687644Y-82292442D01*
X131694835Y-82342460D01*
X131697574Y-82351787D01*
X131702842Y-82367616D01*
X131706232Y-82376704D01*
X131730454Y-82421063D01*
X131733635Y-82427416D01*
X131754623Y-82473375D01*
X131759844Y-82481499D01*
X131769417Y-82495287D01*
X131775207Y-82503021D01*
X131775208Y-82503022D01*
X131775209Y-82503023D01*
X131810944Y-82538758D01*
X131815773Y-82543945D01*
X131848870Y-82582141D01*
X131856217Y-82588507D01*
X131869178Y-82598952D01*
X131876976Y-82604790D01*
X131876977Y-82604791D01*
X131921332Y-82629011D01*
X131927415Y-82632619D01*
X131969947Y-82659953D01*
X131969949Y-82659953D01*
X131969950Y-82659954D01*
X131978795Y-82663994D01*
X131994174Y-82670364D01*
X132003291Y-82673765D01*
X132003292Y-82673765D01*
X132003294Y-82673766D01*
X132043783Y-82682574D01*
X132052678Y-82684509D01*
X132059552Y-82686263D01*
X132108039Y-82700500D01*
X132108042Y-82700500D01*
X132117662Y-82701884D01*
X132134245Y-82703667D01*
X132143922Y-82704359D01*
X132143925Y-82704358D01*
X132143927Y-82704359D01*
X132164703Y-82702872D01*
X132194335Y-82700754D01*
X132201436Y-82700500D01*
X132251963Y-82700500D01*
X132261636Y-82699108D01*
X132277937Y-82696167D01*
X132283090Y-82695047D01*
X132285709Y-82694765D01*
X132290744Y-82693857D01*
X132300909Y-82693131D01*
X132325385Y-82690500D01*
X137771959Y-82690500D01*
X137771961Y-82690500D01*
X137793005Y-82684320D01*
X137820739Y-82678287D01*
X137842457Y-82675165D01*
X137862412Y-82666051D01*
X137889006Y-82656132D01*
X137910053Y-82649953D01*
X137928512Y-82638089D01*
X137953416Y-82624490D01*
X137973373Y-82615377D01*
X137989937Y-82601023D01*
X138012679Y-82583999D01*
X138020117Y-82579219D01*
X138031128Y-82572143D01*
X138045497Y-82555559D01*
X138065559Y-82535497D01*
X138082143Y-82521128D01*
X138093999Y-82502679D01*
X138111025Y-82479935D01*
X138116710Y-82473375D01*
X138125377Y-82463373D01*
X138134490Y-82443416D01*
X138148089Y-82418512D01*
X138159953Y-82400053D01*
X138166132Y-82379006D01*
X138176055Y-82352403D01*
X138185165Y-82332457D01*
X138188285Y-82310751D01*
X138194319Y-82283008D01*
X138200500Y-82261961D01*
X138200500Y-82240028D01*
X138202526Y-82211705D01*
X138204209Y-82200000D01*
X138205647Y-82190000D01*
X138202525Y-82168284D01*
X138200500Y-82139966D01*
X138200500Y-82118042D01*
X138200500Y-82118039D01*
X138194319Y-82096993D01*
X138188286Y-82069254D01*
X138185165Y-82047543D01*
X138176051Y-82027587D01*
X138166130Y-82000985D01*
X138159953Y-81979947D01*
X138148092Y-81961491D01*
X138134485Y-81936570D01*
X138125379Y-81916631D01*
X138125378Y-81916630D01*
X138125377Y-81916627D01*
X138124906Y-81916084D01*
X138111020Y-81900058D01*
X138094004Y-81877328D01*
X138082143Y-81858872D01*
X138082138Y-81858868D01*
X138076285Y-81853796D01*
X138065562Y-81844504D01*
X138045494Y-81824436D01*
X138031127Y-81807856D01*
X138012675Y-81795998D01*
X137989945Y-81778983D01*
X137973373Y-81764623D01*
X137973372Y-81764623D01*
X137953413Y-81755507D01*
X137928515Y-81741911D01*
X137910053Y-81730047D01*
X137910050Y-81730046D01*
X137889004Y-81723866D01*
X137862406Y-81713945D01*
X137842458Y-81704835D01*
X137842454Y-81704834D01*
X137820739Y-81701711D01*
X137793010Y-81695679D01*
X137771963Y-81689500D01*
X137771961Y-81689500D01*
X137735799Y-81689500D01*
X132265209Y-81689500D01*
X132235754Y-81686332D01*
X132226077Y-81685640D01*
X132175665Y-81689246D01*
X132168564Y-81689500D01*
X132154201Y-81689500D01*
X132139975Y-81691544D01*
X132132927Y-81692302D01*
X132082516Y-81695909D01*
X132073060Y-81697966D01*
X132056808Y-81702114D01*
X132047539Y-81704836D01*
X132001578Y-81725825D01*
X131995018Y-81728543D01*
X131947675Y-81746201D01*
X131947670Y-81746203D01*
X131947669Y-81746204D01*
X131947667Y-81746205D01*
X131939201Y-81750827D01*
X131924746Y-81759404D01*
X131916627Y-81764623D01*
X131884090Y-81792815D01*
X131861375Y-81809820D01*
X131848877Y-81817852D01*
X131848868Y-81817860D01*
X131839147Y-81829079D01*
X131819079Y-81849147D01*
X131807860Y-81858868D01*
X131807852Y-81858877D01*
X131799820Y-81871375D01*
X131782815Y-81894090D01*
X131754623Y-81926627D01*
X131749404Y-81934746D01*
X131740827Y-81949201D01*
X131736201Y-81957675D01*
X131718543Y-82005018D01*
X131715825Y-82011578D01*
X131694836Y-82057539D01*
X131692114Y-82066808D01*
X131687966Y-82083060D01*
X131685908Y-82092521D01*
X131682302Y-82142920D01*
X131681543Y-82149978D01*
X131674353Y-82199995D01*
X131674353Y-82209688D01*
X125550500Y-82209688D01*
X125550500Y-75765500D01*
X125570207Y-75679157D01*
X125625426Y-75609916D01*
X125705218Y-75571489D01*
X125749500Y-75566500D01*
X126085750Y-75566500D01*
X126105155Y-75562639D01*
X126144231Y-75554867D01*
X126210552Y-75510552D01*
X126254867Y-75444231D01*
X126266500Y-75385748D01*
X126266500Y-74350000D01*
X127328853Y-74350000D01*
X127347405Y-74562051D01*
X127347407Y-74562062D01*
X127402495Y-74767653D01*
X127402495Y-74767654D01*
X127492455Y-74960573D01*
X127492457Y-74960577D01*
X127614548Y-75134940D01*
X127765059Y-75285451D01*
X127939422Y-75407542D01*
X127939426Y-75407544D01*
X128132345Y-75497504D01*
X128337937Y-75552592D01*
X128337942Y-75552593D01*
X128337950Y-75552595D01*
X128550000Y-75571147D01*
X128762050Y-75552595D01*
X128762059Y-75552592D01*
X128762062Y-75552592D01*
X128967653Y-75497504D01*
X128967654Y-75497504D01*
X128967654Y-75497503D01*
X128967657Y-75497503D01*
X128992863Y-75485749D01*
X135178500Y-75485749D01*
X135190133Y-75544232D01*
X135234447Y-75610552D01*
X135300767Y-75654866D01*
X135300769Y-75654867D01*
X135335983Y-75661871D01*
X135359250Y-75666500D01*
X135359252Y-75666500D01*
X137430750Y-75666500D01*
X137450155Y-75662639D01*
X137489231Y-75654867D01*
X137555552Y-75610552D01*
X137599867Y-75544231D01*
X137611500Y-75485748D01*
X137611500Y-74449999D01*
X138673853Y-74449999D01*
X138692405Y-74662051D01*
X138692407Y-74662062D01*
X138747495Y-74867653D01*
X138747495Y-74867654D01*
X138837455Y-75060573D01*
X138837457Y-75060577D01*
X138959548Y-75234940D01*
X139110059Y-75385451D01*
X139284422Y-75507542D01*
X139284426Y-75507544D01*
X139477345Y-75597504D01*
X139682937Y-75652592D01*
X139682942Y-75652593D01*
X139682950Y-75652595D01*
X139895000Y-75671147D01*
X140107050Y-75652595D01*
X140107059Y-75652592D01*
X140107062Y-75652592D01*
X140312653Y-75597504D01*
X140312654Y-75597504D01*
X140312654Y-75597503D01*
X140312657Y-75597503D01*
X140505574Y-75507544D01*
X140679938Y-75385453D01*
X140830453Y-75234938D01*
X140952544Y-75060574D01*
X141042503Y-74867657D01*
X141073915Y-74750426D01*
X141097592Y-74662062D01*
X141097592Y-74662059D01*
X141097595Y-74662050D01*
X141116147Y-74450000D01*
X141097595Y-74237950D01*
X141042503Y-74032343D01*
X140952544Y-73839427D01*
X140830453Y-73665062D01*
X140679938Y-73514547D01*
X140679937Y-73514546D01*
X140679936Y-73514545D01*
X140505577Y-73392457D01*
X140505573Y-73392455D01*
X140312654Y-73302495D01*
X140107062Y-73247407D01*
X140107051Y-73247405D01*
X139948115Y-73233500D01*
X139895000Y-73228853D01*
X139894999Y-73228853D01*
X139682948Y-73247405D01*
X139682941Y-73247407D01*
X139477342Y-73302497D01*
X139477341Y-73302497D01*
X139284427Y-73392456D01*
X139110066Y-73514543D01*
X139110058Y-73514550D01*
X138959550Y-73665058D01*
X138959543Y-73665066D01*
X138837456Y-73839427D01*
X138747497Y-74032341D01*
X138747497Y-74032342D01*
X138692407Y-74237941D01*
X138692405Y-74237948D01*
X138673853Y-74449999D01*
X137611500Y-74449999D01*
X137611500Y-73414252D01*
X137599867Y-73355769D01*
X137599866Y-73355767D01*
X137555552Y-73289447D01*
X137489232Y-73245133D01*
X137430750Y-73233500D01*
X137430748Y-73233500D01*
X135359252Y-73233500D01*
X135359250Y-73233500D01*
X135300767Y-73245133D01*
X135234447Y-73289447D01*
X135190133Y-73355767D01*
X135178500Y-73414250D01*
X135178500Y-75485749D01*
X128992863Y-75485749D01*
X129160574Y-75407544D01*
X129334938Y-75285453D01*
X129485453Y-75134938D01*
X129607544Y-74960574D01*
X129697503Y-74767657D01*
X129725800Y-74662050D01*
X129752592Y-74562062D01*
X129752592Y-74562059D01*
X129752595Y-74562050D01*
X129771147Y-74350000D01*
X129752595Y-74137950D01*
X129697503Y-73932343D01*
X129607544Y-73739427D01*
X129485453Y-73565062D01*
X129334938Y-73414547D01*
X129334937Y-73414546D01*
X129334936Y-73414545D01*
X129160577Y-73292457D01*
X129160573Y-73292455D01*
X128967654Y-73202495D01*
X128762062Y-73147407D01*
X128762051Y-73147405D01*
X128550000Y-73128853D01*
X128337948Y-73147405D01*
X128337941Y-73147407D01*
X128132342Y-73202497D01*
X128132341Y-73202497D01*
X127939427Y-73292456D01*
X127765066Y-73414543D01*
X127765058Y-73414550D01*
X127614550Y-73565058D01*
X127614543Y-73565066D01*
X127492456Y-73739427D01*
X127402497Y-73932341D01*
X127402497Y-73932342D01*
X127347407Y-74137941D01*
X127347405Y-74137948D01*
X127328853Y-74350000D01*
X126266500Y-74350000D01*
X126266500Y-73314252D01*
X126264161Y-73302495D01*
X126260834Y-73285767D01*
X126254867Y-73255769D01*
X126249280Y-73247407D01*
X126210552Y-73189447D01*
X126144232Y-73145133D01*
X126085750Y-73133500D01*
X126085748Y-73133500D01*
X124014252Y-73133500D01*
X124014250Y-73133500D01*
X123955767Y-73145133D01*
X123889447Y-73189447D01*
X123845133Y-73255767D01*
X123833500Y-73314250D01*
X123833500Y-75385749D01*
X123845133Y-75444232D01*
X123889447Y-75510552D01*
X123955767Y-75554866D01*
X123955769Y-75554867D01*
X123990984Y-75561871D01*
X124014250Y-75566500D01*
X124014252Y-75566500D01*
X124350500Y-75566500D01*
X124436843Y-75586207D01*
X124506084Y-75641426D01*
X124544511Y-75721218D01*
X124549500Y-75765500D01*
X124549499Y-82730258D01*
X124529792Y-82816601D01*
X124491213Y-82870972D01*
X124110972Y-83251214D01*
X124035984Y-83298333D01*
X123970258Y-83309500D01*
X91819826Y-83309500D01*
X91750283Y-83296953D01*
X91747484Y-83295909D01*
X91737986Y-83293842D01*
X91721587Y-83290884D01*
X91711961Y-83289500D01*
X91711960Y-83289500D01*
X91661436Y-83289500D01*
X91654335Y-83289246D01*
X91603922Y-83285640D01*
X91594245Y-83286332D01*
X91577670Y-83288115D01*
X91568039Y-83289499D01*
X91519558Y-83303734D01*
X91512693Y-83305486D01*
X91480659Y-83312455D01*
X91463297Y-83316233D01*
X91454224Y-83319617D01*
X91438756Y-83326024D01*
X91429946Y-83330047D01*
X91387433Y-83357367D01*
X91381328Y-83360989D01*
X91336976Y-83385208D01*
X91329231Y-83391007D01*
X91316164Y-83401537D01*
X91308872Y-83407856D01*
X91275773Y-83446053D01*
X91270935Y-83451250D01*
X91235207Y-83486979D01*
X91229439Y-83494683D01*
X91219828Y-83508525D01*
X91214622Y-83516626D01*
X91193633Y-83562584D01*
X91190455Y-83568933D01*
X91166234Y-83613293D01*
X91162853Y-83622357D01*
X91157559Y-83638264D01*
X91154834Y-83647543D01*
X91147645Y-83697546D01*
X91146384Y-83704535D01*
X91135640Y-83753924D01*
X91134950Y-83763584D01*
X91134353Y-83780309D01*
X91134353Y-83789998D01*
X77010000Y-83789998D01*
X77010000Y-75385749D01*
X78453500Y-75385749D01*
X78465133Y-75444232D01*
X78509447Y-75510552D01*
X78575767Y-75554866D01*
X78575769Y-75554867D01*
X78610984Y-75561871D01*
X78634250Y-75566500D01*
X78634252Y-75566500D01*
X78970500Y-75566500D01*
X79056843Y-75586207D01*
X79126084Y-75641426D01*
X79164511Y-75721218D01*
X79169500Y-75765500D01*
X79169500Y-79804792D01*
X79166332Y-79834255D01*
X79165640Y-79843924D01*
X79169246Y-79894335D01*
X79169500Y-79901436D01*
X79169500Y-79915798D01*
X79171544Y-79930018D01*
X79172302Y-79937074D01*
X79175909Y-79987483D01*
X79177968Y-79996949D01*
X79182111Y-80013181D01*
X79184835Y-80022459D01*
X79205824Y-80068417D01*
X79208542Y-80074979D01*
X79220549Y-80107170D01*
X79226048Y-80121914D01*
X79226205Y-80122333D01*
X79230845Y-80130831D01*
X79239377Y-80145211D01*
X79244623Y-80153374D01*
X79277711Y-80191559D01*
X79282170Y-80197093D01*
X79290781Y-80208596D01*
X79300933Y-80218747D01*
X79305773Y-80223946D01*
X79338872Y-80262143D01*
X79346217Y-80268507D01*
X79369273Y-80287087D01*
X80792913Y-81710727D01*
X80811507Y-81733801D01*
X80817856Y-81741128D01*
X80856046Y-81774219D01*
X80861233Y-81779047D01*
X80871407Y-81789221D01*
X80882937Y-81797852D01*
X80888429Y-81802278D01*
X80910733Y-81821605D01*
X80926625Y-81835376D01*
X80934807Y-81840633D01*
X80949156Y-81849147D01*
X80957673Y-81853798D01*
X81005021Y-81871457D01*
X81011583Y-81874175D01*
X81036943Y-81885757D01*
X81057543Y-81895165D01*
X81066883Y-81897907D01*
X81083013Y-81902024D01*
X81092513Y-81904090D01*
X81092514Y-81904090D01*
X81092517Y-81904091D01*
X81142938Y-81907697D01*
X81149973Y-81908454D01*
X81164201Y-81910500D01*
X81178564Y-81910500D01*
X81185665Y-81910754D01*
X81217958Y-81913063D01*
X81236073Y-81914359D01*
X81236073Y-81914358D01*
X81236077Y-81914359D01*
X81245754Y-81913667D01*
X81275209Y-81910500D01*
X115324791Y-81910500D01*
X115354245Y-81913667D01*
X115363922Y-81914359D01*
X115363925Y-81914358D01*
X115363927Y-81914359D01*
X115384703Y-81912872D01*
X115414335Y-81910754D01*
X115421436Y-81910500D01*
X115435798Y-81910500D01*
X115435799Y-81910500D01*
X115450026Y-81908453D01*
X115457060Y-81907697D01*
X115507483Y-81904091D01*
X115507484Y-81904090D01*
X115517014Y-81902017D01*
X115533112Y-81897908D01*
X115542453Y-81895165D01*
X115542457Y-81895165D01*
X115588459Y-81874155D01*
X115594947Y-81871468D01*
X115642331Y-81853796D01*
X115642333Y-81853793D01*
X115650887Y-81849123D01*
X115665154Y-81840658D01*
X115673365Y-81835380D01*
X115673373Y-81835377D01*
X115711567Y-81802280D01*
X115717083Y-81797836D01*
X115728593Y-81789221D01*
X115738768Y-81779044D01*
X115743936Y-81774232D01*
X115782143Y-81741128D01*
X115782145Y-81741124D01*
X115782147Y-81741123D01*
X115788510Y-81733779D01*
X115807086Y-81710727D01*
X117505729Y-80012083D01*
X117528779Y-79993510D01*
X117536123Y-79987147D01*
X117536124Y-79987145D01*
X117536128Y-79987143D01*
X117569232Y-79948936D01*
X117574044Y-79943768D01*
X117584220Y-79933594D01*
X117592842Y-79922074D01*
X117597271Y-79916577D01*
X117630377Y-79878373D01*
X117630379Y-79878366D01*
X117635651Y-79870166D01*
X117644114Y-79855902D01*
X117648794Y-79847332D01*
X117648793Y-79847332D01*
X117648795Y-79847331D01*
X117666461Y-79799965D01*
X117669167Y-79793434D01*
X117690165Y-79747457D01*
X117690165Y-79747451D01*
X117692909Y-79738110D01*
X117697012Y-79722034D01*
X117699088Y-79712488D01*
X117699091Y-79712483D01*
X117702695Y-79662071D01*
X117703455Y-79655017D01*
X117705500Y-79640797D01*
X117705500Y-79626424D01*
X117705754Y-79619324D01*
X117709358Y-79568924D01*
X117708665Y-79559243D01*
X117705500Y-79529796D01*
X117705500Y-75585649D01*
X117725207Y-75499306D01*
X117780426Y-75430065D01*
X117808496Y-75412673D01*
X117808045Y-75411891D01*
X117815569Y-75407546D01*
X117815574Y-75407544D01*
X117829914Y-75397503D01*
X117989936Y-75285455D01*
X118140451Y-75134940D01*
X118140450Y-75134940D01*
X118140453Y-75134938D01*
X118262544Y-74960574D01*
X118352503Y-74767657D01*
X118380800Y-74662050D01*
X118407592Y-74562062D01*
X118407592Y-74562059D01*
X118407595Y-74562050D01*
X118426147Y-74350000D01*
X118407595Y-74137950D01*
X118352503Y-73932343D01*
X118262544Y-73739427D01*
X118140453Y-73565062D01*
X117989938Y-73414547D01*
X117989937Y-73414546D01*
X117989936Y-73414545D01*
X117815577Y-73292457D01*
X117815573Y-73292455D01*
X117622654Y-73202495D01*
X117417062Y-73147407D01*
X117417051Y-73147405D01*
X117205000Y-73128853D01*
X116992948Y-73147405D01*
X116992941Y-73147407D01*
X116787342Y-73202497D01*
X116787341Y-73202497D01*
X116594427Y-73292456D01*
X116420066Y-73414543D01*
X116420058Y-73414550D01*
X116269550Y-73565058D01*
X116269543Y-73565066D01*
X116147456Y-73739427D01*
X116057497Y-73932341D01*
X116057497Y-73932342D01*
X116002407Y-74137941D01*
X116002405Y-74137948D01*
X115983853Y-74350000D01*
X116002405Y-74562051D01*
X116002407Y-74562062D01*
X116057495Y-74767653D01*
X116057495Y-74767654D01*
X116147455Y-74960573D01*
X116147457Y-74960577D01*
X116269548Y-75134940D01*
X116420063Y-75285455D01*
X116594419Y-75407540D01*
X116601955Y-75411891D01*
X116600754Y-75413970D01*
X116659499Y-75459613D01*
X116698934Y-75538912D01*
X116704500Y-75585649D01*
X116704500Y-79315258D01*
X116684793Y-79401601D01*
X116646214Y-79455972D01*
X115250972Y-80851214D01*
X115175984Y-80898333D01*
X115110258Y-80909500D01*
X81489742Y-80909500D01*
X81403399Y-80889793D01*
X81349028Y-80851214D01*
X80228786Y-79730972D01*
X80181667Y-79655984D01*
X80170500Y-79590258D01*
X80170500Y-75765500D01*
X80190207Y-75679157D01*
X80245426Y-75609916D01*
X80325218Y-75571489D01*
X80369500Y-75566500D01*
X80705750Y-75566500D01*
X80725155Y-75562639D01*
X80764231Y-75554867D01*
X80830552Y-75510552D01*
X80874867Y-75444231D01*
X80886500Y-75385748D01*
X80886500Y-74350000D01*
X81948853Y-74350000D01*
X81967405Y-74562051D01*
X81967407Y-74562062D01*
X82022495Y-74767653D01*
X82022495Y-74767654D01*
X82112455Y-74960573D01*
X82112457Y-74960577D01*
X82234548Y-75134940D01*
X82385059Y-75285451D01*
X82559422Y-75407542D01*
X82559426Y-75407544D01*
X82752345Y-75497504D01*
X82957937Y-75552592D01*
X82957942Y-75552593D01*
X82957950Y-75552595D01*
X83170000Y-75571147D01*
X83382050Y-75552595D01*
X83382059Y-75552592D01*
X83382062Y-75552592D01*
X83587653Y-75497504D01*
X83587654Y-75497504D01*
X83587654Y-75497503D01*
X83587657Y-75497503D01*
X83780574Y-75407544D01*
X83811700Y-75385749D01*
X89798500Y-75385749D01*
X89810133Y-75444232D01*
X89854447Y-75510552D01*
X89920767Y-75554866D01*
X89920769Y-75554867D01*
X89955983Y-75561871D01*
X89979250Y-75566500D01*
X89979252Y-75566500D01*
X92050750Y-75566500D01*
X92070155Y-75562639D01*
X92109231Y-75554867D01*
X92175552Y-75510552D01*
X92219867Y-75444231D01*
X92231500Y-75385748D01*
X92231500Y-74350000D01*
X93293853Y-74350000D01*
X93312405Y-74562051D01*
X93312407Y-74562062D01*
X93367495Y-74767653D01*
X93367495Y-74767654D01*
X93457455Y-74960573D01*
X93457457Y-74960577D01*
X93579548Y-75134940D01*
X93730059Y-75285451D01*
X93904422Y-75407542D01*
X93904426Y-75407544D01*
X94097345Y-75497504D01*
X94302937Y-75552592D01*
X94302942Y-75552593D01*
X94302950Y-75552595D01*
X94515000Y-75571147D01*
X94727050Y-75552595D01*
X94727059Y-75552592D01*
X94727062Y-75552592D01*
X94932653Y-75497504D01*
X94932654Y-75497504D01*
X94932654Y-75497503D01*
X94932657Y-75497503D01*
X95107978Y-75415749D01*
X101143500Y-75415749D01*
X101155133Y-75474232D01*
X101199447Y-75540552D01*
X101265767Y-75584866D01*
X101265769Y-75584867D01*
X101300983Y-75591871D01*
X101324250Y-75596500D01*
X101324252Y-75596500D01*
X103395750Y-75596500D01*
X103415155Y-75592639D01*
X103454231Y-75584867D01*
X103520552Y-75540552D01*
X103564867Y-75474231D01*
X103576500Y-75415748D01*
X103576500Y-74380000D01*
X104638853Y-74380000D01*
X104657405Y-74592051D01*
X104657407Y-74592062D01*
X104712495Y-74797653D01*
X104712495Y-74797654D01*
X104802455Y-74990573D01*
X104802457Y-74990577D01*
X104924548Y-75164940D01*
X105075059Y-75315451D01*
X105249422Y-75437542D01*
X105249426Y-75437544D01*
X105442345Y-75527504D01*
X105647937Y-75582592D01*
X105647942Y-75582593D01*
X105647950Y-75582595D01*
X105860000Y-75601147D01*
X106072050Y-75582595D01*
X106072059Y-75582592D01*
X106072062Y-75582592D01*
X106277653Y-75527504D01*
X106277654Y-75527504D01*
X106277654Y-75527503D01*
X106277657Y-75527503D01*
X106470574Y-75437544D01*
X106544545Y-75385749D01*
X112488500Y-75385749D01*
X112500133Y-75444232D01*
X112544447Y-75510552D01*
X112610767Y-75554866D01*
X112610769Y-75554867D01*
X112645984Y-75561871D01*
X112669250Y-75566500D01*
X112669252Y-75566500D01*
X114740750Y-75566500D01*
X114760155Y-75562639D01*
X114799231Y-75554867D01*
X114865552Y-75510552D01*
X114909867Y-75444231D01*
X114921500Y-75385748D01*
X114921500Y-73314252D01*
X114919161Y-73302495D01*
X114915834Y-73285767D01*
X114909867Y-73255769D01*
X114904280Y-73247407D01*
X114865552Y-73189447D01*
X114799232Y-73145133D01*
X114740750Y-73133500D01*
X114740748Y-73133500D01*
X112669252Y-73133500D01*
X112669250Y-73133500D01*
X112610767Y-73145133D01*
X112544447Y-73189447D01*
X112500133Y-73255767D01*
X112488500Y-73314250D01*
X112488500Y-75385749D01*
X106544545Y-75385749D01*
X106644938Y-75315453D01*
X106795453Y-75164938D01*
X106917544Y-74990574D01*
X107007503Y-74797657D01*
X107042337Y-74667653D01*
X107062592Y-74592062D01*
X107062592Y-74592059D01*
X107062595Y-74592050D01*
X107081147Y-74380000D01*
X107062595Y-74167950D01*
X107007503Y-73962343D01*
X106917544Y-73769427D01*
X106795453Y-73595062D01*
X106644938Y-73444547D01*
X106644937Y-73444546D01*
X106644936Y-73444545D01*
X106470577Y-73322457D01*
X106470573Y-73322455D01*
X106277654Y-73232495D01*
X106072062Y-73177407D01*
X106072051Y-73177405D01*
X105860000Y-73158853D01*
X105647948Y-73177405D01*
X105647941Y-73177407D01*
X105442342Y-73232497D01*
X105442341Y-73232497D01*
X105249427Y-73322456D01*
X105075066Y-73444543D01*
X105075058Y-73444550D01*
X104924550Y-73595058D01*
X104924543Y-73595066D01*
X104802456Y-73769427D01*
X104712497Y-73962341D01*
X104712497Y-73962342D01*
X104657407Y-74167941D01*
X104657405Y-74167948D01*
X104638853Y-74380000D01*
X103576500Y-74380000D01*
X103576500Y-73344252D01*
X103564867Y-73285769D01*
X103564866Y-73285767D01*
X103520552Y-73219447D01*
X103454232Y-73175133D01*
X103395750Y-73163500D01*
X103395748Y-73163500D01*
X101324252Y-73163500D01*
X101324250Y-73163500D01*
X101265767Y-73175133D01*
X101199447Y-73219447D01*
X101155133Y-73285767D01*
X101143500Y-73344250D01*
X101143500Y-75415749D01*
X95107978Y-75415749D01*
X95125574Y-75407544D01*
X95299938Y-75285453D01*
X95450453Y-75134938D01*
X95572544Y-74960574D01*
X95662503Y-74767657D01*
X95690800Y-74662050D01*
X95717592Y-74562062D01*
X95717592Y-74562059D01*
X95717595Y-74562050D01*
X95736147Y-74350000D01*
X95717595Y-74137950D01*
X95662503Y-73932343D01*
X95572544Y-73739427D01*
X95450453Y-73565062D01*
X95299938Y-73414547D01*
X95299937Y-73414546D01*
X95299936Y-73414545D01*
X95125577Y-73292457D01*
X95125573Y-73292455D01*
X94932654Y-73202495D01*
X94727062Y-73147407D01*
X94727051Y-73147405D01*
X94568115Y-73133500D01*
X94515000Y-73128853D01*
X94514999Y-73128853D01*
X94302948Y-73147405D01*
X94302941Y-73147407D01*
X94097342Y-73202497D01*
X94097341Y-73202497D01*
X93904427Y-73292456D01*
X93730066Y-73414543D01*
X93730058Y-73414550D01*
X93579550Y-73565058D01*
X93579543Y-73565066D01*
X93457456Y-73739427D01*
X93367497Y-73932341D01*
X93367497Y-73932342D01*
X93312407Y-74137941D01*
X93312405Y-74137948D01*
X93293853Y-74350000D01*
X92231500Y-74350000D01*
X92231500Y-73314252D01*
X92229161Y-73302495D01*
X92225834Y-73285767D01*
X92219867Y-73255769D01*
X92214280Y-73247407D01*
X92175552Y-73189447D01*
X92109232Y-73145133D01*
X92050750Y-73133500D01*
X92050748Y-73133500D01*
X89979252Y-73133500D01*
X89979250Y-73133500D01*
X89920767Y-73145133D01*
X89854447Y-73189447D01*
X89810133Y-73255767D01*
X89798500Y-73314250D01*
X89798500Y-75385749D01*
X83811700Y-75385749D01*
X83954938Y-75285453D01*
X84105453Y-75134938D01*
X84227544Y-74960574D01*
X84317503Y-74767657D01*
X84345800Y-74662050D01*
X84372592Y-74562062D01*
X84372592Y-74562059D01*
X84372595Y-74562050D01*
X84391147Y-74350000D01*
X84372595Y-74137950D01*
X84317503Y-73932343D01*
X84227544Y-73739427D01*
X84105453Y-73565062D01*
X83954938Y-73414547D01*
X83954937Y-73414546D01*
X83954936Y-73414545D01*
X83780577Y-73292457D01*
X83780573Y-73292455D01*
X83587654Y-73202495D01*
X83382062Y-73147407D01*
X83382051Y-73147405D01*
X83170000Y-73128853D01*
X82957948Y-73147405D01*
X82957941Y-73147407D01*
X82752342Y-73202497D01*
X82752341Y-73202497D01*
X82559427Y-73292456D01*
X82385066Y-73414543D01*
X82385058Y-73414550D01*
X82234550Y-73565058D01*
X82234543Y-73565066D01*
X82112456Y-73739427D01*
X82022497Y-73932341D01*
X82022497Y-73932342D01*
X81967407Y-74137941D01*
X81967405Y-74137948D01*
X81948853Y-74350000D01*
X80886500Y-74350000D01*
X80886500Y-73314252D01*
X80884161Y-73302495D01*
X80880834Y-73285767D01*
X80874867Y-73255769D01*
X80869280Y-73247407D01*
X80830552Y-73189447D01*
X80764232Y-73145133D01*
X80705750Y-73133500D01*
X80705748Y-73133500D01*
X78634252Y-73133500D01*
X78634250Y-73133500D01*
X78575767Y-73145133D01*
X78509447Y-73189447D01*
X78465133Y-73255767D01*
X78453500Y-73314250D01*
X78453500Y-75385749D01*
X77010000Y-75385749D01*
X77010000Y-70229000D01*
X77029707Y-70142657D01*
X77084926Y-70073416D01*
X77164718Y-70034989D01*
X77209000Y-70030000D01*
X176800500Y-70030000D01*
X176886843Y-70049707D01*
G37*
G04 #@! TD.AperFunction*
M02*
