%TF.GenerationSoftware,KiCad,Pcbnew,7.0.6*%
%TF.CreationDate,2024-06-10T15:38:22+10:00*%
%TF.ProjectId,AnalogVoltMeterClock,416e616c-6f67-4566-9f6c-744d65746572,rev?*%
%TF.SameCoordinates,Original*%
%TF.FileFunction,Drillmap*%
%TF.FilePolarity,Positive*%
%FSLAX45Y45*%
G04 Gerber Fmt 4.5, Leading zero omitted, Abs format (unit mm)*
G04 Created by KiCad (PCBNEW 7.0.6) date 2024-06-10 15:38:22*
%MOMM*%
%LPD*%
G01*
G04 APERTURE LIST*
%ADD10C,0.100000*%
%ADD11C,0.200000*%
%ADD12C,0.030000*%
%ADD13C,0.300000*%
G04 APERTURE END LIST*
D10*
X7700000Y-7000000D02*
X17700000Y-7000000D01*
X7700000Y-13000000D02*
X17700000Y-13000000D01*
X7700000Y-7000000D02*
X7700000Y-13000000D01*
X17700000Y-7000000D02*
X17700000Y-13000000D01*
D11*
D12*
X13518000Y-12720000D02*
X13548000Y-12750000D01*
X13548000Y-12720000D02*
X13518000Y-12750000D01*
D11*
X13548000Y-12760000D02*
X13548000Y-12710000D01*
X13548000Y-12710000D02*
G75*
G03*
X13518000Y-12710000I-15000J0D01*
G01*
X13518000Y-12710000D02*
X13518000Y-12760000D01*
X13518000Y-12760000D02*
G75*
G03*
X13548000Y-12760000I15000J0D01*
G01*
D12*
X13519500Y-12341250D02*
X13549500Y-12371250D01*
X13549500Y-12341250D02*
X13519500Y-12371250D01*
D11*
X13549500Y-12381250D02*
X13549500Y-12331250D01*
X13549500Y-12331250D02*
G75*
G03*
X13519500Y-12331250I-15000J0D01*
G01*
X13519500Y-12331250D02*
X13519500Y-12381250D01*
X13519500Y-12381250D02*
G75*
G03*
X13549500Y-12381250I15000J0D01*
G01*
D12*
X14364500Y-12341250D02*
X14394500Y-12371250D01*
X14394500Y-12341250D02*
X14364500Y-12371250D01*
D11*
X14394500Y-12381250D02*
X14394500Y-12331250D01*
X14394500Y-12331250D02*
G75*
G03*
X14364500Y-12331250I-15000J0D01*
G01*
X14364500Y-12331250D02*
X14364500Y-12381250D01*
X14364500Y-12381250D02*
G75*
G03*
X14394500Y-12381250I15000J0D01*
G01*
D12*
X14366000Y-12720000D02*
X14396000Y-12750000D01*
X14396000Y-12720000D02*
X14366000Y-12750000D01*
D11*
X14396000Y-12760000D02*
X14396000Y-12710000D01*
X14396000Y-12710000D02*
G75*
G03*
X14366000Y-12710000I-15000J0D01*
G01*
X14366000Y-12710000D02*
X14366000Y-12760000D01*
X14366000Y-12760000D02*
G75*
G03*
X14396000Y-12760000I15000J0D01*
G01*
D13*
X8250000Y-12585000D02*
G75*
G03*
X8250000Y-12585000I-150000J0D01*
G01*
X17450000Y-12585000D02*
G75*
G03*
X17450000Y-12585000I-150000J0D01*
G01*
D11*
X7955777Y-13316484D02*
X7955777Y-13116484D01*
X7955777Y-13116484D02*
X8003396Y-13116484D01*
X8003396Y-13116484D02*
X8031967Y-13126008D01*
X8031967Y-13126008D02*
X8051015Y-13145055D01*
X8051015Y-13145055D02*
X8060539Y-13164103D01*
X8060539Y-13164103D02*
X8070062Y-13202198D01*
X8070062Y-13202198D02*
X8070062Y-13230769D01*
X8070062Y-13230769D02*
X8060539Y-13268865D01*
X8060539Y-13268865D02*
X8051015Y-13287912D01*
X8051015Y-13287912D02*
X8031967Y-13306960D01*
X8031967Y-13306960D02*
X8003396Y-13316484D01*
X8003396Y-13316484D02*
X7955777Y-13316484D01*
X8155777Y-13316484D02*
X8155777Y-13183150D01*
X8155777Y-13221246D02*
X8165301Y-13202198D01*
X8165301Y-13202198D02*
X8174824Y-13192674D01*
X8174824Y-13192674D02*
X8193872Y-13183150D01*
X8193872Y-13183150D02*
X8212920Y-13183150D01*
X8279586Y-13316484D02*
X8279586Y-13183150D01*
X8279586Y-13116484D02*
X8270062Y-13126008D01*
X8270062Y-13126008D02*
X8279586Y-13135531D01*
X8279586Y-13135531D02*
X8289110Y-13126008D01*
X8289110Y-13126008D02*
X8279586Y-13116484D01*
X8279586Y-13116484D02*
X8279586Y-13135531D01*
X8403396Y-13316484D02*
X8384348Y-13306960D01*
X8384348Y-13306960D02*
X8374824Y-13287912D01*
X8374824Y-13287912D02*
X8374824Y-13116484D01*
X8508158Y-13316484D02*
X8489110Y-13306960D01*
X8489110Y-13306960D02*
X8479586Y-13287912D01*
X8479586Y-13287912D02*
X8479586Y-13116484D01*
X8736729Y-13316484D02*
X8736729Y-13116484D01*
X8736729Y-13116484D02*
X8803396Y-13259341D01*
X8803396Y-13259341D02*
X8870063Y-13116484D01*
X8870063Y-13116484D02*
X8870063Y-13316484D01*
X9051015Y-13316484D02*
X9051015Y-13211722D01*
X9051015Y-13211722D02*
X9041491Y-13192674D01*
X9041491Y-13192674D02*
X9022444Y-13183150D01*
X9022444Y-13183150D02*
X8984348Y-13183150D01*
X8984348Y-13183150D02*
X8965301Y-13192674D01*
X9051015Y-13306960D02*
X9031967Y-13316484D01*
X9031967Y-13316484D02*
X8984348Y-13316484D01*
X8984348Y-13316484D02*
X8965301Y-13306960D01*
X8965301Y-13306960D02*
X8955777Y-13287912D01*
X8955777Y-13287912D02*
X8955777Y-13268865D01*
X8955777Y-13268865D02*
X8965301Y-13249817D01*
X8965301Y-13249817D02*
X8984348Y-13240293D01*
X8984348Y-13240293D02*
X9031967Y-13240293D01*
X9031967Y-13240293D02*
X9051015Y-13230769D01*
X9146253Y-13183150D02*
X9146253Y-13383150D01*
X9146253Y-13192674D02*
X9165301Y-13183150D01*
X9165301Y-13183150D02*
X9203396Y-13183150D01*
X9203396Y-13183150D02*
X9222444Y-13192674D01*
X9222444Y-13192674D02*
X9231967Y-13202198D01*
X9231967Y-13202198D02*
X9241491Y-13221246D01*
X9241491Y-13221246D02*
X9241491Y-13278388D01*
X9241491Y-13278388D02*
X9231967Y-13297436D01*
X9231967Y-13297436D02*
X9222444Y-13306960D01*
X9222444Y-13306960D02*
X9203396Y-13316484D01*
X9203396Y-13316484D02*
X9165301Y-13316484D01*
X9165301Y-13316484D02*
X9146253Y-13306960D01*
X9327205Y-13297436D02*
X9336729Y-13306960D01*
X9336729Y-13306960D02*
X9327205Y-13316484D01*
X9327205Y-13316484D02*
X9317682Y-13306960D01*
X9317682Y-13306960D02*
X9327205Y-13297436D01*
X9327205Y-13297436D02*
X9327205Y-13316484D01*
X9327205Y-13192674D02*
X9336729Y-13202198D01*
X9336729Y-13202198D02*
X9327205Y-13211722D01*
X9327205Y-13211722D02*
X9317682Y-13202198D01*
X9317682Y-13202198D02*
X9327205Y-13192674D01*
X9327205Y-13192674D02*
X9327205Y-13211722D01*
D12*
X7665000Y-13630000D02*
X7695000Y-13660000D01*
X7695000Y-13630000D02*
X7665000Y-13660000D01*
D11*
X7993872Y-13536484D02*
X8012920Y-13536484D01*
X8012920Y-13536484D02*
X8031967Y-13546008D01*
X8031967Y-13546008D02*
X8041491Y-13555531D01*
X8041491Y-13555531D02*
X8051015Y-13574579D01*
X8051015Y-13574579D02*
X8060539Y-13612674D01*
X8060539Y-13612674D02*
X8060539Y-13660293D01*
X8060539Y-13660293D02*
X8051015Y-13698388D01*
X8051015Y-13698388D02*
X8041491Y-13717436D01*
X8041491Y-13717436D02*
X8031967Y-13726960D01*
X8031967Y-13726960D02*
X8012920Y-13736484D01*
X8012920Y-13736484D02*
X7993872Y-13736484D01*
X7993872Y-13736484D02*
X7974824Y-13726960D01*
X7974824Y-13726960D02*
X7965301Y-13717436D01*
X7965301Y-13717436D02*
X7955777Y-13698388D01*
X7955777Y-13698388D02*
X7946253Y-13660293D01*
X7946253Y-13660293D02*
X7946253Y-13612674D01*
X7946253Y-13612674D02*
X7955777Y-13574579D01*
X7955777Y-13574579D02*
X7965301Y-13555531D01*
X7965301Y-13555531D02*
X7974824Y-13546008D01*
X7974824Y-13546008D02*
X7993872Y-13536484D01*
X8146253Y-13717436D02*
X8155777Y-13726960D01*
X8155777Y-13726960D02*
X8146253Y-13736484D01*
X8146253Y-13736484D02*
X8136729Y-13726960D01*
X8136729Y-13726960D02*
X8146253Y-13717436D01*
X8146253Y-13717436D02*
X8146253Y-13736484D01*
X8222443Y-13536484D02*
X8346253Y-13536484D01*
X8346253Y-13536484D02*
X8279586Y-13612674D01*
X8279586Y-13612674D02*
X8308158Y-13612674D01*
X8308158Y-13612674D02*
X8327205Y-13622198D01*
X8327205Y-13622198D02*
X8336729Y-13631722D01*
X8336729Y-13631722D02*
X8346253Y-13650769D01*
X8346253Y-13650769D02*
X8346253Y-13698388D01*
X8346253Y-13698388D02*
X8336729Y-13717436D01*
X8336729Y-13717436D02*
X8327205Y-13726960D01*
X8327205Y-13726960D02*
X8308158Y-13736484D01*
X8308158Y-13736484D02*
X8251015Y-13736484D01*
X8251015Y-13736484D02*
X8231967Y-13726960D01*
X8231967Y-13726960D02*
X8222443Y-13717436D01*
X8470063Y-13536484D02*
X8489110Y-13536484D01*
X8489110Y-13536484D02*
X8508158Y-13546008D01*
X8508158Y-13546008D02*
X8517682Y-13555531D01*
X8517682Y-13555531D02*
X8527205Y-13574579D01*
X8527205Y-13574579D02*
X8536729Y-13612674D01*
X8536729Y-13612674D02*
X8536729Y-13660293D01*
X8536729Y-13660293D02*
X8527205Y-13698388D01*
X8527205Y-13698388D02*
X8517682Y-13717436D01*
X8517682Y-13717436D02*
X8508158Y-13726960D01*
X8508158Y-13726960D02*
X8489110Y-13736484D01*
X8489110Y-13736484D02*
X8470063Y-13736484D01*
X8470063Y-13736484D02*
X8451015Y-13726960D01*
X8451015Y-13726960D02*
X8441491Y-13717436D01*
X8441491Y-13717436D02*
X8431967Y-13698388D01*
X8431967Y-13698388D02*
X8422444Y-13660293D01*
X8422444Y-13660293D02*
X8422444Y-13612674D01*
X8422444Y-13612674D02*
X8431967Y-13574579D01*
X8431967Y-13574579D02*
X8441491Y-13555531D01*
X8441491Y-13555531D02*
X8451015Y-13546008D01*
X8451015Y-13546008D02*
X8470063Y-13536484D01*
X8660539Y-13536484D02*
X8679586Y-13536484D01*
X8679586Y-13536484D02*
X8698634Y-13546008D01*
X8698634Y-13546008D02*
X8708158Y-13555531D01*
X8708158Y-13555531D02*
X8717682Y-13574579D01*
X8717682Y-13574579D02*
X8727205Y-13612674D01*
X8727205Y-13612674D02*
X8727205Y-13660293D01*
X8727205Y-13660293D02*
X8717682Y-13698388D01*
X8717682Y-13698388D02*
X8708158Y-13717436D01*
X8708158Y-13717436D02*
X8698634Y-13726960D01*
X8698634Y-13726960D02*
X8679586Y-13736484D01*
X8679586Y-13736484D02*
X8660539Y-13736484D01*
X8660539Y-13736484D02*
X8641491Y-13726960D01*
X8641491Y-13726960D02*
X8631967Y-13717436D01*
X8631967Y-13717436D02*
X8622444Y-13698388D01*
X8622444Y-13698388D02*
X8612920Y-13660293D01*
X8612920Y-13660293D02*
X8612920Y-13612674D01*
X8612920Y-13612674D02*
X8622444Y-13574579D01*
X8622444Y-13574579D02*
X8631967Y-13555531D01*
X8631967Y-13555531D02*
X8641491Y-13546008D01*
X8641491Y-13546008D02*
X8660539Y-13536484D01*
X8812920Y-13736484D02*
X8812920Y-13603150D01*
X8812920Y-13622198D02*
X8822444Y-13612674D01*
X8822444Y-13612674D02*
X8841491Y-13603150D01*
X8841491Y-13603150D02*
X8870063Y-13603150D01*
X8870063Y-13603150D02*
X8889110Y-13612674D01*
X8889110Y-13612674D02*
X8898634Y-13631722D01*
X8898634Y-13631722D02*
X8898634Y-13736484D01*
X8898634Y-13631722D02*
X8908158Y-13612674D01*
X8908158Y-13612674D02*
X8927205Y-13603150D01*
X8927205Y-13603150D02*
X8955777Y-13603150D01*
X8955777Y-13603150D02*
X8974825Y-13612674D01*
X8974825Y-13612674D02*
X8984348Y-13631722D01*
X8984348Y-13631722D02*
X8984348Y-13736484D01*
X9079586Y-13736484D02*
X9079586Y-13603150D01*
X9079586Y-13622198D02*
X9089110Y-13612674D01*
X9089110Y-13612674D02*
X9108158Y-13603150D01*
X9108158Y-13603150D02*
X9136729Y-13603150D01*
X9136729Y-13603150D02*
X9155777Y-13612674D01*
X9155777Y-13612674D02*
X9165301Y-13631722D01*
X9165301Y-13631722D02*
X9165301Y-13736484D01*
X9165301Y-13631722D02*
X9174825Y-13612674D01*
X9174825Y-13612674D02*
X9193872Y-13603150D01*
X9193872Y-13603150D02*
X9222444Y-13603150D01*
X9222444Y-13603150D02*
X9241491Y-13612674D01*
X9241491Y-13612674D02*
X9251015Y-13631722D01*
X9251015Y-13631722D02*
X9251015Y-13736484D01*
X9641491Y-13526960D02*
X9470063Y-13784103D01*
X9898634Y-13536484D02*
X9917682Y-13536484D01*
X9917682Y-13536484D02*
X9936729Y-13546008D01*
X9936729Y-13546008D02*
X9946253Y-13555531D01*
X9946253Y-13555531D02*
X9955777Y-13574579D01*
X9955777Y-13574579D02*
X9965301Y-13612674D01*
X9965301Y-13612674D02*
X9965301Y-13660293D01*
X9965301Y-13660293D02*
X9955777Y-13698388D01*
X9955777Y-13698388D02*
X9946253Y-13717436D01*
X9946253Y-13717436D02*
X9936729Y-13726960D01*
X9936729Y-13726960D02*
X9917682Y-13736484D01*
X9917682Y-13736484D02*
X9898634Y-13736484D01*
X9898634Y-13736484D02*
X9879587Y-13726960D01*
X9879587Y-13726960D02*
X9870063Y-13717436D01*
X9870063Y-13717436D02*
X9860539Y-13698388D01*
X9860539Y-13698388D02*
X9851015Y-13660293D01*
X9851015Y-13660293D02*
X9851015Y-13612674D01*
X9851015Y-13612674D02*
X9860539Y-13574579D01*
X9860539Y-13574579D02*
X9870063Y-13555531D01*
X9870063Y-13555531D02*
X9879587Y-13546008D01*
X9879587Y-13546008D02*
X9898634Y-13536484D01*
X10051015Y-13717436D02*
X10060539Y-13726960D01*
X10060539Y-13726960D02*
X10051015Y-13736484D01*
X10051015Y-13736484D02*
X10041491Y-13726960D01*
X10041491Y-13726960D02*
X10051015Y-13717436D01*
X10051015Y-13717436D02*
X10051015Y-13736484D01*
X10184348Y-13536484D02*
X10203396Y-13536484D01*
X10203396Y-13536484D02*
X10222444Y-13546008D01*
X10222444Y-13546008D02*
X10231968Y-13555531D01*
X10231968Y-13555531D02*
X10241491Y-13574579D01*
X10241491Y-13574579D02*
X10251015Y-13612674D01*
X10251015Y-13612674D02*
X10251015Y-13660293D01*
X10251015Y-13660293D02*
X10241491Y-13698388D01*
X10241491Y-13698388D02*
X10231968Y-13717436D01*
X10231968Y-13717436D02*
X10222444Y-13726960D01*
X10222444Y-13726960D02*
X10203396Y-13736484D01*
X10203396Y-13736484D02*
X10184348Y-13736484D01*
X10184348Y-13736484D02*
X10165301Y-13726960D01*
X10165301Y-13726960D02*
X10155777Y-13717436D01*
X10155777Y-13717436D02*
X10146253Y-13698388D01*
X10146253Y-13698388D02*
X10136729Y-13660293D01*
X10136729Y-13660293D02*
X10136729Y-13612674D01*
X10136729Y-13612674D02*
X10146253Y-13574579D01*
X10146253Y-13574579D02*
X10155777Y-13555531D01*
X10155777Y-13555531D02*
X10165301Y-13546008D01*
X10165301Y-13546008D02*
X10184348Y-13536484D01*
X10441491Y-13736484D02*
X10327206Y-13736484D01*
X10384348Y-13736484D02*
X10384348Y-13536484D01*
X10384348Y-13536484D02*
X10365301Y-13565055D01*
X10365301Y-13565055D02*
X10346253Y-13584103D01*
X10346253Y-13584103D02*
X10327206Y-13593627D01*
X10631968Y-13736484D02*
X10517682Y-13736484D01*
X10574825Y-13736484D02*
X10574825Y-13536484D01*
X10574825Y-13536484D02*
X10555777Y-13565055D01*
X10555777Y-13565055D02*
X10536729Y-13584103D01*
X10536729Y-13584103D02*
X10517682Y-13593627D01*
X10746253Y-13622198D02*
X10727206Y-13612674D01*
X10727206Y-13612674D02*
X10717682Y-13603150D01*
X10717682Y-13603150D02*
X10708158Y-13584103D01*
X10708158Y-13584103D02*
X10708158Y-13574579D01*
X10708158Y-13574579D02*
X10717682Y-13555531D01*
X10717682Y-13555531D02*
X10727206Y-13546008D01*
X10727206Y-13546008D02*
X10746253Y-13536484D01*
X10746253Y-13536484D02*
X10784349Y-13536484D01*
X10784349Y-13536484D02*
X10803396Y-13546008D01*
X10803396Y-13546008D02*
X10812920Y-13555531D01*
X10812920Y-13555531D02*
X10822444Y-13574579D01*
X10822444Y-13574579D02*
X10822444Y-13584103D01*
X10822444Y-13584103D02*
X10812920Y-13603150D01*
X10812920Y-13603150D02*
X10803396Y-13612674D01*
X10803396Y-13612674D02*
X10784349Y-13622198D01*
X10784349Y-13622198D02*
X10746253Y-13622198D01*
X10746253Y-13622198D02*
X10727206Y-13631722D01*
X10727206Y-13631722D02*
X10717682Y-13641246D01*
X10717682Y-13641246D02*
X10708158Y-13660293D01*
X10708158Y-13660293D02*
X10708158Y-13698388D01*
X10708158Y-13698388D02*
X10717682Y-13717436D01*
X10717682Y-13717436D02*
X10727206Y-13726960D01*
X10727206Y-13726960D02*
X10746253Y-13736484D01*
X10746253Y-13736484D02*
X10784349Y-13736484D01*
X10784349Y-13736484D02*
X10803396Y-13726960D01*
X10803396Y-13726960D02*
X10812920Y-13717436D01*
X10812920Y-13717436D02*
X10822444Y-13698388D01*
X10822444Y-13698388D02*
X10822444Y-13660293D01*
X10822444Y-13660293D02*
X10812920Y-13641246D01*
X10812920Y-13641246D02*
X10803396Y-13631722D01*
X10803396Y-13631722D02*
X10784349Y-13622198D01*
X10898634Y-13536484D02*
X10898634Y-13574579D01*
X10974825Y-13536484D02*
X10974825Y-13574579D01*
X11270063Y-13812674D02*
X11260539Y-13803150D01*
X11260539Y-13803150D02*
X11241491Y-13774579D01*
X11241491Y-13774579D02*
X11231968Y-13755531D01*
X11231968Y-13755531D02*
X11222444Y-13726960D01*
X11222444Y-13726960D02*
X11212920Y-13679341D01*
X11212920Y-13679341D02*
X11212920Y-13641246D01*
X11212920Y-13641246D02*
X11222444Y-13593627D01*
X11222444Y-13593627D02*
X11231968Y-13565055D01*
X11231968Y-13565055D02*
X11241491Y-13546008D01*
X11241491Y-13546008D02*
X11260539Y-13517436D01*
X11260539Y-13517436D02*
X11270063Y-13507912D01*
X11384348Y-13536484D02*
X11403396Y-13536484D01*
X11403396Y-13536484D02*
X11422444Y-13546008D01*
X11422444Y-13546008D02*
X11431968Y-13555531D01*
X11431968Y-13555531D02*
X11441491Y-13574579D01*
X11441491Y-13574579D02*
X11451015Y-13612674D01*
X11451015Y-13612674D02*
X11451015Y-13660293D01*
X11451015Y-13660293D02*
X11441491Y-13698388D01*
X11441491Y-13698388D02*
X11431968Y-13717436D01*
X11431968Y-13717436D02*
X11422444Y-13726960D01*
X11422444Y-13726960D02*
X11403396Y-13736484D01*
X11403396Y-13736484D02*
X11384348Y-13736484D01*
X11384348Y-13736484D02*
X11365301Y-13726960D01*
X11365301Y-13726960D02*
X11355777Y-13717436D01*
X11355777Y-13717436D02*
X11346253Y-13698388D01*
X11346253Y-13698388D02*
X11336729Y-13660293D01*
X11336729Y-13660293D02*
X11336729Y-13612674D01*
X11336729Y-13612674D02*
X11346253Y-13574579D01*
X11346253Y-13574579D02*
X11355777Y-13555531D01*
X11355777Y-13555531D02*
X11365301Y-13546008D01*
X11365301Y-13546008D02*
X11384348Y-13536484D01*
X11689110Y-13736484D02*
X11689110Y-13536484D01*
X11774825Y-13736484D02*
X11774825Y-13631722D01*
X11774825Y-13631722D02*
X11765301Y-13612674D01*
X11765301Y-13612674D02*
X11746253Y-13603150D01*
X11746253Y-13603150D02*
X11717682Y-13603150D01*
X11717682Y-13603150D02*
X11698634Y-13612674D01*
X11698634Y-13612674D02*
X11689110Y-13622198D01*
X11898634Y-13736484D02*
X11879587Y-13726960D01*
X11879587Y-13726960D02*
X11870063Y-13717436D01*
X11870063Y-13717436D02*
X11860539Y-13698388D01*
X11860539Y-13698388D02*
X11860539Y-13641246D01*
X11860539Y-13641246D02*
X11870063Y-13622198D01*
X11870063Y-13622198D02*
X11879587Y-13612674D01*
X11879587Y-13612674D02*
X11898634Y-13603150D01*
X11898634Y-13603150D02*
X11927206Y-13603150D01*
X11927206Y-13603150D02*
X11946253Y-13612674D01*
X11946253Y-13612674D02*
X11955777Y-13622198D01*
X11955777Y-13622198D02*
X11965301Y-13641246D01*
X11965301Y-13641246D02*
X11965301Y-13698388D01*
X11965301Y-13698388D02*
X11955777Y-13717436D01*
X11955777Y-13717436D02*
X11946253Y-13726960D01*
X11946253Y-13726960D02*
X11927206Y-13736484D01*
X11927206Y-13736484D02*
X11898634Y-13736484D01*
X12079587Y-13736484D02*
X12060539Y-13726960D01*
X12060539Y-13726960D02*
X12051015Y-13707912D01*
X12051015Y-13707912D02*
X12051015Y-13536484D01*
X12231968Y-13726960D02*
X12212920Y-13736484D01*
X12212920Y-13736484D02*
X12174825Y-13736484D01*
X12174825Y-13736484D02*
X12155777Y-13726960D01*
X12155777Y-13726960D02*
X12146253Y-13707912D01*
X12146253Y-13707912D02*
X12146253Y-13631722D01*
X12146253Y-13631722D02*
X12155777Y-13612674D01*
X12155777Y-13612674D02*
X12174825Y-13603150D01*
X12174825Y-13603150D02*
X12212920Y-13603150D01*
X12212920Y-13603150D02*
X12231968Y-13612674D01*
X12231968Y-13612674D02*
X12241491Y-13631722D01*
X12241491Y-13631722D02*
X12241491Y-13650769D01*
X12241491Y-13650769D02*
X12146253Y-13669817D01*
X12317682Y-13726960D02*
X12336730Y-13736484D01*
X12336730Y-13736484D02*
X12374825Y-13736484D01*
X12374825Y-13736484D02*
X12393872Y-13726960D01*
X12393872Y-13726960D02*
X12403396Y-13707912D01*
X12403396Y-13707912D02*
X12403396Y-13698388D01*
X12403396Y-13698388D02*
X12393872Y-13679341D01*
X12393872Y-13679341D02*
X12374825Y-13669817D01*
X12374825Y-13669817D02*
X12346253Y-13669817D01*
X12346253Y-13669817D02*
X12327206Y-13660293D01*
X12327206Y-13660293D02*
X12317682Y-13641246D01*
X12317682Y-13641246D02*
X12317682Y-13631722D01*
X12317682Y-13631722D02*
X12327206Y-13612674D01*
X12327206Y-13612674D02*
X12346253Y-13603150D01*
X12346253Y-13603150D02*
X12374825Y-13603150D01*
X12374825Y-13603150D02*
X12393872Y-13612674D01*
X12641492Y-13660293D02*
X12793873Y-13660293D01*
X12717682Y-13736484D02*
X12717682Y-13584103D01*
X13127206Y-13603150D02*
X13127206Y-13736484D01*
X13079587Y-13526960D02*
X13031968Y-13669817D01*
X13031968Y-13669817D02*
X13155777Y-13669817D01*
X13374825Y-13726960D02*
X13393873Y-13736484D01*
X13393873Y-13736484D02*
X13431968Y-13736484D01*
X13431968Y-13736484D02*
X13451015Y-13726960D01*
X13451015Y-13726960D02*
X13460539Y-13707912D01*
X13460539Y-13707912D02*
X13460539Y-13698388D01*
X13460539Y-13698388D02*
X13451015Y-13679341D01*
X13451015Y-13679341D02*
X13431968Y-13669817D01*
X13431968Y-13669817D02*
X13403396Y-13669817D01*
X13403396Y-13669817D02*
X13384349Y-13660293D01*
X13384349Y-13660293D02*
X13374825Y-13641246D01*
X13374825Y-13641246D02*
X13374825Y-13631722D01*
X13374825Y-13631722D02*
X13384349Y-13612674D01*
X13384349Y-13612674D02*
X13403396Y-13603150D01*
X13403396Y-13603150D02*
X13431968Y-13603150D01*
X13431968Y-13603150D02*
X13451015Y-13612674D01*
X13574825Y-13736484D02*
X13555777Y-13726960D01*
X13555777Y-13726960D02*
X13546254Y-13707912D01*
X13546254Y-13707912D02*
X13546254Y-13536484D01*
X13679587Y-13736484D02*
X13660539Y-13726960D01*
X13660539Y-13726960D02*
X13651015Y-13717436D01*
X13651015Y-13717436D02*
X13641492Y-13698388D01*
X13641492Y-13698388D02*
X13641492Y-13641246D01*
X13641492Y-13641246D02*
X13651015Y-13622198D01*
X13651015Y-13622198D02*
X13660539Y-13612674D01*
X13660539Y-13612674D02*
X13679587Y-13603150D01*
X13679587Y-13603150D02*
X13708158Y-13603150D01*
X13708158Y-13603150D02*
X13727206Y-13612674D01*
X13727206Y-13612674D02*
X13736730Y-13622198D01*
X13736730Y-13622198D02*
X13746254Y-13641246D01*
X13746254Y-13641246D02*
X13746254Y-13698388D01*
X13746254Y-13698388D02*
X13736730Y-13717436D01*
X13736730Y-13717436D02*
X13727206Y-13726960D01*
X13727206Y-13726960D02*
X13708158Y-13736484D01*
X13708158Y-13736484D02*
X13679587Y-13736484D01*
X13803396Y-13603150D02*
X13879587Y-13603150D01*
X13831968Y-13536484D02*
X13831968Y-13707912D01*
X13831968Y-13707912D02*
X13841492Y-13726960D01*
X13841492Y-13726960D02*
X13860539Y-13736484D01*
X13860539Y-13736484D02*
X13879587Y-13736484D01*
X13936730Y-13726960D02*
X13955777Y-13736484D01*
X13955777Y-13736484D02*
X13993873Y-13736484D01*
X13993873Y-13736484D02*
X14012920Y-13726960D01*
X14012920Y-13726960D02*
X14022444Y-13707912D01*
X14022444Y-13707912D02*
X14022444Y-13698388D01*
X14022444Y-13698388D02*
X14012920Y-13679341D01*
X14012920Y-13679341D02*
X13993873Y-13669817D01*
X13993873Y-13669817D02*
X13965301Y-13669817D01*
X13965301Y-13669817D02*
X13946254Y-13660293D01*
X13946254Y-13660293D02*
X13936730Y-13641246D01*
X13936730Y-13641246D02*
X13936730Y-13631722D01*
X13936730Y-13631722D02*
X13946254Y-13612674D01*
X13946254Y-13612674D02*
X13965301Y-13603150D01*
X13965301Y-13603150D02*
X13993873Y-13603150D01*
X13993873Y-13603150D02*
X14012920Y-13612674D01*
X14089111Y-13812674D02*
X14098635Y-13803150D01*
X14098635Y-13803150D02*
X14117682Y-13774579D01*
X14117682Y-13774579D02*
X14127206Y-13755531D01*
X14127206Y-13755531D02*
X14136730Y-13726960D01*
X14136730Y-13726960D02*
X14146254Y-13679341D01*
X14146254Y-13679341D02*
X14146254Y-13641246D01*
X14146254Y-13641246D02*
X14136730Y-13593627D01*
X14136730Y-13593627D02*
X14127206Y-13565055D01*
X14127206Y-13565055D02*
X14117682Y-13546008D01*
X14117682Y-13546008D02*
X14098635Y-13517436D01*
X14098635Y-13517436D02*
X14089111Y-13507912D01*
X14451016Y-13812674D02*
X14441492Y-13803150D01*
X14441492Y-13803150D02*
X14422444Y-13774579D01*
X14422444Y-13774579D02*
X14412920Y-13755531D01*
X14412920Y-13755531D02*
X14403396Y-13726960D01*
X14403396Y-13726960D02*
X14393873Y-13679341D01*
X14393873Y-13679341D02*
X14393873Y-13641246D01*
X14393873Y-13641246D02*
X14403396Y-13593627D01*
X14403396Y-13593627D02*
X14412920Y-13565055D01*
X14412920Y-13565055D02*
X14422444Y-13546008D01*
X14422444Y-13546008D02*
X14441492Y-13517436D01*
X14441492Y-13517436D02*
X14451016Y-13507912D01*
X14527206Y-13603150D02*
X14527206Y-13736484D01*
X14527206Y-13622198D02*
X14536730Y-13612674D01*
X14536730Y-13612674D02*
X14555777Y-13603150D01*
X14555777Y-13603150D02*
X14584349Y-13603150D01*
X14584349Y-13603150D02*
X14603396Y-13612674D01*
X14603396Y-13612674D02*
X14612920Y-13631722D01*
X14612920Y-13631722D02*
X14612920Y-13736484D01*
X14736730Y-13736484D02*
X14717682Y-13726960D01*
X14717682Y-13726960D02*
X14708158Y-13717436D01*
X14708158Y-13717436D02*
X14698635Y-13698388D01*
X14698635Y-13698388D02*
X14698635Y-13641246D01*
X14698635Y-13641246D02*
X14708158Y-13622198D01*
X14708158Y-13622198D02*
X14717682Y-13612674D01*
X14717682Y-13612674D02*
X14736730Y-13603150D01*
X14736730Y-13603150D02*
X14765301Y-13603150D01*
X14765301Y-13603150D02*
X14784349Y-13612674D01*
X14784349Y-13612674D02*
X14793873Y-13622198D01*
X14793873Y-13622198D02*
X14803396Y-13641246D01*
X14803396Y-13641246D02*
X14803396Y-13698388D01*
X14803396Y-13698388D02*
X14793873Y-13717436D01*
X14793873Y-13717436D02*
X14784349Y-13726960D01*
X14784349Y-13726960D02*
X14765301Y-13736484D01*
X14765301Y-13736484D02*
X14736730Y-13736484D01*
X14860539Y-13603150D02*
X14936730Y-13603150D01*
X14889111Y-13536484D02*
X14889111Y-13707912D01*
X14889111Y-13707912D02*
X14898635Y-13726960D01*
X14898635Y-13726960D02*
X14917682Y-13736484D01*
X14917682Y-13736484D02*
X14936730Y-13736484D01*
X15155777Y-13603150D02*
X15155777Y-13803150D01*
X15155777Y-13612674D02*
X15174825Y-13603150D01*
X15174825Y-13603150D02*
X15212920Y-13603150D01*
X15212920Y-13603150D02*
X15231968Y-13612674D01*
X15231968Y-13612674D02*
X15241492Y-13622198D01*
X15241492Y-13622198D02*
X15251016Y-13641246D01*
X15251016Y-13641246D02*
X15251016Y-13698388D01*
X15251016Y-13698388D02*
X15241492Y-13717436D01*
X15241492Y-13717436D02*
X15231968Y-13726960D01*
X15231968Y-13726960D02*
X15212920Y-13736484D01*
X15212920Y-13736484D02*
X15174825Y-13736484D01*
X15174825Y-13736484D02*
X15155777Y-13726960D01*
X15365301Y-13736484D02*
X15346254Y-13726960D01*
X15346254Y-13726960D02*
X15336730Y-13707912D01*
X15336730Y-13707912D02*
X15336730Y-13536484D01*
X15527206Y-13736484D02*
X15527206Y-13631722D01*
X15527206Y-13631722D02*
X15517682Y-13612674D01*
X15517682Y-13612674D02*
X15498635Y-13603150D01*
X15498635Y-13603150D02*
X15460539Y-13603150D01*
X15460539Y-13603150D02*
X15441492Y-13612674D01*
X15527206Y-13726960D02*
X15508158Y-13736484D01*
X15508158Y-13736484D02*
X15460539Y-13736484D01*
X15460539Y-13736484D02*
X15441492Y-13726960D01*
X15441492Y-13726960D02*
X15431968Y-13707912D01*
X15431968Y-13707912D02*
X15431968Y-13688865D01*
X15431968Y-13688865D02*
X15441492Y-13669817D01*
X15441492Y-13669817D02*
X15460539Y-13660293D01*
X15460539Y-13660293D02*
X15508158Y-13660293D01*
X15508158Y-13660293D02*
X15527206Y-13650769D01*
X15593873Y-13603150D02*
X15670063Y-13603150D01*
X15622444Y-13536484D02*
X15622444Y-13707912D01*
X15622444Y-13707912D02*
X15631968Y-13726960D01*
X15631968Y-13726960D02*
X15651016Y-13736484D01*
X15651016Y-13736484D02*
X15670063Y-13736484D01*
X15812920Y-13726960D02*
X15793873Y-13736484D01*
X15793873Y-13736484D02*
X15755777Y-13736484D01*
X15755777Y-13736484D02*
X15736730Y-13726960D01*
X15736730Y-13726960D02*
X15727206Y-13707912D01*
X15727206Y-13707912D02*
X15727206Y-13631722D01*
X15727206Y-13631722D02*
X15736730Y-13612674D01*
X15736730Y-13612674D02*
X15755777Y-13603150D01*
X15755777Y-13603150D02*
X15793873Y-13603150D01*
X15793873Y-13603150D02*
X15812920Y-13612674D01*
X15812920Y-13612674D02*
X15822444Y-13631722D01*
X15822444Y-13631722D02*
X15822444Y-13650769D01*
X15822444Y-13650769D02*
X15727206Y-13669817D01*
X15993873Y-13736484D02*
X15993873Y-13536484D01*
X15993873Y-13726960D02*
X15974825Y-13736484D01*
X15974825Y-13736484D02*
X15936730Y-13736484D01*
X15936730Y-13736484D02*
X15917682Y-13726960D01*
X15917682Y-13726960D02*
X15908158Y-13717436D01*
X15908158Y-13717436D02*
X15898635Y-13698388D01*
X15898635Y-13698388D02*
X15898635Y-13641246D01*
X15898635Y-13641246D02*
X15908158Y-13622198D01*
X15908158Y-13622198D02*
X15917682Y-13612674D01*
X15917682Y-13612674D02*
X15936730Y-13603150D01*
X15936730Y-13603150D02*
X15974825Y-13603150D01*
X15974825Y-13603150D02*
X15993873Y-13612674D01*
X16070063Y-13812674D02*
X16079587Y-13803150D01*
X16079587Y-13803150D02*
X16098635Y-13774579D01*
X16098635Y-13774579D02*
X16108158Y-13755531D01*
X16108158Y-13755531D02*
X16117682Y-13726960D01*
X16117682Y-13726960D02*
X16127206Y-13679341D01*
X16127206Y-13679341D02*
X16127206Y-13641246D01*
X16127206Y-13641246D02*
X16117682Y-13593627D01*
X16117682Y-13593627D02*
X16108158Y-13565055D01*
X16108158Y-13565055D02*
X16098635Y-13546008D01*
X16098635Y-13546008D02*
X16079587Y-13517436D01*
X16079587Y-13517436D02*
X16070063Y-13507912D01*
X7695000Y-13909000D02*
G75*
G03*
X7695000Y-13909000I-100000J0D01*
G01*
X7936729Y-13800484D02*
X8060539Y-13800484D01*
X8060539Y-13800484D02*
X7993872Y-13876674D01*
X7993872Y-13876674D02*
X8022443Y-13876674D01*
X8022443Y-13876674D02*
X8041491Y-13886198D01*
X8041491Y-13886198D02*
X8051015Y-13895722D01*
X8051015Y-13895722D02*
X8060539Y-13914769D01*
X8060539Y-13914769D02*
X8060539Y-13962388D01*
X8060539Y-13962388D02*
X8051015Y-13981436D01*
X8051015Y-13981436D02*
X8041491Y-13990960D01*
X8041491Y-13990960D02*
X8022443Y-14000484D01*
X8022443Y-14000484D02*
X7965301Y-14000484D01*
X7965301Y-14000484D02*
X7946253Y-13990960D01*
X7946253Y-13990960D02*
X7936729Y-13981436D01*
X8146253Y-13981436D02*
X8155777Y-13990960D01*
X8155777Y-13990960D02*
X8146253Y-14000484D01*
X8146253Y-14000484D02*
X8136729Y-13990960D01*
X8136729Y-13990960D02*
X8146253Y-13981436D01*
X8146253Y-13981436D02*
X8146253Y-14000484D01*
X8279586Y-13800484D02*
X8298634Y-13800484D01*
X8298634Y-13800484D02*
X8317682Y-13810008D01*
X8317682Y-13810008D02*
X8327205Y-13819531D01*
X8327205Y-13819531D02*
X8336729Y-13838579D01*
X8336729Y-13838579D02*
X8346253Y-13876674D01*
X8346253Y-13876674D02*
X8346253Y-13924293D01*
X8346253Y-13924293D02*
X8336729Y-13962388D01*
X8336729Y-13962388D02*
X8327205Y-13981436D01*
X8327205Y-13981436D02*
X8317682Y-13990960D01*
X8317682Y-13990960D02*
X8298634Y-14000484D01*
X8298634Y-14000484D02*
X8279586Y-14000484D01*
X8279586Y-14000484D02*
X8260539Y-13990960D01*
X8260539Y-13990960D02*
X8251015Y-13981436D01*
X8251015Y-13981436D02*
X8241491Y-13962388D01*
X8241491Y-13962388D02*
X8231967Y-13924293D01*
X8231967Y-13924293D02*
X8231967Y-13876674D01*
X8231967Y-13876674D02*
X8241491Y-13838579D01*
X8241491Y-13838579D02*
X8251015Y-13819531D01*
X8251015Y-13819531D02*
X8260539Y-13810008D01*
X8260539Y-13810008D02*
X8279586Y-13800484D01*
X8470063Y-13800484D02*
X8489110Y-13800484D01*
X8489110Y-13800484D02*
X8508158Y-13810008D01*
X8508158Y-13810008D02*
X8517682Y-13819531D01*
X8517682Y-13819531D02*
X8527205Y-13838579D01*
X8527205Y-13838579D02*
X8536729Y-13876674D01*
X8536729Y-13876674D02*
X8536729Y-13924293D01*
X8536729Y-13924293D02*
X8527205Y-13962388D01*
X8527205Y-13962388D02*
X8517682Y-13981436D01*
X8517682Y-13981436D02*
X8508158Y-13990960D01*
X8508158Y-13990960D02*
X8489110Y-14000484D01*
X8489110Y-14000484D02*
X8470063Y-14000484D01*
X8470063Y-14000484D02*
X8451015Y-13990960D01*
X8451015Y-13990960D02*
X8441491Y-13981436D01*
X8441491Y-13981436D02*
X8431967Y-13962388D01*
X8431967Y-13962388D02*
X8422444Y-13924293D01*
X8422444Y-13924293D02*
X8422444Y-13876674D01*
X8422444Y-13876674D02*
X8431967Y-13838579D01*
X8431967Y-13838579D02*
X8441491Y-13819531D01*
X8441491Y-13819531D02*
X8451015Y-13810008D01*
X8451015Y-13810008D02*
X8470063Y-13800484D01*
X8660539Y-13800484D02*
X8679586Y-13800484D01*
X8679586Y-13800484D02*
X8698634Y-13810008D01*
X8698634Y-13810008D02*
X8708158Y-13819531D01*
X8708158Y-13819531D02*
X8717682Y-13838579D01*
X8717682Y-13838579D02*
X8727205Y-13876674D01*
X8727205Y-13876674D02*
X8727205Y-13924293D01*
X8727205Y-13924293D02*
X8717682Y-13962388D01*
X8717682Y-13962388D02*
X8708158Y-13981436D01*
X8708158Y-13981436D02*
X8698634Y-13990960D01*
X8698634Y-13990960D02*
X8679586Y-14000484D01*
X8679586Y-14000484D02*
X8660539Y-14000484D01*
X8660539Y-14000484D02*
X8641491Y-13990960D01*
X8641491Y-13990960D02*
X8631967Y-13981436D01*
X8631967Y-13981436D02*
X8622444Y-13962388D01*
X8622444Y-13962388D02*
X8612920Y-13924293D01*
X8612920Y-13924293D02*
X8612920Y-13876674D01*
X8612920Y-13876674D02*
X8622444Y-13838579D01*
X8622444Y-13838579D02*
X8631967Y-13819531D01*
X8631967Y-13819531D02*
X8641491Y-13810008D01*
X8641491Y-13810008D02*
X8660539Y-13800484D01*
X8812920Y-14000484D02*
X8812920Y-13867150D01*
X8812920Y-13886198D02*
X8822444Y-13876674D01*
X8822444Y-13876674D02*
X8841491Y-13867150D01*
X8841491Y-13867150D02*
X8870063Y-13867150D01*
X8870063Y-13867150D02*
X8889110Y-13876674D01*
X8889110Y-13876674D02*
X8898634Y-13895722D01*
X8898634Y-13895722D02*
X8898634Y-14000484D01*
X8898634Y-13895722D02*
X8908158Y-13876674D01*
X8908158Y-13876674D02*
X8927205Y-13867150D01*
X8927205Y-13867150D02*
X8955777Y-13867150D01*
X8955777Y-13867150D02*
X8974825Y-13876674D01*
X8974825Y-13876674D02*
X8984348Y-13895722D01*
X8984348Y-13895722D02*
X8984348Y-14000484D01*
X9079586Y-14000484D02*
X9079586Y-13867150D01*
X9079586Y-13886198D02*
X9089110Y-13876674D01*
X9089110Y-13876674D02*
X9108158Y-13867150D01*
X9108158Y-13867150D02*
X9136729Y-13867150D01*
X9136729Y-13867150D02*
X9155777Y-13876674D01*
X9155777Y-13876674D02*
X9165301Y-13895722D01*
X9165301Y-13895722D02*
X9165301Y-14000484D01*
X9165301Y-13895722D02*
X9174825Y-13876674D01*
X9174825Y-13876674D02*
X9193872Y-13867150D01*
X9193872Y-13867150D02*
X9222444Y-13867150D01*
X9222444Y-13867150D02*
X9241491Y-13876674D01*
X9241491Y-13876674D02*
X9251015Y-13895722D01*
X9251015Y-13895722D02*
X9251015Y-14000484D01*
X9641491Y-13790960D02*
X9470063Y-14048103D01*
X9898634Y-13800484D02*
X9917682Y-13800484D01*
X9917682Y-13800484D02*
X9936729Y-13810008D01*
X9936729Y-13810008D02*
X9946253Y-13819531D01*
X9946253Y-13819531D02*
X9955777Y-13838579D01*
X9955777Y-13838579D02*
X9965301Y-13876674D01*
X9965301Y-13876674D02*
X9965301Y-13924293D01*
X9965301Y-13924293D02*
X9955777Y-13962388D01*
X9955777Y-13962388D02*
X9946253Y-13981436D01*
X9946253Y-13981436D02*
X9936729Y-13990960D01*
X9936729Y-13990960D02*
X9917682Y-14000484D01*
X9917682Y-14000484D02*
X9898634Y-14000484D01*
X9898634Y-14000484D02*
X9879587Y-13990960D01*
X9879587Y-13990960D02*
X9870063Y-13981436D01*
X9870063Y-13981436D02*
X9860539Y-13962388D01*
X9860539Y-13962388D02*
X9851015Y-13924293D01*
X9851015Y-13924293D02*
X9851015Y-13876674D01*
X9851015Y-13876674D02*
X9860539Y-13838579D01*
X9860539Y-13838579D02*
X9870063Y-13819531D01*
X9870063Y-13819531D02*
X9879587Y-13810008D01*
X9879587Y-13810008D02*
X9898634Y-13800484D01*
X10051015Y-13981436D02*
X10060539Y-13990960D01*
X10060539Y-13990960D02*
X10051015Y-14000484D01*
X10051015Y-14000484D02*
X10041491Y-13990960D01*
X10041491Y-13990960D02*
X10051015Y-13981436D01*
X10051015Y-13981436D02*
X10051015Y-14000484D01*
X10251015Y-14000484D02*
X10136729Y-14000484D01*
X10193872Y-14000484D02*
X10193872Y-13800484D01*
X10193872Y-13800484D02*
X10174825Y-13829055D01*
X10174825Y-13829055D02*
X10155777Y-13848103D01*
X10155777Y-13848103D02*
X10136729Y-13857627D01*
X10441491Y-14000484D02*
X10327206Y-14000484D01*
X10384348Y-14000484D02*
X10384348Y-13800484D01*
X10384348Y-13800484D02*
X10365301Y-13829055D01*
X10365301Y-13829055D02*
X10346253Y-13848103D01*
X10346253Y-13848103D02*
X10327206Y-13857627D01*
X10555777Y-13886198D02*
X10536729Y-13876674D01*
X10536729Y-13876674D02*
X10527206Y-13867150D01*
X10527206Y-13867150D02*
X10517682Y-13848103D01*
X10517682Y-13848103D02*
X10517682Y-13838579D01*
X10517682Y-13838579D02*
X10527206Y-13819531D01*
X10527206Y-13819531D02*
X10536729Y-13810008D01*
X10536729Y-13810008D02*
X10555777Y-13800484D01*
X10555777Y-13800484D02*
X10593872Y-13800484D01*
X10593872Y-13800484D02*
X10612920Y-13810008D01*
X10612920Y-13810008D02*
X10622444Y-13819531D01*
X10622444Y-13819531D02*
X10631968Y-13838579D01*
X10631968Y-13838579D02*
X10631968Y-13848103D01*
X10631968Y-13848103D02*
X10622444Y-13867150D01*
X10622444Y-13867150D02*
X10612920Y-13876674D01*
X10612920Y-13876674D02*
X10593872Y-13886198D01*
X10593872Y-13886198D02*
X10555777Y-13886198D01*
X10555777Y-13886198D02*
X10536729Y-13895722D01*
X10536729Y-13895722D02*
X10527206Y-13905246D01*
X10527206Y-13905246D02*
X10517682Y-13924293D01*
X10517682Y-13924293D02*
X10517682Y-13962388D01*
X10517682Y-13962388D02*
X10527206Y-13981436D01*
X10527206Y-13981436D02*
X10536729Y-13990960D01*
X10536729Y-13990960D02*
X10555777Y-14000484D01*
X10555777Y-14000484D02*
X10593872Y-14000484D01*
X10593872Y-14000484D02*
X10612920Y-13990960D01*
X10612920Y-13990960D02*
X10622444Y-13981436D01*
X10622444Y-13981436D02*
X10631968Y-13962388D01*
X10631968Y-13962388D02*
X10631968Y-13924293D01*
X10631968Y-13924293D02*
X10622444Y-13905246D01*
X10622444Y-13905246D02*
X10612920Y-13895722D01*
X10612920Y-13895722D02*
X10593872Y-13886198D01*
X10822444Y-14000484D02*
X10708158Y-14000484D01*
X10765301Y-14000484D02*
X10765301Y-13800484D01*
X10765301Y-13800484D02*
X10746253Y-13829055D01*
X10746253Y-13829055D02*
X10727206Y-13848103D01*
X10727206Y-13848103D02*
X10708158Y-13857627D01*
X10898634Y-13800484D02*
X10898634Y-13838579D01*
X10974825Y-13800484D02*
X10974825Y-13838579D01*
X11270063Y-14076674D02*
X11260539Y-14067150D01*
X11260539Y-14067150D02*
X11241491Y-14038579D01*
X11241491Y-14038579D02*
X11231968Y-14019531D01*
X11231968Y-14019531D02*
X11222444Y-13990960D01*
X11222444Y-13990960D02*
X11212920Y-13943341D01*
X11212920Y-13943341D02*
X11212920Y-13905246D01*
X11212920Y-13905246D02*
X11222444Y-13857627D01*
X11222444Y-13857627D02*
X11231968Y-13829055D01*
X11231968Y-13829055D02*
X11241491Y-13810008D01*
X11241491Y-13810008D02*
X11260539Y-13781436D01*
X11260539Y-13781436D02*
X11270063Y-13771912D01*
X11336729Y-13819531D02*
X11346253Y-13810008D01*
X11346253Y-13810008D02*
X11365301Y-13800484D01*
X11365301Y-13800484D02*
X11412920Y-13800484D01*
X11412920Y-13800484D02*
X11431968Y-13810008D01*
X11431968Y-13810008D02*
X11441491Y-13819531D01*
X11441491Y-13819531D02*
X11451015Y-13838579D01*
X11451015Y-13838579D02*
X11451015Y-13857627D01*
X11451015Y-13857627D02*
X11441491Y-13886198D01*
X11441491Y-13886198D02*
X11327206Y-14000484D01*
X11327206Y-14000484D02*
X11451015Y-14000484D01*
X11689110Y-14000484D02*
X11689110Y-13800484D01*
X11774825Y-14000484D02*
X11774825Y-13895722D01*
X11774825Y-13895722D02*
X11765301Y-13876674D01*
X11765301Y-13876674D02*
X11746253Y-13867150D01*
X11746253Y-13867150D02*
X11717682Y-13867150D01*
X11717682Y-13867150D02*
X11698634Y-13876674D01*
X11698634Y-13876674D02*
X11689110Y-13886198D01*
X11898634Y-14000484D02*
X11879587Y-13990960D01*
X11879587Y-13990960D02*
X11870063Y-13981436D01*
X11870063Y-13981436D02*
X11860539Y-13962388D01*
X11860539Y-13962388D02*
X11860539Y-13905246D01*
X11860539Y-13905246D02*
X11870063Y-13886198D01*
X11870063Y-13886198D02*
X11879587Y-13876674D01*
X11879587Y-13876674D02*
X11898634Y-13867150D01*
X11898634Y-13867150D02*
X11927206Y-13867150D01*
X11927206Y-13867150D02*
X11946253Y-13876674D01*
X11946253Y-13876674D02*
X11955777Y-13886198D01*
X11955777Y-13886198D02*
X11965301Y-13905246D01*
X11965301Y-13905246D02*
X11965301Y-13962388D01*
X11965301Y-13962388D02*
X11955777Y-13981436D01*
X11955777Y-13981436D02*
X11946253Y-13990960D01*
X11946253Y-13990960D02*
X11927206Y-14000484D01*
X11927206Y-14000484D02*
X11898634Y-14000484D01*
X12079587Y-14000484D02*
X12060539Y-13990960D01*
X12060539Y-13990960D02*
X12051015Y-13971912D01*
X12051015Y-13971912D02*
X12051015Y-13800484D01*
X12231968Y-13990960D02*
X12212920Y-14000484D01*
X12212920Y-14000484D02*
X12174825Y-14000484D01*
X12174825Y-14000484D02*
X12155777Y-13990960D01*
X12155777Y-13990960D02*
X12146253Y-13971912D01*
X12146253Y-13971912D02*
X12146253Y-13895722D01*
X12146253Y-13895722D02*
X12155777Y-13876674D01*
X12155777Y-13876674D02*
X12174825Y-13867150D01*
X12174825Y-13867150D02*
X12212920Y-13867150D01*
X12212920Y-13867150D02*
X12231968Y-13876674D01*
X12231968Y-13876674D02*
X12241491Y-13895722D01*
X12241491Y-13895722D02*
X12241491Y-13914769D01*
X12241491Y-13914769D02*
X12146253Y-13933817D01*
X12317682Y-13990960D02*
X12336730Y-14000484D01*
X12336730Y-14000484D02*
X12374825Y-14000484D01*
X12374825Y-14000484D02*
X12393872Y-13990960D01*
X12393872Y-13990960D02*
X12403396Y-13971912D01*
X12403396Y-13971912D02*
X12403396Y-13962388D01*
X12403396Y-13962388D02*
X12393872Y-13943341D01*
X12393872Y-13943341D02*
X12374825Y-13933817D01*
X12374825Y-13933817D02*
X12346253Y-13933817D01*
X12346253Y-13933817D02*
X12327206Y-13924293D01*
X12327206Y-13924293D02*
X12317682Y-13905246D01*
X12317682Y-13905246D02*
X12317682Y-13895722D01*
X12317682Y-13895722D02*
X12327206Y-13876674D01*
X12327206Y-13876674D02*
X12346253Y-13867150D01*
X12346253Y-13867150D02*
X12374825Y-13867150D01*
X12374825Y-13867150D02*
X12393872Y-13876674D01*
X12470063Y-14076674D02*
X12479587Y-14067150D01*
X12479587Y-14067150D02*
X12498634Y-14038579D01*
X12498634Y-14038579D02*
X12508158Y-14019531D01*
X12508158Y-14019531D02*
X12517682Y-13990960D01*
X12517682Y-13990960D02*
X12527206Y-13943341D01*
X12527206Y-13943341D02*
X12527206Y-13905246D01*
X12527206Y-13905246D02*
X12517682Y-13857627D01*
X12517682Y-13857627D02*
X12508158Y-13829055D01*
X12508158Y-13829055D02*
X12498634Y-13810008D01*
X12498634Y-13810008D02*
X12479587Y-13781436D01*
X12479587Y-13781436D02*
X12470063Y-13771912D01*
X12831968Y-14076674D02*
X12822444Y-14067150D01*
X12822444Y-14067150D02*
X12803396Y-14038579D01*
X12803396Y-14038579D02*
X12793872Y-14019531D01*
X12793872Y-14019531D02*
X12784349Y-13990960D01*
X12784349Y-13990960D02*
X12774825Y-13943341D01*
X12774825Y-13943341D02*
X12774825Y-13905246D01*
X12774825Y-13905246D02*
X12784349Y-13857627D01*
X12784349Y-13857627D02*
X12793872Y-13829055D01*
X12793872Y-13829055D02*
X12803396Y-13810008D01*
X12803396Y-13810008D02*
X12822444Y-13781436D01*
X12822444Y-13781436D02*
X12831968Y-13771912D01*
X12908158Y-13867150D02*
X12908158Y-14000484D01*
X12908158Y-13886198D02*
X12917682Y-13876674D01*
X12917682Y-13876674D02*
X12936730Y-13867150D01*
X12936730Y-13867150D02*
X12965301Y-13867150D01*
X12965301Y-13867150D02*
X12984349Y-13876674D01*
X12984349Y-13876674D02*
X12993872Y-13895722D01*
X12993872Y-13895722D02*
X12993872Y-14000484D01*
X13117682Y-14000484D02*
X13098634Y-13990960D01*
X13098634Y-13990960D02*
X13089111Y-13981436D01*
X13089111Y-13981436D02*
X13079587Y-13962388D01*
X13079587Y-13962388D02*
X13079587Y-13905246D01*
X13079587Y-13905246D02*
X13089111Y-13886198D01*
X13089111Y-13886198D02*
X13098634Y-13876674D01*
X13098634Y-13876674D02*
X13117682Y-13867150D01*
X13117682Y-13867150D02*
X13146253Y-13867150D01*
X13146253Y-13867150D02*
X13165301Y-13876674D01*
X13165301Y-13876674D02*
X13174825Y-13886198D01*
X13174825Y-13886198D02*
X13184349Y-13905246D01*
X13184349Y-13905246D02*
X13184349Y-13962388D01*
X13184349Y-13962388D02*
X13174825Y-13981436D01*
X13174825Y-13981436D02*
X13165301Y-13990960D01*
X13165301Y-13990960D02*
X13146253Y-14000484D01*
X13146253Y-14000484D02*
X13117682Y-14000484D01*
X13241492Y-13867150D02*
X13317682Y-13867150D01*
X13270063Y-13800484D02*
X13270063Y-13971912D01*
X13270063Y-13971912D02*
X13279587Y-13990960D01*
X13279587Y-13990960D02*
X13298634Y-14000484D01*
X13298634Y-14000484D02*
X13317682Y-14000484D01*
X13536730Y-13867150D02*
X13536730Y-14067150D01*
X13536730Y-13876674D02*
X13555777Y-13867150D01*
X13555777Y-13867150D02*
X13593873Y-13867150D01*
X13593873Y-13867150D02*
X13612920Y-13876674D01*
X13612920Y-13876674D02*
X13622444Y-13886198D01*
X13622444Y-13886198D02*
X13631968Y-13905246D01*
X13631968Y-13905246D02*
X13631968Y-13962388D01*
X13631968Y-13962388D02*
X13622444Y-13981436D01*
X13622444Y-13981436D02*
X13612920Y-13990960D01*
X13612920Y-13990960D02*
X13593873Y-14000484D01*
X13593873Y-14000484D02*
X13555777Y-14000484D01*
X13555777Y-14000484D02*
X13536730Y-13990960D01*
X13746253Y-14000484D02*
X13727206Y-13990960D01*
X13727206Y-13990960D02*
X13717682Y-13971912D01*
X13717682Y-13971912D02*
X13717682Y-13800484D01*
X13908158Y-14000484D02*
X13908158Y-13895722D01*
X13908158Y-13895722D02*
X13898634Y-13876674D01*
X13898634Y-13876674D02*
X13879587Y-13867150D01*
X13879587Y-13867150D02*
X13841492Y-13867150D01*
X13841492Y-13867150D02*
X13822444Y-13876674D01*
X13908158Y-13990960D02*
X13889111Y-14000484D01*
X13889111Y-14000484D02*
X13841492Y-14000484D01*
X13841492Y-14000484D02*
X13822444Y-13990960D01*
X13822444Y-13990960D02*
X13812920Y-13971912D01*
X13812920Y-13971912D02*
X13812920Y-13952865D01*
X13812920Y-13952865D02*
X13822444Y-13933817D01*
X13822444Y-13933817D02*
X13841492Y-13924293D01*
X13841492Y-13924293D02*
X13889111Y-13924293D01*
X13889111Y-13924293D02*
X13908158Y-13914769D01*
X13974825Y-13867150D02*
X14051015Y-13867150D01*
X14003396Y-13800484D02*
X14003396Y-13971912D01*
X14003396Y-13971912D02*
X14012920Y-13990960D01*
X14012920Y-13990960D02*
X14031968Y-14000484D01*
X14031968Y-14000484D02*
X14051015Y-14000484D01*
X14193873Y-13990960D02*
X14174825Y-14000484D01*
X14174825Y-14000484D02*
X14136730Y-14000484D01*
X14136730Y-14000484D02*
X14117682Y-13990960D01*
X14117682Y-13990960D02*
X14108158Y-13971912D01*
X14108158Y-13971912D02*
X14108158Y-13895722D01*
X14108158Y-13895722D02*
X14117682Y-13876674D01*
X14117682Y-13876674D02*
X14136730Y-13867150D01*
X14136730Y-13867150D02*
X14174825Y-13867150D01*
X14174825Y-13867150D02*
X14193873Y-13876674D01*
X14193873Y-13876674D02*
X14203396Y-13895722D01*
X14203396Y-13895722D02*
X14203396Y-13914769D01*
X14203396Y-13914769D02*
X14108158Y-13933817D01*
X14374825Y-14000484D02*
X14374825Y-13800484D01*
X14374825Y-13990960D02*
X14355777Y-14000484D01*
X14355777Y-14000484D02*
X14317682Y-14000484D01*
X14317682Y-14000484D02*
X14298634Y-13990960D01*
X14298634Y-13990960D02*
X14289111Y-13981436D01*
X14289111Y-13981436D02*
X14279587Y-13962388D01*
X14279587Y-13962388D02*
X14279587Y-13905246D01*
X14279587Y-13905246D02*
X14289111Y-13886198D01*
X14289111Y-13886198D02*
X14298634Y-13876674D01*
X14298634Y-13876674D02*
X14317682Y-13867150D01*
X14317682Y-13867150D02*
X14355777Y-13867150D01*
X14355777Y-13867150D02*
X14374825Y-13876674D01*
X14451015Y-14076674D02*
X14460539Y-14067150D01*
X14460539Y-14067150D02*
X14479587Y-14038579D01*
X14479587Y-14038579D02*
X14489111Y-14019531D01*
X14489111Y-14019531D02*
X14498634Y-13990960D01*
X14498634Y-13990960D02*
X14508158Y-13943341D01*
X14508158Y-13943341D02*
X14508158Y-13905246D01*
X14508158Y-13905246D02*
X14498634Y-13857627D01*
X14498634Y-13857627D02*
X14489111Y-13829055D01*
X14489111Y-13829055D02*
X14479587Y-13810008D01*
X14479587Y-13810008D02*
X14460539Y-13781436D01*
X14460539Y-13781436D02*
X14451015Y-13771912D01*
M02*
