G04 #@! TF.GenerationSoftware,KiCad,Pcbnew,7.0.6*
G04 #@! TF.CreationDate,2024-06-10T15:38:19+10:00*
G04 #@! TF.ProjectId,AnalogVoltMeterClock,416e616c-6f67-4566-9f6c-744d65746572,rev?*
G04 #@! TF.SameCoordinates,Original*
G04 #@! TF.FileFunction,Legend,Top*
G04 #@! TF.FilePolarity,Positive*
%FSLAX46Y46*%
G04 Gerber Fmt 4.6, Leading zero omitted, Abs format (unit mm)*
G04 Created by KiCad (PCBNEW 7.0.6) date 2024-06-10 15:38:19*
%MOMM*%
%LPD*%
G01*
G04 APERTURE LIST*
G04 Aperture macros list*
%AMRoundRect*
0 Rectangle with rounded corners*
0 $1 Rounding radius*
0 $2 $3 $4 $5 $6 $7 $8 $9 X,Y pos of 4 corners*
0 Add a 4 corners polygon primitive as box body*
4,1,4,$2,$3,$4,$5,$6,$7,$8,$9,$2,$3,0*
0 Add four circle primitives for the rounded corners*
1,1,$1+$1,$2,$3*
1,1,$1+$1,$4,$5*
1,1,$1+$1,$6,$7*
1,1,$1+$1,$8,$9*
0 Add four rect primitives between the rounded corners*
20,1,$1+$1,$2,$3,$4,$5,0*
20,1,$1+$1,$4,$5,$6,$7,0*
20,1,$1+$1,$6,$7,$8,$9,0*
20,1,$1+$1,$8,$9,$2,$3,0*%
G04 Aperture macros list end*
%ADD10C,0.150000*%
%ADD11C,0.127000*%
%ADD12C,0.200000*%
%ADD13C,0.120000*%
%ADD14C,0.203200*%
%ADD15RoundRect,0.102000X-1.000000X1.000000X-1.000000X-1.000000X1.000000X-1.000000X1.000000X1.000000X0*%
%ADD16RoundRect,0.102000X0.570000X0.570000X-0.570000X0.570000X-0.570000X-0.570000X0.570000X-0.570000X0*%
%ADD17C,1.344000*%
%ADD18R,2.000000X2.000000*%
%ADD19R,1.700000X1.700000*%
%ADD20O,1.700000X1.700000*%
%ADD21RoundRect,0.101600X-1.016000X-1.016000X1.016000X-1.016000X1.016000X1.016000X-1.016000X1.016000X0*%
%ADD22C,2.235200*%
%ADD23C,3.000000*%
%ADD24O,0.300000X0.800000*%
%ADD25R,0.700000X1.200000*%
%ADD26R,0.760000X1.200000*%
%ADD27R,0.800000X1.200000*%
%ADD28R,0.725000X1.350000*%
%ADD29R,0.715000X1.500000*%
%ADD30R,0.705000X1.500000*%
%ADD31R,0.715000X1.350000*%
%ADD32RoundRect,0.101600X-1.206500X-1.206500X1.206500X-1.206500X1.206500X1.206500X-1.206500X1.206500X0*%
%ADD33C,2.616200*%
%ADD34C,2.082800*%
G04 APERTURE END LIST*
D10*
X99710112Y-106746009D02*
X99376779Y-106746009D01*
X99376779Y-107269819D02*
X99376779Y-106269819D01*
X99376779Y-106269819D02*
X99852969Y-106269819D01*
X100233922Y-107269819D02*
X100233922Y-106603152D01*
X100233922Y-106793628D02*
X100281541Y-106698390D01*
X100281541Y-106698390D02*
X100329160Y-106650771D01*
X100329160Y-106650771D02*
X100424398Y-106603152D01*
X100424398Y-106603152D02*
X100519636Y-106603152D01*
X101233922Y-107222200D02*
X101138684Y-107269819D01*
X101138684Y-107269819D02*
X100948208Y-107269819D01*
X100948208Y-107269819D02*
X100852970Y-107222200D01*
X100852970Y-107222200D02*
X100805351Y-107126961D01*
X100805351Y-107126961D02*
X100805351Y-106746009D01*
X100805351Y-106746009D02*
X100852970Y-106650771D01*
X100852970Y-106650771D02*
X100948208Y-106603152D01*
X100948208Y-106603152D02*
X101138684Y-106603152D01*
X101138684Y-106603152D02*
X101233922Y-106650771D01*
X101233922Y-106650771D02*
X101281541Y-106746009D01*
X101281541Y-106746009D02*
X101281541Y-106841247D01*
X101281541Y-106841247D02*
X100805351Y-106936485D01*
X102091065Y-107222200D02*
X101995827Y-107269819D01*
X101995827Y-107269819D02*
X101805351Y-107269819D01*
X101805351Y-107269819D02*
X101710113Y-107222200D01*
X101710113Y-107222200D02*
X101662494Y-107126961D01*
X101662494Y-107126961D02*
X101662494Y-106746009D01*
X101662494Y-106746009D02*
X101710113Y-106650771D01*
X101710113Y-106650771D02*
X101805351Y-106603152D01*
X101805351Y-106603152D02*
X101995827Y-106603152D01*
X101995827Y-106603152D02*
X102091065Y-106650771D01*
X102091065Y-106650771D02*
X102138684Y-106746009D01*
X102138684Y-106746009D02*
X102138684Y-106841247D01*
X102138684Y-106841247D02*
X101662494Y-106936485D01*
X102567256Y-107269819D02*
X102567256Y-106269819D01*
X102567256Y-106269819D02*
X103138684Y-107269819D01*
X103138684Y-107269819D02*
X103138684Y-106269819D01*
X103757732Y-107269819D02*
X103662494Y-107222200D01*
X103662494Y-107222200D02*
X103614875Y-107174580D01*
X103614875Y-107174580D02*
X103567256Y-107079342D01*
X103567256Y-107079342D02*
X103567256Y-106793628D01*
X103567256Y-106793628D02*
X103614875Y-106698390D01*
X103614875Y-106698390D02*
X103662494Y-106650771D01*
X103662494Y-106650771D02*
X103757732Y-106603152D01*
X103757732Y-106603152D02*
X103900589Y-106603152D01*
X103900589Y-106603152D02*
X103995827Y-106650771D01*
X103995827Y-106650771D02*
X104043446Y-106698390D01*
X104043446Y-106698390D02*
X104091065Y-106793628D01*
X104091065Y-106793628D02*
X104091065Y-107079342D01*
X104091065Y-107079342D02*
X104043446Y-107174580D01*
X104043446Y-107174580D02*
X103995827Y-107222200D01*
X103995827Y-107222200D02*
X103900589Y-107269819D01*
X103900589Y-107269819D02*
X103757732Y-107269819D01*
X104424399Y-106603152D02*
X104662494Y-107269819D01*
X104662494Y-107269819D02*
X104900589Y-106603152D01*
X105662494Y-107222200D02*
X105567256Y-107269819D01*
X105567256Y-107269819D02*
X105376780Y-107269819D01*
X105376780Y-107269819D02*
X105281542Y-107222200D01*
X105281542Y-107222200D02*
X105233923Y-107126961D01*
X105233923Y-107126961D02*
X105233923Y-106746009D01*
X105233923Y-106746009D02*
X105281542Y-106650771D01*
X105281542Y-106650771D02*
X105376780Y-106603152D01*
X105376780Y-106603152D02*
X105567256Y-106603152D01*
X105567256Y-106603152D02*
X105662494Y-106650771D01*
X105662494Y-106650771D02*
X105710113Y-106746009D01*
X105710113Y-106746009D02*
X105710113Y-106841247D01*
X105710113Y-106841247D02*
X105233923Y-106936485D01*
X106138685Y-106746009D02*
X106472018Y-106746009D01*
X106614875Y-107269819D02*
X106138685Y-107269819D01*
X106138685Y-107269819D02*
X106138685Y-106269819D01*
X106138685Y-106269819D02*
X106614875Y-106269819D01*
X106995828Y-107222200D02*
X107138685Y-107269819D01*
X107138685Y-107269819D02*
X107376780Y-107269819D01*
X107376780Y-107269819D02*
X107472018Y-107222200D01*
X107472018Y-107222200D02*
X107519637Y-107174580D01*
X107519637Y-107174580D02*
X107567256Y-107079342D01*
X107567256Y-107079342D02*
X107567256Y-106984104D01*
X107567256Y-106984104D02*
X107519637Y-106888866D01*
X107519637Y-106888866D02*
X107472018Y-106841247D01*
X107472018Y-106841247D02*
X107376780Y-106793628D01*
X107376780Y-106793628D02*
X107186304Y-106746009D01*
X107186304Y-106746009D02*
X107091066Y-106698390D01*
X107091066Y-106698390D02*
X107043447Y-106650771D01*
X107043447Y-106650771D02*
X106995828Y-106555533D01*
X106995828Y-106555533D02*
X106995828Y-106460295D01*
X106995828Y-106460295D02*
X107043447Y-106365057D01*
X107043447Y-106365057D02*
X107091066Y-106317438D01*
X107091066Y-106317438D02*
X107186304Y-106269819D01*
X107186304Y-106269819D02*
X107424399Y-106269819D01*
X107424399Y-106269819D02*
X107567256Y-106317438D01*
X107995828Y-107269819D02*
X107995828Y-106269819D01*
X107995828Y-106269819D02*
X108376780Y-106269819D01*
X108376780Y-106269819D02*
X108472018Y-106317438D01*
X108472018Y-106317438D02*
X108519637Y-106365057D01*
X108519637Y-106365057D02*
X108567256Y-106460295D01*
X108567256Y-106460295D02*
X108567256Y-106603152D01*
X108567256Y-106603152D02*
X108519637Y-106698390D01*
X108519637Y-106698390D02*
X108472018Y-106746009D01*
X108472018Y-106746009D02*
X108376780Y-106793628D01*
X108376780Y-106793628D02*
X107995828Y-106793628D01*
X108900590Y-106269819D02*
X109519637Y-106269819D01*
X109519637Y-106269819D02*
X109186304Y-106650771D01*
X109186304Y-106650771D02*
X109329161Y-106650771D01*
X109329161Y-106650771D02*
X109424399Y-106698390D01*
X109424399Y-106698390D02*
X109472018Y-106746009D01*
X109472018Y-106746009D02*
X109519637Y-106841247D01*
X109519637Y-106841247D02*
X109519637Y-107079342D01*
X109519637Y-107079342D02*
X109472018Y-107174580D01*
X109472018Y-107174580D02*
X109424399Y-107222200D01*
X109424399Y-107222200D02*
X109329161Y-107269819D01*
X109329161Y-107269819D02*
X109043447Y-107269819D01*
X109043447Y-107269819D02*
X108948209Y-107222200D01*
X108948209Y-107222200D02*
X108900590Y-107174580D01*
X109900590Y-106365057D02*
X109948209Y-106317438D01*
X109948209Y-106317438D02*
X110043447Y-106269819D01*
X110043447Y-106269819D02*
X110281542Y-106269819D01*
X110281542Y-106269819D02*
X110376780Y-106317438D01*
X110376780Y-106317438D02*
X110424399Y-106365057D01*
X110424399Y-106365057D02*
X110472018Y-106460295D01*
X110472018Y-106460295D02*
X110472018Y-106555533D01*
X110472018Y-106555533D02*
X110424399Y-106698390D01*
X110424399Y-106698390D02*
X109852971Y-107269819D01*
X109852971Y-107269819D02*
X110472018Y-107269819D01*
X110805352Y-106269819D02*
X111043447Y-107269819D01*
X111043447Y-107269819D02*
X111233923Y-106555533D01*
X111233923Y-106555533D02*
X111424399Y-107269819D01*
X111424399Y-107269819D02*
X111662495Y-106269819D01*
X112043447Y-107269819D02*
X112043447Y-106603152D01*
X112043447Y-106793628D02*
X112091066Y-106698390D01*
X112091066Y-106698390D02*
X112138685Y-106650771D01*
X112138685Y-106650771D02*
X112233923Y-106603152D01*
X112233923Y-106603152D02*
X112329161Y-106603152D01*
X112805352Y-107269819D02*
X112710114Y-107222200D01*
X112710114Y-107222200D02*
X112662495Y-107174580D01*
X112662495Y-107174580D02*
X112614876Y-107079342D01*
X112614876Y-107079342D02*
X112614876Y-106793628D01*
X112614876Y-106793628D02*
X112662495Y-106698390D01*
X112662495Y-106698390D02*
X112710114Y-106650771D01*
X112710114Y-106650771D02*
X112805352Y-106603152D01*
X112805352Y-106603152D02*
X112948209Y-106603152D01*
X112948209Y-106603152D02*
X113043447Y-106650771D01*
X113043447Y-106650771D02*
X113091066Y-106698390D01*
X113091066Y-106698390D02*
X113138685Y-106793628D01*
X113138685Y-106793628D02*
X113138685Y-107079342D01*
X113138685Y-107079342D02*
X113091066Y-107174580D01*
X113091066Y-107174580D02*
X113043447Y-107222200D01*
X113043447Y-107222200D02*
X112948209Y-107269819D01*
X112948209Y-107269819D02*
X112805352Y-107269819D01*
X113710114Y-107269819D02*
X113614876Y-107222200D01*
X113614876Y-107222200D02*
X113567257Y-107174580D01*
X113567257Y-107174580D02*
X113519638Y-107079342D01*
X113519638Y-107079342D02*
X113519638Y-106793628D01*
X113519638Y-106793628D02*
X113567257Y-106698390D01*
X113567257Y-106698390D02*
X113614876Y-106650771D01*
X113614876Y-106650771D02*
X113710114Y-106603152D01*
X113710114Y-106603152D02*
X113852971Y-106603152D01*
X113852971Y-106603152D02*
X113948209Y-106650771D01*
X113948209Y-106650771D02*
X113995828Y-106698390D01*
X113995828Y-106698390D02*
X114043447Y-106793628D01*
X114043447Y-106793628D02*
X114043447Y-107079342D01*
X114043447Y-107079342D02*
X113995828Y-107174580D01*
X113995828Y-107174580D02*
X113948209Y-107222200D01*
X113948209Y-107222200D02*
X113852971Y-107269819D01*
X113852971Y-107269819D02*
X113710114Y-107269819D01*
X114472019Y-107269819D02*
X114472019Y-106603152D01*
X114472019Y-106698390D02*
X114519638Y-106650771D01*
X114519638Y-106650771D02*
X114614876Y-106603152D01*
X114614876Y-106603152D02*
X114757733Y-106603152D01*
X114757733Y-106603152D02*
X114852971Y-106650771D01*
X114852971Y-106650771D02*
X114900590Y-106746009D01*
X114900590Y-106746009D02*
X114900590Y-107269819D01*
X114900590Y-106746009D02*
X114948209Y-106650771D01*
X114948209Y-106650771D02*
X115043447Y-106603152D01*
X115043447Y-106603152D02*
X115186304Y-106603152D01*
X115186304Y-106603152D02*
X115281543Y-106650771D01*
X115281543Y-106650771D02*
X115329162Y-106746009D01*
X115329162Y-106746009D02*
X115329162Y-107269819D01*
X119697438Y-124039411D02*
X119649819Y-124134649D01*
X119649819Y-124134649D02*
X119649819Y-124277506D01*
X119649819Y-124277506D02*
X119697438Y-124420363D01*
X119697438Y-124420363D02*
X119792676Y-124515601D01*
X119792676Y-124515601D02*
X119887914Y-124563220D01*
X119887914Y-124563220D02*
X120078390Y-124610839D01*
X120078390Y-124610839D02*
X120221247Y-124610839D01*
X120221247Y-124610839D02*
X120411723Y-124563220D01*
X120411723Y-124563220D02*
X120506961Y-124515601D01*
X120506961Y-124515601D02*
X120602200Y-124420363D01*
X120602200Y-124420363D02*
X120649819Y-124277506D01*
X120649819Y-124277506D02*
X120649819Y-124182268D01*
X120649819Y-124182268D02*
X120602200Y-124039411D01*
X120602200Y-124039411D02*
X120554580Y-123991792D01*
X120554580Y-123991792D02*
X120221247Y-123991792D01*
X120221247Y-123991792D02*
X120221247Y-124182268D01*
X120649819Y-123563220D02*
X119649819Y-123563220D01*
X119649819Y-123563220D02*
X120649819Y-122991792D01*
X120649819Y-122991792D02*
X119649819Y-122991792D01*
X120649819Y-122515601D02*
X119649819Y-122515601D01*
X119649819Y-122515601D02*
X119649819Y-122277506D01*
X119649819Y-122277506D02*
X119697438Y-122134649D01*
X119697438Y-122134649D02*
X119792676Y-122039411D01*
X119792676Y-122039411D02*
X119887914Y-121991792D01*
X119887914Y-121991792D02*
X120078390Y-121944173D01*
X120078390Y-121944173D02*
X120221247Y-121944173D01*
X120221247Y-121944173D02*
X120411723Y-121991792D01*
X120411723Y-121991792D02*
X120506961Y-122039411D01*
X120506961Y-122039411D02*
X120602200Y-122134649D01*
X120602200Y-122134649D02*
X120649819Y-122277506D01*
X120649819Y-122277506D02*
X120649819Y-122515601D01*
X117872200Y-124520839D02*
X117919819Y-124377982D01*
X117919819Y-124377982D02*
X117919819Y-124139887D01*
X117919819Y-124139887D02*
X117872200Y-124044649D01*
X117872200Y-124044649D02*
X117824580Y-123997030D01*
X117824580Y-123997030D02*
X117729342Y-123949411D01*
X117729342Y-123949411D02*
X117634104Y-123949411D01*
X117634104Y-123949411D02*
X117538866Y-123997030D01*
X117538866Y-123997030D02*
X117491247Y-124044649D01*
X117491247Y-124044649D02*
X117443628Y-124139887D01*
X117443628Y-124139887D02*
X117396009Y-124330363D01*
X117396009Y-124330363D02*
X117348390Y-124425601D01*
X117348390Y-124425601D02*
X117300771Y-124473220D01*
X117300771Y-124473220D02*
X117205533Y-124520839D01*
X117205533Y-124520839D02*
X117110295Y-124520839D01*
X117110295Y-124520839D02*
X117015057Y-124473220D01*
X117015057Y-124473220D02*
X116967438Y-124425601D01*
X116967438Y-124425601D02*
X116919819Y-124330363D01*
X116919819Y-124330363D02*
X116919819Y-124092268D01*
X116919819Y-124092268D02*
X116967438Y-123949411D01*
X117919819Y-123520839D02*
X116919819Y-123520839D01*
X116919819Y-123520839D02*
X116919819Y-123282744D01*
X116919819Y-123282744D02*
X116967438Y-123139887D01*
X116967438Y-123139887D02*
X117062676Y-123044649D01*
X117062676Y-123044649D02*
X117157914Y-122997030D01*
X117157914Y-122997030D02*
X117348390Y-122949411D01*
X117348390Y-122949411D02*
X117491247Y-122949411D01*
X117491247Y-122949411D02*
X117681723Y-122997030D01*
X117681723Y-122997030D02*
X117776961Y-123044649D01*
X117776961Y-123044649D02*
X117872200Y-123139887D01*
X117872200Y-123139887D02*
X117919819Y-123282744D01*
X117919819Y-123282744D02*
X117919819Y-123520839D01*
X117634104Y-122568458D02*
X117634104Y-122092268D01*
X117919819Y-122663696D02*
X116919819Y-122330363D01*
X116919819Y-122330363D02*
X117919819Y-121997030D01*
X122249819Y-124718458D02*
X122249819Y-124099411D01*
X122249819Y-124099411D02*
X122630771Y-124432744D01*
X122630771Y-124432744D02*
X122630771Y-124289887D01*
X122630771Y-124289887D02*
X122678390Y-124194649D01*
X122678390Y-124194649D02*
X122726009Y-124147030D01*
X122726009Y-124147030D02*
X122821247Y-124099411D01*
X122821247Y-124099411D02*
X123059342Y-124099411D01*
X123059342Y-124099411D02*
X123154580Y-124147030D01*
X123154580Y-124147030D02*
X123202200Y-124194649D01*
X123202200Y-124194649D02*
X123249819Y-124289887D01*
X123249819Y-124289887D02*
X123249819Y-124575601D01*
X123249819Y-124575601D02*
X123202200Y-124670839D01*
X123202200Y-124670839D02*
X123154580Y-124718458D01*
X122249819Y-123813696D02*
X123249819Y-123480363D01*
X123249819Y-123480363D02*
X122249819Y-123147030D01*
X122249819Y-122908934D02*
X122249819Y-122289887D01*
X122249819Y-122289887D02*
X122630771Y-122623220D01*
X122630771Y-122623220D02*
X122630771Y-122480363D01*
X122630771Y-122480363D02*
X122678390Y-122385125D01*
X122678390Y-122385125D02*
X122726009Y-122337506D01*
X122726009Y-122337506D02*
X122821247Y-122289887D01*
X122821247Y-122289887D02*
X123059342Y-122289887D01*
X123059342Y-122289887D02*
X123154580Y-122337506D01*
X123154580Y-122337506D02*
X123202200Y-122385125D01*
X123202200Y-122385125D02*
X123249819Y-122480363D01*
X123249819Y-122480363D02*
X123249819Y-122766077D01*
X123249819Y-122766077D02*
X123202200Y-122861315D01*
X123202200Y-122861315D02*
X123154580Y-122908934D01*
X86272200Y-84710839D02*
X86319819Y-84567982D01*
X86319819Y-84567982D02*
X86319819Y-84329887D01*
X86319819Y-84329887D02*
X86272200Y-84234649D01*
X86272200Y-84234649D02*
X86224580Y-84187030D01*
X86224580Y-84187030D02*
X86129342Y-84139411D01*
X86129342Y-84139411D02*
X86034104Y-84139411D01*
X86034104Y-84139411D02*
X85938866Y-84187030D01*
X85938866Y-84187030D02*
X85891247Y-84234649D01*
X85891247Y-84234649D02*
X85843628Y-84329887D01*
X85843628Y-84329887D02*
X85796009Y-84520363D01*
X85796009Y-84520363D02*
X85748390Y-84615601D01*
X85748390Y-84615601D02*
X85700771Y-84663220D01*
X85700771Y-84663220D02*
X85605533Y-84710839D01*
X85605533Y-84710839D02*
X85510295Y-84710839D01*
X85510295Y-84710839D02*
X85415057Y-84663220D01*
X85415057Y-84663220D02*
X85367438Y-84615601D01*
X85367438Y-84615601D02*
X85319819Y-84520363D01*
X85319819Y-84520363D02*
X85319819Y-84282268D01*
X85319819Y-84282268D02*
X85367438Y-84139411D01*
X85796009Y-83710839D02*
X85796009Y-83377506D01*
X86319819Y-83234649D02*
X86319819Y-83710839D01*
X86319819Y-83710839D02*
X85319819Y-83710839D01*
X85319819Y-83710839D02*
X85319819Y-83234649D01*
X86224580Y-82234649D02*
X86272200Y-82282268D01*
X86272200Y-82282268D02*
X86319819Y-82425125D01*
X86319819Y-82425125D02*
X86319819Y-82520363D01*
X86319819Y-82520363D02*
X86272200Y-82663220D01*
X86272200Y-82663220D02*
X86176961Y-82758458D01*
X86176961Y-82758458D02*
X86081723Y-82806077D01*
X86081723Y-82806077D02*
X85891247Y-82853696D01*
X85891247Y-82853696D02*
X85748390Y-82853696D01*
X85748390Y-82853696D02*
X85557914Y-82806077D01*
X85557914Y-82806077D02*
X85462676Y-82758458D01*
X85462676Y-82758458D02*
X85367438Y-82663220D01*
X85367438Y-82663220D02*
X85319819Y-82520363D01*
X85319819Y-82520363D02*
X85319819Y-82425125D01*
X85319819Y-82425125D02*
X85367438Y-82282268D01*
X85367438Y-82282268D02*
X85415057Y-82234649D01*
X86415057Y-82044173D02*
X86415057Y-81282268D01*
X86319819Y-80567982D02*
X86319819Y-81044172D01*
X86319819Y-81044172D02*
X85319819Y-81044172D01*
X85796009Y-80234648D02*
X85796009Y-79901315D01*
X86319819Y-79758458D02*
X86319819Y-80234648D01*
X86319819Y-80234648D02*
X85319819Y-80234648D01*
X85319819Y-80234648D02*
X85319819Y-79758458D01*
X86319819Y-79329886D02*
X85319819Y-79329886D01*
X85319819Y-79329886D02*
X85319819Y-79091791D01*
X85319819Y-79091791D02*
X85367438Y-78948934D01*
X85367438Y-78948934D02*
X85462676Y-78853696D01*
X85462676Y-78853696D02*
X85557914Y-78806077D01*
X85557914Y-78806077D02*
X85748390Y-78758458D01*
X85748390Y-78758458D02*
X85891247Y-78758458D01*
X85891247Y-78758458D02*
X86081723Y-78806077D01*
X86081723Y-78806077D02*
X86176961Y-78853696D01*
X86176961Y-78853696D02*
X86272200Y-78948934D01*
X86272200Y-78948934D02*
X86319819Y-79091791D01*
X86319819Y-79091791D02*
X86319819Y-79329886D01*
X86415057Y-78567982D02*
X86415057Y-77806077D01*
X86319819Y-77567981D02*
X85319819Y-77567981D01*
X85319819Y-76901315D02*
X85319819Y-76710839D01*
X85319819Y-76710839D02*
X85367438Y-76615601D01*
X85367438Y-76615601D02*
X85462676Y-76520363D01*
X85462676Y-76520363D02*
X85653152Y-76472744D01*
X85653152Y-76472744D02*
X85986485Y-76472744D01*
X85986485Y-76472744D02*
X86176961Y-76520363D01*
X86176961Y-76520363D02*
X86272200Y-76615601D01*
X86272200Y-76615601D02*
X86319819Y-76710839D01*
X86319819Y-76710839D02*
X86319819Y-76901315D01*
X86319819Y-76901315D02*
X86272200Y-76996553D01*
X86272200Y-76996553D02*
X86176961Y-77091791D01*
X86176961Y-77091791D02*
X85986485Y-77139410D01*
X85986485Y-77139410D02*
X85653152Y-77139410D01*
X85653152Y-77139410D02*
X85462676Y-77091791D01*
X85462676Y-77091791D02*
X85367438Y-76996553D01*
X85367438Y-76996553D02*
X85319819Y-76901315D01*
X115242200Y-124470839D02*
X115289819Y-124327982D01*
X115289819Y-124327982D02*
X115289819Y-124089887D01*
X115289819Y-124089887D02*
X115242200Y-123994649D01*
X115242200Y-123994649D02*
X115194580Y-123947030D01*
X115194580Y-123947030D02*
X115099342Y-123899411D01*
X115099342Y-123899411D02*
X115004104Y-123899411D01*
X115004104Y-123899411D02*
X114908866Y-123947030D01*
X114908866Y-123947030D02*
X114861247Y-123994649D01*
X114861247Y-123994649D02*
X114813628Y-124089887D01*
X114813628Y-124089887D02*
X114766009Y-124280363D01*
X114766009Y-124280363D02*
X114718390Y-124375601D01*
X114718390Y-124375601D02*
X114670771Y-124423220D01*
X114670771Y-124423220D02*
X114575533Y-124470839D01*
X114575533Y-124470839D02*
X114480295Y-124470839D01*
X114480295Y-124470839D02*
X114385057Y-124423220D01*
X114385057Y-124423220D02*
X114337438Y-124375601D01*
X114337438Y-124375601D02*
X114289819Y-124280363D01*
X114289819Y-124280363D02*
X114289819Y-124042268D01*
X114289819Y-124042268D02*
X114337438Y-123899411D01*
X115194580Y-122899411D02*
X115242200Y-122947030D01*
X115242200Y-122947030D02*
X115289819Y-123089887D01*
X115289819Y-123089887D02*
X115289819Y-123185125D01*
X115289819Y-123185125D02*
X115242200Y-123327982D01*
X115242200Y-123327982D02*
X115146961Y-123423220D01*
X115146961Y-123423220D02*
X115051723Y-123470839D01*
X115051723Y-123470839D02*
X114861247Y-123518458D01*
X114861247Y-123518458D02*
X114718390Y-123518458D01*
X114718390Y-123518458D02*
X114527914Y-123470839D01*
X114527914Y-123470839D02*
X114432676Y-123423220D01*
X114432676Y-123423220D02*
X114337438Y-123327982D01*
X114337438Y-123327982D02*
X114289819Y-123185125D01*
X114289819Y-123185125D02*
X114289819Y-123089887D01*
X114289819Y-123089887D02*
X114337438Y-122947030D01*
X114337438Y-122947030D02*
X114385057Y-122899411D01*
X115289819Y-121994649D02*
X115289819Y-122470839D01*
X115289819Y-122470839D02*
X114289819Y-122470839D01*
X161212200Y-99450839D02*
X161259819Y-99307982D01*
X161259819Y-99307982D02*
X161259819Y-99069887D01*
X161259819Y-99069887D02*
X161212200Y-98974649D01*
X161212200Y-98974649D02*
X161164580Y-98927030D01*
X161164580Y-98927030D02*
X161069342Y-98879411D01*
X161069342Y-98879411D02*
X160974104Y-98879411D01*
X160974104Y-98879411D02*
X160878866Y-98927030D01*
X160878866Y-98927030D02*
X160831247Y-98974649D01*
X160831247Y-98974649D02*
X160783628Y-99069887D01*
X160783628Y-99069887D02*
X160736009Y-99260363D01*
X160736009Y-99260363D02*
X160688390Y-99355601D01*
X160688390Y-99355601D02*
X160640771Y-99403220D01*
X160640771Y-99403220D02*
X160545533Y-99450839D01*
X160545533Y-99450839D02*
X160450295Y-99450839D01*
X160450295Y-99450839D02*
X160355057Y-99403220D01*
X160355057Y-99403220D02*
X160307438Y-99355601D01*
X160307438Y-99355601D02*
X160259819Y-99260363D01*
X160259819Y-99260363D02*
X160259819Y-99022268D01*
X160259819Y-99022268D02*
X160307438Y-98879411D01*
X161259819Y-98450839D02*
X160259819Y-98450839D01*
X160259819Y-98450839D02*
X161259819Y-97879411D01*
X161259819Y-97879411D02*
X160259819Y-97879411D01*
X160259819Y-97498458D02*
X160259819Y-96831792D01*
X160259819Y-96831792D02*
X161259819Y-97260363D01*
X160593152Y-96022268D02*
X161259819Y-96022268D01*
X160212200Y-96260363D02*
X160926485Y-96498458D01*
X160926485Y-96498458D02*
X160926485Y-95879411D01*
X160974104Y-95546077D02*
X160974104Y-95069887D01*
X161259819Y-95641315D02*
X160259819Y-95307982D01*
X160259819Y-95307982D02*
X161259819Y-94974649D01*
X161259819Y-94641315D02*
X160259819Y-94641315D01*
X160736009Y-94641315D02*
X160736009Y-94069887D01*
X161259819Y-94069887D02*
X160259819Y-94069887D01*
X161164580Y-93022268D02*
X161212200Y-93069887D01*
X161212200Y-93069887D02*
X161259819Y-93212744D01*
X161259819Y-93212744D02*
X161259819Y-93307982D01*
X161259819Y-93307982D02*
X161212200Y-93450839D01*
X161212200Y-93450839D02*
X161116961Y-93546077D01*
X161116961Y-93546077D02*
X161021723Y-93593696D01*
X161021723Y-93593696D02*
X160831247Y-93641315D01*
X160831247Y-93641315D02*
X160688390Y-93641315D01*
X160688390Y-93641315D02*
X160497914Y-93593696D01*
X160497914Y-93593696D02*
X160402676Y-93546077D01*
X160402676Y-93546077D02*
X160307438Y-93450839D01*
X160307438Y-93450839D02*
X160259819Y-93307982D01*
X160259819Y-93307982D02*
X160259819Y-93212744D01*
X160259819Y-93212744D02*
X160307438Y-93069887D01*
X160307438Y-93069887D02*
X160355057Y-93022268D01*
X160259819Y-92736553D02*
X160259819Y-92165125D01*
X161259819Y-92450839D02*
X160259819Y-92450839D01*
X161259819Y-91307982D02*
X161259819Y-91879410D01*
X161259819Y-91593696D02*
X160259819Y-91593696D01*
X160259819Y-91593696D02*
X160402676Y-91688934D01*
X160402676Y-91688934D02*
X160497914Y-91784172D01*
X160497914Y-91784172D02*
X160545533Y-91879410D01*
X160355057Y-90927029D02*
X160307438Y-90879410D01*
X160307438Y-90879410D02*
X160259819Y-90784172D01*
X160259819Y-90784172D02*
X160259819Y-90546077D01*
X160259819Y-90546077D02*
X160307438Y-90450839D01*
X160307438Y-90450839D02*
X160355057Y-90403220D01*
X160355057Y-90403220D02*
X160450295Y-90355601D01*
X160450295Y-90355601D02*
X160545533Y-90355601D01*
X160545533Y-90355601D02*
X160688390Y-90403220D01*
X160688390Y-90403220D02*
X161259819Y-90974648D01*
X161259819Y-90974648D02*
X161259819Y-90355601D01*
X160259819Y-89450839D02*
X160259819Y-89927029D01*
X160259819Y-89927029D02*
X160736009Y-89974648D01*
X160736009Y-89974648D02*
X160688390Y-89927029D01*
X160688390Y-89927029D02*
X160640771Y-89831791D01*
X160640771Y-89831791D02*
X160640771Y-89593696D01*
X160640771Y-89593696D02*
X160688390Y-89498458D01*
X160688390Y-89498458D02*
X160736009Y-89450839D01*
X160736009Y-89450839D02*
X160831247Y-89403220D01*
X160831247Y-89403220D02*
X161069342Y-89403220D01*
X161069342Y-89403220D02*
X161164580Y-89450839D01*
X161164580Y-89450839D02*
X161212200Y-89498458D01*
X161212200Y-89498458D02*
X161259819Y-89593696D01*
X161259819Y-89593696D02*
X161259819Y-89831791D01*
X161259819Y-89831791D02*
X161212200Y-89927029D01*
X161212200Y-89927029D02*
X161164580Y-89974648D01*
X161259819Y-88974648D02*
X160259819Y-88974648D01*
X160259819Y-88974648D02*
X161259819Y-88403220D01*
X161259819Y-88403220D02*
X160259819Y-88403220D01*
X130374819Y-94286904D02*
X131184342Y-94286904D01*
X131184342Y-94286904D02*
X131279580Y-94239285D01*
X131279580Y-94239285D02*
X131327200Y-94191666D01*
X131327200Y-94191666D02*
X131374819Y-94096428D01*
X131374819Y-94096428D02*
X131374819Y-93905952D01*
X131374819Y-93905952D02*
X131327200Y-93810714D01*
X131327200Y-93810714D02*
X131279580Y-93763095D01*
X131279580Y-93763095D02*
X131184342Y-93715476D01*
X131184342Y-93715476D02*
X130374819Y-93715476D01*
X130374819Y-93334523D02*
X130374819Y-92715476D01*
X130374819Y-92715476D02*
X130755771Y-93048809D01*
X130755771Y-93048809D02*
X130755771Y-92905952D01*
X130755771Y-92905952D02*
X130803390Y-92810714D01*
X130803390Y-92810714D02*
X130851009Y-92763095D01*
X130851009Y-92763095D02*
X130946247Y-92715476D01*
X130946247Y-92715476D02*
X131184342Y-92715476D01*
X131184342Y-92715476D02*
X131279580Y-92763095D01*
X131279580Y-92763095D02*
X131327200Y-92810714D01*
X131327200Y-92810714D02*
X131374819Y-92905952D01*
X131374819Y-92905952D02*
X131374819Y-93191666D01*
X131374819Y-93191666D02*
X131327200Y-93286904D01*
X131327200Y-93286904D02*
X131279580Y-93334523D01*
X161613095Y-104469819D02*
X161613095Y-105279342D01*
X161613095Y-105279342D02*
X161660714Y-105374580D01*
X161660714Y-105374580D02*
X161708333Y-105422200D01*
X161708333Y-105422200D02*
X161803571Y-105469819D01*
X161803571Y-105469819D02*
X161994047Y-105469819D01*
X161994047Y-105469819D02*
X162089285Y-105422200D01*
X162089285Y-105422200D02*
X162136904Y-105374580D01*
X162136904Y-105374580D02*
X162184523Y-105279342D01*
X162184523Y-105279342D02*
X162184523Y-104469819D01*
X162613095Y-104565057D02*
X162660714Y-104517438D01*
X162660714Y-104517438D02*
X162755952Y-104469819D01*
X162755952Y-104469819D02*
X162994047Y-104469819D01*
X162994047Y-104469819D02*
X163089285Y-104517438D01*
X163089285Y-104517438D02*
X163136904Y-104565057D01*
X163136904Y-104565057D02*
X163184523Y-104660295D01*
X163184523Y-104660295D02*
X163184523Y-104755533D01*
X163184523Y-104755533D02*
X163136904Y-104898390D01*
X163136904Y-104898390D02*
X162565476Y-105469819D01*
X162565476Y-105469819D02*
X163184523Y-105469819D01*
X138839523Y-115046819D02*
X138363333Y-115046819D01*
X138363333Y-115046819D02*
X138315714Y-115523009D01*
X138315714Y-115523009D02*
X138363333Y-115475390D01*
X138363333Y-115475390D02*
X138458571Y-115427771D01*
X138458571Y-115427771D02*
X138696666Y-115427771D01*
X138696666Y-115427771D02*
X138791904Y-115475390D01*
X138791904Y-115475390D02*
X138839523Y-115523009D01*
X138839523Y-115523009D02*
X138887142Y-115618247D01*
X138887142Y-115618247D02*
X138887142Y-115856342D01*
X138887142Y-115856342D02*
X138839523Y-115951580D01*
X138839523Y-115951580D02*
X138791904Y-115999200D01*
X138791904Y-115999200D02*
X138696666Y-116046819D01*
X138696666Y-116046819D02*
X138458571Y-116046819D01*
X138458571Y-116046819D02*
X138363333Y-115999200D01*
X138363333Y-115999200D02*
X138315714Y-115951580D01*
X139172857Y-115046819D02*
X139506190Y-116046819D01*
X139506190Y-116046819D02*
X139839523Y-115046819D01*
X149336667Y-121514819D02*
X149336667Y-120514819D01*
X149336667Y-120514819D02*
X149717619Y-120514819D01*
X149717619Y-120514819D02*
X149812857Y-120562438D01*
X149812857Y-120562438D02*
X149860476Y-120610057D01*
X149860476Y-120610057D02*
X149908095Y-120705295D01*
X149908095Y-120705295D02*
X149908095Y-120848152D01*
X149908095Y-120848152D02*
X149860476Y-120943390D01*
X149860476Y-120943390D02*
X149812857Y-120991009D01*
X149812857Y-120991009D02*
X149717619Y-121038628D01*
X149717619Y-121038628D02*
X149336667Y-121038628D01*
X150241429Y-120514819D02*
X150479524Y-121514819D01*
X150479524Y-121514819D02*
X150670000Y-120800533D01*
X150670000Y-120800533D02*
X150860476Y-121514819D01*
X150860476Y-121514819D02*
X151098572Y-120514819D01*
X152050952Y-121514819D02*
X151717619Y-121038628D01*
X151479524Y-121514819D02*
X151479524Y-120514819D01*
X151479524Y-120514819D02*
X151860476Y-120514819D01*
X151860476Y-120514819D02*
X151955714Y-120562438D01*
X151955714Y-120562438D02*
X152003333Y-120610057D01*
X152003333Y-120610057D02*
X152050952Y-120705295D01*
X152050952Y-120705295D02*
X152050952Y-120848152D01*
X152050952Y-120848152D02*
X152003333Y-120943390D01*
X152003333Y-120943390D02*
X151955714Y-120991009D01*
X151955714Y-120991009D02*
X151860476Y-121038628D01*
X151860476Y-121038628D02*
X151479524Y-121038628D01*
X147391666Y-78599819D02*
X147391666Y-79314104D01*
X147391666Y-79314104D02*
X147344047Y-79456961D01*
X147344047Y-79456961D02*
X147248809Y-79552200D01*
X147248809Y-79552200D02*
X147105952Y-79599819D01*
X147105952Y-79599819D02*
X147010714Y-79599819D01*
X147772619Y-78599819D02*
X148439285Y-78599819D01*
X148439285Y-78599819D02*
X148010714Y-79599819D01*
X154369819Y-82676666D02*
X153369819Y-82676666D01*
X153846009Y-82676666D02*
X153846009Y-82105238D01*
X154369819Y-82105238D02*
X153369819Y-82105238D01*
X154369819Y-81057619D02*
X153893628Y-81390952D01*
X154369819Y-81629047D02*
X153369819Y-81629047D01*
X153369819Y-81629047D02*
X153369819Y-81248095D01*
X153369819Y-81248095D02*
X153417438Y-81152857D01*
X153417438Y-81152857D02*
X153465057Y-81105238D01*
X153465057Y-81105238D02*
X153560295Y-81057619D01*
X153560295Y-81057619D02*
X153703152Y-81057619D01*
X153703152Y-81057619D02*
X153798390Y-81105238D01*
X153798390Y-81105238D02*
X153846009Y-81152857D01*
X153846009Y-81152857D02*
X153893628Y-81248095D01*
X153893628Y-81248095D02*
X153893628Y-81629047D01*
X154465057Y-80867143D02*
X154465057Y-80105238D01*
X154369819Y-79390952D02*
X154369819Y-79867142D01*
X154369819Y-79867142D02*
X153369819Y-79867142D01*
X153846009Y-79057618D02*
X153846009Y-78724285D01*
X154369819Y-78581428D02*
X154369819Y-79057618D01*
X154369819Y-79057618D02*
X153369819Y-79057618D01*
X153369819Y-79057618D02*
X153369819Y-78581428D01*
X154369819Y-78152856D02*
X153369819Y-78152856D01*
X153369819Y-78152856D02*
X153369819Y-77914761D01*
X153369819Y-77914761D02*
X153417438Y-77771904D01*
X153417438Y-77771904D02*
X153512676Y-77676666D01*
X153512676Y-77676666D02*
X153607914Y-77629047D01*
X153607914Y-77629047D02*
X153798390Y-77581428D01*
X153798390Y-77581428D02*
X153941247Y-77581428D01*
X153941247Y-77581428D02*
X154131723Y-77629047D01*
X154131723Y-77629047D02*
X154226961Y-77676666D01*
X154226961Y-77676666D02*
X154322200Y-77771904D01*
X154322200Y-77771904D02*
X154369819Y-77914761D01*
X154369819Y-77914761D02*
X154369819Y-78152856D01*
X154465057Y-77390952D02*
X154465057Y-76629047D01*
X154369819Y-76390951D02*
X153369819Y-76390951D01*
X153369819Y-75724285D02*
X153369819Y-75533809D01*
X153369819Y-75533809D02*
X153417438Y-75438571D01*
X153417438Y-75438571D02*
X153512676Y-75343333D01*
X153512676Y-75343333D02*
X153703152Y-75295714D01*
X153703152Y-75295714D02*
X154036485Y-75295714D01*
X154036485Y-75295714D02*
X154226961Y-75343333D01*
X154226961Y-75343333D02*
X154322200Y-75438571D01*
X154322200Y-75438571D02*
X154369819Y-75533809D01*
X154369819Y-75533809D02*
X154369819Y-75724285D01*
X154369819Y-75724285D02*
X154322200Y-75819523D01*
X154322200Y-75819523D02*
X154226961Y-75914761D01*
X154226961Y-75914761D02*
X154036485Y-75962380D01*
X154036485Y-75962380D02*
X153703152Y-75962380D01*
X153703152Y-75962380D02*
X153512676Y-75914761D01*
X153512676Y-75914761D02*
X153417438Y-75819523D01*
X153417438Y-75819523D02*
X153369819Y-75724285D01*
X79286666Y-78649819D02*
X79286666Y-79364104D01*
X79286666Y-79364104D02*
X79239047Y-79506961D01*
X79239047Y-79506961D02*
X79143809Y-79602200D01*
X79143809Y-79602200D02*
X79000952Y-79649819D01*
X79000952Y-79649819D02*
X78905714Y-79649819D01*
X79810476Y-79649819D02*
X80000952Y-79649819D01*
X80000952Y-79649819D02*
X80096190Y-79602200D01*
X80096190Y-79602200D02*
X80143809Y-79554580D01*
X80143809Y-79554580D02*
X80239047Y-79411723D01*
X80239047Y-79411723D02*
X80286666Y-79221247D01*
X80286666Y-79221247D02*
X80286666Y-78840295D01*
X80286666Y-78840295D02*
X80239047Y-78745057D01*
X80239047Y-78745057D02*
X80191428Y-78697438D01*
X80191428Y-78697438D02*
X80096190Y-78649819D01*
X80096190Y-78649819D02*
X79905714Y-78649819D01*
X79905714Y-78649819D02*
X79810476Y-78697438D01*
X79810476Y-78697438D02*
X79762857Y-78745057D01*
X79762857Y-78745057D02*
X79715238Y-78840295D01*
X79715238Y-78840295D02*
X79715238Y-79078390D01*
X79715238Y-79078390D02*
X79762857Y-79173628D01*
X79762857Y-79173628D02*
X79810476Y-79221247D01*
X79810476Y-79221247D02*
X79905714Y-79268866D01*
X79905714Y-79268866D02*
X80096190Y-79268866D01*
X80096190Y-79268866D02*
X80191428Y-79221247D01*
X80191428Y-79221247D02*
X80239047Y-79173628D01*
X80239047Y-79173628D02*
X80286666Y-79078390D01*
X113366666Y-78469819D02*
X113366666Y-79184104D01*
X113366666Y-79184104D02*
X113319047Y-79326961D01*
X113319047Y-79326961D02*
X113223809Y-79422200D01*
X113223809Y-79422200D02*
X113080952Y-79469819D01*
X113080952Y-79469819D02*
X112985714Y-79469819D01*
X113985714Y-78898390D02*
X113890476Y-78850771D01*
X113890476Y-78850771D02*
X113842857Y-78803152D01*
X113842857Y-78803152D02*
X113795238Y-78707914D01*
X113795238Y-78707914D02*
X113795238Y-78660295D01*
X113795238Y-78660295D02*
X113842857Y-78565057D01*
X113842857Y-78565057D02*
X113890476Y-78517438D01*
X113890476Y-78517438D02*
X113985714Y-78469819D01*
X113985714Y-78469819D02*
X114176190Y-78469819D01*
X114176190Y-78469819D02*
X114271428Y-78517438D01*
X114271428Y-78517438D02*
X114319047Y-78565057D01*
X114319047Y-78565057D02*
X114366666Y-78660295D01*
X114366666Y-78660295D02*
X114366666Y-78707914D01*
X114366666Y-78707914D02*
X114319047Y-78803152D01*
X114319047Y-78803152D02*
X114271428Y-78850771D01*
X114271428Y-78850771D02*
X114176190Y-78898390D01*
X114176190Y-78898390D02*
X113985714Y-78898390D01*
X113985714Y-78898390D02*
X113890476Y-78946009D01*
X113890476Y-78946009D02*
X113842857Y-78993628D01*
X113842857Y-78993628D02*
X113795238Y-79088866D01*
X113795238Y-79088866D02*
X113795238Y-79279342D01*
X113795238Y-79279342D02*
X113842857Y-79374580D01*
X113842857Y-79374580D02*
X113890476Y-79422200D01*
X113890476Y-79422200D02*
X113985714Y-79469819D01*
X113985714Y-79469819D02*
X114176190Y-79469819D01*
X114176190Y-79469819D02*
X114271428Y-79422200D01*
X114271428Y-79422200D02*
X114319047Y-79374580D01*
X114319047Y-79374580D02*
X114366666Y-79279342D01*
X114366666Y-79279342D02*
X114366666Y-79088866D01*
X114366666Y-79088866D02*
X114319047Y-78993628D01*
X114319047Y-78993628D02*
X114271428Y-78946009D01*
X114271428Y-78946009D02*
X114176190Y-78898390D01*
X120459819Y-84296189D02*
X119459819Y-84296189D01*
X119459819Y-84296189D02*
X120174104Y-83962856D01*
X120174104Y-83962856D02*
X119459819Y-83629523D01*
X119459819Y-83629523D02*
X120459819Y-83629523D01*
X120459819Y-83153332D02*
X119459819Y-83153332D01*
X120459819Y-82677142D02*
X119459819Y-82677142D01*
X119459819Y-82677142D02*
X120459819Y-82105714D01*
X120459819Y-82105714D02*
X119459819Y-82105714D01*
X120555057Y-81867619D02*
X120555057Y-81105714D01*
X120459819Y-80391428D02*
X120459819Y-80867618D01*
X120459819Y-80867618D02*
X119459819Y-80867618D01*
X119936009Y-80058094D02*
X119936009Y-79724761D01*
X120459819Y-79581904D02*
X120459819Y-80058094D01*
X120459819Y-80058094D02*
X119459819Y-80058094D01*
X119459819Y-80058094D02*
X119459819Y-79581904D01*
X120459819Y-79153332D02*
X119459819Y-79153332D01*
X119459819Y-79153332D02*
X119459819Y-78915237D01*
X119459819Y-78915237D02*
X119507438Y-78772380D01*
X119507438Y-78772380D02*
X119602676Y-78677142D01*
X119602676Y-78677142D02*
X119697914Y-78629523D01*
X119697914Y-78629523D02*
X119888390Y-78581904D01*
X119888390Y-78581904D02*
X120031247Y-78581904D01*
X120031247Y-78581904D02*
X120221723Y-78629523D01*
X120221723Y-78629523D02*
X120316961Y-78677142D01*
X120316961Y-78677142D02*
X120412200Y-78772380D01*
X120412200Y-78772380D02*
X120459819Y-78915237D01*
X120459819Y-78915237D02*
X120459819Y-79153332D01*
X120555057Y-78391428D02*
X120555057Y-77629523D01*
X120459819Y-77391427D02*
X119459819Y-77391427D01*
X119459819Y-76724761D02*
X119459819Y-76534285D01*
X119459819Y-76534285D02*
X119507438Y-76439047D01*
X119507438Y-76439047D02*
X119602676Y-76343809D01*
X119602676Y-76343809D02*
X119793152Y-76296190D01*
X119793152Y-76296190D02*
X120126485Y-76296190D01*
X120126485Y-76296190D02*
X120316961Y-76343809D01*
X120316961Y-76343809D02*
X120412200Y-76439047D01*
X120412200Y-76439047D02*
X120459819Y-76534285D01*
X120459819Y-76534285D02*
X120459819Y-76724761D01*
X120459819Y-76724761D02*
X120412200Y-76819999D01*
X120412200Y-76819999D02*
X120316961Y-76915237D01*
X120316961Y-76915237D02*
X120126485Y-76962856D01*
X120126485Y-76962856D02*
X119793152Y-76962856D01*
X119793152Y-76962856D02*
X119602676Y-76915237D01*
X119602676Y-76915237D02*
X119507438Y-76819999D01*
X119507438Y-76819999D02*
X119459819Y-76724761D01*
X158736666Y-78339819D02*
X158736666Y-79054104D01*
X158736666Y-79054104D02*
X158689047Y-79196961D01*
X158689047Y-79196961D02*
X158593809Y-79292200D01*
X158593809Y-79292200D02*
X158450952Y-79339819D01*
X158450952Y-79339819D02*
X158355714Y-79339819D01*
X159641428Y-78673152D02*
X159641428Y-79339819D01*
X159403333Y-78292200D02*
X159165238Y-79006485D01*
X159165238Y-79006485D02*
X159784285Y-79006485D01*
X165759819Y-83706190D02*
X164759819Y-83706190D01*
X165236009Y-83706190D02*
X165236009Y-83134762D01*
X165759819Y-83134762D02*
X164759819Y-83134762D01*
X165759819Y-82087143D02*
X165283628Y-82420476D01*
X165759819Y-82658571D02*
X164759819Y-82658571D01*
X164759819Y-82658571D02*
X164759819Y-82277619D01*
X164759819Y-82277619D02*
X164807438Y-82182381D01*
X164807438Y-82182381D02*
X164855057Y-82134762D01*
X164855057Y-82134762D02*
X164950295Y-82087143D01*
X164950295Y-82087143D02*
X165093152Y-82087143D01*
X165093152Y-82087143D02*
X165188390Y-82134762D01*
X165188390Y-82134762D02*
X165236009Y-82182381D01*
X165236009Y-82182381D02*
X165283628Y-82277619D01*
X165283628Y-82277619D02*
X165283628Y-82658571D01*
X165855057Y-81896667D02*
X165855057Y-81134762D01*
X165759819Y-80420476D02*
X165759819Y-80896666D01*
X165759819Y-80896666D02*
X164759819Y-80896666D01*
X165236009Y-80087142D02*
X165236009Y-79753809D01*
X165759819Y-79610952D02*
X165759819Y-80087142D01*
X165759819Y-80087142D02*
X164759819Y-80087142D01*
X164759819Y-80087142D02*
X164759819Y-79610952D01*
X165759819Y-79182380D02*
X164759819Y-79182380D01*
X164759819Y-79182380D02*
X164759819Y-78944285D01*
X164759819Y-78944285D02*
X164807438Y-78801428D01*
X164807438Y-78801428D02*
X164902676Y-78706190D01*
X164902676Y-78706190D02*
X164997914Y-78658571D01*
X164997914Y-78658571D02*
X165188390Y-78610952D01*
X165188390Y-78610952D02*
X165331247Y-78610952D01*
X165331247Y-78610952D02*
X165521723Y-78658571D01*
X165521723Y-78658571D02*
X165616961Y-78706190D01*
X165616961Y-78706190D02*
X165712200Y-78801428D01*
X165712200Y-78801428D02*
X165759819Y-78944285D01*
X165759819Y-78944285D02*
X165759819Y-79182380D01*
X165855057Y-78420476D02*
X165855057Y-77658571D01*
X165759819Y-77420475D02*
X164759819Y-77420475D01*
X164759819Y-77420475D02*
X164759819Y-77039523D01*
X164759819Y-77039523D02*
X164807438Y-76944285D01*
X164807438Y-76944285D02*
X164855057Y-76896666D01*
X164855057Y-76896666D02*
X164950295Y-76849047D01*
X164950295Y-76849047D02*
X165093152Y-76849047D01*
X165093152Y-76849047D02*
X165188390Y-76896666D01*
X165188390Y-76896666D02*
X165236009Y-76944285D01*
X165236009Y-76944285D02*
X165283628Y-77039523D01*
X165283628Y-77039523D02*
X165283628Y-77420475D01*
X164759819Y-76515713D02*
X165759819Y-76277618D01*
X165759819Y-76277618D02*
X165045533Y-76087142D01*
X165045533Y-76087142D02*
X165759819Y-75896666D01*
X165759819Y-75896666D02*
X164759819Y-75658571D01*
X165759819Y-74706190D02*
X165283628Y-75039523D01*
X165759819Y-75277618D02*
X164759819Y-75277618D01*
X164759819Y-75277618D02*
X164759819Y-74896666D01*
X164759819Y-74896666D02*
X164807438Y-74801428D01*
X164807438Y-74801428D02*
X164855057Y-74753809D01*
X164855057Y-74753809D02*
X164950295Y-74706190D01*
X164950295Y-74706190D02*
X165093152Y-74706190D01*
X165093152Y-74706190D02*
X165188390Y-74753809D01*
X165188390Y-74753809D02*
X165236009Y-74801428D01*
X165236009Y-74801428D02*
X165283628Y-74896666D01*
X165283628Y-74896666D02*
X165283628Y-75277618D01*
X124696666Y-78469819D02*
X124696666Y-79184104D01*
X124696666Y-79184104D02*
X124649047Y-79326961D01*
X124649047Y-79326961D02*
X124553809Y-79422200D01*
X124553809Y-79422200D02*
X124410952Y-79469819D01*
X124410952Y-79469819D02*
X124315714Y-79469819D01*
X125649047Y-78469819D02*
X125172857Y-78469819D01*
X125172857Y-78469819D02*
X125125238Y-78946009D01*
X125125238Y-78946009D02*
X125172857Y-78898390D01*
X125172857Y-78898390D02*
X125268095Y-78850771D01*
X125268095Y-78850771D02*
X125506190Y-78850771D01*
X125506190Y-78850771D02*
X125601428Y-78898390D01*
X125601428Y-78898390D02*
X125649047Y-78946009D01*
X125649047Y-78946009D02*
X125696666Y-79041247D01*
X125696666Y-79041247D02*
X125696666Y-79279342D01*
X125696666Y-79279342D02*
X125649047Y-79374580D01*
X125649047Y-79374580D02*
X125601428Y-79422200D01*
X125601428Y-79422200D02*
X125506190Y-79469819D01*
X125506190Y-79469819D02*
X125268095Y-79469819D01*
X125268095Y-79469819D02*
X125172857Y-79422200D01*
X125172857Y-79422200D02*
X125125238Y-79374580D01*
X131679819Y-84685713D02*
X130679819Y-84685713D01*
X130679819Y-84685713D02*
X131394104Y-84352380D01*
X131394104Y-84352380D02*
X130679819Y-84019047D01*
X130679819Y-84019047D02*
X131679819Y-84019047D01*
X131679819Y-83542856D02*
X130679819Y-83542856D01*
X131679819Y-83066666D02*
X130679819Y-83066666D01*
X130679819Y-83066666D02*
X131679819Y-82495238D01*
X131679819Y-82495238D02*
X130679819Y-82495238D01*
X131775057Y-82257143D02*
X131775057Y-81495238D01*
X131679819Y-80780952D02*
X131679819Y-81257142D01*
X131679819Y-81257142D02*
X130679819Y-81257142D01*
X131156009Y-80447618D02*
X131156009Y-80114285D01*
X131679819Y-79971428D02*
X131679819Y-80447618D01*
X131679819Y-80447618D02*
X130679819Y-80447618D01*
X130679819Y-80447618D02*
X130679819Y-79971428D01*
X131679819Y-79542856D02*
X130679819Y-79542856D01*
X130679819Y-79542856D02*
X130679819Y-79304761D01*
X130679819Y-79304761D02*
X130727438Y-79161904D01*
X130727438Y-79161904D02*
X130822676Y-79066666D01*
X130822676Y-79066666D02*
X130917914Y-79019047D01*
X130917914Y-79019047D02*
X131108390Y-78971428D01*
X131108390Y-78971428D02*
X131251247Y-78971428D01*
X131251247Y-78971428D02*
X131441723Y-79019047D01*
X131441723Y-79019047D02*
X131536961Y-79066666D01*
X131536961Y-79066666D02*
X131632200Y-79161904D01*
X131632200Y-79161904D02*
X131679819Y-79304761D01*
X131679819Y-79304761D02*
X131679819Y-79542856D01*
X131775057Y-78780952D02*
X131775057Y-78019047D01*
X131679819Y-77780951D02*
X130679819Y-77780951D01*
X130679819Y-77780951D02*
X130679819Y-77399999D01*
X130679819Y-77399999D02*
X130727438Y-77304761D01*
X130727438Y-77304761D02*
X130775057Y-77257142D01*
X130775057Y-77257142D02*
X130870295Y-77209523D01*
X130870295Y-77209523D02*
X131013152Y-77209523D01*
X131013152Y-77209523D02*
X131108390Y-77257142D01*
X131108390Y-77257142D02*
X131156009Y-77304761D01*
X131156009Y-77304761D02*
X131203628Y-77399999D01*
X131203628Y-77399999D02*
X131203628Y-77780951D01*
X130679819Y-76876189D02*
X131679819Y-76638094D01*
X131679819Y-76638094D02*
X130965533Y-76447618D01*
X130965533Y-76447618D02*
X131679819Y-76257142D01*
X131679819Y-76257142D02*
X130679819Y-76019047D01*
X131679819Y-75066666D02*
X131203628Y-75399999D01*
X131679819Y-75638094D02*
X130679819Y-75638094D01*
X130679819Y-75638094D02*
X130679819Y-75257142D01*
X130679819Y-75257142D02*
X130727438Y-75161904D01*
X130727438Y-75161904D02*
X130775057Y-75114285D01*
X130775057Y-75114285D02*
X130870295Y-75066666D01*
X130870295Y-75066666D02*
X131013152Y-75066666D01*
X131013152Y-75066666D02*
X131108390Y-75114285D01*
X131108390Y-75114285D02*
X131156009Y-75161904D01*
X131156009Y-75161904D02*
X131203628Y-75257142D01*
X131203628Y-75257142D02*
X131203628Y-75638094D01*
X96381905Y-122186819D02*
X97000952Y-122186819D01*
X97000952Y-122186819D02*
X96667619Y-122567771D01*
X96667619Y-122567771D02*
X96810476Y-122567771D01*
X96810476Y-122567771D02*
X96905714Y-122615390D01*
X96905714Y-122615390D02*
X96953333Y-122663009D01*
X96953333Y-122663009D02*
X97000952Y-122758247D01*
X97000952Y-122758247D02*
X97000952Y-122996342D01*
X97000952Y-122996342D02*
X96953333Y-123091580D01*
X96953333Y-123091580D02*
X96905714Y-123139200D01*
X96905714Y-123139200D02*
X96810476Y-123186819D01*
X96810476Y-123186819D02*
X96524762Y-123186819D01*
X96524762Y-123186819D02*
X96429524Y-123139200D01*
X96429524Y-123139200D02*
X96381905Y-123091580D01*
X97286667Y-122186819D02*
X97620000Y-123186819D01*
X97620000Y-123186819D02*
X97953333Y-122186819D01*
X98191429Y-122186819D02*
X98810476Y-122186819D01*
X98810476Y-122186819D02*
X98477143Y-122567771D01*
X98477143Y-122567771D02*
X98620000Y-122567771D01*
X98620000Y-122567771D02*
X98715238Y-122615390D01*
X98715238Y-122615390D02*
X98762857Y-122663009D01*
X98762857Y-122663009D02*
X98810476Y-122758247D01*
X98810476Y-122758247D02*
X98810476Y-122996342D01*
X98810476Y-122996342D02*
X98762857Y-123091580D01*
X98762857Y-123091580D02*
X98715238Y-123139200D01*
X98715238Y-123139200D02*
X98620000Y-123186819D01*
X98620000Y-123186819D02*
X98334286Y-123186819D01*
X98334286Y-123186819D02*
X98239048Y-123139200D01*
X98239048Y-123139200D02*
X98191429Y-123091580D01*
X138760476Y-121494819D02*
X138760476Y-122209104D01*
X138760476Y-122209104D02*
X138712857Y-122351961D01*
X138712857Y-122351961D02*
X138617619Y-122447200D01*
X138617619Y-122447200D02*
X138474762Y-122494819D01*
X138474762Y-122494819D02*
X138379524Y-122494819D01*
X139760476Y-122494819D02*
X139189048Y-122494819D01*
X139474762Y-122494819D02*
X139474762Y-121494819D01*
X139474762Y-121494819D02*
X139379524Y-121637676D01*
X139379524Y-121637676D02*
X139284286Y-121732914D01*
X139284286Y-121732914D02*
X139189048Y-121780533D01*
X140379524Y-121494819D02*
X140474762Y-121494819D01*
X140474762Y-121494819D02*
X140570000Y-121542438D01*
X140570000Y-121542438D02*
X140617619Y-121590057D01*
X140617619Y-121590057D02*
X140665238Y-121685295D01*
X140665238Y-121685295D02*
X140712857Y-121875771D01*
X140712857Y-121875771D02*
X140712857Y-122113866D01*
X140712857Y-122113866D02*
X140665238Y-122304342D01*
X140665238Y-122304342D02*
X140617619Y-122399580D01*
X140617619Y-122399580D02*
X140570000Y-122447200D01*
X140570000Y-122447200D02*
X140474762Y-122494819D01*
X140474762Y-122494819D02*
X140379524Y-122494819D01*
X140379524Y-122494819D02*
X140284286Y-122447200D01*
X140284286Y-122447200D02*
X140236667Y-122399580D01*
X140236667Y-122399580D02*
X140189048Y-122304342D01*
X140189048Y-122304342D02*
X140141429Y-122113866D01*
X140141429Y-122113866D02*
X140141429Y-121875771D01*
X140141429Y-121875771D02*
X140189048Y-121685295D01*
X140189048Y-121685295D02*
X140236667Y-121590057D01*
X140236667Y-121590057D02*
X140284286Y-121542438D01*
X140284286Y-121542438D02*
X140379524Y-121494819D01*
X90666666Y-78559819D02*
X90666666Y-79274104D01*
X90666666Y-79274104D02*
X90619047Y-79416961D01*
X90619047Y-79416961D02*
X90523809Y-79512200D01*
X90523809Y-79512200D02*
X90380952Y-79559819D01*
X90380952Y-79559819D02*
X90285714Y-79559819D01*
X91571428Y-78559819D02*
X91380952Y-78559819D01*
X91380952Y-78559819D02*
X91285714Y-78607438D01*
X91285714Y-78607438D02*
X91238095Y-78655057D01*
X91238095Y-78655057D02*
X91142857Y-78797914D01*
X91142857Y-78797914D02*
X91095238Y-78988390D01*
X91095238Y-78988390D02*
X91095238Y-79369342D01*
X91095238Y-79369342D02*
X91142857Y-79464580D01*
X91142857Y-79464580D02*
X91190476Y-79512200D01*
X91190476Y-79512200D02*
X91285714Y-79559819D01*
X91285714Y-79559819D02*
X91476190Y-79559819D01*
X91476190Y-79559819D02*
X91571428Y-79512200D01*
X91571428Y-79512200D02*
X91619047Y-79464580D01*
X91619047Y-79464580D02*
X91666666Y-79369342D01*
X91666666Y-79369342D02*
X91666666Y-79131247D01*
X91666666Y-79131247D02*
X91619047Y-79036009D01*
X91619047Y-79036009D02*
X91571428Y-78988390D01*
X91571428Y-78988390D02*
X91476190Y-78940771D01*
X91476190Y-78940771D02*
X91285714Y-78940771D01*
X91285714Y-78940771D02*
X91190476Y-78988390D01*
X91190476Y-78988390D02*
X91142857Y-79036009D01*
X91142857Y-79036009D02*
X91095238Y-79131247D01*
X97552200Y-86058571D02*
X97599819Y-85915714D01*
X97599819Y-85915714D02*
X97599819Y-85677619D01*
X97599819Y-85677619D02*
X97552200Y-85582381D01*
X97552200Y-85582381D02*
X97504580Y-85534762D01*
X97504580Y-85534762D02*
X97409342Y-85487143D01*
X97409342Y-85487143D02*
X97314104Y-85487143D01*
X97314104Y-85487143D02*
X97218866Y-85534762D01*
X97218866Y-85534762D02*
X97171247Y-85582381D01*
X97171247Y-85582381D02*
X97123628Y-85677619D01*
X97123628Y-85677619D02*
X97076009Y-85868095D01*
X97076009Y-85868095D02*
X97028390Y-85963333D01*
X97028390Y-85963333D02*
X96980771Y-86010952D01*
X96980771Y-86010952D02*
X96885533Y-86058571D01*
X96885533Y-86058571D02*
X96790295Y-86058571D01*
X96790295Y-86058571D02*
X96695057Y-86010952D01*
X96695057Y-86010952D02*
X96647438Y-85963333D01*
X96647438Y-85963333D02*
X96599819Y-85868095D01*
X96599819Y-85868095D02*
X96599819Y-85630000D01*
X96599819Y-85630000D02*
X96647438Y-85487143D01*
X97076009Y-85058571D02*
X97076009Y-84725238D01*
X97599819Y-84582381D02*
X97599819Y-85058571D01*
X97599819Y-85058571D02*
X96599819Y-85058571D01*
X96599819Y-85058571D02*
X96599819Y-84582381D01*
X97504580Y-83582381D02*
X97552200Y-83630000D01*
X97552200Y-83630000D02*
X97599819Y-83772857D01*
X97599819Y-83772857D02*
X97599819Y-83868095D01*
X97599819Y-83868095D02*
X97552200Y-84010952D01*
X97552200Y-84010952D02*
X97456961Y-84106190D01*
X97456961Y-84106190D02*
X97361723Y-84153809D01*
X97361723Y-84153809D02*
X97171247Y-84201428D01*
X97171247Y-84201428D02*
X97028390Y-84201428D01*
X97028390Y-84201428D02*
X96837914Y-84153809D01*
X96837914Y-84153809D02*
X96742676Y-84106190D01*
X96742676Y-84106190D02*
X96647438Y-84010952D01*
X96647438Y-84010952D02*
X96599819Y-83868095D01*
X96599819Y-83868095D02*
X96599819Y-83772857D01*
X96599819Y-83772857D02*
X96647438Y-83630000D01*
X96647438Y-83630000D02*
X96695057Y-83582381D01*
X97695057Y-83391905D02*
X97695057Y-82630000D01*
X97599819Y-81915714D02*
X97599819Y-82391904D01*
X97599819Y-82391904D02*
X96599819Y-82391904D01*
X97076009Y-81582380D02*
X97076009Y-81249047D01*
X97599819Y-81106190D02*
X97599819Y-81582380D01*
X97599819Y-81582380D02*
X96599819Y-81582380D01*
X96599819Y-81582380D02*
X96599819Y-81106190D01*
X97599819Y-80677618D02*
X96599819Y-80677618D01*
X96599819Y-80677618D02*
X96599819Y-80439523D01*
X96599819Y-80439523D02*
X96647438Y-80296666D01*
X96647438Y-80296666D02*
X96742676Y-80201428D01*
X96742676Y-80201428D02*
X96837914Y-80153809D01*
X96837914Y-80153809D02*
X97028390Y-80106190D01*
X97028390Y-80106190D02*
X97171247Y-80106190D01*
X97171247Y-80106190D02*
X97361723Y-80153809D01*
X97361723Y-80153809D02*
X97456961Y-80201428D01*
X97456961Y-80201428D02*
X97552200Y-80296666D01*
X97552200Y-80296666D02*
X97599819Y-80439523D01*
X97599819Y-80439523D02*
X97599819Y-80677618D01*
X97695057Y-79915714D02*
X97695057Y-79153809D01*
X97599819Y-78915713D02*
X96599819Y-78915713D01*
X96599819Y-78915713D02*
X96599819Y-78534761D01*
X96599819Y-78534761D02*
X96647438Y-78439523D01*
X96647438Y-78439523D02*
X96695057Y-78391904D01*
X96695057Y-78391904D02*
X96790295Y-78344285D01*
X96790295Y-78344285D02*
X96933152Y-78344285D01*
X96933152Y-78344285D02*
X97028390Y-78391904D01*
X97028390Y-78391904D02*
X97076009Y-78439523D01*
X97076009Y-78439523D02*
X97123628Y-78534761D01*
X97123628Y-78534761D02*
X97123628Y-78915713D01*
X96599819Y-78010951D02*
X97599819Y-77772856D01*
X97599819Y-77772856D02*
X96885533Y-77582380D01*
X96885533Y-77582380D02*
X97599819Y-77391904D01*
X97599819Y-77391904D02*
X96599819Y-77153809D01*
X97599819Y-76201428D02*
X97123628Y-76534761D01*
X97599819Y-76772856D02*
X96599819Y-76772856D01*
X96599819Y-76772856D02*
X96599819Y-76391904D01*
X96599819Y-76391904D02*
X96647438Y-76296666D01*
X96647438Y-76296666D02*
X96695057Y-76249047D01*
X96695057Y-76249047D02*
X96790295Y-76201428D01*
X96790295Y-76201428D02*
X96933152Y-76201428D01*
X96933152Y-76201428D02*
X97028390Y-76249047D01*
X97028390Y-76249047D02*
X97076009Y-76296666D01*
X97076009Y-76296666D02*
X97123628Y-76391904D01*
X97123628Y-76391904D02*
X97123628Y-76772856D01*
X156790476Y-126039819D02*
X156790476Y-126754104D01*
X156790476Y-126754104D02*
X156742857Y-126896961D01*
X156742857Y-126896961D02*
X156647619Y-126992200D01*
X156647619Y-126992200D02*
X156504762Y-127039819D01*
X156504762Y-127039819D02*
X156409524Y-127039819D01*
X157790476Y-127039819D02*
X157219048Y-127039819D01*
X157504762Y-127039819D02*
X157504762Y-126039819D01*
X157504762Y-126039819D02*
X157409524Y-126182676D01*
X157409524Y-126182676D02*
X157314286Y-126277914D01*
X157314286Y-126277914D02*
X157219048Y-126325533D01*
X158742857Y-127039819D02*
X158171429Y-127039819D01*
X158457143Y-127039819D02*
X158457143Y-126039819D01*
X158457143Y-126039819D02*
X158361905Y-126182676D01*
X158361905Y-126182676D02*
X158266667Y-126277914D01*
X158266667Y-126277914D02*
X158171429Y-126325533D01*
X168182200Y-128893333D02*
X168229819Y-128750476D01*
X168229819Y-128750476D02*
X168229819Y-128512381D01*
X168229819Y-128512381D02*
X168182200Y-128417143D01*
X168182200Y-128417143D02*
X168134580Y-128369524D01*
X168134580Y-128369524D02*
X168039342Y-128321905D01*
X168039342Y-128321905D02*
X167944104Y-128321905D01*
X167944104Y-128321905D02*
X167848866Y-128369524D01*
X167848866Y-128369524D02*
X167801247Y-128417143D01*
X167801247Y-128417143D02*
X167753628Y-128512381D01*
X167753628Y-128512381D02*
X167706009Y-128702857D01*
X167706009Y-128702857D02*
X167658390Y-128798095D01*
X167658390Y-128798095D02*
X167610771Y-128845714D01*
X167610771Y-128845714D02*
X167515533Y-128893333D01*
X167515533Y-128893333D02*
X167420295Y-128893333D01*
X167420295Y-128893333D02*
X167325057Y-128845714D01*
X167325057Y-128845714D02*
X167277438Y-128798095D01*
X167277438Y-128798095D02*
X167229819Y-128702857D01*
X167229819Y-128702857D02*
X167229819Y-128464762D01*
X167229819Y-128464762D02*
X167277438Y-128321905D01*
X168182200Y-127512381D02*
X168229819Y-127607619D01*
X168229819Y-127607619D02*
X168229819Y-127798095D01*
X168229819Y-127798095D02*
X168182200Y-127893333D01*
X168182200Y-127893333D02*
X168086961Y-127940952D01*
X168086961Y-127940952D02*
X167706009Y-127940952D01*
X167706009Y-127940952D02*
X167610771Y-127893333D01*
X167610771Y-127893333D02*
X167563152Y-127798095D01*
X167563152Y-127798095D02*
X167563152Y-127607619D01*
X167563152Y-127607619D02*
X167610771Y-127512381D01*
X167610771Y-127512381D02*
X167706009Y-127464762D01*
X167706009Y-127464762D02*
X167801247Y-127464762D01*
X167801247Y-127464762D02*
X167896485Y-127940952D01*
X167563152Y-127036190D02*
X168229819Y-127036190D01*
X167658390Y-127036190D02*
X167610771Y-126988571D01*
X167610771Y-126988571D02*
X167563152Y-126893333D01*
X167563152Y-126893333D02*
X167563152Y-126750476D01*
X167563152Y-126750476D02*
X167610771Y-126655238D01*
X167610771Y-126655238D02*
X167706009Y-126607619D01*
X167706009Y-126607619D02*
X168229819Y-126607619D01*
X168182200Y-126179047D02*
X168229819Y-126083809D01*
X168229819Y-126083809D02*
X168229819Y-125893333D01*
X168229819Y-125893333D02*
X168182200Y-125798095D01*
X168182200Y-125798095D02*
X168086961Y-125750476D01*
X168086961Y-125750476D02*
X168039342Y-125750476D01*
X168039342Y-125750476D02*
X167944104Y-125798095D01*
X167944104Y-125798095D02*
X167896485Y-125893333D01*
X167896485Y-125893333D02*
X167896485Y-126036190D01*
X167896485Y-126036190D02*
X167848866Y-126131428D01*
X167848866Y-126131428D02*
X167753628Y-126179047D01*
X167753628Y-126179047D02*
X167706009Y-126179047D01*
X167706009Y-126179047D02*
X167610771Y-126131428D01*
X167610771Y-126131428D02*
X167563152Y-126036190D01*
X167563152Y-126036190D02*
X167563152Y-125893333D01*
X167563152Y-125893333D02*
X167610771Y-125798095D01*
X168229819Y-125179047D02*
X168182200Y-125274285D01*
X168182200Y-125274285D02*
X168134580Y-125321904D01*
X168134580Y-125321904D02*
X168039342Y-125369523D01*
X168039342Y-125369523D02*
X167753628Y-125369523D01*
X167753628Y-125369523D02*
X167658390Y-125321904D01*
X167658390Y-125321904D02*
X167610771Y-125274285D01*
X167610771Y-125274285D02*
X167563152Y-125179047D01*
X167563152Y-125179047D02*
X167563152Y-125036190D01*
X167563152Y-125036190D02*
X167610771Y-124940952D01*
X167610771Y-124940952D02*
X167658390Y-124893333D01*
X167658390Y-124893333D02*
X167753628Y-124845714D01*
X167753628Y-124845714D02*
X168039342Y-124845714D01*
X168039342Y-124845714D02*
X168134580Y-124893333D01*
X168134580Y-124893333D02*
X168182200Y-124940952D01*
X168182200Y-124940952D02*
X168229819Y-125036190D01*
X168229819Y-125036190D02*
X168229819Y-125179047D01*
X168229819Y-124417142D02*
X167563152Y-124417142D01*
X167753628Y-124417142D02*
X167658390Y-124369523D01*
X167658390Y-124369523D02*
X167610771Y-124321904D01*
X167610771Y-124321904D02*
X167563152Y-124226666D01*
X167563152Y-124226666D02*
X167563152Y-124131428D01*
X136046666Y-78539819D02*
X136046666Y-79254104D01*
X136046666Y-79254104D02*
X135999047Y-79396961D01*
X135999047Y-79396961D02*
X135903809Y-79492200D01*
X135903809Y-79492200D02*
X135760952Y-79539819D01*
X135760952Y-79539819D02*
X135665714Y-79539819D01*
X136475238Y-78635057D02*
X136522857Y-78587438D01*
X136522857Y-78587438D02*
X136618095Y-78539819D01*
X136618095Y-78539819D02*
X136856190Y-78539819D01*
X136856190Y-78539819D02*
X136951428Y-78587438D01*
X136951428Y-78587438D02*
X136999047Y-78635057D01*
X136999047Y-78635057D02*
X137046666Y-78730295D01*
X137046666Y-78730295D02*
X137046666Y-78825533D01*
X137046666Y-78825533D02*
X136999047Y-78968390D01*
X136999047Y-78968390D02*
X136427619Y-79539819D01*
X136427619Y-79539819D02*
X137046666Y-79539819D01*
X143019819Y-79095237D02*
X142019819Y-79095237D01*
X142019819Y-79095237D02*
X142734104Y-78761904D01*
X142734104Y-78761904D02*
X142019819Y-78428571D01*
X142019819Y-78428571D02*
X143019819Y-78428571D01*
X143019819Y-77952380D02*
X142019819Y-77952380D01*
X143019819Y-77476190D02*
X142019819Y-77476190D01*
X142019819Y-77476190D02*
X143019819Y-76904762D01*
X143019819Y-76904762D02*
X142019819Y-76904762D01*
X125098458Y-125899819D02*
X125098458Y-126614104D01*
X125098458Y-126614104D02*
X125050839Y-126756961D01*
X125050839Y-126756961D02*
X124955601Y-126852200D01*
X124955601Y-126852200D02*
X124812744Y-126899819D01*
X124812744Y-126899819D02*
X124717506Y-126899819D01*
X126098458Y-126899819D02*
X125527030Y-126899819D01*
X125812744Y-126899819D02*
X125812744Y-125899819D01*
X125812744Y-125899819D02*
X125717506Y-126042676D01*
X125717506Y-126042676D02*
X125622268Y-126137914D01*
X125622268Y-126137914D02*
X125527030Y-126185533D01*
X126479411Y-125995057D02*
X126527030Y-125947438D01*
X126527030Y-125947438D02*
X126622268Y-125899819D01*
X126622268Y-125899819D02*
X126860363Y-125899819D01*
X126860363Y-125899819D02*
X126955601Y-125947438D01*
X126955601Y-125947438D02*
X127003220Y-125995057D01*
X127003220Y-125995057D02*
X127050839Y-126090295D01*
X127050839Y-126090295D02*
X127050839Y-126185533D01*
X127050839Y-126185533D02*
X127003220Y-126328390D01*
X127003220Y-126328390D02*
X126431792Y-126899819D01*
X126431792Y-126899819D02*
X127050839Y-126899819D01*
X113489819Y-127641065D02*
X113013628Y-127974398D01*
X113489819Y-128212493D02*
X112489819Y-128212493D01*
X112489819Y-128212493D02*
X112489819Y-127831541D01*
X112489819Y-127831541D02*
X112537438Y-127736303D01*
X112537438Y-127736303D02*
X112585057Y-127688684D01*
X112585057Y-127688684D02*
X112680295Y-127641065D01*
X112680295Y-127641065D02*
X112823152Y-127641065D01*
X112823152Y-127641065D02*
X112918390Y-127688684D01*
X112918390Y-127688684D02*
X112966009Y-127736303D01*
X112966009Y-127736303D02*
X113013628Y-127831541D01*
X113013628Y-127831541D02*
X113013628Y-128212493D01*
X112489819Y-127355350D02*
X112489819Y-126783922D01*
X113489819Y-127069636D02*
X112489819Y-127069636D01*
X113394580Y-125879160D02*
X113442200Y-125926779D01*
X113442200Y-125926779D02*
X113489819Y-126069636D01*
X113489819Y-126069636D02*
X113489819Y-126164874D01*
X113489819Y-126164874D02*
X113442200Y-126307731D01*
X113442200Y-126307731D02*
X113346961Y-126402969D01*
X113346961Y-126402969D02*
X113251723Y-126450588D01*
X113251723Y-126450588D02*
X113061247Y-126498207D01*
X113061247Y-126498207D02*
X112918390Y-126498207D01*
X112918390Y-126498207D02*
X112727914Y-126450588D01*
X112727914Y-126450588D02*
X112632676Y-126402969D01*
X112632676Y-126402969D02*
X112537438Y-126307731D01*
X112537438Y-126307731D02*
X112489819Y-126164874D01*
X112489819Y-126164874D02*
X112489819Y-126069636D01*
X112489819Y-126069636D02*
X112537438Y-125926779D01*
X112537438Y-125926779D02*
X112585057Y-125879160D01*
X170081666Y-78439819D02*
X170081666Y-79154104D01*
X170081666Y-79154104D02*
X170034047Y-79296961D01*
X170034047Y-79296961D02*
X169938809Y-79392200D01*
X169938809Y-79392200D02*
X169795952Y-79439819D01*
X169795952Y-79439819D02*
X169700714Y-79439819D01*
X171081666Y-79439819D02*
X170510238Y-79439819D01*
X170795952Y-79439819D02*
X170795952Y-78439819D01*
X170795952Y-78439819D02*
X170700714Y-78582676D01*
X170700714Y-78582676D02*
X170605476Y-78677914D01*
X170605476Y-78677914D02*
X170510238Y-78725533D01*
X175499819Y-80265713D02*
X174499819Y-80265713D01*
X174976009Y-80265713D02*
X174976009Y-79694285D01*
X175499819Y-79694285D02*
X174499819Y-79694285D01*
X175499819Y-78646666D02*
X175023628Y-78979999D01*
X175499819Y-79218094D02*
X174499819Y-79218094D01*
X174499819Y-79218094D02*
X174499819Y-78837142D01*
X174499819Y-78837142D02*
X174547438Y-78741904D01*
X174547438Y-78741904D02*
X174595057Y-78694285D01*
X174595057Y-78694285D02*
X174690295Y-78646666D01*
X174690295Y-78646666D02*
X174833152Y-78646666D01*
X174833152Y-78646666D02*
X174928390Y-78694285D01*
X174928390Y-78694285D02*
X174976009Y-78741904D01*
X174976009Y-78741904D02*
X175023628Y-78837142D01*
X175023628Y-78837142D02*
X175023628Y-79218094D01*
X101856666Y-78519819D02*
X101856666Y-79234104D01*
X101856666Y-79234104D02*
X101809047Y-79376961D01*
X101809047Y-79376961D02*
X101713809Y-79472200D01*
X101713809Y-79472200D02*
X101570952Y-79519819D01*
X101570952Y-79519819D02*
X101475714Y-79519819D01*
X102237619Y-78519819D02*
X102856666Y-78519819D01*
X102856666Y-78519819D02*
X102523333Y-78900771D01*
X102523333Y-78900771D02*
X102666190Y-78900771D01*
X102666190Y-78900771D02*
X102761428Y-78948390D01*
X102761428Y-78948390D02*
X102809047Y-78996009D01*
X102809047Y-78996009D02*
X102856666Y-79091247D01*
X102856666Y-79091247D02*
X102856666Y-79329342D01*
X102856666Y-79329342D02*
X102809047Y-79424580D01*
X102809047Y-79424580D02*
X102761428Y-79472200D01*
X102761428Y-79472200D02*
X102666190Y-79519819D01*
X102666190Y-79519819D02*
X102380476Y-79519819D01*
X102380476Y-79519819D02*
X102285238Y-79472200D01*
X102285238Y-79472200D02*
X102237619Y-79424580D01*
X108902200Y-79868094D02*
X108949819Y-79725237D01*
X108949819Y-79725237D02*
X108949819Y-79487142D01*
X108949819Y-79487142D02*
X108902200Y-79391904D01*
X108902200Y-79391904D02*
X108854580Y-79344285D01*
X108854580Y-79344285D02*
X108759342Y-79296666D01*
X108759342Y-79296666D02*
X108664104Y-79296666D01*
X108664104Y-79296666D02*
X108568866Y-79344285D01*
X108568866Y-79344285D02*
X108521247Y-79391904D01*
X108521247Y-79391904D02*
X108473628Y-79487142D01*
X108473628Y-79487142D02*
X108426009Y-79677618D01*
X108426009Y-79677618D02*
X108378390Y-79772856D01*
X108378390Y-79772856D02*
X108330771Y-79820475D01*
X108330771Y-79820475D02*
X108235533Y-79868094D01*
X108235533Y-79868094D02*
X108140295Y-79868094D01*
X108140295Y-79868094D02*
X108045057Y-79820475D01*
X108045057Y-79820475D02*
X107997438Y-79772856D01*
X107997438Y-79772856D02*
X107949819Y-79677618D01*
X107949819Y-79677618D02*
X107949819Y-79439523D01*
X107949819Y-79439523D02*
X107997438Y-79296666D01*
X108426009Y-78868094D02*
X108426009Y-78534761D01*
X108949819Y-78391904D02*
X108949819Y-78868094D01*
X108949819Y-78868094D02*
X107949819Y-78868094D01*
X107949819Y-78868094D02*
X107949819Y-78391904D01*
X108854580Y-77391904D02*
X108902200Y-77439523D01*
X108902200Y-77439523D02*
X108949819Y-77582380D01*
X108949819Y-77582380D02*
X108949819Y-77677618D01*
X108949819Y-77677618D02*
X108902200Y-77820475D01*
X108902200Y-77820475D02*
X108806961Y-77915713D01*
X108806961Y-77915713D02*
X108711723Y-77963332D01*
X108711723Y-77963332D02*
X108521247Y-78010951D01*
X108521247Y-78010951D02*
X108378390Y-78010951D01*
X108378390Y-78010951D02*
X108187914Y-77963332D01*
X108187914Y-77963332D02*
X108092676Y-77915713D01*
X108092676Y-77915713D02*
X107997438Y-77820475D01*
X107997438Y-77820475D02*
X107949819Y-77677618D01*
X107949819Y-77677618D02*
X107949819Y-77582380D01*
X107949819Y-77582380D02*
X107997438Y-77439523D01*
X107997438Y-77439523D02*
X108045057Y-77391904D01*
X142298095Y-100754438D02*
X142202857Y-100706819D01*
X142202857Y-100706819D02*
X142060000Y-100706819D01*
X142060000Y-100706819D02*
X141917143Y-100754438D01*
X141917143Y-100754438D02*
X141821905Y-100849676D01*
X141821905Y-100849676D02*
X141774286Y-100944914D01*
X141774286Y-100944914D02*
X141726667Y-101135390D01*
X141726667Y-101135390D02*
X141726667Y-101278247D01*
X141726667Y-101278247D02*
X141774286Y-101468723D01*
X141774286Y-101468723D02*
X141821905Y-101563961D01*
X141821905Y-101563961D02*
X141917143Y-101659200D01*
X141917143Y-101659200D02*
X142060000Y-101706819D01*
X142060000Y-101706819D02*
X142155238Y-101706819D01*
X142155238Y-101706819D02*
X142298095Y-101659200D01*
X142298095Y-101659200D02*
X142345714Y-101611580D01*
X142345714Y-101611580D02*
X142345714Y-101278247D01*
X142345714Y-101278247D02*
X142155238Y-101278247D01*
X142774286Y-101706819D02*
X142774286Y-100706819D01*
X142774286Y-100706819D02*
X143345714Y-101706819D01*
X143345714Y-101706819D02*
X143345714Y-100706819D01*
X143821905Y-101706819D02*
X143821905Y-100706819D01*
X143821905Y-100706819D02*
X144060000Y-100706819D01*
X144060000Y-100706819D02*
X144202857Y-100754438D01*
X144202857Y-100754438D02*
X144298095Y-100849676D01*
X144298095Y-100849676D02*
X144345714Y-100944914D01*
X144345714Y-100944914D02*
X144393333Y-101135390D01*
X144393333Y-101135390D02*
X144393333Y-101278247D01*
X144393333Y-101278247D02*
X144345714Y-101468723D01*
X144345714Y-101468723D02*
X144298095Y-101563961D01*
X144298095Y-101563961D02*
X144202857Y-101659200D01*
X144202857Y-101659200D02*
X144060000Y-101706819D01*
X144060000Y-101706819D02*
X143821905Y-101706819D01*
D11*
X129035000Y-90600000D02*
X129035000Y-101669000D01*
X129035000Y-90600000D02*
X129035000Y-119110000D01*
X78085000Y-90600000D02*
X129035000Y-90600000D01*
X78085000Y-90600000D02*
X129035000Y-90600000D01*
X78085000Y-90600000D02*
X78085000Y-95970000D01*
X78085000Y-95970000D02*
X78085000Y-113660000D01*
X129035000Y-101669000D02*
X129035000Y-108380000D01*
X129035000Y-108380000D02*
X129035000Y-119110000D01*
X78085000Y-113660000D02*
X78085000Y-119110000D01*
X129035000Y-119110000D02*
X78085000Y-119110000D01*
X129035000Y-119110000D02*
X78085000Y-119110000D01*
X78085000Y-119110000D02*
X78085000Y-90600000D01*
D12*
X127520000Y-89950000D02*
G75*
G03*
X127520000Y-89950000I-100000J0D01*
G01*
D11*
X163925000Y-103892500D02*
X157575000Y-103892500D01*
X163925000Y-102740000D02*
X163925000Y-103892500D01*
X163925000Y-85740000D02*
X163925000Y-84587500D01*
X163925000Y-84587500D02*
X157575000Y-84587500D01*
X157575000Y-103892500D02*
X157575000Y-102740000D01*
X157575000Y-84587500D02*
X157575000Y-85740000D01*
D12*
X166150000Y-101840000D02*
G75*
G03*
X166150000Y-101840000I-100000J0D01*
G01*
D13*
X137830000Y-116390000D02*
X140230000Y-116390000D01*
X137830000Y-118790000D02*
X137830000Y-116390000D01*
X140230000Y-116390000D02*
X140230000Y-118790000D01*
X140230000Y-118790000D02*
X137830000Y-118790000D01*
X149340000Y-122060000D02*
X150670000Y-122060000D01*
X149340000Y-123390000D02*
X149340000Y-122060000D01*
X149340000Y-124660000D02*
X149340000Y-127260000D01*
X149340000Y-124660000D02*
X152000000Y-124660000D01*
X149340000Y-127260000D02*
X152000000Y-127260000D01*
X152000000Y-124660000D02*
X152000000Y-127260000D01*
D14*
X145990000Y-70950000D02*
X152990000Y-70950000D01*
X145990000Y-77150000D02*
X145990000Y-70950000D01*
X145990000Y-77950000D02*
X145990000Y-77150000D01*
X152990000Y-70950000D02*
X152990000Y-77150000D01*
X152990000Y-77150000D02*
X145990000Y-77150000D01*
X152990000Y-77150000D02*
X152990000Y-77950000D01*
X152990000Y-77950000D02*
X145990000Y-77950000D01*
G36*
X168236666Y-107326666D02*
G01*
X168236666Y-107726666D01*
X167836666Y-107726666D01*
X167436666Y-107726666D01*
X167436666Y-107326666D01*
X167436666Y-106926666D01*
X167836666Y-106926666D01*
X168236666Y-106926666D01*
X168236666Y-107326666D01*
G37*
G36*
X168236666Y-109993333D02*
G01*
X168236666Y-110126666D01*
X168103333Y-110126666D01*
X167970000Y-110126666D01*
X167970000Y-109993333D01*
X167970000Y-109860000D01*
X168103333Y-109860000D01*
X168236666Y-109860000D01*
X168236666Y-109993333D01*
G37*
G36*
X168236666Y-113193333D02*
G01*
X168236666Y-113593333D01*
X167836666Y-113593333D01*
X167436666Y-113593333D01*
X167436666Y-113193333D01*
X167436666Y-112793333D01*
X167836666Y-112793333D01*
X168236666Y-112793333D01*
X168236666Y-113193333D01*
G37*
G36*
X168770000Y-110793333D02*
G01*
X168770000Y-110926666D01*
X168636666Y-110926666D01*
X168503333Y-110926666D01*
X168503333Y-110793333D01*
X168503333Y-110660000D01*
X168636666Y-110660000D01*
X168770000Y-110660000D01*
X168770000Y-110793333D01*
G37*
G36*
X169036666Y-109726666D02*
G01*
X169036666Y-109860000D01*
X168636666Y-109860000D01*
X168236666Y-109860000D01*
X168236666Y-109726666D01*
X168236666Y-109593333D01*
X168636666Y-109593333D01*
X169036666Y-109593333D01*
X169036666Y-109726666D01*
G37*
G36*
X169303333Y-106793333D02*
G01*
X169303333Y-106926666D01*
X169170000Y-106926666D01*
X169036666Y-106926666D01*
X169036666Y-106793333D01*
X169036666Y-106660000D01*
X169170000Y-106660000D01*
X169303333Y-106660000D01*
X169303333Y-106793333D01*
G37*
G36*
X169836666Y-106793333D02*
G01*
X169836666Y-106926666D01*
X169703333Y-106926666D01*
X169570000Y-106926666D01*
X169570000Y-106793333D01*
X169570000Y-106660000D01*
X169703333Y-106660000D01*
X169836666Y-106660000D01*
X169836666Y-106793333D01*
G37*
G36*
X170103333Y-113726666D02*
G01*
X170103333Y-113860000D01*
X169970000Y-113860000D01*
X169836666Y-113860000D01*
X169836666Y-113726666D01*
X169836666Y-113593333D01*
X169970000Y-113593333D01*
X170103333Y-113593333D01*
X170103333Y-113726666D01*
G37*
G36*
X171436666Y-111593333D02*
G01*
X171436666Y-111726666D01*
X171303333Y-111726666D01*
X171170000Y-111726666D01*
X171170000Y-111593333D01*
X171170000Y-111460000D01*
X171303333Y-111460000D01*
X171436666Y-111460000D01*
X171436666Y-111593333D01*
G37*
G36*
X171436666Y-112126666D02*
G01*
X171436666Y-112260000D01*
X171303333Y-112260000D01*
X171170000Y-112260000D01*
X171170000Y-112126666D01*
X171170000Y-111993333D01*
X171303333Y-111993333D01*
X171436666Y-111993333D01*
X171436666Y-112126666D01*
G37*
G36*
X171970000Y-108126666D02*
G01*
X171970000Y-108260000D01*
X171836666Y-108260000D01*
X171703333Y-108260000D01*
X171703333Y-108126666D01*
X171703333Y-107993333D01*
X171836666Y-107993333D01*
X171970000Y-107993333D01*
X171970000Y-108126666D01*
G37*
G36*
X171970000Y-109726666D02*
G01*
X171970000Y-109860000D01*
X171836666Y-109860000D01*
X171703333Y-109860000D01*
X171703333Y-109726666D01*
X171703333Y-109593333D01*
X171836666Y-109593333D01*
X171970000Y-109593333D01*
X171970000Y-109726666D01*
G37*
G36*
X171970000Y-110793333D02*
G01*
X171970000Y-110926666D01*
X171836666Y-110926666D01*
X171703333Y-110926666D01*
X171703333Y-110793333D01*
X171703333Y-110660000D01*
X171836666Y-110660000D01*
X171970000Y-110660000D01*
X171970000Y-110793333D01*
G37*
G36*
X173036666Y-112393333D02*
G01*
X173036666Y-112526666D01*
X172903333Y-112526666D01*
X172770000Y-112526666D01*
X172770000Y-112393333D01*
X172770000Y-112260000D01*
X172903333Y-112260000D01*
X173036666Y-112260000D01*
X173036666Y-112393333D01*
G37*
G36*
X174103333Y-107326666D02*
G01*
X174103333Y-107726666D01*
X173703333Y-107726666D01*
X173303333Y-107726666D01*
X173303333Y-107326666D01*
X173303333Y-106926666D01*
X173703333Y-106926666D01*
X174103333Y-106926666D01*
X174103333Y-107326666D01*
G37*
G36*
X174636666Y-109460000D02*
G01*
X174636666Y-109593333D01*
X174503333Y-109593333D01*
X174370000Y-109593333D01*
X174370000Y-109460000D01*
X174370000Y-109326666D01*
X174503333Y-109326666D01*
X174636666Y-109326666D01*
X174636666Y-109460000D01*
G37*
G36*
X174636666Y-113726666D02*
G01*
X174636666Y-113860000D01*
X174503333Y-113860000D01*
X174370000Y-113860000D01*
X174370000Y-113726666D01*
X174370000Y-113593333D01*
X174503333Y-113593333D01*
X174636666Y-113593333D01*
X174636666Y-113726666D01*
G37*
G36*
X167170000Y-109726666D02*
G01*
X167170000Y-109860000D01*
X167303333Y-109860000D01*
X167436666Y-109860000D01*
X167436666Y-110126666D01*
X167436666Y-110393333D01*
X167303333Y-110393333D01*
X167170000Y-110393333D01*
X167170000Y-110260000D01*
X167170000Y-110126666D01*
X167036666Y-110126666D01*
X166903333Y-110126666D01*
X166903333Y-109860000D01*
X166903333Y-109593333D01*
X167036666Y-109593333D01*
X167170000Y-109593333D01*
X167170000Y-109726666D01*
G37*
G36*
X168770000Y-107326666D02*
G01*
X168770000Y-108260000D01*
X167836666Y-108260000D01*
X166903333Y-108260000D01*
X166903333Y-107326666D01*
X166903333Y-106660000D01*
X167170000Y-106660000D01*
X167170000Y-107326666D01*
X167170000Y-107993333D01*
X167836666Y-107993333D01*
X168503333Y-107993333D01*
X168503333Y-107326666D01*
X168503333Y-106660000D01*
X167836666Y-106660000D01*
X167170000Y-106660000D01*
X166903333Y-106660000D01*
X166903333Y-106393333D01*
X167836666Y-106393333D01*
X168770000Y-106393333D01*
X168770000Y-107326666D01*
G37*
G36*
X168770000Y-113193333D02*
G01*
X168770000Y-114126666D01*
X167836666Y-114126666D01*
X166903333Y-114126666D01*
X166903333Y-113193333D01*
X166903333Y-112526666D01*
X167170000Y-112526666D01*
X167170000Y-113193333D01*
X167170000Y-113860000D01*
X167836666Y-113860000D01*
X168503333Y-113860000D01*
X168503333Y-113193333D01*
X168503333Y-112526666D01*
X167836666Y-112526666D01*
X167170000Y-112526666D01*
X166903333Y-112526666D01*
X166903333Y-112260000D01*
X167836666Y-112260000D01*
X168770000Y-112260000D01*
X168770000Y-113193333D01*
G37*
G36*
X174636666Y-107326666D02*
G01*
X174636666Y-108260000D01*
X173703333Y-108260000D01*
X172770000Y-108260000D01*
X172770000Y-107326666D01*
X172770000Y-106660000D01*
X173036666Y-106660000D01*
X173036666Y-107326666D01*
X173036666Y-107993333D01*
X173703333Y-107993333D01*
X174370000Y-107993333D01*
X174370000Y-107326666D01*
X174370000Y-106660000D01*
X173703333Y-106660000D01*
X173036666Y-106660000D01*
X172770000Y-106660000D01*
X172770000Y-106393333D01*
X173703333Y-106393333D01*
X174636666Y-106393333D01*
X174636666Y-107326666D01*
G37*
G36*
X174370000Y-113460000D02*
G01*
X174370000Y-113593333D01*
X174236666Y-113593333D01*
X174103333Y-113593333D01*
X174103333Y-113860000D01*
X174103333Y-114126666D01*
X173703333Y-114126666D01*
X173303333Y-114126666D01*
X173303333Y-113993333D01*
X173303333Y-113860000D01*
X173436666Y-113860000D01*
X173570000Y-113860000D01*
X173570000Y-113726666D01*
X173570000Y-113593333D01*
X173703333Y-113593333D01*
X173836666Y-113593333D01*
X173836666Y-113460000D01*
X173836666Y-113326666D01*
X174103333Y-113326666D01*
X174370000Y-113326666D01*
X174370000Y-113460000D01*
G37*
G36*
X171970000Y-107593333D02*
G01*
X171970000Y-107726666D01*
X171836666Y-107726666D01*
X171703333Y-107726666D01*
X171703333Y-107860000D01*
X171703333Y-107993333D01*
X171570000Y-107993333D01*
X171436666Y-107993333D01*
X171436666Y-108526666D01*
X171436666Y-109060000D01*
X171303333Y-109060000D01*
X171170000Y-109060000D01*
X171170000Y-108926666D01*
X171170000Y-108793333D01*
X170903333Y-108793333D01*
X170636666Y-108793333D01*
X170636666Y-108660000D01*
X170636666Y-108526666D01*
X170503333Y-108526666D01*
X170370000Y-108526666D01*
X170370000Y-108393333D01*
X170370000Y-108260000D01*
X170503333Y-108260000D01*
X170636666Y-108260000D01*
X170636666Y-108393333D01*
X170636666Y-108526666D01*
X170903333Y-108526666D01*
X171170000Y-108526666D01*
X171170000Y-108260000D01*
X171170000Y-107993333D01*
X171303333Y-107993333D01*
X171436666Y-107993333D01*
X171436666Y-107860000D01*
X171436666Y-107726666D01*
X171570000Y-107726666D01*
X171703333Y-107726666D01*
X171703333Y-107593333D01*
X171703333Y-107460000D01*
X171836666Y-107460000D01*
X171970000Y-107460000D01*
X171970000Y-107593333D01*
G37*
G36*
X172503333Y-108260000D02*
G01*
X172503333Y-108526666D01*
X172636666Y-108526666D01*
X172770000Y-108526666D01*
X172770000Y-108793333D01*
X172770000Y-109060000D01*
X172503333Y-109060000D01*
X172236666Y-109060000D01*
X172236666Y-109326666D01*
X172236666Y-109593333D01*
X172370000Y-109593333D01*
X172503333Y-109593333D01*
X172503333Y-109460000D01*
X172503333Y-109326666D01*
X172770000Y-109326666D01*
X173036666Y-109326666D01*
X173036666Y-109060000D01*
X173303333Y-109060000D01*
X173303333Y-109193333D01*
X173303333Y-109326666D01*
X173436666Y-109326666D01*
X173570000Y-109326666D01*
X173570000Y-109193333D01*
X173570000Y-109060000D01*
X173436666Y-109060000D01*
X173303333Y-109060000D01*
X173036666Y-109060000D01*
X173036666Y-108926666D01*
X173036666Y-108526666D01*
X173170000Y-108526666D01*
X173303333Y-108526666D01*
X173303333Y-108660000D01*
X173303333Y-108793333D01*
X173436666Y-108793333D01*
X173570000Y-108793333D01*
X173570000Y-108660000D01*
X173570000Y-108526666D01*
X173703333Y-108526666D01*
X173836666Y-108526666D01*
X173836666Y-108793333D01*
X173836666Y-109060000D01*
X173970000Y-109060000D01*
X174103333Y-109060000D01*
X174103333Y-108793333D01*
X174103333Y-108526666D01*
X174236666Y-108526666D01*
X174370000Y-108526666D01*
X174370000Y-108793333D01*
X174370000Y-109060000D01*
X174236666Y-109060000D01*
X174103333Y-109060000D01*
X174103333Y-109193333D01*
X174103333Y-109326666D01*
X173970000Y-109326666D01*
X173836666Y-109326666D01*
X173836666Y-109460000D01*
X173836666Y-109593333D01*
X173703333Y-109593333D01*
X173570000Y-109593333D01*
X173570000Y-109726666D01*
X173570000Y-109860000D01*
X173170000Y-109860000D01*
X172770000Y-109860000D01*
X172770000Y-109993333D01*
X172770000Y-110126666D01*
X172503333Y-110126666D01*
X172236666Y-110126666D01*
X172236666Y-109860000D01*
X172236666Y-109593333D01*
X172103333Y-109593333D01*
X171970000Y-109593333D01*
X171970000Y-109326666D01*
X171970000Y-109060000D01*
X171836666Y-109060000D01*
X171703333Y-109060000D01*
X171703333Y-108926666D01*
X171703333Y-108793333D01*
X171970000Y-108793333D01*
X172236666Y-108793333D01*
X172236666Y-108660000D01*
X172236666Y-108526666D01*
X172103333Y-108526666D01*
X171970000Y-108526666D01*
X171970000Y-108393333D01*
X171970000Y-108260000D01*
X172103333Y-108260000D01*
X172236666Y-108260000D01*
X172236666Y-108126666D01*
X172236666Y-107993333D01*
X172370000Y-107993333D01*
X172503333Y-107993333D01*
X172503333Y-108260000D01*
G37*
G36*
X170370000Y-108926666D02*
G01*
X170370000Y-109060000D01*
X170636666Y-109060000D01*
X170903333Y-109060000D01*
X170903333Y-109326666D01*
X170903333Y-109593333D01*
X171036666Y-109593333D01*
X171170000Y-109593333D01*
X171170000Y-109460000D01*
X171170000Y-109326666D01*
X171303333Y-109326666D01*
X171436666Y-109326666D01*
X171436666Y-109193333D01*
X171436666Y-109060000D01*
X171570000Y-109060000D01*
X171703333Y-109060000D01*
X171703333Y-109326666D01*
X171703333Y-109593333D01*
X171436666Y-109593333D01*
X171170000Y-109593333D01*
X171170000Y-109726666D01*
X171170000Y-109860000D01*
X171303333Y-109860000D01*
X171436666Y-109860000D01*
X171436666Y-109993333D01*
X171436666Y-110126666D01*
X171170000Y-110126666D01*
X170903333Y-110126666D01*
X170903333Y-110260000D01*
X170903333Y-110393333D01*
X170770000Y-110393333D01*
X170636666Y-110393333D01*
X170636666Y-110526666D01*
X170636666Y-110660000D01*
X170903333Y-110660000D01*
X171170000Y-110660000D01*
X171170000Y-110526666D01*
X171170000Y-110393333D01*
X171303333Y-110393333D01*
X171436666Y-110393333D01*
X171436666Y-110660000D01*
X171436666Y-110926666D01*
X171303333Y-110926666D01*
X171170000Y-110926666D01*
X171170000Y-111193333D01*
X171170000Y-111460000D01*
X170636666Y-111460000D01*
X170103333Y-111460000D01*
X170103333Y-111593333D01*
X170103333Y-111726666D01*
X169970000Y-111726666D01*
X169836666Y-111726666D01*
X169836666Y-111460000D01*
X169836666Y-111193333D01*
X170236666Y-111193333D01*
X170636666Y-111193333D01*
X170636666Y-110926666D01*
X170636666Y-110660000D01*
X170503333Y-110660000D01*
X170370000Y-110660000D01*
X170370000Y-110793333D01*
X170370000Y-110926666D01*
X170236666Y-110926666D01*
X170103333Y-110926666D01*
X170103333Y-110793333D01*
X170103333Y-110660000D01*
X169970000Y-110660000D01*
X169836666Y-110660000D01*
X169836666Y-110260000D01*
X169836666Y-109860000D01*
X169970000Y-109860000D01*
X170103333Y-109860000D01*
X170103333Y-109993333D01*
X170103333Y-110126666D01*
X170236666Y-110126666D01*
X170370000Y-110126666D01*
X170370000Y-110260000D01*
X170370000Y-110393333D01*
X170236666Y-110393333D01*
X170103333Y-110393333D01*
X170103333Y-110526666D01*
X170103333Y-110660000D01*
X170236666Y-110660000D01*
X170370000Y-110660000D01*
X170370000Y-110526666D01*
X170370000Y-110393333D01*
X170503333Y-110393333D01*
X170636666Y-110393333D01*
X170636666Y-110260000D01*
X170636666Y-110126666D01*
X170770000Y-110126666D01*
X170903333Y-110126666D01*
X170903333Y-109993333D01*
X170903333Y-109860000D01*
X170770000Y-109860000D01*
X170636666Y-109860000D01*
X170636666Y-109593333D01*
X170636666Y-109326666D01*
X170370000Y-109326666D01*
X170103333Y-109326666D01*
X170103333Y-109460000D01*
X170103333Y-109593333D01*
X169970000Y-109593333D01*
X169836666Y-109593333D01*
X169836666Y-109726666D01*
X169836666Y-109860000D01*
X169703333Y-109860000D01*
X169570000Y-109860000D01*
X169570000Y-110260000D01*
X169570000Y-110660000D01*
X169436666Y-110660000D01*
X169303333Y-110660000D01*
X169303333Y-110126666D01*
X169303333Y-109593333D01*
X169570000Y-109593333D01*
X169836666Y-109593333D01*
X169836666Y-109460000D01*
X169836666Y-109326666D01*
X169703333Y-109326666D01*
X169570000Y-109326666D01*
X169570000Y-109060000D01*
X169836666Y-109060000D01*
X169836666Y-109193333D01*
X169836666Y-109326666D01*
X169970000Y-109326666D01*
X170103333Y-109326666D01*
X170103333Y-109193333D01*
X170103333Y-109060000D01*
X169970000Y-109060000D01*
X169836666Y-109060000D01*
X169570000Y-109060000D01*
X169570000Y-108793333D01*
X169970000Y-108793333D01*
X170370000Y-108793333D01*
X170370000Y-108926666D01*
G37*
G36*
X170370000Y-106526666D02*
G01*
X170370000Y-106660000D01*
X170770000Y-106660000D01*
X171170000Y-106660000D01*
X171170000Y-106526666D01*
X171170000Y-106393333D01*
X171303333Y-106393333D01*
X171436666Y-106393333D01*
X171436666Y-106526666D01*
X171436666Y-106660000D01*
X171570000Y-106660000D01*
X171703333Y-106660000D01*
X171703333Y-106793333D01*
X171703333Y-106926666D01*
X171836666Y-106926666D01*
X171970000Y-106926666D01*
X171970000Y-106660000D01*
X171970000Y-106393333D01*
X172236666Y-106393333D01*
X172503333Y-106393333D01*
X172503333Y-106526666D01*
X172503333Y-106660000D01*
X172370000Y-106660000D01*
X172236666Y-106660000D01*
X172236666Y-106793333D01*
X172236666Y-106926666D01*
X172370000Y-106926666D01*
X172503333Y-106926666D01*
X172503333Y-107326666D01*
X172503333Y-107726666D01*
X172370000Y-107726666D01*
X172236666Y-107726666D01*
X172236666Y-107860000D01*
X172236666Y-107993333D01*
X172103333Y-107993333D01*
X171970000Y-107993333D01*
X171970000Y-107860000D01*
X171970000Y-107726666D01*
X172103333Y-107726666D01*
X172236666Y-107726666D01*
X172236666Y-107460000D01*
X172236666Y-107193333D01*
X171970000Y-107193333D01*
X171703333Y-107193333D01*
X171703333Y-107326666D01*
X171703333Y-107460000D01*
X171570000Y-107460000D01*
X171436666Y-107460000D01*
X171436666Y-107593333D01*
X171436666Y-107726666D01*
X171303333Y-107726666D01*
X171170000Y-107726666D01*
X171170000Y-107593333D01*
X171170000Y-107460000D01*
X171036666Y-107460000D01*
X170903333Y-107460000D01*
X170903333Y-107593333D01*
X170903333Y-107726666D01*
X171036666Y-107726666D01*
X171170000Y-107726666D01*
X171170000Y-107860000D01*
X171170000Y-107993333D01*
X171036666Y-107993333D01*
X170903333Y-107993333D01*
X170903333Y-108126666D01*
X170903333Y-108260000D01*
X170770000Y-108260000D01*
X170636666Y-108260000D01*
X170636666Y-108126666D01*
X170636666Y-107993333D01*
X170503333Y-107993333D01*
X170370000Y-107993333D01*
X170370000Y-108126666D01*
X170370000Y-108260000D01*
X170236666Y-108260000D01*
X170103333Y-108260000D01*
X170103333Y-108126666D01*
X170103333Y-107993333D01*
X169970000Y-107993333D01*
X169836666Y-107993333D01*
X169836666Y-108126666D01*
X169836666Y-108260000D01*
X169970000Y-108260000D01*
X170103333Y-108260000D01*
X170103333Y-108393333D01*
X170103333Y-108526666D01*
X169836666Y-108526666D01*
X169570000Y-108526666D01*
X169570000Y-108660000D01*
X169570000Y-108793333D01*
X169436666Y-108793333D01*
X169303333Y-108793333D01*
X169303333Y-109060000D01*
X169303333Y-109326666D01*
X169170000Y-109326666D01*
X169036666Y-109326666D01*
X169036666Y-109193333D01*
X169036666Y-109060000D01*
X168903333Y-109060000D01*
X168770000Y-109060000D01*
X168770000Y-109193333D01*
X168770000Y-109326666D01*
X168370000Y-109326666D01*
X167970000Y-109326666D01*
X167970000Y-109593333D01*
X167970000Y-109860000D01*
X167836666Y-109860000D01*
X167703333Y-109860000D01*
X167703333Y-109593333D01*
X167703333Y-109326666D01*
X167836666Y-109326666D01*
X167970000Y-109326666D01*
X167970000Y-109060000D01*
X167970000Y-108793333D01*
X167836666Y-108793333D01*
X167703333Y-108793333D01*
X167703333Y-108926666D01*
X167703333Y-109060000D01*
X167303333Y-109060000D01*
X166903333Y-109060000D01*
X166903333Y-108793333D01*
X166903333Y-108526666D01*
X167570000Y-108526666D01*
X168236666Y-108526666D01*
X168236666Y-108660000D01*
X168236666Y-108793333D01*
X168370000Y-108793333D01*
X168503333Y-108793333D01*
X168503333Y-108926666D01*
X168503333Y-109060000D01*
X168636666Y-109060000D01*
X168770000Y-109060000D01*
X168770000Y-108926666D01*
X168770000Y-108793333D01*
X168636666Y-108793333D01*
X168503333Y-108793333D01*
X168503333Y-108660000D01*
X168503333Y-108526666D01*
X168903333Y-108526666D01*
X169303333Y-108526666D01*
X169303333Y-108393333D01*
X169303333Y-108260000D01*
X169436666Y-108260000D01*
X169570000Y-108260000D01*
X169570000Y-108126666D01*
X169570000Y-107993333D01*
X169703333Y-107993333D01*
X169836666Y-107993333D01*
X169836666Y-107726666D01*
X169836666Y-107460000D01*
X170103333Y-107460000D01*
X170370000Y-107460000D01*
X170370000Y-107593333D01*
X170370000Y-107726666D01*
X170503333Y-107726666D01*
X170636666Y-107726666D01*
X170636666Y-107593333D01*
X170636666Y-107460000D01*
X170503333Y-107460000D01*
X170370000Y-107460000D01*
X170370000Y-107326666D01*
X170370000Y-107193333D01*
X170236666Y-107193333D01*
X170103333Y-107193333D01*
X170103333Y-106926666D01*
X170636666Y-106926666D01*
X170636666Y-107060000D01*
X170636666Y-107193333D01*
X170770000Y-107193333D01*
X170903333Y-107193333D01*
X170903333Y-107060000D01*
X170903333Y-106926666D01*
X170770000Y-106926666D01*
X170636666Y-106926666D01*
X170103333Y-106926666D01*
X170103333Y-106793333D01*
X170103333Y-106393333D01*
X170236666Y-106393333D01*
X170370000Y-106393333D01*
X170370000Y-106526666D01*
G37*
G36*
X169836666Y-107326666D02*
G01*
X169836666Y-107460000D01*
X169703333Y-107460000D01*
X169570000Y-107460000D01*
X169570000Y-107726666D01*
X169570000Y-107993333D01*
X169436666Y-107993333D01*
X169303333Y-107993333D01*
X169303333Y-108126666D01*
X169303333Y-108260000D01*
X169170000Y-108260000D01*
X169036666Y-108260000D01*
X169036666Y-107993333D01*
X169036666Y-107726666D01*
X169170000Y-107726666D01*
X169303333Y-107726666D01*
X169303333Y-107593333D01*
X169303333Y-107460000D01*
X169170000Y-107460000D01*
X169036666Y-107460000D01*
X169036666Y-107326666D01*
X169036666Y-107193333D01*
X169436666Y-107193333D01*
X169836666Y-107193333D01*
X169836666Y-107326666D01*
G37*
G36*
X173836666Y-109993333D02*
G01*
X173836666Y-110126666D01*
X173970000Y-110126666D01*
X174103333Y-110126666D01*
X174103333Y-109993333D01*
X174103333Y-109860000D01*
X174236666Y-109860000D01*
X174370000Y-109860000D01*
X174370000Y-109993333D01*
X174370000Y-110126666D01*
X174503333Y-110126666D01*
X174636666Y-110126666D01*
X174636666Y-110393333D01*
X174636666Y-110660000D01*
X174370000Y-110660000D01*
X174103333Y-110660000D01*
X174103333Y-110526666D01*
X174103333Y-110393333D01*
X173836666Y-110393333D01*
X173570000Y-110393333D01*
X173570000Y-110526666D01*
X173570000Y-110660000D01*
X173436666Y-110660000D01*
X173303333Y-110660000D01*
X173303333Y-110793333D01*
X173303333Y-110926666D01*
X173570000Y-110926666D01*
X173836666Y-110926666D01*
X173836666Y-111060000D01*
X173836666Y-111193333D01*
X173970000Y-111193333D01*
X174103333Y-111193333D01*
X174103333Y-111060000D01*
X174103333Y-110926666D01*
X174236666Y-110926666D01*
X174370000Y-110926666D01*
X174370000Y-111193333D01*
X174370000Y-111460000D01*
X173970000Y-111460000D01*
X173570000Y-111460000D01*
X173570000Y-111593333D01*
X173570000Y-111726666D01*
X173970000Y-111726666D01*
X174370000Y-111726666D01*
X174370000Y-111593333D01*
X174370000Y-111460000D01*
X174503333Y-111460000D01*
X174636666Y-111460000D01*
X174636666Y-111593333D01*
X174636666Y-111726666D01*
X174503333Y-111726666D01*
X174370000Y-111726666D01*
X174370000Y-111993333D01*
X174370000Y-112260000D01*
X174236666Y-112260000D01*
X174103333Y-112260000D01*
X174103333Y-112393333D01*
X174103333Y-112526666D01*
X174370000Y-112526666D01*
X174636666Y-112526666D01*
X174636666Y-112793333D01*
X174636666Y-113060000D01*
X174236666Y-113060000D01*
X173836666Y-113060000D01*
X173836666Y-112793333D01*
X173836666Y-112526666D01*
X173703333Y-112526666D01*
X173570000Y-112526666D01*
X173570000Y-112793333D01*
X173570000Y-113060000D01*
X173436666Y-113060000D01*
X173303333Y-113060000D01*
X173303333Y-113326666D01*
X173303333Y-113593333D01*
X173036666Y-113593333D01*
X172770000Y-113593333D01*
X172770000Y-113726666D01*
X172770000Y-113860000D01*
X172903333Y-113860000D01*
X173036666Y-113860000D01*
X173036666Y-113993333D01*
X173036666Y-114126666D01*
X172503333Y-114126666D01*
X171970000Y-114126666D01*
X171970000Y-113993333D01*
X171970000Y-113860000D01*
X172103333Y-113860000D01*
X172236666Y-113860000D01*
X172236666Y-113726666D01*
X172236666Y-113593333D01*
X172370000Y-113593333D01*
X172503333Y-113593333D01*
X172503333Y-113460000D01*
X172503333Y-113326666D01*
X172370000Y-113326666D01*
X172236666Y-113326666D01*
X172236666Y-113460000D01*
X172236666Y-113593333D01*
X172103333Y-113593333D01*
X171970000Y-113593333D01*
X171970000Y-113726666D01*
X171970000Y-113860000D01*
X171836666Y-113860000D01*
X171703333Y-113860000D01*
X171703333Y-113993333D01*
X171703333Y-114126666D01*
X171170000Y-114126666D01*
X170636666Y-114126666D01*
X170636666Y-113993333D01*
X170636666Y-113860000D01*
X170770000Y-113860000D01*
X170903333Y-113860000D01*
X170903333Y-113726666D01*
X170903333Y-113593333D01*
X171170000Y-113593333D01*
X171303333Y-113593333D01*
X171436666Y-113593333D01*
X171436666Y-113460000D01*
X171436666Y-113326666D01*
X171570000Y-113326666D01*
X171703333Y-113326666D01*
X171703333Y-113193333D01*
X171703333Y-113060000D01*
X171836666Y-113060000D01*
X171970000Y-113060000D01*
X171970000Y-113193333D01*
X171970000Y-113326666D01*
X172103333Y-113326666D01*
X172236666Y-113326666D01*
X172236666Y-113060000D01*
X172770000Y-113060000D01*
X172770000Y-113193333D01*
X172770000Y-113326666D01*
X172903333Y-113326666D01*
X173036666Y-113326666D01*
X173036666Y-113193333D01*
X173036666Y-113060000D01*
X172903333Y-113060000D01*
X172770000Y-113060000D01*
X172236666Y-113060000D01*
X172236666Y-112926666D01*
X172236666Y-112526666D01*
X171836666Y-112526666D01*
X171436666Y-112526666D01*
X171436666Y-112793333D01*
X171436666Y-113060000D01*
X171303333Y-113060000D01*
X171170000Y-113060000D01*
X171170000Y-113326666D01*
X171170000Y-113593333D01*
X170903333Y-113593333D01*
X170636666Y-113593333D01*
X170370000Y-113593333D01*
X170370000Y-113460000D01*
X170370000Y-113326666D01*
X169970000Y-113326666D01*
X169570000Y-113326666D01*
X169570000Y-113726666D01*
X169570000Y-114126666D01*
X169303333Y-114126666D01*
X169036666Y-114126666D01*
X169036666Y-113460000D01*
X169036666Y-113326666D01*
X169303333Y-113326666D01*
X169436666Y-113326666D01*
X169570000Y-113326666D01*
X169570000Y-113193333D01*
X169570000Y-113060000D01*
X169836666Y-113060000D01*
X170103333Y-113060000D01*
X170103333Y-112926666D01*
X170103333Y-112793333D01*
X170236666Y-112793333D01*
X170370000Y-112793333D01*
X170370000Y-113060000D01*
X170370000Y-113326666D01*
X170636666Y-113326666D01*
X170903333Y-113326666D01*
X170903333Y-113193333D01*
X170903333Y-113060000D01*
X170770000Y-113060000D01*
X170636666Y-113060000D01*
X170636666Y-112793333D01*
X170636666Y-112526666D01*
X170370000Y-112526666D01*
X170103333Y-112526666D01*
X170103333Y-112393333D01*
X170103333Y-112260000D01*
X169970000Y-112260000D01*
X169836666Y-112260000D01*
X169836666Y-112393333D01*
X169836666Y-112526666D01*
X169703333Y-112526666D01*
X169570000Y-112526666D01*
X169570000Y-112660000D01*
X169570000Y-112793333D01*
X169436666Y-112793333D01*
X169303333Y-112793333D01*
X169303333Y-113060000D01*
X169303333Y-113326666D01*
X169036666Y-113326666D01*
X169036666Y-112793333D01*
X169170000Y-112793333D01*
X169303333Y-112793333D01*
X169303333Y-112660000D01*
X169303333Y-112526666D01*
X169170000Y-112526666D01*
X169036666Y-112526666D01*
X169036666Y-112260000D01*
X169036666Y-111993333D01*
X168236666Y-111993333D01*
X167436666Y-111993333D01*
X167436666Y-111860000D01*
X167436666Y-111726666D01*
X168236666Y-111726666D01*
X169036666Y-111726666D01*
X169036666Y-111460000D01*
X169036666Y-111193333D01*
X168903333Y-111193333D01*
X168770000Y-111193333D01*
X168770000Y-111326666D01*
X168770000Y-111460000D01*
X168103333Y-111460000D01*
X167436666Y-111460000D01*
X167436666Y-111326666D01*
X167436666Y-111193333D01*
X167570000Y-111193333D01*
X167703333Y-111193333D01*
X167703333Y-111060000D01*
X167703333Y-110926666D01*
X167436666Y-110926666D01*
X167170000Y-110926666D01*
X167170000Y-111460000D01*
X167170000Y-111993333D01*
X167036666Y-111993333D01*
X166903333Y-111993333D01*
X166903333Y-111326666D01*
X166903333Y-110660000D01*
X167170000Y-110660000D01*
X167436666Y-110660000D01*
X167436666Y-110526666D01*
X167436666Y-110393333D01*
X167570000Y-110393333D01*
X167703333Y-110393333D01*
X167703333Y-110526666D01*
X167703333Y-110660000D01*
X167970000Y-110660000D01*
X168236666Y-110660000D01*
X168236666Y-110393333D01*
X168236666Y-110126666D01*
X168636666Y-110126666D01*
X169036666Y-110126666D01*
X169036666Y-110393333D01*
X169036666Y-110660000D01*
X168903333Y-110660000D01*
X168770000Y-110660000D01*
X168770000Y-110526666D01*
X168770000Y-110393333D01*
X168636666Y-110393333D01*
X168503333Y-110393333D01*
X168503333Y-110526666D01*
X168503333Y-110660000D01*
X168370000Y-110660000D01*
X168236666Y-110660000D01*
X168236666Y-110926666D01*
X168236666Y-111193333D01*
X168503333Y-111193333D01*
X168770000Y-111193333D01*
X168770000Y-111060000D01*
X168770000Y-110926666D01*
X168903333Y-110926666D01*
X169036666Y-110926666D01*
X169036666Y-110793333D01*
X169036666Y-110660000D01*
X169170000Y-110660000D01*
X169303333Y-110660000D01*
X169303333Y-110793333D01*
X169303333Y-110926666D01*
X169436666Y-110926666D01*
X169570000Y-110926666D01*
X169570000Y-110793333D01*
X169570000Y-110660000D01*
X169703333Y-110660000D01*
X169836666Y-110660000D01*
X169836666Y-110926666D01*
X169836666Y-111193333D01*
X169570000Y-111193333D01*
X169303333Y-111193333D01*
X169303333Y-111326666D01*
X169303333Y-111460000D01*
X169436666Y-111460000D01*
X169570000Y-111460000D01*
X169570000Y-111593333D01*
X169570000Y-111726666D01*
X169436666Y-111726666D01*
X169303333Y-111726666D01*
X169303333Y-111993333D01*
X169303333Y-112260000D01*
X169570000Y-112260000D01*
X169836666Y-112260000D01*
X169836666Y-112126666D01*
X169836666Y-111993333D01*
X170103333Y-111993333D01*
X170370000Y-111993333D01*
X170370000Y-112126666D01*
X170370000Y-112260000D01*
X170503333Y-112260000D01*
X170636666Y-112260000D01*
X170636666Y-111993333D01*
X170636666Y-111726666D01*
X170903333Y-111726666D01*
X171170000Y-111726666D01*
X171170000Y-111860000D01*
X171170000Y-111993333D01*
X171036666Y-111993333D01*
X170903333Y-111993333D01*
X170903333Y-112393333D01*
X170903333Y-112793333D01*
X171036666Y-112793333D01*
X171170000Y-112793333D01*
X171170000Y-112660000D01*
X171170000Y-112526666D01*
X171303333Y-112526666D01*
X171436666Y-112526666D01*
X171436666Y-112393333D01*
X171436666Y-112260000D01*
X171570000Y-112260000D01*
X171703333Y-112260000D01*
X171703333Y-112126666D01*
X171703333Y-111993333D01*
X171570000Y-111993333D01*
X171436666Y-111993333D01*
X171436666Y-111860000D01*
X171436666Y-111726666D01*
X171703333Y-111726666D01*
X171970000Y-111726666D01*
X171970000Y-111860000D01*
X171970000Y-111993333D01*
X172103333Y-111993333D01*
X172236666Y-111993333D01*
X172503333Y-111993333D01*
X172503333Y-112393333D01*
X172503333Y-112793333D01*
X172903333Y-112793333D01*
X173303333Y-112793333D01*
X173303333Y-112393333D01*
X173303333Y-111993333D01*
X173570000Y-111993333D01*
X173570000Y-112126666D01*
X173570000Y-112260000D01*
X173836666Y-112260000D01*
X174103333Y-112260000D01*
X174103333Y-112126666D01*
X174103333Y-111993333D01*
X173836666Y-111993333D01*
X173570000Y-111993333D01*
X173303333Y-111993333D01*
X172903333Y-111993333D01*
X172503333Y-111993333D01*
X172236666Y-111993333D01*
X172236666Y-111860000D01*
X172236666Y-111726666D01*
X172103333Y-111726666D01*
X171970000Y-111726666D01*
X171970000Y-111593333D01*
X171970000Y-111460000D01*
X171703333Y-111460000D01*
X171436666Y-111460000D01*
X171436666Y-111326666D01*
X171436666Y-111193333D01*
X171703333Y-111193333D01*
X171970000Y-111193333D01*
X171970000Y-111060000D01*
X171970000Y-110926666D01*
X172103333Y-110926666D01*
X172236666Y-110926666D01*
X172236666Y-110793333D01*
X172236666Y-110660000D01*
X172103333Y-110660000D01*
X171970000Y-110660000D01*
X171970000Y-110526666D01*
X171970000Y-110393333D01*
X171703333Y-110393333D01*
X171436666Y-110393333D01*
X171436666Y-110260000D01*
X171436666Y-110126666D01*
X171836666Y-110126666D01*
X172236666Y-110126666D01*
X172236666Y-110260000D01*
X172236666Y-110393333D01*
X172370000Y-110393333D01*
X172503333Y-110393333D01*
X172503333Y-110793333D01*
X172503333Y-111193333D01*
X172370000Y-111193333D01*
X172236666Y-111193333D01*
X172236666Y-111326666D01*
X172236666Y-111460000D01*
X172903333Y-111460000D01*
X173570000Y-111460000D01*
X173570000Y-111326666D01*
X173570000Y-111193333D01*
X173303333Y-111193333D01*
X173036666Y-111193333D01*
X173036666Y-110926666D01*
X173036666Y-110660000D01*
X172903333Y-110660000D01*
X172770000Y-110660000D01*
X172770000Y-110526666D01*
X172770000Y-110393333D01*
X173170000Y-110393333D01*
X173570000Y-110393333D01*
X173570000Y-110126666D01*
X173570000Y-109860000D01*
X173703333Y-109860000D01*
X173836666Y-109860000D01*
X173836666Y-109993333D01*
G37*
X77920000Y-70950000D02*
X84920000Y-70950000D01*
X77920000Y-77150000D02*
X77920000Y-70950000D01*
X77920000Y-77950000D02*
X77920000Y-77150000D01*
X84920000Y-70950000D02*
X84920000Y-77150000D01*
X84920000Y-77150000D02*
X77920000Y-77150000D01*
X84920000Y-77150000D02*
X84920000Y-77950000D01*
X84920000Y-77950000D02*
X77920000Y-77950000D01*
X111955000Y-70950000D02*
X118955000Y-70950000D01*
X111955000Y-77150000D02*
X111955000Y-70950000D01*
X111955000Y-77950000D02*
X111955000Y-77150000D01*
X118955000Y-70950000D02*
X118955000Y-77150000D01*
X118955000Y-77150000D02*
X111955000Y-77150000D01*
X118955000Y-77150000D02*
X118955000Y-77950000D01*
X118955000Y-77950000D02*
X111955000Y-77950000D01*
X157335000Y-70850000D02*
X164335000Y-70850000D01*
X157335000Y-77050000D02*
X157335000Y-70850000D01*
X157335000Y-77850000D02*
X157335000Y-77050000D01*
X164335000Y-70850000D02*
X164335000Y-77050000D01*
X164335000Y-77050000D02*
X157335000Y-77050000D01*
X164335000Y-77050000D02*
X164335000Y-77850000D01*
X164335000Y-77850000D02*
X157335000Y-77850000D01*
X123300000Y-70950000D02*
X130300000Y-70950000D01*
X123300000Y-77150000D02*
X123300000Y-70950000D01*
X123300000Y-77950000D02*
X123300000Y-77150000D01*
X130300000Y-70950000D02*
X130300000Y-77150000D01*
X130300000Y-77150000D02*
X123300000Y-77150000D01*
X130300000Y-77150000D02*
X130300000Y-77950000D01*
X130300000Y-77950000D02*
X123300000Y-77950000D01*
D13*
X96420000Y-123530000D02*
X98820000Y-123530000D01*
X96420000Y-125930000D02*
X96420000Y-123530000D01*
X98820000Y-123530000D02*
X98820000Y-125930000D01*
X98820000Y-125930000D02*
X96420000Y-125930000D01*
X134970000Y-124437500D02*
X134970000Y-126192500D01*
X134970000Y-128140000D02*
X134970000Y-129540000D01*
X144170000Y-124437500D02*
X144170000Y-126192500D01*
X144170000Y-128140000D02*
X144170000Y-129540000D01*
D14*
X89265000Y-70950000D02*
X96265000Y-70950000D01*
X89265000Y-77150000D02*
X89265000Y-70950000D01*
X89265000Y-77950000D02*
X89265000Y-77150000D01*
X96265000Y-70950000D02*
X96265000Y-77150000D01*
X96265000Y-77150000D02*
X89265000Y-77150000D01*
X96265000Y-77150000D02*
X96265000Y-77950000D01*
X96265000Y-77950000D02*
X89265000Y-77950000D01*
X156250000Y-118570000D02*
X166750000Y-118570000D01*
X156250000Y-124770000D02*
X156250000Y-118570000D01*
X156250000Y-125570000D02*
X156250000Y-124770000D01*
X166750000Y-118570000D02*
X166750000Y-124770000D01*
X166750000Y-124770000D02*
X156250000Y-124770000D01*
X166750000Y-124770000D02*
X166750000Y-125570000D01*
X166750000Y-125570000D02*
X156250000Y-125570000D01*
X134645000Y-71050000D02*
X141645000Y-71050000D01*
X134645000Y-77250000D02*
X134645000Y-71050000D01*
X134645000Y-78050000D02*
X134645000Y-77250000D01*
X141645000Y-71050000D02*
X141645000Y-77250000D01*
X141645000Y-77250000D02*
X134645000Y-77250000D01*
X141645000Y-77250000D02*
X141645000Y-78050000D01*
X141645000Y-78050000D02*
X134645000Y-78050000D01*
X168680000Y-70950000D02*
X175680000Y-70950000D01*
X168680000Y-77150000D02*
X168680000Y-70950000D01*
X168680000Y-77950000D02*
X168680000Y-77150000D01*
X175680000Y-70950000D02*
X175680000Y-77150000D01*
X175680000Y-77150000D02*
X168680000Y-77150000D01*
X175680000Y-77150000D02*
X175680000Y-77950000D01*
X175680000Y-77950000D02*
X168680000Y-77950000D01*
X100610000Y-70980000D02*
X107610000Y-70980000D01*
X100610000Y-77180000D02*
X100610000Y-70980000D01*
X100610000Y-77980000D02*
X100610000Y-77180000D01*
X107610000Y-70980000D02*
X107610000Y-77180000D01*
X107610000Y-77180000D02*
X100610000Y-77180000D01*
X107610000Y-77180000D02*
X107610000Y-77980000D01*
X107610000Y-77980000D02*
X100610000Y-77980000D01*
D13*
X141860000Y-102050000D02*
X144260000Y-102050000D01*
X141860000Y-104450000D02*
X141860000Y-102050000D01*
X144260000Y-102050000D02*
X144260000Y-104450000D01*
X144260000Y-104450000D02*
X141860000Y-104450000D01*
%LPC*%
D15*
X127560000Y-92180000D03*
X125020000Y-92180000D03*
X122480000Y-92180000D03*
X119940000Y-92180000D03*
X117400000Y-92180000D03*
X114860000Y-92180000D03*
X112320000Y-92180000D03*
X109780000Y-92180000D03*
X107240000Y-92180000D03*
X104700000Y-92180000D03*
X102160000Y-92180000D03*
X99620000Y-92180000D03*
X97080000Y-92180000D03*
X94540000Y-92180000D03*
X92000000Y-92180000D03*
X89460000Y-92180000D03*
X86920000Y-92180000D03*
X84380000Y-92180000D03*
X81840000Y-92180000D03*
X79300000Y-92180000D03*
X79300000Y-117580000D03*
X81840000Y-117580000D03*
X84380000Y-117580000D03*
X86920000Y-117580000D03*
X89460000Y-117580000D03*
X92000000Y-117580000D03*
X94540000Y-117580000D03*
X97080000Y-117580000D03*
X99620000Y-117580000D03*
X102160000Y-117580000D03*
X104700000Y-117580000D03*
X107240000Y-117580000D03*
X109780000Y-117580000D03*
X112320000Y-117580000D03*
X114860000Y-117580000D03*
X117400000Y-117580000D03*
X119940000Y-117580000D03*
X122480000Y-117580000D03*
X125020000Y-117580000D03*
X127560000Y-117580000D03*
D16*
X164720000Y-101860000D03*
D17*
X164720000Y-99320000D03*
X164720000Y-96780000D03*
X164720000Y-94240000D03*
X164720000Y-91700000D03*
X164720000Y-89160000D03*
X164720000Y-86620000D03*
X156780000Y-86620000D03*
X156780000Y-89160000D03*
X156780000Y-91700000D03*
X156780000Y-94240000D03*
X156780000Y-96780000D03*
X156780000Y-99320000D03*
X156780000Y-101860000D03*
D18*
X139030000Y-117590000D03*
D19*
X150670000Y-123390000D03*
D20*
X150670000Y-125930000D03*
D21*
X147740000Y-74350000D03*
D22*
X151240000Y-74350000D03*
D21*
X79670000Y-74350000D03*
D22*
X83170000Y-74350000D03*
D21*
X113705000Y-74350000D03*
D22*
X117205000Y-74350000D03*
D21*
X159085000Y-74250000D03*
D22*
X162585000Y-74250000D03*
D23*
X173000000Y-125850000D03*
D21*
X125050000Y-74350000D03*
D22*
X128550000Y-74350000D03*
D18*
X97620000Y-124730000D03*
D24*
X135330000Y-127350000D03*
X135345000Y-123562500D03*
X143795000Y-123562500D03*
X143810000Y-127350000D03*
D25*
X139070000Y-123507500D03*
D26*
X141090000Y-123507500D03*
D27*
X142320000Y-123507500D03*
D25*
X140070000Y-123507500D03*
D26*
X138050000Y-123507500D03*
D27*
X136820000Y-123507500D03*
D28*
X134982500Y-123562500D03*
D29*
X134987500Y-127142500D03*
D30*
X144147500Y-127142500D03*
D31*
X144152500Y-123562500D03*
D21*
X91015000Y-74350000D03*
D22*
X94515000Y-74350000D03*
D32*
X158000000Y-121970000D03*
D33*
X161500000Y-121970000D03*
X165000000Y-121970000D03*
D21*
X136395000Y-74450000D03*
D22*
X139895000Y-74450000D03*
D34*
X122660000Y-126270000D03*
X120120000Y-126270000D03*
X117580000Y-126270000D03*
X115040000Y-126270000D03*
D21*
X170430000Y-74350000D03*
D22*
X173930000Y-74350000D03*
D23*
X81000000Y-125850000D03*
D21*
X102360000Y-74380000D03*
D22*
X105860000Y-74380000D03*
D18*
X143060000Y-103250000D03*
%LPD*%
M02*
